<svg width="160" height="129" viewBox="0 0 160 129" fill="none" xmlns="http://www.w3.org/2000/svg">
<g clip-path="url(#clip0_3656_462433)">
<rect x="2.5" y="39.0002" width="155" height="40" rx="20" fill="#196584"/>
<path d="M33.7328 64.0002H28.1048V54.0042H33.7328V55.2922H29.6168V58.1482H33.4808V59.4222H29.6168V62.6982H33.7328V64.0002ZM37.5518 60.1502L34.9898 56.4542H36.6838L38.4758 59.1702L40.2678 56.4542H41.9478L39.3858 60.1502L42.0738 64.0002H40.3938L38.4758 61.1162L36.5438 64.0002H34.8638L37.5518 60.1502ZM46.2959 64.1402C45.6052 64.1402 44.9986 64.0049 44.4759 63.7342C43.9532 63.4636 43.5472 63.0436 43.2579 62.4742C42.9686 61.8956 42.8239 61.1629 42.8239 60.2762C42.8239 59.3429 42.9779 58.5869 43.2859 58.0082C43.6032 57.4296 44.0279 57.0049 44.5599 56.7342C45.1012 56.4542 45.7172 56.3142 46.4079 56.3142C46.8279 56.3142 47.2199 56.3609 47.5839 56.4542C47.9572 56.5382 48.2652 56.6362 48.5079 56.7482L48.0599 57.9522C47.7986 57.8496 47.5186 57.7609 47.2199 57.6862C46.9306 57.6116 46.6552 57.5742 46.3939 57.5742C45.9272 57.5742 45.5399 57.6769 45.2319 57.8822C44.9332 58.0782 44.7092 58.3769 44.5599 58.7782C44.4199 59.1702 44.3499 59.6649 44.3499 60.2622C44.3499 60.8316 44.4246 61.3122 44.5739 61.7042C44.7232 62.0962 44.9426 62.3949 45.2319 62.6002C45.5306 62.7962 45.8992 62.8942 46.3379 62.8942C46.7579 62.8942 47.1266 62.8476 47.4439 62.7542C47.7612 62.6609 48.0599 62.5396 48.3399 62.3902V63.6782C48.0692 63.8369 47.7752 63.9536 47.4579 64.0282C47.1406 64.1029 46.7532 64.1402 46.2959 64.1402ZM53.1892 56.3142C53.8518 56.3142 54.4212 56.4542 54.8972 56.7342C55.3732 57.0049 55.7372 57.3969 55.9892 57.9102C56.2505 58.4236 56.3812 59.0302 56.3812 59.7302V60.5422H51.3132C51.3318 61.3169 51.5325 61.9096 51.9152 62.3202C52.3072 62.7309 52.8532 62.9362 53.5532 62.9362C54.0385 62.9362 54.4678 62.8942 54.8412 62.8102C55.2238 62.7169 55.6158 62.5816 56.0172 62.4042V63.6362C55.6438 63.8042 55.2612 63.9302 54.8692 64.0142C54.4865 64.0982 54.0292 64.1402 53.4972 64.1402C52.7692 64.1402 52.1252 63.9956 51.5652 63.7062C51.0052 63.4169 50.5665 62.9876 50.2492 62.4182C49.9412 61.8396 49.7872 61.1302 49.7872 60.2902C49.7872 59.4409 49.9272 58.7222 50.2072 58.1342C50.4965 57.5462 50.8932 57.0982 51.3972 56.7902C51.9105 56.4729 52.5078 56.3142 53.1892 56.3142ZM53.1892 57.4622C52.6572 57.4622 52.2278 57.6349 51.9012 57.9802C51.5838 58.3256 51.3972 58.8156 51.3412 59.4502H54.8972C54.8972 59.0582 54.8365 58.7129 54.7152 58.4142C54.5938 58.1156 54.4072 57.8822 54.1552 57.7142C53.9032 57.5462 53.5812 57.4622 53.1892 57.4622ZM59.8169 64.0002H58.3329V53.3602H59.8169V64.0002ZM74.2441 58.9042C74.2441 60.0242 74.0341 60.9622 73.6141 61.7182C73.1941 62.4742 72.5874 63.0436 71.7941 63.4262C71.0101 63.8089 70.0627 64.0002 68.9521 64.0002H66.1521V54.0042H69.2461C70.2634 54.0042 71.1454 54.1909 71.8921 54.5642C72.6387 54.9376 73.2174 55.4882 73.6281 56.2162C74.0387 56.9349 74.2441 57.8309 74.2441 58.9042ZM72.6621 58.9462C72.6621 58.1062 72.5267 57.4156 72.2561 56.8742C71.9854 56.3329 71.5841 55.9316 71.0521 55.6702C70.5294 55.4089 69.8947 55.2782 69.1481 55.2782H67.6641V62.7262H68.8821C70.1421 62.7262 71.0847 62.4089 71.7101 61.7742C72.3447 61.1396 72.6621 60.1969 72.6621 58.9462ZM83.0016 60.2202C83.0016 60.8456 82.9176 61.4009 82.7496 61.8862C82.5816 62.3716 82.3436 62.7822 82.0356 63.1182C81.7276 63.4542 81.3543 63.7109 80.9156 63.8882C80.477 64.0562 79.9823 64.1402 79.4316 64.1402C78.9276 64.1402 78.461 64.0562 78.0316 63.8882C77.6023 63.7109 77.229 63.4542 76.9116 63.1182C76.6036 62.7822 76.361 62.3716 76.1836 61.8862C76.0063 61.4009 75.9176 60.8409 75.9176 60.2062C75.9176 59.3756 76.0576 58.6709 76.3376 58.0922C76.627 57.5136 77.0376 57.0749 77.5696 56.7762C78.111 56.4682 78.7456 56.3142 79.4736 56.3142C80.1643 56.3142 80.771 56.4682 81.2936 56.7762C81.8256 57.0749 82.241 57.5136 82.5396 58.0922C82.8476 58.6709 83.0016 59.3802 83.0016 60.2202ZM77.4436 60.2202C77.4436 60.7802 77.5136 61.2656 77.6536 61.6762C77.7936 62.0776 78.013 62.3856 78.3116 62.6002C78.6103 62.8149 78.993 62.9222 79.4596 62.9222C79.9263 62.9222 80.309 62.8149 80.6076 62.6002C80.9063 62.3856 81.1256 62.0776 81.2656 61.6762C81.4056 61.2656 81.4756 60.7802 81.4756 60.2202C81.4756 59.6416 81.401 59.1562 81.2516 58.7642C81.1116 58.3722 80.8923 58.0736 80.5936 57.8682C80.3043 57.6536 79.9216 57.5462 79.4456 57.5462C78.7456 57.5462 78.237 57.7796 77.9196 58.2462C77.6023 58.7129 77.4436 59.3709 77.4436 60.2202ZM89.8055 60.2202C89.7588 60.0336 89.7028 59.8282 89.6375 59.6042C89.5815 59.3802 89.5255 59.1562 89.4695 58.9322C89.4135 58.6989 89.3621 58.4842 89.3155 58.2882C89.2688 58.0922 89.2315 57.9382 89.2035 57.8262H89.1475C89.1288 57.9382 89.0961 58.0922 89.0495 58.2882C89.0121 58.4842 88.9655 58.6989 88.9095 58.9322C88.8535 59.1562 88.7975 59.3849 88.7415 59.6182C88.6855 59.8422 88.6248 60.0476 88.5595 60.2342L87.4395 63.9862H85.7875L83.7015 56.4402H85.2135L86.1935 60.2622C86.2681 60.5236 86.3335 60.7989 86.3895 61.0882C86.4548 61.3776 86.5108 61.6576 86.5575 61.9282C86.6135 62.1896 86.6508 62.4089 86.6695 62.5862H86.7255C86.7441 62.4649 86.7721 62.3156 86.8095 62.1382C86.8468 61.9516 86.8841 61.7602 86.9215 61.5642C86.9681 61.3589 87.0101 61.1629 87.0475 60.9762C87.0941 60.7896 87.1408 60.6356 87.1875 60.5142L88.3915 56.4402H90.0155L91.1915 60.5142C91.2475 60.7009 91.3081 60.9249 91.3735 61.1862C91.4388 61.4382 91.4948 61.6902 91.5415 61.9422C91.5975 62.1849 91.6348 62.3949 91.6535 62.5722H91.7095C91.7281 62.4136 91.7608 62.2082 91.8075 61.9562C91.8541 61.6949 91.9101 61.4149 91.9755 61.1162C92.0501 60.8176 92.1201 60.5329 92.1855 60.2622L93.1935 56.4402H94.6915L92.5775 63.9862H90.8835L89.8055 60.2202ZM99.9244 56.3142C100.802 56.3142 101.474 56.5336 101.94 56.9722C102.407 57.4109 102.64 58.1156 102.64 59.0862V64.0002H101.17V59.2962C101.17 58.7082 101.044 58.2696 100.792 57.9802C100.55 57.6816 100.158 57.5322 99.6164 57.5322C98.8511 57.5322 98.3191 57.7609 98.0204 58.2182C97.7311 58.6756 97.5864 59.3336 97.5864 60.1922V64.0002H96.1024V56.4542H97.2784L97.4884 57.4622H97.5724C97.7404 57.2009 97.9458 56.9862 98.1884 56.8182C98.4311 56.6502 98.7018 56.5242 99.0004 56.4402C99.2991 56.3562 99.6071 56.3142 99.9244 56.3142ZM106.505 64.0002H105.021V53.3602H106.505V64.0002ZM115.585 60.2202C115.585 60.8456 115.501 61.4009 115.333 61.8862C115.165 62.3716 114.927 62.7822 114.619 63.1182C114.311 63.4542 113.938 63.7109 113.499 63.8882C113.061 64.0562 112.566 64.1402 112.015 64.1402C111.511 64.1402 111.045 64.0562 110.615 63.8882C110.186 63.7109 109.813 63.4542 109.495 63.1182C109.187 62.7822 108.945 62.3716 108.767 61.8862C108.59 61.4009 108.501 60.8409 108.501 60.2062C108.501 59.3756 108.641 58.6709 108.921 58.0922C109.211 57.5136 109.621 57.0749 110.153 56.7762C110.695 56.4682 111.329 56.3142 112.057 56.3142C112.748 56.3142 113.355 56.4682 113.877 56.7762C114.409 57.0749 114.825 57.5136 115.123 58.0922C115.431 58.6709 115.585 59.3802 115.585 60.2202ZM110.027 60.2202C110.027 60.7802 110.097 61.2656 110.237 61.6762C110.377 62.0776 110.597 62.3856 110.895 62.6002C111.194 62.8149 111.577 62.9222 112.043 62.9222C112.51 62.9222 112.893 62.8149 113.191 62.6002C113.49 62.3856 113.709 62.0776 113.849 61.6762C113.989 61.2656 114.059 60.7802 114.059 60.2202C114.059 59.6416 113.985 59.1562 113.835 58.7642C113.695 58.3722 113.476 58.0736 113.177 57.8682C112.888 57.6536 112.505 57.5462 112.029 57.5462C111.329 57.5462 110.821 57.7796 110.503 58.2462C110.186 58.7129 110.027 59.3709 110.027 60.2202ZM120.492 56.3142C121.444 56.3142 122.154 56.5242 122.62 56.9442C123.087 57.3549 123.32 58.0036 123.32 58.8902V64.0002H122.27L121.976 62.9502H121.92C121.706 63.2209 121.482 63.4449 121.248 63.6222C121.024 63.7996 120.763 63.9302 120.464 64.0142C120.175 64.0982 119.82 64.1402 119.4 64.1402C118.952 64.1402 118.546 64.0609 118.182 63.9022C117.828 63.7342 117.548 63.4822 117.342 63.1462C117.137 62.8009 117.034 62.3716 117.034 61.8582C117.034 61.0929 117.324 60.5096 117.902 60.1082C118.49 59.7069 119.382 59.4876 120.576 59.4502L121.864 59.4082V58.9882C121.864 58.4282 121.738 58.0362 121.486 57.8122C121.234 57.5882 120.88 57.4762 120.422 57.4762C120.03 57.4762 119.657 57.5322 119.302 57.6442C118.948 57.7562 118.612 57.8916 118.294 58.0502L117.818 56.9722C118.173 56.7856 118.579 56.6316 119.036 56.5102C119.503 56.3796 119.988 56.3142 120.492 56.3142ZM120.842 60.4022C119.984 60.4396 119.386 60.5842 119.05 60.8362C118.724 61.0789 118.56 61.4242 118.56 61.8722C118.56 62.2642 118.677 62.5489 118.91 62.7262C119.153 62.9036 119.456 62.9922 119.82 62.9922C120.408 62.9922 120.894 62.8289 121.276 62.5022C121.659 62.1756 121.85 61.6856 121.85 61.0322V60.3742L120.842 60.4022ZM128.296 64.1402C127.39 64.1402 126.658 63.8136 126.098 63.1602C125.547 62.5069 125.272 61.5362 125.272 60.2482C125.272 58.9509 125.552 57.9709 126.112 57.3082C126.672 56.6456 127.409 56.3142 128.324 56.3142C128.706 56.3142 129.038 56.3656 129.318 56.4682C129.607 56.5616 129.854 56.6922 130.06 56.8602C130.274 57.0282 130.456 57.2149 130.606 57.4202H130.69C130.671 57.2896 130.648 57.1029 130.62 56.8602C130.592 56.6082 130.578 56.3842 130.578 56.1882V53.3602H132.062V64.0002H130.9L130.648 62.9922H130.578C130.438 63.2069 130.26 63.4029 130.046 63.5802C129.84 63.7482 129.593 63.8836 129.304 63.9862C129.014 64.0889 128.678 64.1402 128.296 64.1402ZM128.646 62.9222C129.374 62.9222 129.887 62.7216 130.186 62.3202C130.484 61.9096 130.634 61.2982 130.634 60.4862V60.2622C130.634 59.3756 130.489 58.6989 130.2 58.2322C129.92 57.7656 129.397 57.5322 128.632 57.5322C128.025 57.5322 127.568 57.7796 127.26 58.2742C126.952 58.7596 126.798 59.4269 126.798 60.2762C126.798 61.1256 126.952 61.7789 127.26 62.2362C127.568 62.6936 128.03 62.9222 128.646 62.9222Z" fill="white"/>
</g>
<g filter="url(#filter0_d_3656_462433)">
<path d="M114.27 82.2803C113.99 81.9203 113.64 81.1903 113.03 80.2803C112.68 79.7803 111.82 78.8303 111.56 78.3403C111.373 78.0425 111.318 77.6799 111.41 77.3403C111.567 76.6945 112.18 76.2661 112.84 76.3403C113.351 76.4429 113.82 76.6933 114.19 77.0603C114.448 77.3035 114.686 77.5677 114.9 77.8503C115.06 78.0503 115.1 78.1303 115.28 78.3603C115.46 78.5903 115.58 78.8203 115.49 78.4803C115.42 77.9803 115.3 77.1403 115.13 76.3903C115 75.8203 114.97 75.7303 114.85 75.3003C114.73 74.8703 114.66 74.5103 114.53 74.0203C114.411 73.5389 114.318 73.0515 114.25 72.5603C114.124 71.932 114.216 71.2795 114.51 70.7103C114.86 70.3817 115.372 70.2949 115.81 70.4903C116.251 70.8156 116.579 71.2699 116.75 71.7903C117.012 72.4307 117.187 73.1034 117.27 73.7903C117.43 74.7903 117.74 76.2503 117.75 76.5503C117.75 76.1803 117.68 75.4003 117.75 75.0503C117.819 74.6854 118.073 74.3826 118.42 74.2503C118.718 74.1589 119.033 74.1384 119.34 74.1903C119.65 74.2551 119.925 74.4334 120.11 74.6903C120.342 75.2737 120.47 75.8929 120.49 76.5203C120.517 75.9709 120.611 75.4268 120.77 74.9003C120.937 74.6648 121.181 74.4951 121.46 74.4203C121.791 74.3598 122.13 74.3598 122.46 74.4203C122.731 74.5109 122.968 74.6818 123.14 74.9103C123.352 75.4406 123.48 76.0006 123.52 76.5703C123.52 76.7103 123.59 76.1803 123.81 75.8303C123.924 75.4909 124.211 75.2383 124.562 75.1676C124.913 75.0969 125.275 75.2189 125.512 75.4876C125.749 75.7563 125.824 76.1309 125.71 76.4703C125.71 77.1203 125.71 77.0903 125.71 77.5303C125.71 77.9703 125.71 78.3603 125.71 78.7303C125.674 79.3155 125.593 79.8971 125.47 80.4703C125.296 80.9774 125.054 81.4585 124.75 81.9003C124.265 82.4403 123.863 83.0505 123.56 83.7103C123.485 84.0381 123.451 84.3741 123.46 84.7103C123.459 85.0209 123.499 85.3303 123.58 85.6303C123.171 85.6735 122.759 85.6735 122.35 85.6303C121.96 85.5703 121.48 84.7903 121.35 84.5503C121.286 84.4214 121.154 84.34 121.01 84.34C120.866 84.34 120.734 84.4214 120.67 84.5503C120.45 84.9303 119.96 85.6203 119.62 85.6603C118.95 85.7403 117.57 85.6603 116.48 85.6603C116.48 85.6603 116.66 84.6603 116.25 84.3003C115.84 83.9403 115.42 83.5203 115.11 83.2403L114.27 82.2803Z" fill="white"/>
<path fill-rule="evenodd" clip-rule="evenodd" d="M114.27 82.2803C113.99 81.9203 113.64 81.1903 113.03 80.2803C112.68 79.7803 111.82 78.8303 111.56 78.3403C111.373 78.0425 111.318 77.6799 111.41 77.3403C111.567 76.6945 112.18 76.2661 112.84 76.3403C113.351 76.4429 113.82 76.6933 114.19 77.0603C114.448 77.3035 114.686 77.5677 114.9 77.8503C115.06 78.0503 115.1 78.1303 115.28 78.3603C115.46 78.5903 115.58 78.8203 115.49 78.4803C115.42 77.9803 115.3 77.1403 115.13 76.3903C115 75.8203 114.97 75.7303 114.85 75.3003C114.73 74.8703 114.66 74.5103 114.53 74.0203C114.411 73.5389 114.318 73.0515 114.25 72.5603C114.124 71.932 114.216 71.2795 114.51 70.7103C114.86 70.3817 115.372 70.2949 115.81 70.4903C116.251 70.8156 116.579 71.2699 116.75 71.7903C117.012 72.4307 117.187 73.1034 117.27 73.7903C117.43 74.7903 117.74 76.2503 117.75 76.5503C117.75 76.1803 117.68 75.4003 117.75 75.0503C117.819 74.6854 118.073 74.3826 118.42 74.2503C118.718 74.1589 119.033 74.1384 119.34 74.1903C119.65 74.2551 119.925 74.4334 120.11 74.6903C120.342 75.2737 120.47 75.8929 120.49 76.5203C120.517 75.9709 120.611 75.4268 120.77 74.9003C120.937 74.6648 121.181 74.4951 121.46 74.4203C121.791 74.3598 122.13 74.3598 122.46 74.4203C122.731 74.5109 122.968 74.6818 123.14 74.9103C123.352 75.4406 123.48 76.0006 123.52 76.5703C123.52 76.7103 123.59 76.1803 123.81 75.8303C123.924 75.4909 124.211 75.2383 124.562 75.1676C124.913 75.0969 125.275 75.2189 125.512 75.4876C125.749 75.7563 125.824 76.1309 125.71 76.4703C125.71 77.1203 125.71 77.0903 125.71 77.5303C125.71 77.9703 125.71 78.3603 125.71 78.7303C125.674 79.3155 125.593 79.8971 125.47 80.4703C125.296 80.9774 125.054 81.4585 124.75 81.9003C124.265 82.4403 123.863 83.0505 123.56 83.7103C123.485 84.0381 123.451 84.3741 123.46 84.7103C123.459 85.0209 123.499 85.3303 123.58 85.6303C123.171 85.6735 122.759 85.6735 122.35 85.6303C121.96 85.5703 121.48 84.7903 121.35 84.5503C121.286 84.4214 121.154 84.34 121.01 84.34C120.866 84.34 120.734 84.4214 120.67 84.5503C120.45 84.9303 119.96 85.6203 119.62 85.6603C118.95 85.7403 117.57 85.6603 116.48 85.6603C116.48 85.6603 116.66 84.6603 116.25 84.3003C115.84 83.9403 115.42 83.5203 115.11 83.2403L114.27 82.2803Z" stroke="black" stroke-width="0.75" stroke-linecap="round" stroke-linejoin="round"/>
<path d="M122.75 82.8261V79.3744C122.75 79.1677 122.582 79.0002 122.375 79.0002C122.168 79.0002 122 79.1677 122 79.3744V82.8261C122 83.0327 122.168 83.2002 122.375 83.2002C122.582 83.2002 122.75 83.0327 122.75 82.8261Z" fill="black"/>
<path d="M120.77 82.8249L120.75 79.3713C120.749 79.1652 120.58 78.9991 120.373 79.0003C120.166 79.0014 119.999 79.1695 120 79.3756L120.02 82.8292C120.021 83.0353 120.19 83.2014 120.397 83.2002C120.604 83.199 120.771 83.031 120.77 82.8249Z" fill="black"/>
<path d="M118 79.3792L118.02 82.8256C118.021 83.0337 118.19 83.2015 118.397 83.2002C118.604 83.199 118.771 83.0293 118.77 82.8213L118.75 79.3748C118.749 79.1667 118.58 78.999 118.373 79.0003C118.166 79.0015 117.999 79.1711 118 79.3792Z" fill="black"/>
</g>
<defs>
<filter id="filter0_d_3656_462433" x="110.191" y="70.0121" width="16.7462" height="17.8588" filterUnits="userSpaceOnUse" color-interpolation-filters="sRGB">
<feFlood flood-opacity="0" result="BackgroundImageFix"/>
<feColorMatrix in="SourceAlpha" type="matrix" values="0 0 0 0 0 0 0 0 0 0 0 0 0 0 0 0 0 0 127 0" result="hardAlpha"/>
<feOffset dy="1"/>
<feGaussianBlur stdDeviation="0.4"/>
<feColorMatrix type="matrix" values="0 0 0 0 0 0 0 0 0 0 0 0 0 0 0 0 0 0 0.5 0"/>
<feBlend mode="normal" in2="BackgroundImageFix" result="effect1_dropShadow_3656_462433"/>
<feBlend mode="normal" in="SourceGraphic" in2="effect1_dropShadow_3656_462433" result="shape"/>
</filter>
<clipPath id="clip0_3656_462433">
<rect x="2.5" y="39.0002" width="155" height="40" rx="20" fill="white"/>
</clipPath>
</defs>
</svg>
