<svg width="24" height="24" viewBox="0 0 24 24" fill="none" xmlns="http://www.w3.org/2000/svg">
<g id="Icon">
<g id="Vector">
<path fill-rule="evenodd" clip-rule="evenodd" d="M7.91667 4C7.91667 3.58579 8.25245 3.25 8.66667 3.25H14.3333C14.7475 3.25 15.0833 3.58579 15.0833 4V9.66667C15.0833 10.0809 14.7475 10.4167 14.3333 10.4167H8.66667C8.25245 10.4167 7.91667 10.0809 7.91667 9.66667V4ZM9.41667 4.75V8.91667H13.5833V4.75H9.41667Z" fill="#171C1F"/>
<path fill-rule="evenodd" clip-rule="evenodd" d="M2.25 14.3889C2.25 13.9747 2.58579 13.6389 3 13.6389H8.66667C9.08088 13.6389 9.41667 13.9747 9.41667 14.3889V20.0556C9.41667 20.4698 9.08088 20.8056 8.66667 20.8056H3C2.58579 20.8056 2.25 20.4698 2.25 20.0556V14.3889ZM3.75 15.1389V19.3056H7.91667V15.1389H3.75Z" fill="#171C1F"/>
<path fill-rule="evenodd" clip-rule="evenodd" d="M13.5833 14.3889C13.5833 13.9747 13.9191 13.6389 14.3333 13.6389H20C20.4142 13.6389 20.75 13.9747 20.75 14.3889V20.0556C20.75 20.4698 20.4142 20.8056 20 20.8056H14.3333C13.9191 20.8056 13.5833 20.4698 13.5833 20.0556V14.3889ZM15.0833 15.1389V19.3056H19.25V15.1389H15.0833Z" fill="#171C1F"/>
<path fill-rule="evenodd" clip-rule="evenodd" d="M10.75 11.2778V9.66667H12.25V11.2778H17.1667C17.5809 11.2778 17.9167 11.6136 17.9167 12.0278V14.3889H16.4167V12.7778H6.58333V14.3889H5.08333V12.0278C5.08333 11.8289 5.16235 11.6381 5.303 11.4974C5.44366 11.3568 5.63442 11.2778 5.83333 11.2778H10.75Z" fill="#171C1F"/>
</g>
</g>
</svg>
