<svg width="24" height="24" viewBox="0 0 24 24" fill="none" xmlns="http://www.w3.org/2000/svg">
<g id="Icon">
<g id="Vector">
<path fill-rule="evenodd" clip-rule="evenodd" d="M13.5681 7.32046C13.1545 7.23984 12.8871 6.85164 12.9709 6.45339C13.007 6.2813 12.9893 6.10409 12.921 5.94404C12.8526 5.78404 12.7366 5.64778 12.5875 5.55215C12.4384 5.45651 12.2623 5.40537 12.0809 5.40601C11.8994 5.40665 11.7209 5.45914 11.5683 5.55762C11.4157 5.65611 11.2966 5.79576 11.226 5.95857C11.1555 6.12133 11.1369 6.29935 11.1715 6.46997C11.2524 6.86875 10.9823 7.25519 10.5682 7.33311C10.154 7.41102 9.75273 7.15091 9.67182 6.75212C9.57909 6.29506 9.62957 5.82177 9.81581 5.39195C10.002 4.96218 10.3158 4.59458 10.7176 4.33531C11.1193 4.07603 11.5917 3.9363 12.0753 3.93459C12.5589 3.93287 13.0322 4.06934 13.4347 4.32755C13.8372 4.58577 14.1503 4.9537 14.3342 5.38449C14.5181 5.81522 14.5645 6.28885 14.4685 6.74535C14.3848 7.14359 13.9817 7.40108 13.5681 7.32046Z" fill="currentColor"/>
<path fill-rule="evenodd" clip-rule="evenodd" d="M2.25 6.99967C2.25 6.58545 2.58579 6.24967 3 6.24967H14.5C14.9142 6.24967 15.25 6.58545 15.25 6.99967C15.25 7.41388 14.9142 7.74967 14.5 7.74967H4.78846V17.2497H19.2115V12.4997C19.2115 12.0855 19.5473 11.7497 19.9615 11.7497C20.3758 11.7497 20.7115 12.0855 20.7115 12.4997V17.2497H21C21.4142 17.2497 21.75 17.5855 21.75 17.9997C21.75 18.4139 21.4142 18.7497 21 18.7497H3C2.58579 18.7497 2.25 18.4139 2.25 17.9997C2.25 17.5855 2.58579 17.2497 3 17.2497H3.28846V7.74967H3C2.58579 7.74967 2.25 7.41388 2.25 6.99967ZM7.5 9.30522C7.91421 9.30522 8.25 9.64101 8.25 10.0552V14.9441C8.25 15.3583 7.91421 15.6941 7.5 15.6941C7.08579 15.6941 6.75 15.3583 6.75 14.9441V10.0552C6.75 9.64101 7.08579 9.30522 7.5 9.30522ZM16.1538 11.1997C16.5681 11.1997 16.9038 11.5355 16.9038 11.9497V14.9441C16.9038 15.3583 16.5681 15.6941 16.1538 15.6941C15.7396 15.6941 15.4038 15.3583 15.4038 14.9441V11.9497C15.4038 11.5355 15.7396 11.1997 16.1538 11.1997Z" fill="currentColor"/>
<path fill-rule="evenodd" clip-rule="evenodd" d="M18.75 5.91807C18.1588 6.19894 17.75 6.80157 17.75 7.49967C17.75 8.46617 18.5335 9.24967 19.5 9.24967C20.1981 9.24967 20.8007 8.8409 21.0816 8.24967H19.5C19.0858 8.24967 18.75 7.91388 18.75 7.49967V5.91807ZM20.25 5.91807V6.74967H21.0816C20.9087 6.38574 20.6139 6.09096 20.25 5.91807ZM16.25 7.49967C16.25 5.70474 17.7051 4.24967 19.5 4.24967C21.2949 4.24967 22.75 5.70474 22.75 7.49967C22.75 9.29459 21.2949 10.7497 19.5 10.7497C17.7051 10.7497 16.25 9.29459 16.25 7.49967Z" fill="currentColor"/>
<path fill-rule="evenodd" clip-rule="evenodd" d="M12 8.84967C12.359 8.84967 12.65 9.14068 12.65 9.49967V9.62071C13.1776 9.70588 13.6005 10.0309 13.8543 10.4446C14.0421 10.7506 13.9462 11.1508 13.6402 11.3386C13.3342 11.5263 12.934 11.4304 12.7462 11.1244C12.6538 10.9737 12.5198 10.899 12.3751 10.8988L11.9988 10.8997L11.5526 10.8988C11.3303 10.899 11.15 11.0789 11.15 11.3014C11.15 11.4864 11.2769 11.6486 11.4555 11.6935L12.8612 12.0467C13.6167 12.2376 14.15 12.9175 14.15 13.6997C14.15 14.571 13.4956 15.2902 12.65 15.3903V15.4997C12.65 15.8587 12.359 16.1497 12 16.1497C11.641 16.1497 11.35 15.8587 11.35 15.4997V15.3803C10.8211 15.2946 10.3976 14.9671 10.1444 14.5532C9.95705 14.247 10.0534 13.8469 10.3596 13.6595C10.6658 13.4721 11.0659 13.5685 11.2533 13.8747C11.3466 14.0273 11.482 14.1022 11.6254 14.1022H11.9418C11.961 14.1005 11.9804 14.0997 12 14.0997C12.0196 14.0997 12.039 14.1005 12.0582 14.1022H12.4474C12.6701 14.1022 12.85 13.9222 12.85 13.6997C12.85 13.5151 12.7242 13.3531 12.5439 13.3074L11.1388 12.9544C10.3831 12.7644 9.85 12.0832 9.85 11.3014C9.85 10.4287 10.5056 9.71081 11.35 9.61073V9.49967C11.35 9.14068 11.641 8.84967 12 8.84967Z" fill="currentColor"/>
</g>
</g>
</svg>
