<svg width="20" height="20" viewBox="0 0 20 20" fill="none" xmlns="http://www.w3.org/2000/svg">
<g id="Icon/Type" clip-path="url(#clip0_3884_139295)">
<circle id="Ellipse 494" cx="10" cy="10" r="9.375" fill="#03C0C9"/>
<path id="Vector" d="M8.56481 12.3508C8.97606 12.8574 9.49855 13.1105 10.1329 13.1105C10.7823 13.1105 11.2779 12.8933 11.6192 12.4586C11.8079 12.2249 11.9642 11.8743 12.0886 11.4068H13.9707C13.8082 12.3952 13.3932 13.1989 12.7264 13.8183C12.0586 14.4374 11.2042 14.7471 10.1611 14.7471C8.87074 14.7471 7.85637 14.3289 7.11855 13.4921C6.38012 12.6518 6.01074 11.4989 6.01074 10.0349C6.01074 8.45176 6.43074 7.23145 7.27043 6.37457C8.00105 5.62801 8.93012 5.25488 10.0579 5.25488C11.5673 5.25488 12.6707 5.7552 13.3686 6.75613C13.7542 7.31801 13.9611 7.88176 13.9892 8.4477H12.0945C11.9736 8.0127 11.8192 7.6852 11.6307 7.46363C11.2932 7.06988 10.7926 6.8727 10.1298 6.8727C9.4548 6.8727 8.92262 7.15082 8.53262 7.70645C8.14324 8.26207 7.94855 9.04863 7.94855 10.0655C7.94855 11.0824 8.15418 11.8439 8.56481 12.3508Z" fill="white"/>
</g>
<defs>
<clipPath id="clip0_3884_139295">
<rect width="20" height="20" fill="white"/>
</clipPath>
</defs>
</svg>
