<svg width="24" height="24" viewBox="0 0 24 24" fill="none" xmlns="http://www.w3.org/2000/svg">
<path fill-rule="evenodd" clip-rule="evenodd" d="M14.1298 9.26578C13.7238 9.18359 13.4613 8.78786 13.5435 8.38188C13.5729 8.23672 13.5585 8.08743 13.5031 7.95272C13.4477 7.81808 13.3537 7.70346 13.233 7.62302C13.1122 7.54256 12.9694 7.49946 12.8221 7.5C12.6748 7.50055 12.5298 7.54479 12.4057 7.62795C12.2816 7.71112 12.1848 7.82905 12.1274 7.96648C12.0701 8.10386 12.055 8.25396 12.0831 8.39765C12.1625 8.80418 11.8974 9.19812 11.4908 9.27755C11.0843 9.35698 10.6904 9.09181 10.6109 8.68528C10.5258 8.24959 10.5722 7.79848 10.7431 7.38886C10.914 6.97929 11.202 6.62898 11.5706 6.38191C11.9393 6.13483 12.3728 6.00165 12.8166 6.00002C13.2606 5.99838 13.695 6.12846 14.0646 6.37464C14.4341 6.62083 14.7215 6.97162 14.8904 7.38231C15.0592 7.79295 15.1018 8.24443 15.0137 8.6795C14.9315 9.08548 14.5358 9.34797 14.1298 9.26578Z" fill="#171C1F"/>
<path fill-rule="evenodd" clip-rule="evenodd" d="M4 9.13108C4 8.71686 4.33579 8.38108 4.75 8.38108H20.75C21.1642 8.38108 21.5 8.71686 21.5 9.13108C21.5 9.54529 21.1642 9.88108 20.75 9.88108H20.5769V17.3811H20.75C21.1642 17.3811 21.5 17.7169 21.5 18.1311C21.5 18.5453 21.1642 18.8811 20.75 18.8811H4.75C4.33579 18.8811 4 18.5453 4 18.1311C4 17.7169 4.33579 17.3811 4.75 17.3811H19.0769V9.88108H4.75C4.33579 9.88108 4 9.54529 4 9.13108ZM12.75 10.8811C13.1642 10.8811 13.5 11.2169 13.5 11.6311V15.6311C13.5 16.0453 13.1642 16.3811 12.75 16.3811C12.3358 16.3811 12 16.0453 12 15.6311V11.6311C12 11.2169 12.3358 10.8811 12.75 10.8811ZM16.4423 10.8811C16.8565 10.8811 17.1923 11.2169 17.1923 11.6311V15.6311C17.1923 16.0453 16.8565 16.3811 16.4423 16.3811C16.0281 16.3811 15.6923 16.0453 15.6923 15.6311V11.6311C15.6923 11.2169 16.0281 10.8811 16.4423 10.8811Z" fill="#171C1F"/>
<path fill-rule="evenodd" clip-rule="evenodd" d="M10.5 13.6311C10.5 13.8692 10.387 14.0931 10.1954 14.2345L6.80829 16.7345C6.58056 16.9026 6.2776 16.9282 6.02493 16.8006C5.77225 16.6731 5.6129 16.4141 5.6129 16.1311V15.3811H2.75C2.33579 15.3811 2 15.0453 2 14.6311L2 12.6311C2 12.2169 2.33579 11.8811 2.75 11.8811H5.6129V11.1311C5.6129 10.848 5.77225 10.5891 6.02493 10.4615C6.2776 10.334 6.58056 10.3596 6.80829 10.5276L10.1954 13.0276C10.387 13.169 10.5 13.393 10.5 13.6311ZM7.1129 12.6168V12.6311C7.1129 13.0453 6.77712 13.3811 6.3629 13.3811H3.5V13.8811L6.3629 13.8811C6.77712 13.8811 7.1129 14.2169 7.1129 14.6311L7.1129 14.6453L8.48706 13.6311L7.1129 12.6168Z" fill="#171C1F"/>
</svg>
