<svg width="32" height="32" viewBox="0 0 32 32" fill="none" xmlns="http://www.w3.org/2000/svg">
<g id="Icon">
<mask id="mask0_2983_244781" style="mask-type:alpha" maskUnits="userSpaceOnUse" x="0" y="0" width="32" height="32">
<rect id="Bounding box" width="32" height="32" fill="#D9D9D9"/>
</mask>
<g mask="url(#mask0_2983_244781)">
<path id="local_shipping" d="M8.58221 26.1822C7.55191 26.1822 6.67615 25.8216 5.95494 25.1004C5.23372 24.3792 4.87312 23.5034 4.87312 22.4731C4.19312 22.4731 3.6112 22.2312 3.12737 21.7474C2.64272 21.2627 2.40039 20.6804 2.40039 20.0004V8.87312C2.40039 8.19312 2.64272 7.6112 3.12737 7.12737C3.6112 6.64272 4.19312 6.40039 4.87312 6.40039H19.7095C20.3895 6.40039 20.9718 6.64272 21.4565 7.12737C21.9403 7.6112 22.1822 8.19312 22.1822 8.87312V11.3458H25.2731C25.4792 11.3458 25.6646 11.3871 25.8295 11.4695C25.9943 11.5519 26.1386 11.6755 26.2622 11.8404L29.3531 15.9513C29.4355 16.0543 29.4974 16.1677 29.5386 16.2913C29.5798 16.4149 29.6004 16.5489 29.6004 16.6931V21.2368C29.6004 21.5871 29.4817 21.8805 29.2443 22.117C29.0078 22.3544 28.7143 22.4731 28.364 22.4731H27.1277C27.1277 23.5034 26.7671 24.3792 26.0458 25.1004C25.3246 25.8216 24.4489 26.1822 23.4186 26.1822C22.3883 26.1822 21.5125 25.8216 20.7913 25.1004C20.0701 24.3792 19.7095 23.5034 19.7095 22.4731H12.2913C12.2913 23.5034 11.9307 24.3792 11.2095 25.1004C10.4883 25.8216 9.61251 26.1822 8.58221 26.1822ZM8.58221 23.7095C8.93251 23.7095 9.22635 23.5908 9.46374 23.3534C9.70029 23.1168 9.81857 22.8234 9.81857 22.4731C9.81857 22.1228 9.70029 21.8294 9.46374 21.5928C9.22635 21.3554 8.93251 21.2368 8.58221 21.2368C8.23191 21.2368 7.93806 21.3554 7.70068 21.5928C7.46412 21.8294 7.34584 22.1228 7.34584 22.4731C7.34584 22.8234 7.46412 23.1168 7.70068 23.3534C7.93806 23.5908 8.23191 23.7095 8.58221 23.7095ZM23.4186 23.7095C23.7689 23.7095 24.0623 23.5908 24.2989 23.3534C24.5362 23.1168 24.6549 22.8234 24.6549 22.4731C24.6549 22.1228 24.5362 21.8294 24.2989 21.5928C24.0623 21.3554 23.7689 21.2368 23.4186 21.2368C23.0683 21.2368 22.7748 21.3554 22.5383 21.5928C22.3009 21.8294 22.1822 22.1228 22.1822 22.4731C22.1822 22.8234 22.3009 23.1168 22.5383 23.3534C22.7748 23.5908 23.0683 23.7095 23.4186 23.7095ZM22.1822 17.5277H27.4368L24.6549 13.8186H22.1822V17.5277Z" fill="currentColor"/>
</g>
</g>
</svg>
