<svg width="24" height="24" viewBox="0 0 24 24" fill="none" xmlns="http://www.w3.org/2000/svg">
<path fill-rule="evenodd" clip-rule="evenodd" d="M10.5076 3.60039C10.5076 2.93765 11.0449 2.40039 11.7076 2.40039H12.2943C12.957 2.40039 13.4943 2.93765 13.4943 3.60039V4.18706C13.4943 4.68884 13.1863 5.11869 12.7491 5.29789C13.3874 5.62644 13.7599 6.36172 13.7599 7.09331C13.7599 7.57718 13.5797 7.96649 13.2983 8.24423L16.6747 11.4668H19.8004C20.7945 11.4668 21.6004 12.2727 21.6004 13.2668V19.8001C21.6004 20.7942 20.7945 21.6001 19.8004 21.6001H4.20039C3.20628 21.6001 2.40039 20.7942 2.40039 19.8001V13.2668C2.40039 12.2727 3.20628 11.4668 4.20039 11.4668H7.11357L10.5808 8.15722C10.3014 7.84576 10.1352 7.41729 10.1352 6.87997C10.1352 6.55597 10.3978 6.29331 10.7218 6.29331C11.0458 6.29331 11.3085 6.55597 11.3085 6.87997C11.3085 7.22066 11.4242 7.36073 11.5181 7.43268C11.6384 7.52489 11.8186 7.57331 11.9999 7.57331C12.1673 7.57331 12.3286 7.5235 12.4329 7.44471C12.5159 7.38193 12.5866 7.287 12.5866 7.09331C12.5866 6.56368 12.2654 6.30574 12.018 6.2937L12.0013 6.29393C11.9107 6.29393 11.8248 6.27338 11.7482 6.23668C11.5501 6.14247 11.4132 5.94052 11.4132 5.70659C11.4132 5.69277 11.4137 5.67905 11.4146 5.66547V5.35104C10.8935 5.22029 10.5076 4.74874 10.5076 4.18706V3.60039ZM8.8515 11.4668H14.9366L12.3082 8.95807C12.0764 8.73677 11.7115 8.73678 11.4797 8.95809L8.8515 11.4668ZM4.5332 14.1863C4.5332 13.8623 4.79586 13.5996 5.11987 13.5996C5.44388 13.5996 5.70654 13.8623 5.70654 14.1863V18.8796C5.70654 19.2036 5.44388 19.4663 5.11987 19.4663C4.79586 19.4663 4.5332 19.2036 4.5332 18.8796V14.1863ZM8.58862 13.5996C8.26461 13.5996 8.00195 13.8623 8.00195 14.1863V18.8796C8.00195 19.2036 8.26461 19.4663 8.58862 19.4663C8.91263 19.4663 9.17529 19.2036 9.17529 18.8796V14.1863C9.17529 13.8623 8.91263 13.5996 8.58862 13.5996ZM11.466 14.1863C11.466 13.8623 11.7287 13.5996 12.0527 13.5996C12.3767 13.5996 12.6393 13.8623 12.6393 14.1863V18.8796C12.6393 19.2036 12.3767 19.4663 12.0527 19.4663C11.7287 19.4663 11.466 19.2036 11.466 18.8796V14.1863ZM15.5214 13.5996C15.1974 13.5996 14.9348 13.8623 14.9348 14.1863V18.8796C14.9348 19.2036 15.1974 19.4663 15.5214 19.4663C15.8454 19.4663 16.1081 19.2036 16.1081 18.8796V14.1863C16.1081 13.8623 15.8454 13.5996 15.5214 13.5996ZM18.3988 14.1863C18.3988 13.8623 18.6615 13.5996 18.9855 13.5996C19.3095 13.5996 19.5722 13.8623 19.5722 14.1863V18.8796C19.5722 19.2036 19.3095 19.4663 18.9855 19.4663C18.6615 19.4663 18.3988 19.2036 18.3988 18.8796V14.1863Z" fill="#196584"/>
</svg>
