<svg width="16" height="16" viewBox="0 0 16 16" fill="none" xmlns="http://www.w3.org/2000/svg">
<g clip-path="url(#clip0_693_194015)">
<path d="M0.5 4C0.5 2.067 2.067 0.5 4 0.5H12C13.933 0.5 15.5 2.067 15.5 4V12C15.5 13.933 13.933 15.5 12 15.5H4C2.067 15.5 0.5 13.933 0.5 12V4Z" fill="#F0F4F8" stroke="#BA1A1A"/>
<path d="M4.9999 4.375L5.9499 8.525L6.1499 9.675L6.3499 8.55L7.1749 4.375H8.7749L9.6249 8.525L9.8499 9.675L10.0749 8.575L11.0499 4.375H12.5999L10.5499 11.625H9.0999L8.2249 7.375L7.9749 5.975L7.7249 7.375L6.8499 11.625H5.4499L3.3999 4.375H4.9999Z" fill="#BA1A1A"/>
</g>
<defs>
<clipPath id="clip0_693_194015">
<rect width="16" height="16" fill="white"/>
</clipPath>
</defs>
</svg>
