<svg width="16" height="16" viewBox="0 0 16 16" fill="none" xmlns="http://www.w3.org/2000/svg">
<g clip-path="url(#clip0_693_194018)">
<rect x="0.5" y="0.5" width="15" height="15" rx="3.5" fill="#F0F4F8" stroke="#4D616C"/>
<path d="M6.45 9.40039C6.5 9.72539 6.6 9.97539 6.725 10.1504C6.975 10.4504 7.4 10.6004 8.025 10.6004C8.4 10.6004 8.675 10.5504 8.925 10.4754C9.35 10.3254 9.575 10.0504 9.575 9.62539C9.575 9.37539 9.475 9.20039 9.25 9.07539C9.05 8.95039 8.7 8.82539 8.25 8.72539L7.475 8.55039C6.7 8.37539 6.175 8.20039 5.875 8.00039C5.375 7.67539 5.15 7.15039 5.15 6.42539C5.15 5.77539 5.4 5.22539 5.875 4.80039C6.35 4.37539 7.05 4.15039 7.975 4.15039C8.75 4.15039 9.4 4.35039 9.95 4.75039C10.5 5.15039 10.775 5.75039 10.8 6.52539H9.35C9.325 6.10039 9.125 5.77539 8.775 5.60039C8.525 5.47539 8.225 5.42539 7.875 5.42539C7.475 5.42539 7.15 5.50039 6.925 5.65039C6.7 5.80039 6.575 6.02539 6.575 6.30039C6.575 6.55039 6.7 6.75039 6.925 6.87539C7.075 6.95039 7.4 7.05039 7.9 7.17539L9.175 7.47539C9.725 7.60039 10.15 7.77539 10.425 8.00039C10.85 8.35039 11.075 8.82539 11.075 9.47539C11.075 10.1504 10.825 10.7004 10.3 11.1254C9.8 11.5754 9.075 11.7754 8.125 11.7754C7.175 11.7754 6.425 11.5504 5.875 11.1254C5.275 10.7504 5 10.1504 5 9.40039H6.45Z" fill="#4D616C"/>
</g>
<defs>
<clipPath id="clip0_693_194018">
<rect width="16" height="16" fill="white"/>
</clipPath>
</defs>
</svg>
