<svg width="16" height="16" viewBox="0 0 16 16" fill="none" xmlns="http://www.w3.org/2000/svg">
<g clip-path="url(#clip0_4019_199718)">
<circle cx="8" cy="8" r="7.5" fill="#03C0C9"/>
<path d="M6.85184 9.87988C7.18084 10.2851 7.59884 10.4876 8.10634 10.4876C8.62584 10.4876 9.02234 10.3139 9.29534 9.96613C9.44634 9.77913 9.57134 9.49863 9.67084 9.12463H11.1766C11.0466 9.91538 10.7146 10.5584 10.1811 11.0539C9.64684 11.5491 8.96334 11.7969 8.12884 11.7969C7.09659 11.7969 6.28509 11.4624 5.69484 10.7929C5.10409 10.1206 4.80859 9.19838 4.80859 8.02713C4.80859 6.76063 5.14459 5.78438 5.81634 5.09888C6.40084 4.50163 7.14409 4.20312 8.04634 4.20312C9.25384 4.20312 10.1366 4.60338 10.6948 5.40413C11.0033 5.85363 11.1688 6.30463 11.1913 6.75738H9.67559C9.57884 6.40938 9.45534 6.14738 9.30459 5.97013C9.03459 5.65513 8.63409 5.49738 8.10384 5.49738C7.56384 5.49738 7.13809 5.71988 6.82609 6.16438C6.51459 6.60888 6.35884 7.23813 6.35884 8.05163C6.35884 8.86513 6.52334 9.47438 6.85184 9.87988Z" fill="white"/>
</g>
<defs>
<clipPath id="clip0_4019_199718">
<rect width="16" height="16" fill="white"/>
</clipPath>
</defs>
</svg>
