<svg width="24" height="24" viewBox="0 0 24 24" fill="none" xmlns="http://www.w3.org/2000/svg">
<path fill-rule="evenodd" clip-rule="evenodd" d="M9.94444 2.75C9.94444 2.33579 9.60866 2 9.19444 2C8.78023 2 8.44444 2.33579 8.44444 2.75V2.88889H6.75C5.23122 2.88889 4 4.1201 4 5.63889V10.75C4 11.1642 4.33579 11.5 4.75 11.5C5.16421 11.5 5.5 11.1642 5.5 10.75V8.16667H20V16.75C20 17.4404 19.4404 18 18.75 18H14.75C14.3358 18 14 18.3358 14 18.75C14 19.1642 14.3358 19.5 14.75 19.5H18.75C20.2688 19.5 21.5 18.2688 21.5 16.75V5.63889C21.5 4.12011 20.2688 2.88889 18.75 2.88889H17.0556V2.75C17.0556 2.33579 16.7198 2 16.3056 2C15.8913 2 15.5556 2.33579 15.5556 2.75V2.88889H9.94444V2.75ZM6.75 4.38889H8.44444V4.52778C8.44444 4.94199 8.78023 5.27778 9.19444 5.27778C9.60866 5.27778 9.94444 4.94199 9.94444 4.52778V4.38889H15.5556V4.52778C15.5556 4.94199 15.8913 5.27778 16.3056 5.27778C16.7198 5.27778 17.0556 4.94199 17.0556 4.52778V4.38889H18.75C19.4404 4.38889 20 4.94853 20 5.63889V6.66667H5.5V5.63889C5.5 4.94853 6.05964 4.38889 6.75 4.38889Z" fill="#171C1F"/>
<path fill-rule="evenodd" clip-rule="evenodd" d="M3.75 21.5001C4.14009 21.5001 4.46233 21.4201 4.74252 21.2856C4.99654 21.1637 5.19462 21.005 5.32782 20.8983L5.34352 20.8857C5.40935 20.8331 5.46124 20.7923 5.50624 20.7595L5.50768 20.7586C5.52366 20.7482 5.53913 20.7374 5.55405 20.7261C5.58992 20.7021 5.6225 20.6832 5.65658 20.6669C5.72796 20.6326 5.82759 20.6001 6 20.6001C6.18841 20.6001 6.28927 20.6345 6.35395 20.6658C6.43384 20.7045 6.50282 20.7579 6.64486 20.8763L6.66022 20.8891C6.78866 20.9963 6.98436 21.1596 7.2427 21.2846C7.52677 21.422 7.85341 21.5001 8.25 21.5001C8.64009 21.5001 8.96233 21.4201 9.24252 21.2856C9.49654 21.1637 9.69462 21.005 9.82782 20.8983L9.84352 20.8857C9.99166 20.7672 10.0692 20.7088 10.1566 20.6669C10.228 20.6326 10.3276 20.6001 10.5 20.6001C10.6884 20.6001 10.7893 20.6345 10.854 20.6658C10.9338 20.7045 11.0028 20.7579 11.1449 20.8763L11.1602 20.8891C11.2887 20.9963 11.4844 21.1596 11.7427 21.2846C12.0268 21.422 12.3534 21.5001 12.75 21.5001C13.1642 21.5001 13.5 21.1643 13.5 20.7501C13.5 20.3359 13.1642 20.0001 12.75 20.0001C12.5616 20.0001 12.4607 19.9657 12.396 19.9344L12.3845 19.9286C12.828 19.0698 13.0572 18.1145 13.0499 17.1445C13.0477 16.8501 12.8735 16.5843 12.6046 16.4647L12.15 16.2627V14C12.15 13.5624 11.9761 13.1427 11.6667 12.8333C11.3573 12.5238 10.9376 12.35 10.5 12.35H8.99998V11.75C8.99998 11.3358 8.66419 11 8.24998 11C7.83576 11 7.49998 11.3358 7.49998 11.75V12.35H5.99998C5.56237 12.35 5.14268 12.5238 4.83325 12.8333C4.52381 13.1427 4.34998 13.5624 4.34998 14V16.2627L3.89535 16.4647C3.6245 16.5851 3.44995 16.8537 3.44995 17.1501C3.44995 18.1602 3.67551 19.0661 4.11448 19.9228C4.10749 19.9264 4.10049 19.9299 4.09342 19.9333C4.02204 19.9676 3.92241 20.0001 3.75 20.0001C3.33579 20.0001 3 20.3359 3 20.7501C3 21.1643 3.33579 21.5001 3.75 21.5001ZM5.84998 15.596L7.92758 14.6726C8.02525 14.6261 8.13457 14.6 8.24998 14.6C8.36564 14.6 8.47519 14.6262 8.57302 14.6729L10.65 15.596V14C10.65 13.9602 10.6342 13.9221 10.606 13.8939C10.5779 13.8658 10.5398 13.85 10.5 13.85H5.99998C5.96019 13.85 5.92204 13.8658 5.89391 13.8939C5.86578 13.9221 5.84998 13.9602 5.84998 14V15.596ZM7.49998 16.5042V17.15C7.49998 17.5642 7.83576 17.9 8.24998 17.9C8.66419 17.9 8.99998 17.5642 8.99998 17.15V16.5042L11.5285 17.628C11.4758 18.1626 11.327 18.6838 11.0891 19.1663C10.9104 19.1232 10.7156 19.1001 10.5 19.1001C10.1099 19.1001 9.78767 19.1801 9.50748 19.3146C9.25346 19.4365 9.05538 19.5952 8.92218 19.7019L8.90648 19.7144C8.75834 19.833 8.68078 19.8914 8.59342 19.9333C8.52204 19.9676 8.42241 20.0001 8.25 20.0001C8.06159 20.0001 7.96073 19.9657 7.89605 19.9344C7.81616 19.8957 7.74718 19.8423 7.60514 19.7239L7.58978 19.7111C7.46134 19.6039 7.26564 19.4406 7.0073 19.3156C6.72323 19.1782 6.39659 19.1001 6 19.1001C5.78559 19.1001 5.59168 19.1243 5.41398 19.1684C5.17127 18.6757 5.02543 18.1716 4.97258 17.6274L7.49998 16.5042Z" fill="#171C1F"/>
</svg>
