<svg width="24" height="24" viewBox="0 0 24 24" fill="none" xmlns="http://www.w3.org/2000/svg">
<path fill-rule="evenodd" clip-rule="evenodd" d="M3.5 6.19444C3.5 4.67566 4.73122 3.44444 6.25 3.44444H18.25C19.7688 3.44444 21 4.67566 21 6.19444V14.1944C21 15.7132 19.7688 16.9444 18.25 16.9444H15.0787L15.7853 19H16.25C16.6642 19 17 19.3358 17 19.75C17 20.1642 16.6642 20.5 16.25 20.5H8.25C7.83579 20.5 7.5 20.1642 7.5 19.75C7.5 19.3358 7.83579 19 8.25 19H8.71474L9.42134 16.9444H6.25C4.73121 16.9444 3.5 15.7132 3.5 14.1944V6.19444ZM11.0075 16.9444L10.3009 19H14.1991L13.4925 16.9444H11.0075ZM6.25 4.94444C5.55964 4.94444 5 5.50409 5 6.19444V7.44444H19.5V6.19444C19.5 5.50409 18.9404 4.94444 18.25 4.94444H6.25ZM19.5 8.94444H5V14.1944C5 14.8848 5.55964 15.4444 6.25 15.4444H18.25C18.9404 15.4444 19.5 14.8848 19.5 14.1944V8.94444Z" fill="currentColor"/>
<path d="M6.4375 5.69444C6.02501 5.69444 5.75 5.9694 5.75 6.38191C5.75 6.79442 6.02501 7.06944 6.4375 7.06944C6.84999 7.06944 7.125 6.79442 7.125 6.38191C7.125 5.9694 6.84999 5.69444 6.4375 5.69444Z" fill="currentColor"/>
<path d="M8.625 5.69448C8.21251 5.69448 7.9375 5.96943 7.9375 6.38194C7.9375 6.79445 8.21251 7.06948 8.625 7.06948C9.03749 7.06948 9.3125 6.79445 9.3125 6.38194C9.3125 5.96943 9.03749 5.69448 8.625 5.69448Z" fill="currentColor"/>
<path d="M10.8125 5.69448C10.4 5.69448 10.125 5.96943 10.125 6.38194C10.125 6.79445 10.4 7.06948 10.8125 7.06948C11.225 7.06948 11.5 6.79445 11.5 6.38194C11.5 5.96943 11.225 5.69448 10.8125 5.69448Z" fill="currentColor"/>
<path fill-rule="evenodd" clip-rule="evenodd" d="M12.25 9.19444C12.5261 9.19444 12.75 9.4183 12.75 9.69444V9.84754C13.138 9.93933 13.4146 10.237 13.5657 10.5449C13.6874 10.7928 13.5851 11.0923 13.3372 11.214C13.0893 11.3357 12.7897 11.2334 12.668 10.9855C12.6315 10.911 12.5906 10.866 12.5596 10.8428C12.5321 10.8221 12.5139 10.8188 12.5001 10.8187L12.2488 10.8195L11.9517 10.8187C11.9367 10.8188 11.896 10.8253 11.8459 10.8879C11.7948 10.9518 11.75 11.0589 11.75 11.1959C11.75 11.4454 11.8842 11.5561 11.9312 11.571M11.9312 11.571L12.8684 11.8653C13.4439 12.0471 13.75 12.638 13.75 13.1944C13.75 13.785 13.3879 14.4388 12.75 14.5538V14.6944C12.75 14.9706 12.5261 15.1944 12.25 15.1944C11.9739 15.1944 11.75 14.9706 11.75 14.6944V14.5427C11.3609 14.4504 11.0841 14.1505 10.9335 13.8428C10.8121 13.5948 10.9147 13.2953 11.1627 13.1739C11.4108 13.0525 11.7103 13.1552 11.8317 13.4032C11.8683 13.4781 11.9095 13.5237 11.9409 13.5474C11.9691 13.5686 11.9874 13.5716 12.0003 13.5716H12.2034C12.2187 13.5702 12.2343 13.5694 12.25 13.5694C12.2657 13.5694 12.2813 13.5702 12.2966 13.5716H12.5483C12.5632 13.5716 12.6037 13.5654 12.6541 13.5024C12.7053 13.4384 12.75 13.3312 12.75 13.1944C12.75 12.9455 12.6167 12.8346 12.5681 12.8191L11.6316 12.525C11.0557 12.3441 10.75 11.752 10.75 11.1959C10.75 10.6042 11.1129 9.95144 11.75 9.83649V9.69444C11.75 9.4183 11.9739 9.19444 12.25 9.19444" fill="currentColor"/>
</svg>
