<svg width="24" height="24" viewBox="0 0 24 24" fill="none" xmlns="http://www.w3.org/2000/svg">
<path fill-rule="evenodd" clip-rule="evenodd" d="M5.75 4.5C5.05964 4.5 4.5 5.05964 4.5 5.75V10.6389C4.5 11.3292 5.05964 11.8889 5.75 11.8889H8.86111C9.55147 11.8889 10.1111 11.3292 10.1111 10.6389V5.75C10.1111 5.05964 9.55147 4.5 8.86111 4.5H5.75ZM3 5.75C3 4.23122 4.23122 3 5.75 3H8.86111C10.3799 3 11.6111 4.23122 11.6111 5.75V10.6389C11.6111 12.1577 10.3799 13.3889 8.86111 13.3889H5.75C4.23122 13.3889 3 12.1577 3 10.6389V5.75ZM14.6389 4.5C13.9485 4.5 13.3889 5.05964 13.3889 5.75V7.08333C13.3889 7.77369 13.9485 8.33333 14.6389 8.33333H17.75C18.4404 8.33333 19 7.77369 19 7.08333V5.75C19 5.05964 18.4404 4.5 17.75 4.5H14.6389ZM11.8889 5.75C11.8889 4.23122 13.1201 3 14.6389 3H17.75C19.2688 3 20.5 4.23122 20.5 5.75V7.08333C20.5 8.60211 19.2688 9.83333 17.75 9.83333H14.6389C13.1201 9.83333 11.8889 8.60212 11.8889 7.08333V5.75ZM14.6389 11.6111C13.9485 11.6111 13.3889 12.1708 13.3889 12.8611V17.75C13.3889 18.4404 13.9485 19 14.6389 19H17.75C18.4404 19 19 18.4404 19 17.75V12.8611C19 12.1708 18.4404 11.6111 17.75 11.6111H14.6389ZM11.8889 12.8611C11.8889 11.3423 13.1201 10.1111 14.6389 10.1111H17.75C19.2688 10.1111 20.5 11.3423 20.5 12.8611V17.75C20.5 19.2688 19.2688 20.5 17.75 20.5H14.6389C13.1201 20.5 11.8889 19.2688 11.8889 17.75V12.8611ZM5.75 15.1667C5.05964 15.1667 4.5 15.7263 4.5 16.4167V17.75C4.5 18.4404 5.05964 19 5.75 19H8.86111C9.55147 19 10.1111 18.4404 10.1111 17.75V16.4167C10.1111 15.7263 9.55147 15.1667 8.86111 15.1667H5.75ZM3 16.4167C3 14.8979 4.23122 13.6667 5.75 13.6667H8.86111C10.3799 13.6667 11.6111 14.8979 11.6111 16.4167V17.75C11.6111 19.2688 10.3799 20.5 8.86111 20.5H5.75C4.23122 20.5 3 19.2688 3 17.75V16.4167Z" fill="#171C1F"/>
</svg>
