<svg width="24" height="24" viewBox="0 0 24 24" fill="none" xmlns="http://www.w3.org/2000/svg">
<path fill-rule="evenodd" clip-rule="evenodd" d="M3 3.75C3 2.23122 4.23122 1 5.75 1H17.75C19.2688 1 20.5 2.23122 20.5 3.75V8.625C20.5 9.03921 20.1642 9.375 19.75 9.375C19.3358 9.375 19 9.03921 19 8.625V3.75C19 3.05964 18.4404 2.5 17.75 2.5H5.75C5.05964 2.5 4.5 3.05964 4.5 3.75V19.75C4.5 20.4404 5.05964 21 5.75 21H8.95C9.36421 21 9.7 21.3358 9.7 21.75C9.7 22.1642 9.36421 22.5 8.95 22.5H5.75C4.23122 22.5 3 21.2688 3 19.75V3.75ZM7 4.75C7 4.33579 7.33579 4 7.75 4H15.75C16.1642 4 16.5 4.33579 16.5 4.75C16.5 5.16421 16.1642 5.5 15.75 5.5H7.75C7.33579 5.5 7 5.16421 7 4.75ZM7 7.625C7 7.21079 7.33579 6.875 7.75 6.875H9.75C10.1642 6.875 10.5 7.21079 10.5 7.625C10.5 8.03921 10.1642 8.375 9.75 8.375H7.75C7.33579 8.375 7 8.03921 7 7.625ZM14.25 9.5C11.0687 9.5 8.5 12.0568 8.5 15.1981C8.5 16.7434 9.12154 18.1472 10.1318 19.1748C10.0487 19.054 10 18.9077 10 18.75C10 18.3358 10.3358 18 10.75 18C10.7536 18 10.7571 18 10.7604 18.0001C10.7728 18.0002 10.7838 18.0004 10.7953 17.9982C10.2725 17.1595 10 16.2691 10 15.2566C10 14.957 10.1783 14.6862 10.4535 14.5677L11 14.3324V12.4167C11 12.0236 11.1678 11.658 11.4475 11.397C11.7254 11.1376 12.092 11 12.4643 11H13.5V10.75C13.5 10.3358 13.8358 10 14.25 10C14.6642 10 15 10.3358 15 10.75V11H16.0357C16.408 11 16.7746 11.1376 17.0525 11.397C17.3322 11.658 17.5 12.0236 17.5 12.4167V14.3325L18.0464 14.5677C18.3197 14.6853 18.4976 14.9533 18.4999 15.2508C18.5071 16.1869 18.2504 17.1057 17.7597 17.9079C17.7404 17.9393 17.7193 17.9688 17.6965 17.9963C17.7087 17.9983 17.7261 18 17.75 18C18.1642 18 18.5 18.3358 18.5 18.75C18.5 18.9077 18.4513 19.0541 18.3681 19.1748C19.3794 18.1467 20 16.7444 20 15.1981C20 12.0568 17.4313 9.5 14.25 9.5ZM18.1527 19.3828C18.0364 19.457 17.8982 19.5 17.75 19.5C17.3678 19.5 17.0532 19.3897 16.7942 19.2107C16.5737 19.0583 16.4119 18.8652 16.3156 18.7501C16.3104 18.744 16.3055 18.7381 16.3007 18.7324C16.2455 18.6666 16.209 18.6236 16.173 18.5862C16.1393 18.5512 16.1173 18.5331 16.1029 18.5232C16.0905 18.5146 16.0823 18.511 16.0742 18.5084C16.0657 18.5058 16.0436 18.5 16 18.5C15.9964 18.5 15.9929 18.5 15.9896 18.4999C15.9306 18.4992 15.9039 18.4988 15.6894 18.7439C15.6823 18.752 15.675 18.7604 15.6674 18.7691C15.4499 19.0189 15.0309 19.5 14.25 19.5C13.8678 19.5 13.5532 19.3897 13.2942 19.2107C13.0737 19.0583 12.9119 18.8652 12.8156 18.7501C12.8104 18.744 12.8055 18.7381 12.8007 18.7324C12.7455 18.6666 12.709 18.6236 12.673 18.5862C12.6393 18.5512 12.6173 18.5331 12.6029 18.5232C12.5905 18.5146 12.5823 18.511 12.5742 18.5084C12.5657 18.5058 12.5436 18.5 12.5 18.5C12.4964 18.5 12.4929 18.5 12.4896 18.4999C12.4306 18.4992 12.4039 18.4988 12.1894 18.7439C12.1823 18.752 12.175 18.7604 12.1674 18.7691C11.9499 19.0189 11.5309 19.5 10.75 19.5C10.6017 19.5 10.4635 19.457 10.3472 19.3827C11.3715 20.3217 12.7419 20.8963 14.25 20.8963C15.7575 20.8963 17.1275 20.3224 18.1527 19.3828ZM16.5111 17.0735C16.7548 16.6597 16.9102 16.2057 16.971 15.7378L15 14.8894V15.25C15 15.6642 14.6642 16 14.25 16C13.8358 16 13.5 15.6642 13.5 15.25V14.8894L11.5297 15.7375C11.5897 16.2084 11.7413 16.6439 11.9907 17.0756C12.1405 17.0286 12.3095 17 12.5 17C12.8822 17 13.1968 17.1103 13.4558 17.2893C13.6763 17.4417 13.8381 17.6348 13.9344 17.7499C13.9396 17.756 13.9445 17.7619 13.9493 17.7676C14.0045 17.8334 14.041 17.8764 14.077 17.9138C14.1107 17.9488 14.1327 17.9669 14.1471 17.9768C14.1595 17.9854 14.1677 17.989 14.1758 17.9916C14.1843 17.9942 14.2064 18 14.25 18C14.2536 18 14.2571 18 14.2604 18.0001C14.3194 18.0008 14.3461 18.0012 14.5606 17.7561C14.5677 17.748 14.575 17.7396 14.5826 17.7309C14.8001 17.4811 15.2191 17 16 17C16.1859 17 16.3558 17.0261 16.5111 17.0735ZM16 13.6868V12.5H12.5V13.6867L13.9534 13.0611C14.1427 12.9796 14.3572 12.9796 14.5465 13.0611L16 13.6868ZM7 15.1981C7 11.2171 10.2516 8 14.25 8C18.2484 8 21.5 11.2171 21.5 15.1981C21.5 16.9402 20.876 18.5378 19.8402 19.7818L21.2799 21.2193C21.573 21.5119 21.5734 21.9868 21.2807 22.2799C20.9881 22.573 20.5132 22.5734 20.2201 22.2807L18.7664 20.8293C17.5273 21.81 15.9567 22.3963 14.25 22.3963C10.2516 22.3963 7 19.1792 7 15.1981Z" fill="currentColor"/>
</svg>
