<svg width="32" height="32" viewBox="0 0 32 32" fill="none" xmlns="http://www.w3.org/2000/svg">
<g id="Icon">
<mask id="mask0_2983_244830" style="mask-type:alpha" maskUnits="userSpaceOnUse" x="0" y="0" width="32" height="32">
<rect id="Bounding box" width="32" height="32" fill="#D9D9D9"/>
</mask>
<g mask="url(#mask0_2983_244830)">
<g id="Group 1000003743">
<g id="Group">
<path id="Vector" d="M12.6842 21.7051C11.1327 21.7051 9.86914 22.9633 9.86914 24.5201C9.86914 26.077 11.1274 27.3352 12.6842 27.3352C14.241 27.3352 15.4993 26.077 15.4993 24.5201C15.4993 22.9633 14.241 21.7051 12.6842 21.7051ZM12.6842 25.6131C12.0817 25.6131 11.5912 25.1226 11.5912 24.5201C11.5912 23.9177 12.0817 23.4272 12.6842 23.4272C13.2867 23.4272 13.7772 23.9177 13.7772 24.5201C13.7772 25.1226 13.2867 25.6131 12.6842 25.6131Z" fill="currentColor"/>
<path id="Vector_2" d="M25.7936 21.7051C24.2421 21.7051 22.9785 22.9633 22.9785 24.5201C22.9785 26.077 24.2368 27.3352 25.7936 27.3352C27.3504 27.3352 28.6086 26.077 28.6086 24.5201C28.6086 22.9633 27.3504 21.7051 25.7936 21.7051ZM25.7936 25.6131C25.1911 25.6131 24.7006 25.1226 24.7006 24.5201C24.7006 23.9177 25.1911 23.4272 25.7936 23.4272C26.396 23.4272 26.8865 23.9177 26.8865 24.5201C26.8865 25.1226 26.396 25.6131 25.7936 25.6131Z" fill="currentColor"/>
<path id="Vector_3" d="M6.47198 21.3267H4.48331C4.15809 20.4416 3.3157 19.8018 2.31337 19.8018C1.03379 19.8018 -0.00585938 20.8415 -0.00585938 22.1211C-0.00585938 23.2992 0.875519 24.274 2.01403 24.4211C2.17835 24.4423 2.31337 24.306 2.31337 24.1403V23.414C2.31337 23.3036 2.22302 23.216 2.1144 23.1959C1.60653 23.102 1.2204 22.6556 1.2204 22.1211C1.2204 21.5186 1.7109 21.0281 2.31337 21.0281C2.73456 21.0281 3.09711 21.268 3.27838 21.6199C3.27838 21.6199 3.43299 21.8705 3.42233 22.2117C3.41757 22.4594 3.58226 22.7395 3.83 22.7395H6.47198V23.9149C6.47198 24.2463 6.74061 24.5149 7.07198 24.5149H8.98314C8.98314 22.473 10.6413 20.8148 12.6832 20.8148C14.7252 20.8148 16.3833 22.473 16.3833 24.5149H22.0988C22.0988 22.473 23.7569 20.8148 25.7989 20.8148C27.8409 20.8148 29.499 22.473 29.499 24.5149H31.4101C31.7415 24.5149 32.0101 24.2463 32.0101 23.9149V19.8207C32.0101 19.4893 31.7415 19.2207 31.4101 19.2207H7.07198C6.74061 19.2207 6.47198 19.4893 6.47198 19.8207V21.3267Z" fill="currentColor"/>
</g>
<path id="Vector_4" d="M30.8601 7.37488C31.1915 7.37488 31.4601 7.10625 31.4601 6.77487V4.6C31.4601 4.26863 31.1915 4 30.8601 4H28.6852C28.3539 4 28.0852 4.26863 28.0852 4.6V4.83705H10.3632V4.6C10.3632 4.26863 10.0945 4 9.76316 4H7.58828C7.25691 4 6.98828 4.26863 6.98828 4.6V6.77488C6.98828 7.10625 7.25691 7.37488 7.58828 7.37488H7.87865V14.6365H7.58828C7.25691 14.6365 6.98828 14.9051 6.98828 15.2365V17.4113C6.98828 17.7427 7.25691 18.0113 7.58828 18.0113H9.76316C10.0945 18.0113 10.3632 17.7427 10.3632 17.4113V17.1743H28.0852V17.4113C28.0852 17.7427 28.3539 18.0113 28.6852 18.0113H30.8601C31.1915 18.0113 31.4601 17.7427 31.4601 17.4113V15.2365C31.4601 14.9051 31.1915 14.6365 30.8601 14.6365H30.5911V7.37488H30.8601ZM13.5514 15.047C13.5514 15.4362 13.2369 15.7561 12.8423 15.7561C12.4478 15.7561 12.1332 15.4415 12.1332 15.047V6.96968C12.1332 6.58047 12.4478 6.26058 12.8423 6.26058C13.2369 6.26058 13.5514 6.57514 13.5514 6.96968V15.047ZM19.9333 15.047C19.9333 15.4362 19.6187 15.7561 19.2242 15.7561C18.8297 15.7561 18.5151 15.4415 18.5151 15.047V6.96968C18.5151 6.58047 18.8297 6.26058 19.2242 6.26058C19.6187 6.26058 19.9333 6.57514 19.9333 6.96968V15.047ZM26.3152 15.047C26.3152 15.4362 26.0006 15.7561 25.6061 15.7561C25.2115 15.7561 24.897 15.4415 24.897 15.047V6.96968C24.897 6.58047 25.2115 6.26058 25.6061 6.26058C26.0006 6.26058 26.3152 6.57514 26.3152 6.96968V15.047Z" fill="currentColor"/>
</g>
</g>
</g>
</svg>
