<svg width="24" height="24" viewBox="0 0 24 24" fill="none" xmlns="http://www.w3.org/2000/svg">
<path fill-rule="evenodd" clip-rule="evenodd" d="M12.1665 4.75C11.2714 4.75 10.413 5.10558 9.78002 5.73851C9.14708 6.37145 8.7915 7.22989 8.7915 8.125H7.2915C7.2915 6.83207 7.80512 5.59209 8.71936 4.67785C9.6336 3.76361 10.8736 3.25 12.1665 3.25C13.4594 3.25 14.6994 3.76361 15.6136 4.67785C16.5279 5.59209 17.0415 6.83207 17.0415 8.125H15.5415C15.5415 7.22989 15.1859 6.37145 14.553 5.73851C13.9201 5.10558 13.0616 4.75 12.1665 4.75Z" fill="#171C1F"/>
<path fill-rule="evenodd" clip-rule="evenodd" d="M8.63179 11.2798C7.93767 10.4055 7.2915 9.29573 7.2915 8.125H8.7915C8.7915 8.77522 9.1719 9.54771 9.80659 10.3472C10.4193 11.119 11.1826 11.8087 11.7657 12.2857C11.8817 12.3707 12.0218 12.4166 12.1658 12.4167C12.3098 12.4167 12.45 12.3708 12.566 12.2859C13.1496 11.809 13.9131 11.1193 14.5261 10.3474C15.161 9.54787 15.5415 8.77528 15.5415 8.125H17.0415C17.0415 9.29588 16.3952 10.4058 15.7008 11.2802C14.9887 12.1769 14.1269 12.9484 13.5019 13.4582C13.495 13.4639 13.4879 13.4694 13.4808 13.4748C13.1023 13.7616 12.6404 13.9168 12.1655 13.9167C11.6906 13.9166 11.2288 13.7612 10.8505 13.4743C10.8433 13.4689 10.8362 13.4633 10.8293 13.4576C10.205 12.9479 9.34355 12.1764 8.63179 11.2798Z" fill="#171C1F"/>
<path fill-rule="evenodd" clip-rule="evenodd" d="M19.4998 17.125C18.9015 17.125 18.4165 17.61 18.4165 18.2083C18.4165 18.8066 18.9015 19.2917 19.4998 19.2917C20.0981 19.2917 20.5832 18.8066 20.5832 18.2083C20.5832 17.61 20.0981 17.125 19.4998 17.125ZM16.9165 18.2083C16.9165 16.7816 18.0731 15.625 19.4998 15.625C20.9266 15.625 22.0832 16.7816 22.0832 18.2083C22.0832 19.6351 20.9266 20.7917 19.4998 20.7917C18.0731 20.7917 16.9165 19.6351 16.9165 18.2083Z" fill="#171C1F"/>
<path fill-rule="evenodd" clip-rule="evenodd" d="M4.83333 17.125C4.23502 17.125 3.75 17.61 3.75 18.2083C3.75 18.8066 4.23502 19.2917 4.83333 19.2917C5.43164 19.2917 5.91667 18.8066 5.91667 18.2083C5.91667 17.61 5.43164 17.125 4.83333 17.125ZM2.25 18.2083C2.25 16.7816 3.4066 15.625 4.83333 15.625C6.26007 15.625 7.41667 16.7816 7.41667 18.2083C7.41667 19.6351 6.26007 20.7917 4.83333 20.7917C3.4066 20.7917 2.25 19.6351 2.25 18.2083Z" fill="#171C1F"/>
<path fill-rule="evenodd" clip-rule="evenodd" d="M14.458 17.4585H17.6663V18.9585H14.458V17.4585Z" fill="#171C1F"/>
<path fill-rule="evenodd" clip-rule="evenodd" d="M9.87484 18.9585H6.6665V17.4585H9.87484V18.9585Z" fill="#171C1F"/>
<path fill-rule="evenodd" clip-rule="evenodd" d="M12.1667 16.6665C11.3152 16.6665 10.625 17.3567 10.625 18.2082C10.625 19.0596 11.3152 19.7498 12.1667 19.7498C13.0181 19.7498 13.7083 19.0596 13.7083 18.2082C13.7083 17.3567 13.0181 16.6665 12.1667 16.6665ZM9.125 18.2082C9.125 16.5283 10.4868 15.1665 12.1667 15.1665C13.8465 15.1665 15.2083 16.5283 15.2083 18.2082C15.2083 19.888 13.8465 21.2498 12.1667 21.2498C10.4868 21.2498 9.125 19.888 9.125 18.2082Z" fill="#171C1F"/>
<path d="M13.0814 8.07927C13.0814 8.58473 12.6716 8.99449 12.1662 8.99449C11.6607 8.99449 11.251 8.58473 11.251 8.07927C11.251 7.57382 11.6607 7.16406 12.1662 7.16406C12.6716 7.16406 13.0814 7.57382 13.0814 8.07927Z" fill="#171C1F"/>
</svg>
