<svg width="24" height="24" viewBox="0 0 24 24" fill="none" xmlns="http://www.w3.org/2000/svg">
<g id="Icon">
<path id="Vector" d="M20.2875 9.105L15.4575 6.69C15.8475 5.985 16.0575 5.31 16.0575 4.68C16.0575 3.4875 15.6675 2.52 14.895 1.815C14.1225 1.11 13.2225 0.75 12.21 0.75C11.1975 0.75 10.2975 1.11 9.525 1.815C8.7525 2.5275 8.3625 3.4875 8.3625 4.68C8.3625 5.31 8.5725 5.985 8.9625 6.69L8.01 7.17L4.1475 9.105C3.9075 9.225 3.75 9.4725 3.75 9.7425V17.6775C3.75 18.5175 4.2225 19.2825 4.9725 19.6575L11.895 23.115C12.0975 23.2125 12.33 23.2125 12.5325 23.115L19.455 19.6575C20.205 19.2825 20.6775 18.5175 20.6775 17.6775V9.7425C20.6775 9.4725 20.5275 9.225 20.28 9.105H20.2875ZM18.27 9.69L16.095 10.62L13.29 9.3225C13.8075 8.82 14.2575 8.34 14.6325 7.875L18.2625 9.69H18.27ZM10.47 2.8425C10.9425 2.37 11.535 2.13 12.2175 2.13C12.9 2.13 13.5 2.37 13.9725 2.8425C14.445 3.315 14.685 3.9375 14.685 4.68C14.685 5.16 14.475 5.73 14.07 6.3675C13.665 6.9975 13.0425 7.71 12.225 8.4675C11.4 7.7025 10.785 6.9975 10.38 6.3675C9.975 5.73 9.765 5.16 9.765 4.68C9.765 3.9375 10.005 3.315 10.485 2.8425H10.47ZM11.505 21.3225L5.61 18.375C5.34 18.24 5.175 17.97 5.175 17.67V10.815L11.505 13.53V21.3225ZM12.2175 12.285L6.1575 9.69L8.355 8.595L14.3475 11.3775L12.2175 12.2925V12.285ZM19.2525 17.67C19.2525 17.97 19.0875 18.24 18.8175 18.375L12.9225 21.3225V13.53L15.375 12.48V14.7225C15.375 15.1125 15.6975 15.435 16.0875 15.435C16.4775 15.435 16.8 15.1125 16.8 14.7225V11.8725L19.2525 10.8225V17.6775V17.67ZM11.475 5.325C11.2725 5.1225 11.1675 4.8675 11.1675 4.5825C11.1675 4.2975 11.2725 4.0425 11.475 3.84C11.6775 3.6375 11.9325 3.5325 12.2175 3.5325C12.5025 3.5325 12.7575 3.6375 12.96 3.84C13.1625 4.0425 13.2675 4.2975 13.2675 4.5825C13.2675 4.8675 13.1625 5.1225 12.96 5.325C12.7575 5.5275 12.5025 5.6325 12.2175 5.6325C11.9325 5.6325 11.685 5.5275 11.475 5.325Z" fill="black"/>
</g>
</svg>
