<svg width="24" height="24" viewBox="0 0 24 24" fill="none" xmlns="http://www.w3.org/2000/svg">
<path fill-rule="evenodd" clip-rule="evenodd" d="M4.05 7C4.05 5.48122 5.28122 4.25 6.8 4.25H17.2C18.7188 4.25 19.95 5.48122 19.95 7V14.3691L21.7057 19.246C21.846 19.6357 21.6438 20.0654 21.254 20.2057C20.8643 20.346 20.4346 20.1438 20.2943 19.754L18.6729 15.25H5.28055L3.67055 18.75H16.7C17.1142 18.75 17.45 19.0858 17.45 19.5C17.45 19.9142 17.1142 20.25 16.7 20.25H2.5C2.2444 20.25 2.0064 20.1198 1.86851 19.9046C1.73061 19.6894 1.71182 19.4188 1.81863 19.1866L4.05 14.3358V7ZM5.55 13.75H18.45V7C18.45 6.30964 17.8904 5.75 17.2 5.75H6.8C6.10965 5.75 5.55 6.30964 5.55 7V13.75ZM6.45 17C6.45 16.5858 6.78579 16.25 7.2 16.25H17.2C17.6142 16.25 17.95 16.5858 17.95 17C17.95 17.4142 17.6142 17.75 17.2 17.75H7.2C6.78579 17.75 6.45 17.4142 6.45 17Z" fill="currentColor"/>
<path fill-rule="evenodd" clip-rule="evenodd" d="M11.4602 6.50549C11.6649 6.36484 11.9351 6.36484 12.1398 6.50549L14.9398 8.42947C15.1027 8.54139 15.2 8.72635 15.2 8.92398V12.5263C15.2 12.8577 14.9314 13.1263 14.6 13.1263H9C8.66863 13.1263 8.4 12.8577 8.4 12.5263V8.92398C8.4 8.72635 8.49732 8.54139 8.66021 8.42947L11.4602 6.50549ZM9.6 10.0229V11.9263H14V10.0229L12.1244 11.2285C11.9268 11.3556 11.6732 11.3556 11.4756 11.2285L9.6 10.0229ZM13.5163 8.90732L11.8 10.0105L10.0837 8.90732L11.8 7.72799L13.5163 8.90732Z" fill="currentColor"/>
</svg>
