<svg width="24" height="24" viewBox="0 0 24 24" fill="none" xmlns="http://www.w3.org/2000/svg">
<g id="Icon">
<path id="Vector" fill-rule="evenodd" clip-rule="evenodd" d="M15.7969 16.5796L15.3844 16.1746C15.2044 16.2871 15.0094 16.3846 14.8069 16.4596C14.6044 16.5271 14.3944 16.5796 14.1769 16.6171C14.0494 16.6396 13.9294 16.6471 13.8244 16.6471C13.7269 16.6471 13.6444 16.6471 13.5769 16.6396H13.5169C13.4269 16.6396 13.3669 16.6246 13.3369 16.5946C13.3069 16.5646 13.2919 16.5046 13.2994 16.4221L13.3219 15.4696C13.3294 15.4021 13.3519 15.3571 13.3744 15.3346C13.3894 15.3196 13.4119 15.3046 13.4419 15.2971C13.4719 15.2896 13.5169 15.2821 13.5619 15.2821C13.6219 15.2746 13.6969 15.2671 13.7944 15.2671C13.8844 15.2671 13.9819 15.2446 14.0944 15.2221C14.2519 15.1921 14.3944 15.1471 14.5219 15.0871C14.6569 15.0346 14.7694 14.9521 14.8744 14.8471C14.9719 14.7496 15.0394 14.6596 15.0844 14.5771C15.1219 14.4871 15.1444 14.4121 15.1519 14.3371C15.1519 14.2621 15.1369 14.1946 15.1069 14.1346C15.0769 14.0671 15.0319 14.0146 14.9794 13.9621C14.9194 13.9021 14.8519 13.8721 14.7619 13.8721C14.6719 13.8646 14.5744 13.8796 14.4769 13.9096C14.3719 13.9396 14.2819 13.9696 14.1844 14.0146C14.0869 14.0596 14.0044 14.0971 13.9369 14.1346C13.6369 14.2771 13.3519 14.3896 13.0969 14.4721C12.8344 14.5471 12.5944 14.5846 12.3694 14.5921C12.1444 14.5921 11.9344 14.5471 11.7469 14.4721C11.5594 14.3971 11.3794 14.2696 11.2144 14.1046C11.0719 13.9621 10.9594 13.8046 10.8844 13.6321C10.8169 13.4671 10.7719 13.2871 10.7719 13.0996C10.7644 12.9121 10.7944 12.7246 10.8544 12.5296C10.9219 12.3271 11.0194 12.1321 11.1469 11.9371L10.7569 11.5471L11.5444 10.7596L11.9194 11.1346C12.0469 11.0521 12.1744 10.9771 12.3094 10.9096C12.4444 10.8421 12.5869 10.7896 12.7444 10.7446C12.8419 10.7146 12.9469 10.6996 13.0444 10.6846C13.1419 10.6621 13.2319 10.6471 13.3069 10.6471C13.3894 10.6396 13.4569 10.6396 13.5169 10.6471C13.5769 10.6546 13.6219 10.6771 13.6444 10.6996C13.6669 10.7221 13.6819 10.7521 13.6894 10.7821C13.7044 10.8196 13.7044 10.8571 13.7119 10.9096L13.7344 11.7946C13.7344 11.8621 13.7194 11.9071 13.6894 11.9446C13.6669 11.9671 13.6294 11.9821 13.5919 11.9896C13.5619 11.9971 13.5169 12.0046 13.4644 12.0046H13.4194C13.3519 12.0121 13.2769 12.0271 13.1944 12.0346C13.1119 12.0496 13.0369 12.0646 12.9544 12.0946C12.8794 12.1171 12.7969 12.1471 12.7219 12.1921C12.6469 12.2296 12.5794 12.2821 12.5194 12.3421C12.4594 12.4021 12.4069 12.4696 12.3619 12.5296C12.3169 12.5971 12.2869 12.6571 12.2644 12.7246C12.2494 12.7846 12.2419 12.8521 12.2569 12.9121C12.2719 12.9721 12.3019 13.0246 12.3544 13.0771C12.4069 13.1296 12.4669 13.1671 12.5269 13.1821C12.5944 13.1896 12.6694 13.1896 12.7519 13.1671C12.8419 13.1446 12.9319 13.1146 13.0444 13.0696C13.1494 13.0171 13.2694 12.9571 13.4044 12.8896C13.6744 12.7546 13.9219 12.6421 14.1619 12.5446C14.4019 12.4471 14.6344 12.3871 14.8594 12.3646C15.0769 12.3421 15.2869 12.3646 15.4894 12.4321C15.6994 12.4996 15.9019 12.6346 16.0969 12.8296C16.2694 13.0021 16.4044 13.1971 16.4869 13.4071C16.5694 13.6171 16.6144 13.8346 16.6219 14.0596C16.6219 14.2846 16.5919 14.5096 16.5169 14.7346C16.4419 14.9596 16.3294 15.1846 16.1794 15.3946L16.5844 15.7921L15.7969 16.5796ZM20.7394 16.2496L16.2469 20.7346C15.0469 21.9421 13.0894 21.9421 11.8894 20.7346L5.9044 14.7496C5.3344 14.1796 5.0119 13.4146 5.0044 12.6121L4.9444 8.05963C4.9369 7.80463 4.9669 7.54963 5.0269 7.30963C4.5994 7.03963 4.1869 6.77713 3.8419 6.53713C3.4594 6.27463 3.1069 6.01213 2.8744 5.77963C2.3344 5.23963 2.1844 4.60963 2.2744 4.03963C2.3569 3.52213 2.6344 3.10963 2.8744 2.87713C3.1144 2.63713 3.5269 2.35963 4.0444 2.27713C4.6144 2.17963 5.2444 2.33713 5.7844 2.87713C6.1669 3.25963 6.6019 3.79963 6.9694 4.26463C7.0369 4.33963 7.0969 4.41464 7.1494 4.48964C7.3069 4.68464 7.4344 4.84963 7.5394 4.97713C7.7119 4.95463 7.8844 4.93963 8.0644 4.93963L12.6094 4.99963C13.4194 5.00713 14.1844 5.33713 14.7544 5.89963L20.7394 11.8846C21.9394 13.0921 21.9394 15.0421 20.7394 16.2496ZM5.9944 5.70463C5.9494 5.64463 5.8969 5.58463 5.8519 5.52463L5.8369 5.50964C5.7844 5.43464 5.7244 5.36713 5.6719 5.29213C5.2969 4.82713 4.9144 4.35463 4.6069 4.04713C4.5244 3.96463 4.4569 3.93463 4.4194 3.91963C4.3819 3.90463 4.3444 3.90463 4.3069 3.91963C4.2619 3.91963 4.2094 3.94963 4.1644 3.97963C4.1119 4.00213 4.0744 4.03963 4.0519 4.05463C4.0294 4.07713 3.9994 4.11463 3.9694 4.16713C3.9394 4.21963 3.9244 4.27213 3.9169 4.31713C3.9094 4.35463 3.9094 4.38463 3.9244 4.42213C3.9244 4.46713 3.9619 4.52713 4.0519 4.60963C4.1644 4.72963 4.4044 4.91713 4.7794 5.17213C5.0869 5.38213 5.4469 5.61463 5.8369 5.86213C5.8819 5.80963 5.9419 5.75713 5.9944 5.71213V5.70463ZM19.5619 13.0621L13.5769 7.07713C13.3144 6.81463 12.9619 6.66464 12.5869 6.65714L8.0419 6.60463C7.7869 6.59713 7.5394 6.66463 7.3369 6.77713L7.3519 6.79213C7.9069 7.12963 8.4469 7.45963 8.8894 7.74463C9.2794 7.98463 9.3919 8.50214 9.1444 8.88464C8.8969 9.27464 8.3869 9.38713 7.9969 9.13963C7.5844 8.88463 7.1119 8.59213 6.6019 8.28463L6.6619 12.5896C6.6694 12.9571 6.8119 13.3171 7.0744 13.5796L13.0669 19.5646C13.6219 20.1196 14.5219 20.1196 15.0769 19.5646L19.5619 15.0721C20.1169 14.5171 20.1169 13.6171 19.5619 13.0621Z" fill="black"/>
</g>
</svg>
