<svg width="24" height="24" viewBox="0 0 24 24" fill="none" xmlns="http://www.w3.org/2000/svg">
<path fill-rule="evenodd" clip-rule="evenodd" d="M3.25 6C3.25 4.48122 4.48122 3.25 6 3.25H18C19.5188 3.25 20.75 4.48122 20.75 6V9.5C20.75 9.91421 20.4142 10.25 20 10.25C19.5858 10.25 19.25 9.91421 19.25 9.5V6C19.25 5.30964 18.6904 4.75 18 4.75H6C5.30964 4.75 4.75 5.30964 4.75 6V18C4.75 18.6904 5.30964 19.25 6 19.25H9.2C9.61421 19.25 9.95 19.5858 9.95 20C9.95 20.4142 9.61421 20.75 9.2 20.75H6C4.48122 20.75 3.25 19.5188 3.25 18V6ZM7.25 8C7.25 7.58579 7.58579 7.25 8 7.25H16C16.4142 7.25 16.75 7.58579 16.75 8C16.75 8.41421 16.4142 8.75 16 8.75H8C7.58579 8.75 7.25 8.41421 7.25 8ZM7.25 12C7.25 11.5858 7.58579 11.25 8 11.25H16C16.4142 11.25 16.75 11.5858 16.75 12C16.75 12.4142 16.4142 12.75 16 12.75H8C7.58579 12.75 7.25 12.4142 7.25 12ZM7.25 16C7.25 15.5858 7.58579 15.25 8 15.25H10C10.4142 15.25 10.75 15.5858 10.75 16C10.75 16.4142 10.4142 16.75 10 16.75H8C7.58579 16.75 7.25 16.4142 7.25 16Z" fill="#171C1F"/>
<path fill-rule="evenodd" clip-rule="evenodd" d="M18.6719 11.4195C18.942 11.3076 19.2314 11.25 19.5238 11.25C19.8161 11.25 20.1056 11.3076 20.3757 11.4195C20.6458 11.5313 20.8912 11.6953 21.0979 11.902C21.3046 12.1088 21.4686 12.3542 21.5805 12.6243C21.6924 12.8943 21.75 13.1838 21.75 13.4762C21.75 13.7685 21.6924 14.058 21.5805 14.3281C21.4686 14.5982 21.3046 14.8436 21.0979 15.0503L14.618 21.5303C14.4773 21.671 14.2865 21.75 14.0876 21.75H12C11.5858 21.75 11.25 21.4142 11.25 21V18.9124C11.25 18.7135 11.329 18.5227 11.4697 18.382L17.4264 12.4253L17.4277 12.4239L17.4291 12.4226L17.9496 11.902C18.1564 11.6953 18.4018 11.5313 18.6719 11.4195ZM17.9581 14.0149L12.75 19.223V20.25H13.777L18.985 15.0419L17.9581 14.0149ZM20.0456 13.9812L19.0188 12.9543C19.0844 12.8908 19.1615 12.8403 19.2459 12.8053C19.334 12.7688 19.4284 12.75 19.5238 12.75C19.6191 12.75 19.7136 12.7688 19.8017 12.8053C19.8898 12.8418 19.9698 12.8953 20.0373 12.9627C20.1047 13.0301 20.1582 13.1102 20.1947 13.1983C20.2312 13.2864 20.25 13.3808 20.25 13.4762C20.25 13.5715 20.2312 13.666 20.1947 13.7541C20.1597 13.8385 20.1091 13.9155 20.0456 13.9812Z" fill="#171C1F"/>
</svg>
