<svg width="24" height="24" viewBox="0 0 24 24" fill="none" xmlns="http://www.w3.org/2000/svg">
<path fill-rule="evenodd" clip-rule="evenodd" d="M12.0001 5.08793C11.3124 4.56552 10.3509 4.09388 9.27467 3.76202C7.84793 3.32208 6.12501 3.09767 4.38581 3.36586C4.02005 3.42226 3.75011 3.73702 3.75011 4.1071V14.0178C3.75011 14.2367 3.84572 14.4447 4.01186 14.5871C4.178 14.7296 4.39809 14.7924 4.61441 14.7591C6.0895 14.5316 7.58086 14.7202 8.83269 15.1062C10.1055 15.4986 11.0384 16.0656 11.45 16.5098C11.5919 16.663 11.7913 16.75 12.0001 16.75C12.2089 16.75 12.4083 16.663 12.5502 16.5098C12.9618 16.0656 13.8948 15.4986 15.1675 15.1062C16.4194 14.7202 17.9107 14.5316 19.3858 14.7591C19.6021 14.7924 19.8222 14.7296 19.9884 14.5871C20.1545 14.4447 20.2501 14.2367 20.2501 14.0178V4.1071C20.2501 3.73702 19.9802 3.42226 19.6144 3.36586C17.8752 3.09767 16.1523 3.32208 14.7255 3.76202C13.6493 4.09388 12.6878 4.56552 12.0001 5.08793ZM11.2501 6.40877C10.7742 6.00157 9.92969 5.53368 8.83269 5.19542C7.76062 4.86485 6.51287 4.6791 5.25011 4.77544V13.1824C6.68938 13.0889 8.08499 13.3059 9.27467 13.6728C10.0019 13.897 10.6767 14.1851 11.2501 14.5095V6.40877ZM12.7501 14.5095C13.3235 14.1851 13.9983 13.897 14.7255 13.6728C15.9152 13.3059 17.3108 13.0889 18.7501 13.1824V4.77544C17.4874 4.6791 16.2396 4.86485 15.1675 5.19542C14.0705 5.53368 13.226 6.00157 12.7501 6.40877V14.5095ZM12.0001 18.0729C11.3326 17.6371 10.3761 17.1819 9.27815 16.8375C7.86723 16.3948 6.15069 16.1119 4.4113 16.3193C4 16.3683 3.70632 16.7415 3.75535 17.1528C3.80438 17.5641 4.17755 17.8577 4.58885 17.8087C6.06374 17.6329 7.56149 17.871 8.82914 18.2687C10.109 18.6702 11.0826 19.2113 11.5196 19.5759C11.7979 19.808 12.2023 19.808 12.4805 19.5759C12.9176 19.2113 13.8912 18.6702 15.171 18.2687C16.4387 17.871 17.9364 17.6329 19.4113 17.8087C19.8226 17.8577 20.1958 17.5641 20.2448 17.1528C20.2938 16.7415 20.0002 16.3683 19.5889 16.3193C17.8495 16.1119 16.1329 16.3948 14.722 16.8375C13.6241 17.1819 12.6675 17.6371 12.0001 18.0729Z" fill="#171C1F"/>
</svg>
