<svg width="21" height="19" viewBox="0 0 21 19" fill="none" xmlns="http://www.w3.org/2000/svg">
<path fill-rule="evenodd" clip-rule="evenodd" d="M12.7109 15.776C13.2307 15.5161 13.801 15.3726 14.3819 15.3555C14.9629 15.3384 15.5406 15.4481 16.0749 15.677L16.2889 15.777L18.9469 17.105C19.1752 17.219 19.3513 17.416 19.4391 17.6556C19.5269 17.8952 19.5198 18.1593 19.4192 18.3938C19.3186 18.6284 19.1322 18.8156 18.898 18.9171C18.6639 19.0187 18.3998 19.0268 18.1599 18.94L18.0529 18.894L15.3939 17.565C15.1445 17.4403 14.8719 17.3692 14.5934 17.3561C14.3149 17.343 14.0368 17.3883 13.7769 17.489L13.6049 17.565L12.2889 18.224C11.7688 18.4839 11.1983 18.6273 10.6172 18.6442C10.036 18.6612 9.45816 18.5512 8.92385 18.322L8.71085 18.224L7.39385 17.565C7.1445 17.4403 6.87185 17.3692 6.59338 17.3561C6.31492 17.343 6.03679 17.3883 5.77685 17.489L5.60485 17.565L2.94685 18.895C2.7185 19.0105 2.45458 19.034 2.20939 18.9608C1.96421 18.8876 1.75643 18.7231 1.62881 18.5013C1.5012 18.2796 1.46346 18.0173 1.52336 17.7685C1.58327 17.5197 1.73626 17.3034 1.95085 17.164L2.05285 17.105L4.71085 15.776C5.23071 15.5161 5.80097 15.3726 6.38193 15.3555C6.96289 15.3384 7.5406 15.4481 8.07485 15.677L8.28885 15.777L9.60485 16.435C9.85433 16.5598 10.1272 16.631 10.4058 16.6441C10.6845 16.6572 10.9628 16.6119 11.2229 16.511L11.3939 16.435L12.7109 15.776ZM11.4999 0C11.7651 0 12.0194 0.105357 12.207 0.292893C12.3945 0.48043 12.4999 0.734784 12.4999 1V2.32L15.8289 2.874C16.2957 2.95209 16.7196 3.1932 17.0254 3.55446C17.3312 3.91572 17.4989 4.37371 17.4989 4.847V8.279L19.5589 8.965C19.7229 9.01973 19.8738 9.10791 20.0021 9.22397C20.1303 9.34003 20.2331 9.48143 20.3038 9.63924C20.3746 9.79705 20.4119 9.96783 20.4132 10.1408C20.4146 10.3137 20.3801 10.4851 20.3119 10.644L18.1429 15.704L16.2889 14.776C15.7334 14.4982 15.1209 14.3536 14.4999 14.3536C13.8788 14.3536 13.2663 14.4982 12.7109 14.776L11.3939 15.435C11.1161 15.5739 10.8099 15.6462 10.4994 15.6462C10.1888 15.6462 9.88258 15.5739 9.60485 15.435L8.28885 14.776C7.73339 14.4982 7.12089 14.3536 6.49985 14.3536C5.87882 14.3536 5.26631 14.4982 4.71085 14.776L3.44085 15.412L0.78285 10.761C0.691099 10.6004 0.63612 10.4215 0.621877 10.2371C0.607634 10.0527 0.634482 9.86748 0.700485 9.69472C0.766488 9.52197 0.870002 9.36601 1.00356 9.23809C1.13713 9.11017 1.29741 9.01349 1.47285 8.955L3.49985 8.279V4.847C3.49975 4.37371 3.66751 3.91572 3.97328 3.55446C4.27906 3.1932 4.70304 2.95209 5.16985 2.874L8.49985 2.32V1C8.49985 0.734784 8.60521 0.48043 8.79274 0.292893C8.98028 0.105357 9.23463 0 9.49985 0H11.4999ZM10.4999 4.014L5.49985 4.847V7.613L9.86685 6.157C10.2774 6.02014 10.7213 6.02014 11.1319 6.157L15.4999 7.613V4.847L10.4999 4.014Z" fill="currentColor"/>
</svg>
