<svg width="24" height="24" viewBox="0 0 24 24" fill="none" xmlns="http://www.w3.org/2000/svg">
<mask id="mask0_1808_320956" style="mask-type:alpha" maskUnits="userSpaceOnUse" x="0" y="0" width="24" height="24">
<rect width="24" height="24" fill="#D9D9D9"/>
</mask>
<g mask="url(#mask0_1808_320956)">
<path d="M6.43714 19.6371C5.66442 19.6371 5.0076 19.3667 4.46669 18.8258C3.92578 18.2849 3.65533 17.6281 3.65533 16.8553C3.14533 16.8553 2.70889 16.6739 2.34602 16.311C1.98253 15.9475 1.80078 15.5108 1.80078 15.0008V6.65533C1.80078 6.14533 1.98253 5.70889 2.34602 5.34602C2.70889 4.98253 3.14533 4.80078 3.65533 4.80078H14.7826C15.2926 4.80078 15.7293 4.98253 16.0928 5.34602C16.4557 5.70889 16.6371 6.14533 16.6371 6.65533V8.50987H18.9553C19.1099 8.50987 19.249 8.54078 19.3726 8.6026C19.4962 8.66442 19.6044 8.75714 19.6971 8.88078L22.0153 11.964C22.0771 12.0412 22.1235 12.1262 22.1544 12.219C22.1853 12.3117 22.2008 12.4121 22.2008 12.5203V15.9281C22.2008 16.1908 22.1118 16.4109 21.9337 16.5883C21.7563 16.7663 21.5362 16.8553 21.2735 16.8553H20.3462C20.3462 17.6281 20.0758 18.2849 19.5349 18.8258C18.994 19.3667 18.3371 19.6371 17.5644 19.6371C16.7917 19.6371 16.1349 19.3667 15.594 18.8258C15.0531 18.2849 14.7826 17.6281 14.7826 16.8553H9.21896C9.21896 17.6281 8.94851 18.2849 8.4076 18.8258C7.86669 19.3667 7.20987 19.6371 6.43714 19.6371ZM6.43714 17.7826C6.69987 17.7826 6.92025 17.6936 7.09829 17.5155C7.27571 17.3381 7.36442 17.1181 7.36442 16.8553C7.36442 16.5926 7.27571 16.3725 7.09829 16.1951C6.92025 16.0171 6.69987 15.9281 6.43714 15.9281C6.17442 15.9281 5.95404 16.0171 5.776 16.1951C5.59858 16.3725 5.50987 16.5926 5.50987 16.8553C5.50987 17.1181 5.59858 17.3381 5.776 17.5155C5.95404 17.6936 6.17442 17.7826 6.43714 17.7826ZM17.5644 17.7826C17.8271 17.7826 18.0472 17.6936 18.2246 17.5155C18.4027 17.3381 18.4917 17.1181 18.4917 16.8553C18.4917 16.5926 18.4027 16.3725 18.2246 16.1951C18.0472 16.0171 17.8271 15.9281 17.5644 15.9281C17.3017 15.9281 17.0816 16.0171 16.9042 16.1951C16.7262 16.3725 16.6371 16.5926 16.6371 16.8553C16.6371 17.1181 16.7262 17.3381 16.9042 17.5155C17.0816 17.6936 17.3017 17.7826 17.5644 17.7826ZM16.6371 13.1462H20.5781L18.4917 10.3644H16.6371V13.1462Z" fill="#196584"/>
</g>
</svg>
