<svg width="32" height="32" viewBox="0 0 32 32" fill="none" xmlns="http://www.w3.org/2000/svg">
<g id="Icon">
<path id="Union" fill-rule="evenodd" clip-rule="evenodd" d="M14.0086 4.80117C14.0086 3.91752 14.7249 3.20117 15.6086 3.20117H16.3908C17.2744 3.20117 17.9908 3.91752 17.9908 4.80117V5.58339C17.9908 6.25244 17.5801 6.82558 16.9971 7.0645C17.8483 7.50257 18.3449 8.48294 18.3449 9.45839C18.3449 10.1036 18.1047 10.6226 17.7295 10.993L22.231 15.2895H26.3992C27.7247 15.2895 28.7992 16.364 28.7992 17.6895V26.4006C28.7992 27.7261 27.7247 28.8006 26.3992 28.8006H5.59922C4.27374 28.8006 3.19922 27.7261 3.19922 26.4006V17.6895C3.19922 16.364 4.27374 15.2895 5.59922 15.2895H9.48339L14.1061 10.8769C13.7336 10.4617 13.5119 9.89037 13.5119 9.17395C13.5119 8.74194 13.8622 8.39173 14.2942 8.39173C14.7262 8.39173 15.0764 8.74194 15.0764 9.17395C15.0764 9.62819 15.2307 9.81496 15.3559 9.9109C15.5163 10.0338 15.7566 10.0984 15.9983 10.0984C16.2215 10.0984 16.4365 10.032 16.5755 9.92693C16.6863 9.84322 16.7805 9.71665 16.7805 9.45839C16.7805 8.75213 16.3521 8.40821 16.0222 8.39224C16.0147 8.39245 16.0072 8.39256 15.9996 8.39256C15.8406 8.39256 15.6926 8.34508 15.5691 8.26351C15.3564 8.12369 15.216 7.88296 15.216 7.60944C15.216 7.59376 15.2165 7.57819 15.2174 7.56275V7.13524C14.5228 6.96072 14.0086 6.33212 14.0086 5.58339V4.80117ZM11.8006 15.2895H19.9137L16.4094 11.9447C16.1002 11.6497 15.6138 11.6497 15.3046 11.9448L11.8006 15.2895ZM6.04297 18.9155C6.04297 18.4835 6.39318 18.1332 6.82519 18.1332C7.2572 18.1332 7.60741 18.4835 7.60741 18.9155V25.1732C7.60741 25.6053 7.2572 25.9555 6.82519 25.9555C6.39318 25.9555 6.04297 25.6053 6.04297 25.1732V18.9155ZM11.4502 18.1332C11.0182 18.1332 10.668 18.4835 10.668 18.9155V25.1732C10.668 25.6053 11.0182 25.9555 11.4502 25.9555C11.8822 25.9555 12.2324 25.6053 12.2324 25.1732V18.9155C12.2324 18.4835 11.8822 18.1332 11.4502 18.1332ZM15.2862 18.9154C15.2862 18.4834 15.6364 18.1332 16.0684 18.1332C16.5004 18.1332 16.8506 18.4834 16.8506 18.9154V25.1732C16.8506 25.6052 16.5004 25.9554 16.0684 25.9554C15.6364 25.9554 15.2862 25.6052 15.2862 25.1732V18.9154ZM20.6934 18.1332C20.2614 18.1332 19.9112 18.4834 19.9112 18.9154V25.1732C19.9112 25.6052 20.2614 25.9554 20.6934 25.9554C21.1254 25.9554 21.4756 25.6052 21.4756 25.1732V18.9154C21.4756 18.4834 21.1254 18.1332 20.6934 18.1332ZM24.5305 18.9155C24.5305 18.4835 24.8807 18.1332 25.3127 18.1332C25.7447 18.1332 26.0949 18.4835 26.0949 18.9155V25.1732C26.0949 25.6053 25.7447 25.9555 25.3127 25.9555C24.8807 25.9555 24.5305 25.6053 24.5305 25.1732V18.9155Z" fill="currentColor"/>
</g>
</svg>
