<svg width="24" height="24" viewBox="0 0 24 24" fill="none" xmlns="http://www.w3.org/2000/svg">
<path fill-rule="evenodd" clip-rule="evenodd" d="M1.25 6C1.25 4.48122 2.48122 3.25 4 3.25H20C21.5188 3.25 22.75 4.48122 22.75 6V11C22.75 12.5188 21.5188 13.75 20 13.75H17C16.5858 13.75 16.25 13.4142 16.25 13C16.25 12.5858 16.5858 12.25 17 12.25H20C20.6904 12.25 21.25 11.6904 21.25 11V6C21.25 5.30964 20.6904 4.75 20 4.75H4C3.30964 4.75 2.75 5.30964 2.75 6V11C2.75 11.6904 3.30964 12.25 4 12.25H8.5C8.91421 12.25 9.25 12.5858 9.25 13C9.25 13.4142 8.91421 13.75 8.5 13.75H4C2.48122 13.75 1.25 12.5188 1.25 11V6Z" fill="currentColor"/>
<path fill-rule="evenodd" clip-rule="evenodd" d="M4.58397 7.37597C4.92862 7.1462 5.39427 7.23933 5.62404 7.58398L6.11657 8.32277L7.96967 6.46967C8.26256 6.17678 8.73744 6.17678 9.03033 6.46967C9.32322 6.76257 9.32322 7.23744 9.03033 7.53033L6.53033 10.0303C6.37145 10.1892 6.1497 10.2685 5.9261 10.2464C5.70249 10.2242 5.5006 10.103 5.37596 9.91603L4.37596 8.41603C4.1462 8.07138 4.23933 7.60573 4.58397 7.37597Z" fill="currentColor"/>
<path fill-rule="evenodd" clip-rule="evenodd" d="M12.8466 10.75C12.717 10.75 12.6003 10.7992 12.5204 10.8749C12.4418 10.9493 12.4058 11.0414 12.4058 11.1282V17.0513C12.4058 17.2769 12.3042 17.4906 12.1292 17.633C11.9541 17.7754 11.7243 17.8315 11.5033 17.7856L9.21499 17.3105H9.11936C9.10622 17.3105 9.09307 17.3102 9.07994 17.3095C9.0788 17.3094 9.07489 17.3094 9.06888 17.3103C9.06863 17.3103 9.06914 17.3102 9.06888 17.3103L12.0814 20.1557C12.0871 20.1611 12.0926 20.1665 12.0981 20.172C12.1381 20.2122 12.207 20.25 12.3227 20.25H16.419C16.5112 20.25 16.5673 20.2205 16.5969 20.1933C16.6141 20.1775 16.6321 20.1626 16.6507 20.1484C16.6681 20.1353 16.6804 20.1207 16.6906 20.1023C16.7015 20.0824 16.7128 20.0527 16.719 20.0107L16.7199 20.005L17.2469 16.6098V16.521C17.2469 16.4997 17.2478 16.4783 17.2496 16.4571C17.2532 16.415 17.2235 16.3333 17.119 16.3007C17.0857 16.2903 17.0531 16.2776 17.0215 16.2627L14.6233 15.1294L14.4114 15.0879H14.0374C13.6232 15.0879 13.2874 14.7522 13.2874 14.3379V11.1282C13.2874 11.0414 13.2514 10.9493 13.1728 10.8749C13.0929 10.7992 12.9762 10.75 12.8466 10.75ZM14.7874 13.6331V11.1282C14.7874 10.6166 14.5725 10.1347 14.2045 9.78599C13.8378 9.43858 13.3487 9.25 12.8466 9.25C12.3446 9.25 11.8555 9.43858 11.4888 9.78599C11.1207 10.1347 10.9058 10.6166 10.9058 11.1282V16.1296L9.4445 15.8262C9.39434 15.8158 9.34326 15.8105 9.29203 15.8105H9.13568C8.74132 15.7959 8.3126 15.9358 8.00904 16.2354C8.0033 16.2411 7.99766 16.2468 7.9921 16.2527L7.45624 16.8168C7.31897 16.9613 7.24486 17.1545 7.25028 17.3537C7.25569 17.5529 7.34018 17.7418 7.48509 17.8786L11.0443 21.2394C11.3961 21.5876 11.8589 21.75 12.3227 21.75H16.419C16.8283 21.75 17.2491 21.6173 17.5845 21.3224C17.9548 21.0295 18.1439 20.6259 18.2025 20.2325L18.738 16.7827C18.7439 16.7447 18.7469 16.7062 18.7469 16.6677V16.5482C18.7946 15.7915 18.3095 15.1282 17.6218 14.8873L15.1795 13.7332C15.1233 13.7066 15.064 13.6871 15.003 13.6752L14.7874 13.6331Z" fill="currentColor"/>
</svg>
