<svg width="24" height="24" viewBox="0 0 24 24" fill="none" xmlns="http://www.w3.org/2000/svg">
<path d="M18.4782 7.12896C18.0877 7.51948 17.4545 7.51948 17.064 7.12896C16.6735 6.73843 16.6735 6.10527 17.064 5.71474C17.4545 5.32422 18.0877 5.32422 18.4782 5.71474C18.8687 6.10527 18.8687 6.73843 18.4782 7.12896Z" fill="#171C1F"/>
<path d="M16.1801 9.07339C16.473 8.78049 16.473 8.30562 16.1801 8.01273C15.8872 7.71983 15.4123 7.71983 15.1195 8.01273L14.6287 8.50351C14.0808 8.15873 13.5141 8.05169 12.9856 8.11304C12.3071 8.19179 11.7654 8.53835 11.4554 8.8484C10.8582 9.44559 10.4408 10.8284 11.4796 12.4782C12.1893 13.6054 11.7581 14.2025 11.7125 14.2481C11.6609 14.2997 11.4162 14.4709 11.0926 14.5162C10.8182 14.5546 10.4628 14.509 10.0733 14.1196C9.66011 13.7064 9.61092 13.3622 9.6387 13.1229C9.67137 12.8414 9.82621 12.5989 9.94472 12.4804C10.2376 12.1875 10.2376 11.7126 9.94472 11.4197C9.65182 11.1268 9.17695 11.1268 8.88406 11.4197C8.57401 11.7297 8.22745 12.2714 8.1487 12.9499C8.08735 13.4784 8.19439 14.0451 8.53917 14.593L8.04839 15.0838C7.75549 15.3767 7.75549 15.8516 8.04839 16.1445C8.34128 16.4373 8.81615 16.4373 9.10905 16.1445L9.60464 15.6489C10.1788 15.9964 10.773 16.0756 11.3007 16.0017C11.9637 15.9088 12.5033 15.5787 12.7731 15.3088C13.3703 14.7116 13.7877 13.3287 12.7489 11.679C12.0392 10.5517 12.4704 9.95469 12.516 9.90906C12.6345 9.79055 12.8771 9.63571 13.1585 9.60304C13.3979 9.57526 13.742 9.62445 14.1552 10.0376C14.5684 10.4508 14.6176 10.795 14.5898 11.0343C14.5571 11.3158 14.4023 11.5583 14.2838 11.6768C13.9909 11.9697 13.9909 12.4446 14.2838 12.7375C14.5767 13.0304 15.0515 13.0304 15.3444 12.7375C15.6545 12.4274 16.001 11.8857 16.0798 11.2073C16.1411 10.6787 16.0341 10.1121 15.6893 9.56417L16.1801 9.07339Z" fill="#171C1F"/>
<path fill-rule="evenodd" clip-rule="evenodd" d="M18.4424 3.00019C19.9612 3.00026 21.1924 4.23153 21.1923 5.75031L21.1921 9.99268C21.1921 10.722 20.9024 11.4214 20.3867 11.9371L11.9372 20.3866C10.8632 21.4606 9.12204 21.4606 8.0481 20.3866L3.80546 16.144C2.73151 15.07 2.73151 13.3288 3.80546 12.2549L12.2549 3.80546C12.7706 3.2897 13.4702 2.99997 14.1996 3L18.4424 3.00019ZM19.6923 5.75025C19.6923 5.05989 19.1327 4.50023 18.4424 4.5002L14.1995 4.5C13.8679 4.49998 13.55 4.63168 13.3155 4.86612L4.86612 13.3155C4.37796 13.8037 4.37796 14.5952 4.86612 15.0833L9.10876 19.326C9.59691 19.8141 10.3884 19.8141 10.8765 19.326L19.326 10.8765C19.5604 10.642 19.6921 10.3241 19.6921 9.99262L19.6923 5.75025Z" fill="#171C1F"/>
</svg>
