<svg width="24" height="24" viewBox="0 0 24 24" fill="none" xmlns="http://www.w3.org/2000/svg">
<path fill-rule="evenodd" clip-rule="evenodd" d="M13.3181 8.38589C12.9046 8.30527 12.6372 7.91707 12.7209 7.51882C12.7571 7.34673 12.7393 7.16952 12.671 7.00947C12.6027 6.84947 12.4866 6.71321 12.3376 6.61758C12.1885 6.52194 12.0123 6.4708 11.8309 6.47144C11.6494 6.47208 11.4709 6.52457 11.3183 6.62305C11.1657 6.72154 11.0466 6.86119 10.976 7.024C10.9055 7.18676 10.8869 7.36478 10.9215 7.5354C11.0024 7.93418 10.7323 8.32062 10.3182 8.39854C9.90407 8.47645 9.50276 8.21633 9.42185 7.81755C9.32912 7.36049 9.37959 6.8872 9.56584 6.45738C9.75206 6.02761 10.0659 5.66001 10.4676 5.40074C10.8694 5.14146 11.3417 5.00173 11.8253 5.00002C12.309 4.9983 12.7822 5.13477 13.1847 5.39298C13.5873 5.6512 13.9003 6.01913 14.0842 6.44992C14.2681 6.88065 14.3145 7.35428 14.2185 7.81078C14.1348 8.20902 13.7317 8.46651 13.3181 8.38589Z" fill="currentColor"/>
<path fill-rule="evenodd" clip-rule="evenodd" d="M2 8.06532C2 7.6511 2.33579 7.31532 2.75 7.31532H14.25C14.6642 7.31532 15 7.6511 15 8.06532C15 8.47953 14.6642 8.81532 14.25 8.81532H4.53846V17.3153H18.9615V13.0653C18.9615 12.6511 19.2973 12.3153 19.7115 12.3153C20.1258 12.3153 20.4615 12.6511 20.4615 13.0653V17.3153H20.75C21.1642 17.3153 21.5 17.6511 21.5 18.0653C21.5 18.4795 21.1642 18.8153 20.75 18.8153H2.75C2.33579 18.8153 2 18.4795 2 18.0653C2 17.6511 2.33579 17.3153 2.75 17.3153H3.03846V8.81532H2.75C2.33579 8.81532 2 8.47953 2 8.06532ZM7.25 10.0931C7.66421 10.0931 8 10.4289 8 10.8431V15.2875C8 15.7018 7.66421 16.0375 7.25 16.0375C6.83579 16.0375 6.5 15.7018 6.5 15.2875V10.8431C6.5 10.4289 6.83579 10.0931 7.25 10.0931ZM15.9038 11.8153C16.3181 11.8153 16.6538 12.1511 16.6538 12.5653V15.2875C16.6538 15.7018 16.3181 16.0375 15.9038 16.0375C15.4896 16.0375 15.1538 15.7018 15.1538 15.2875V12.5653C15.1538 12.1511 15.4896 11.8153 15.9038 11.8153Z" fill="currentColor"/>
<path fill-rule="evenodd" clip-rule="evenodd" d="M18.5 6.98372C17.9088 7.26459 17.5 7.86722 17.5 8.56532C17.5 9.53181 18.2835 10.3153 19.25 10.3153C19.9481 10.3153 20.5507 9.90655 20.8316 9.31532H19.25C18.8358 9.31532 18.5 8.97953 18.5 8.56532V6.98372ZM20 6.98372V7.81532H20.8316C20.6587 7.45139 20.3639 7.1566 20 6.98372ZM16 8.56532C16 6.77039 17.4551 5.31532 19.25 5.31532C21.0449 5.31532 22.5 6.77039 22.5 8.56532C22.5 10.3602 21.0449 11.8153 19.25 11.8153C17.4551 11.8153 16 10.3602 16 8.56532Z" fill="currentColor"/>
<path fill-rule="evenodd" clip-rule="evenodd" d="M11.8194 10.5653C12.0956 10.5653 12.3194 10.7892 12.3194 11.0653V11.1209C12.6928 11.1908 12.9917 11.425 13.1727 11.7199C13.3171 11.9553 13.2433 12.2631 13.008 12.4076C12.7726 12.552 12.4647 12.4782 12.3203 12.2428C12.2602 12.1448 12.1757 12.0996 12.0869 12.0994L11.8185 12.1L11.5004 12.0994C11.3621 12.0996 11.25 12.2114 11.25 12.3499C11.25 12.465 11.3291 12.566 11.4402 12.594L12.4424 12.8458C12.9972 12.986 13.3889 13.4853 13.3889 14.0598C13.3889 14.6886 12.9248 15.2095 12.3194 15.2972V15.3431C12.3194 15.6192 12.0956 15.8431 11.8194 15.8431C11.5433 15.8431 11.3194 15.6192 11.3194 15.3431V15.2887C10.9451 15.2183 10.6458 14.9824 10.4653 14.6874C10.3212 14.4518 10.3953 14.1441 10.6308 13.9999C10.8664 13.8558 11.1742 13.9299 11.3183 14.1655C11.3791 14.2649 11.4646 14.3102 11.5524 14.3102H11.7763C11.7905 14.309 11.8049 14.3084 11.8194 14.3084C11.834 14.3084 11.8484 14.309 11.8626 14.3102H12.1384C12.277 14.3102 12.3889 14.1982 12.3889 14.0598C12.3889 13.945 12.3106 13.844 12.1983 13.8155L11.1965 13.5639C10.6415 13.4243 10.25 12.9241 10.25 12.3499C10.25 11.7201 10.7149 11.2001 11.3194 11.1124V11.0653C11.3194 10.7892 11.5433 10.5653 11.8194 10.5653Z" fill="currentColor"/>
</svg>
