<svg width="328" height="152" viewBox="0 0 328 152" fill="none" xmlns="http://www.w3.org/2000/svg">
<path d="M12.0332 127.296C12.0332 126.597 11.4615 126.025 10.7628 126.025H2.02236C1.32364 126.025 0.751953 126.597 0.751953 127.296C0.751953 127.995 1.32364 128.566 2.02236 128.566H10.7628C11.4615 128.566 12.0332 127.995 12.0332 127.296Z" fill="#ABBDD9"/>
<path d="M23.3537 126.025H16.6459C15.9472 126.025 15.3755 126.597 15.3755 127.296C15.3755 127.995 15.9472 128.566 16.6459 128.566H23.3537C24.0524 128.566 24.6241 127.995 24.6241 127.296C24.6241 126.597 24.0524 126.025 23.3537 126.025Z" fill="#ABBDD9"/>
<path d="M321.821 131.605H314.63C313.932 131.605 313.36 132.177 313.36 132.876C313.36 133.575 313.932 134.146 314.63 134.146H321.821C322.52 134.146 323.091 133.575 323.091 132.876C323.091 132.177 322.52 131.605 321.821 131.605Z" fill="#ABBDD9"/>
<path d="M325.977 126.025H310.286C309.587 126.025 309.016 126.597 309.016 127.296C309.016 127.995 309.587 128.566 310.286 128.566H325.977C326.676 128.566 327.247 127.995 327.247 127.296C327.247 126.597 326.676 126.025 325.977 126.025Z" fill="#ABBDD9"/>
<path d="M115.784 148.959H88.3154C87.6167 148.959 87.0449 149.531 87.0449 150.229C87.0449 150.928 87.6167 151.5 88.3154 151.5H115.784C116.483 151.5 117.054 150.928 117.054 150.229C117.054 149.531 116.483 148.959 115.784 148.959Z" fill="#ABBDD9"/>
<path d="M22.8714 131.896H20.9022C20.2035 131.896 19.6318 132.468 19.6318 133.167C19.6318 133.866 20.2035 134.437 20.9022 134.437H22.8714C23.5701 134.437 24.1418 133.866 24.1418 133.167C24.1418 132.468 23.5701 131.896 22.8714 131.896Z" fill="#ABBDD9"/>
<path d="M47.0365 133.167C47.0365 132.468 46.4648 131.896 45.766 131.896H28.7539C28.0551 131.896 27.4834 132.468 27.4834 133.167C27.4834 133.866 28.0551 134.438 28.7539 134.438H45.766C46.4648 134.438 47.0365 133.866 47.0365 133.167Z" fill="#ABBDD9"/>
<path d="M264.217 148.959H244.27C243.571 148.959 243 149.531 243 150.229C243 150.928 243.571 151.5 244.27 151.5H264.217C264.916 151.5 265.488 150.928 265.488 150.229C265.488 149.531 264.916 148.959 264.217 148.959Z" fill="#ABBDD9"/>
<path d="M205.533 148.959H125.071C124.373 148.959 123.801 149.531 123.801 150.229C123.801 150.928 124.373 151.5 125.071 151.5H205.533C206.231 151.5 206.803 150.928 206.803 150.229C206.803 149.531 206.231 148.959 205.533 148.959Z" fill="#ABBDD9"/>
<path d="M321.072 137.473H307.847C307.148 137.473 306.576 138.044 306.576 138.743C306.576 139.442 307.148 140.013 307.847 140.013H321.072C321.77 140.013 322.342 139.442 322.342 138.743C322.342 138.044 321.77 137.473 321.072 137.473Z" fill="#ABBDD9"/>
<path d="M70.4391 148.959H65.205C64.5063 148.959 63.9346 149.531 63.9346 150.229C63.9346 150.928 64.5063 151.5 65.205 151.5H70.4391C71.1378 151.5 71.7095 150.928 71.7095 150.229C71.7095 149.531 71.1378 148.959 70.4391 148.959Z" fill="#ABBDD9"/>
<path d="M15.9972 139.43H10.7631C10.0644 139.43 9.49268 140.001 9.49268 140.7C9.49268 141.399 10.0644 141.971 10.7631 141.971H15.9972C16.6959 141.971 17.2676 141.399 17.2676 140.7C17.2676 140.001 16.6959 139.43 15.9972 139.43Z" fill="#ABBDD9"/>
<path d="M172.207 87.4931C174.672 87.4931 176.68 85.4857 176.68 83.0209V67.7494C173.961 67.508 171.382 66.8092 169.006 65.7166V79.2602C169.006 80.9627 167.621 82.3349 165.931 82.3349H163.657C161.954 82.3349 160.582 80.95 160.582 79.2602V59.2243C157.279 55.1841 155.297 50.0258 155.297 44.4228C155.297 42.2249 155.627 40.1031 156.186 38.0957H77.1607C74.6959 38.0957 72.6885 40.1031 72.6885 42.5679V83.0336C72.6885 85.4984 74.6959 87.5058 77.1607 87.5058H172.22L172.207 87.4931ZM88.7731 79.2602C88.7731 80.9627 87.3883 82.3349 85.6985 82.3349H83.4243C81.7218 82.3349 80.3496 80.95 80.3496 79.2602V46.3032C80.3496 44.6007 81.7345 43.2286 83.4243 43.2286H85.6985C87.401 43.2286 88.7731 44.6134 88.7731 46.3032V79.2602ZM108.834 79.2602C108.834 80.9627 107.45 82.3349 105.76 82.3349H103.486C101.783 82.3349 100.411 80.95 100.411 79.2602V46.3032C100.411 44.6007 101.796 43.2286 103.486 43.2286H105.76C107.462 43.2286 108.834 44.6134 108.834 46.3032V79.2602ZM128.883 79.2602C128.883 80.9627 127.498 82.3349 125.808 82.3349H123.534C121.832 82.3349 120.46 80.95 120.46 79.2602V46.3032C120.46 44.6007 121.844 43.2286 123.534 43.2286H125.808C127.511 43.2286 128.883 44.6134 128.883 46.3032V79.2602ZM148.944 79.2602C148.944 80.9627 147.56 82.3349 145.87 82.3349H143.596C141.893 82.3349 140.521 80.95 140.521 79.2602V46.3032C140.521 44.6007 141.906 43.2286 143.596 43.2286H145.87C147.572 43.2286 148.944 44.6134 148.944 46.3032V79.2602Z" fill="#F3F5F9"/>
<path d="M85.7112 45.7676H83.4242C83.1295 45.7676 82.8906 46.0065 82.8906 46.3012V79.2709C82.8906 79.5657 83.1295 79.8046 83.4242 79.8046H85.7112C86.0059 79.8046 86.2448 79.5657 86.2448 79.2709V46.3012C86.2448 46.0065 86.0059 45.7676 85.7112 45.7676Z" fill="#E8E9ED"/>
<path d="M85.698 43.2266H83.4237C81.7213 43.2266 80.3491 44.6114 80.3491 46.3012V79.2582C80.3491 80.9607 81.734 82.3329 83.4237 82.3329H85.698C87.4004 82.3329 88.7726 80.948 88.7726 79.2582V46.3012C88.7726 44.5987 87.3877 43.2266 85.698 43.2266ZM86.2316 79.2582C86.2316 79.5505 85.9902 79.7918 85.698 79.7918H83.4237C83.1315 79.7918 82.8901 79.5505 82.8901 79.2582V46.3012C82.8901 46.009 83.1315 45.7676 83.4237 45.7676H85.698C85.9902 45.7676 86.2316 46.009 86.2316 46.3012V79.2582Z" fill="#ABBDD9"/>
<path d="M105.759 45.7676H103.473C103.178 45.7676 102.939 46.0065 102.939 46.3012V79.2709C102.939 79.5657 103.178 79.8046 103.473 79.8046H105.759C106.054 79.8046 106.293 79.5657 106.293 79.2709V46.3012C106.293 46.0065 106.054 45.7676 105.759 45.7676Z" fill="#E8E9ED"/>
<path d="M105.747 43.2266H103.473C101.77 43.2266 100.398 44.6114 100.398 46.3012V79.2582C100.398 80.9607 101.783 82.3329 103.473 82.3329H105.747C107.449 82.3329 108.821 80.948 108.821 79.2582V46.3012C108.821 44.5987 107.437 43.2266 105.747 43.2266ZM106.293 79.2582C106.293 79.5505 106.052 79.7918 105.759 79.7918H103.485C103.193 79.7918 102.952 79.5505 102.952 79.2582V46.3012C102.952 46.009 103.193 45.7676 103.485 45.7676H105.759C106.052 45.7676 106.293 46.009 106.293 46.3012V79.2582Z" fill="#ABBDD9"/>
<path d="M125.821 45.7676H123.534C123.239 45.7676 123 46.0065 123 46.3012V79.2709C123 79.5657 123.239 79.8046 123.534 79.8046H125.821C126.116 79.8046 126.355 79.5657 126.355 79.2709V46.3012C126.355 46.0065 126.116 45.7676 125.821 45.7676Z" fill="#E8E9ED"/>
<path d="M125.808 43.2266H123.534C121.832 43.2266 120.459 44.6114 120.459 46.3012V79.2582C120.459 80.9607 121.844 82.3329 123.534 82.3329H125.808C127.511 82.3329 128.883 80.948 128.883 79.2582V46.3012C128.883 44.5987 127.498 43.2266 125.808 43.2266ZM126.342 79.2582C126.342 79.5505 126.101 79.7918 125.808 79.7918H123.534C123.242 79.7918 123 79.5505 123 79.2582V46.3012C123 46.009 123.242 45.7676 123.534 45.7676H125.808C126.101 45.7676 126.342 46.009 126.342 46.3012V79.2582Z" fill="#ABBDD9"/>
<path d="M145.869 45.7676H143.582C143.288 45.7676 143.049 46.0065 143.049 46.3012V79.2709C143.049 79.5657 143.288 79.8046 143.582 79.8046H145.869C146.164 79.8046 146.403 79.5657 146.403 79.2709V46.3012C146.403 46.0065 146.164 45.7676 145.869 45.7676Z" fill="#E8E9ED"/>
<path d="M145.857 43.2266H143.582C141.88 43.2266 140.508 44.6114 140.508 46.3012V79.2582C140.508 80.9607 141.893 82.3329 143.582 82.3329H145.857C147.559 82.3329 148.931 80.948 148.931 79.2582V46.3012C148.931 44.5987 147.546 43.2266 145.857 43.2266ZM146.403 79.2582C146.403 79.5505 146.162 79.7918 145.869 79.7918H143.595C143.303 79.7918 143.062 79.5505 143.062 79.2582V46.3012C143.062 46.009 143.303 45.7676 143.595 45.7676H145.869C146.162 45.7676 146.403 46.009 146.403 46.3012V79.2582Z" fill="#ABBDD9"/>
<path d="M163.11 79.2605C163.11 79.5527 163.351 79.7941 163.643 79.7941H165.918C166.21 79.7941 166.451 79.5527 166.451 79.2605V64.3447C165.257 63.6078 164.139 62.7693 163.097 61.8418V79.2605H163.11Z" fill="#E8E9ED"/>
<path d="M66.031 97.7188H63.7441C63.4494 97.7188 63.2104 97.9577 63.2104 98.2524V131.222C63.2104 131.517 63.4494 131.756 63.7441 131.756H66.031C66.3257 131.756 66.5646 131.517 66.5646 131.222V98.2524C66.5646 97.9577 66.3257 97.7188 66.031 97.7188Z" fill="#E8E9ED"/>
<path d="M66.0183 95.1777H63.7441C62.0416 95.1777 60.6694 96.5626 60.6694 98.2524V131.209C60.6694 132.912 62.0543 134.284 63.7441 134.284H66.0183C67.7208 134.284 69.0929 132.899 69.0929 131.209V98.2524C69.0929 96.5499 67.7081 95.1777 66.0183 95.1777ZM66.5646 131.209C66.5646 131.502 66.3232 131.743 66.031 131.743H63.7568C63.4646 131.743 63.2232 131.502 63.2232 131.209V98.2524C63.2232 97.9601 63.4646 97.7188 63.7568 97.7188H66.031C66.3232 97.7188 66.5646 97.9601 66.5646 98.2524V131.209Z" fill="#ABBDD9"/>
<path d="M86.0788 97.7188H83.7919C83.4972 97.7188 83.2583 97.9577 83.2583 98.2524V131.222C83.2583 131.517 83.4972 131.756 83.7919 131.756H86.0788C86.3735 131.756 86.6124 131.517 86.6124 131.222V98.2524C86.6124 97.9577 86.3735 97.7188 86.0788 97.7188Z" fill="#E8E9ED"/>
<path d="M86.0798 95.1777H83.8056C82.1031 95.1777 80.731 96.5626 80.731 98.2524V131.209C80.731 132.912 82.1158 134.284 83.8056 134.284H86.0798C87.7823 134.284 89.1544 132.899 89.1544 131.209V98.2524C89.1544 96.5499 87.7696 95.1777 86.0798 95.1777ZM86.6134 131.209C86.6134 131.502 86.372 131.743 86.0798 131.743H83.8056C83.5134 131.743 83.272 131.502 83.272 131.209V98.2524C83.272 97.9601 83.5134 97.7188 83.8056 97.7188H86.0798C86.372 97.7188 86.6134 97.9601 86.6134 98.2524V131.209Z" fill="#ABBDD9"/>
<path d="M103.853 131.745H106.127C106.42 131.745 106.661 131.503 106.661 131.211V130.678C105.581 131.072 104.4 131.072 103.307 130.678V131.211C103.307 131.503 103.549 131.745 103.841 131.745H103.853Z" fill="#E8E9ED"/>
<path d="M106.128 97.7188H103.854C103.562 97.7188 103.32 97.9601 103.32 98.2523V100.768C104.4 100.374 105.582 100.374 106.674 100.768V98.2523C106.674 97.9601 106.433 97.7188 106.141 97.7188H106.128Z" fill="#E8E9ED"/>
<path d="M102.545 101.123C102.799 100.984 103.053 100.869 103.32 100.768V98.2521C103.32 97.9599 103.561 97.7185 103.854 97.7185H106.128C106.42 97.7185 106.661 97.9599 106.661 98.2521V100.768C106.928 100.869 107.182 100.971 107.436 101.123L109.202 102.14V98.2521C109.202 96.5498 107.817 95.1777 106.128 95.1777H103.854C102.151 95.1777 100.779 96.5625 100.779 98.2521V102.14L102.545 101.123Z" fill="#ABBDD9"/>
<path d="M107.436 130.321C107.182 130.461 106.928 130.575 106.661 130.677V131.21C106.661 131.502 106.42 131.744 106.128 131.744H103.854C103.561 131.744 103.32 131.502 103.32 131.21V130.677C103.053 130.575 102.799 130.473 102.545 130.321L100.779 129.305V131.21C100.779 132.913 102.164 134.285 103.854 134.285H106.128C107.83 134.285 109.202 132.9 109.202 131.21V129.305L107.436 130.321Z" fill="#ABBDD9"/>
<path d="M126.189 97.7188H123.902C123.607 97.7188 123.368 97.9577 123.368 98.2524V131.222C123.368 131.517 123.607 131.756 123.902 131.756H126.189C126.483 131.756 126.722 131.517 126.722 131.222V98.2524C126.722 97.9577 126.483 97.7188 126.189 97.7188Z" fill="#E8E9ED"/>
<path d="M126.176 95.1777H123.902C122.199 95.1777 120.827 96.5626 120.827 98.2524V131.209C120.827 132.912 122.212 134.284 123.902 134.284H126.176C127.878 134.284 129.251 132.899 129.251 131.209V98.2524C129.251 96.5499 127.866 95.1777 126.176 95.1777ZM126.722 131.209C126.722 131.502 126.481 131.743 126.189 131.743H123.914C123.622 131.743 123.381 131.502 123.381 131.209V98.2524C123.381 97.9601 123.622 97.7188 123.914 97.7188H126.189C126.481 97.7188 126.722 97.9601 126.722 98.2524V131.209Z" fill="#ABBDD9"/>
<path d="M146.25 97.7188H143.963C143.669 97.7188 143.43 97.9577 143.43 98.2524V131.222C143.43 131.517 143.669 131.756 143.963 131.756H146.25C146.545 131.756 146.784 131.517 146.784 131.222V98.2524C146.784 97.9577 146.545 97.7188 146.25 97.7188Z" fill="#E8E9ED"/>
<path d="M146.238 95.1777H143.963C142.261 95.1777 140.889 96.5626 140.889 98.2524V131.209C140.889 132.912 142.274 134.284 143.963 134.284H146.238C147.94 134.284 149.312 132.899 149.312 131.209V98.2524C149.312 96.5499 147.927 95.1777 146.238 95.1777ZM146.771 131.209C146.771 131.502 146.53 131.743 146.238 131.743H143.963C143.671 131.743 143.43 131.502 143.43 131.209V98.2524C143.43 97.9601 143.671 97.7188 143.963 97.7188H146.238C146.53 97.7188 146.771 97.9601 146.771 98.2524V131.209Z" fill="#ABBDD9"/>
<path d="M297.835 90.0332H202.776C200.311 90.0332 198.304 92.0406 198.304 94.5054V134.971C198.304 137.436 200.311 139.443 202.776 139.443H297.835C300.3 139.443 302.308 137.436 302.308 134.971V94.5054C302.308 92.0406 300.3 90.0332 297.835 90.0332ZM214.401 131.21C214.401 132.913 213.016 134.285 211.326 134.285H209.052C207.35 134.285 205.978 132.9 205.978 131.21V98.2534C205.978 96.5509 207.362 95.1788 209.052 95.1788H211.326C213.029 95.1788 214.401 96.5636 214.401 98.2534V131.21ZM234.462 131.21C234.462 132.913 233.078 134.285 231.388 134.285H229.114C227.411 134.285 226.039 132.9 226.039 131.21V98.2534C226.039 96.5509 227.424 95.1788 229.114 95.1788H231.388C233.09 95.1788 234.462 96.5636 234.462 98.2534V131.21ZM254.511 131.21C254.511 132.913 253.126 134.285 251.436 134.285H249.162C247.46 134.285 246.088 132.9 246.088 131.21V98.2534C246.088 96.5509 247.472 95.1788 249.162 95.1788H251.436C253.139 95.1788 254.511 96.5636 254.511 98.2534V131.21ZM274.572 131.21C274.572 132.913 273.188 134.285 271.498 134.285H269.224C267.521 134.285 266.149 132.9 266.149 131.21V98.2534C266.149 96.5509 267.534 95.1788 269.224 95.1788H271.498C273.2 95.1788 274.572 96.5636 274.572 98.2534V131.21ZM294.621 131.21C294.621 132.913 293.236 134.285 291.546 134.285H289.272C287.57 134.285 286.197 132.9 286.197 131.21V98.2534C286.197 96.5509 287.582 95.1788 289.272 95.1788H291.546C293.249 95.1788 294.621 96.5636 294.621 98.2534V131.21Z" fill="#E8E9ED"/>
<path d="M297.835 87.4918H202.775C198.913 87.4918 195.762 90.6427 195.762 94.505V134.971C195.762 136.673 196.372 138.223 197.376 139.443H157.926C158.93 138.223 159.54 136.673 159.54 134.971V94.505C159.54 92.8026 158.93 91.2525 157.926 90.0328H172.207C176.069 90.0328 179.22 86.882 179.22 83.0196V67.7481C179.665 67.5575 179.982 67.1001 179.982 66.5792C179.982 66.2235 179.843 65.9058 179.614 65.6772C179.385 65.4485 179.068 65.3087 178.712 65.3087C167.188 65.3087 157.825 55.9324 157.825 44.4215C157.825 32.9107 167.201 23.5343 178.712 23.5343C190.223 23.5343 199.599 32.9107 199.599 44.4215C199.599 44.7773 199.739 45.0949 199.968 45.3236C200.196 45.5523 200.514 45.692 200.87 45.692C201.568 45.692 202.14 45.1203 202.14 44.4215C202.14 31.5004 191.633 20.9933 178.712 20.9933C171.406 20.9933 164.863 24.3602 160.569 29.6201L132.631 18.8335C132.847 18.1728 132.999 17.474 132.999 16.7371C132.999 16.0002 132.427 15.4666 131.729 15.4666C131.03 15.4666 130.458 16.0383 130.458 16.7371C130.458 19.113 128.527 21.0441 126.151 21.0441C124.969 21.0441 123.889 20.5613 123.114 19.7863L126.583 18.5285L125.719 16.14L121.92 17.5121C121.869 17.258 121.844 17.0166 121.844 16.7498C121.844 14.374 123.775 12.4428 126.151 12.4428C126.85 12.4428 127.421 11.8711 127.421 11.1723V1.77051C127.421 1.07173 126.85 0.5 126.151 0.5C125.452 0.5 124.88 1.07173 124.88 1.77051V10.0161C121.717 10.6132 119.303 13.4084 119.303 16.7371C119.303 17.2961 119.392 17.8425 119.519 18.3634L104.616 23.7503C103.955 23.9917 103.612 24.7159 103.854 25.3766C104.044 25.8975 104.527 26.2151 105.048 26.2151C105.188 26.2151 105.34 26.1897 105.48 26.1389L120.573 20.6884C121.819 22.429 123.839 23.5852 126.138 23.5852C128.247 23.5852 130.128 22.5942 131.385 21.0823L159.032 31.7545C158.257 32.9488 157.583 34.2193 157.037 35.5534H89.2681C89.3316 35.2357 89.3697 34.9054 89.3697 34.5751C89.3697 31.6783 87.0193 29.3279 84.1225 29.3279C81.2258 29.3279 78.8753 31.6783 78.8753 34.5751C78.8753 34.9054 78.9135 35.2357 78.977 35.5534H77.1347C73.2724 35.5534 70.1215 38.7042 70.1215 42.5666V83.0323C70.1215 84.7348 70.7314 86.2848 71.7351 87.5045H57.4546C53.5922 87.5045 50.4414 90.6554 50.4414 94.5178V134.983C50.4414 136.686 51.0512 138.236 52.0549 139.456H37.8125C37.1137 139.456 36.542 140.027 36.542 140.726C36.542 141.425 37.1137 141.997 37.8125 141.997H297.822C301.684 141.997 304.835 138.846 304.835 134.983V94.5178C304.835 90.6554 301.684 87.5045 297.822 87.5045L297.835 87.4918ZM302.294 134.958C302.294 137.423 300.287 139.43 297.822 139.43H202.763C200.298 139.43 198.29 137.423 198.29 134.958V94.4923C198.29 92.0275 200.298 90.0201 202.763 90.0201H297.822C300.287 90.0201 302.294 92.0275 302.294 94.4923V134.958ZM52.9951 134.958V94.4923C52.9951 92.0275 55.0025 90.0201 57.4673 90.0201H152.527C154.992 90.0201 156.999 92.0275 156.999 94.4923V134.958C156.999 137.423 154.992 139.43 152.527 139.43H57.4673C55.0025 139.43 52.9951 137.423 52.9951 134.958ZM72.6753 83.0196V42.5539C72.6753 40.0891 74.6827 38.0817 77.1474 38.0817H156.173C155.601 40.1018 155.284 42.2236 155.284 44.4088C155.284 50.0245 157.266 55.17 160.569 59.2103V79.2462C160.569 80.9487 161.954 82.3208 163.644 82.3208H165.918C167.62 82.3208 168.993 80.936 168.993 79.2462V65.7026C171.368 66.7952 173.948 67.494 176.666 67.7354V83.0069C176.666 85.4717 174.659 87.4791 172.194 87.4791H77.1347C74.67 87.4791 72.6626 85.4717 72.6626 83.0069L72.6753 83.0196ZM166.452 79.2589C166.452 79.5511 166.21 79.7925 165.918 79.7925H163.644C163.351 79.7925 163.11 79.5511 163.11 79.2589V61.8402C164.152 62.7677 165.27 63.6062 166.464 64.3431V79.2589H166.452ZM81.4164 34.5624C81.4164 33.0759 82.6233 31.8562 84.1225 31.8562C85.6217 31.8562 86.8287 33.0759 86.8287 34.5624C86.8287 34.9054 86.7652 35.2357 86.6381 35.5407H81.5942C81.4672 35.223 81.4036 34.8927 81.4036 34.5624H81.4164Z" fill="#ABBDD9"/>
<path d="M211.339 97.7188H209.052C208.757 97.7188 208.518 97.9577 208.518 98.2524V131.222C208.518 131.517 208.757 131.756 209.052 131.756H211.339C211.633 131.756 211.872 131.517 211.872 131.222V98.2524C211.872 97.9577 211.633 97.7188 211.339 97.7188Z" fill="#F3F5F9"/>
<path d="M211.326 95.1777H209.052C207.349 95.1777 205.977 96.5626 205.977 98.2524V131.209C205.977 132.912 207.362 134.284 209.052 134.284H211.326C213.028 134.284 214.401 132.899 214.401 131.209V98.2524C214.401 96.5499 213.016 95.1777 211.326 95.1777ZM211.86 131.209C211.86 131.502 211.618 131.743 211.326 131.743H209.052C208.759 131.743 208.518 131.502 208.518 131.209V98.2524C208.518 97.9601 208.759 97.7188 209.052 97.7188H211.326C211.618 97.7188 211.86 97.9601 211.86 98.2524V131.209Z" fill="#ABBDD9"/>
<path d="M231.387 97.7188H229.101C228.806 97.7188 228.567 97.9577 228.567 98.2524V131.222C228.567 131.517 228.806 131.756 229.101 131.756H231.387C231.682 131.756 231.921 131.517 231.921 131.222V98.2524C231.921 97.9577 231.682 97.7188 231.387 97.7188Z" fill="#F3F5F9"/>
<path d="M231.375 95.1777H229.101C227.398 95.1777 226.026 96.5626 226.026 98.2524V131.209C226.026 132.912 227.411 134.284 229.101 134.284H231.375C233.077 134.284 234.449 132.899 234.449 131.209V98.2524C234.449 96.5499 233.065 95.1777 231.375 95.1777ZM231.921 131.209C231.921 131.502 231.68 131.743 231.387 131.743H229.113C228.821 131.743 228.58 131.502 228.58 131.209V98.2524C228.58 97.9601 228.821 97.7188 229.113 97.7188H231.387C231.68 97.7188 231.921 97.9601 231.921 98.2524V131.209Z" fill="#ABBDD9"/>
<path d="M251.448 97.7188H249.162C248.867 97.7188 248.628 97.9577 248.628 98.2524V131.222C248.628 131.517 248.867 131.756 249.162 131.756H251.448C251.743 131.756 251.982 131.517 251.982 131.222V98.2524C251.982 97.9577 251.743 97.7188 251.448 97.7188Z" fill="#F3F5F9"/>
<path d="M251.436 95.1777H249.162C247.46 95.1777 246.087 96.5626 246.087 98.2524V131.209C246.087 132.912 247.472 134.284 249.162 134.284H251.436C253.139 134.284 254.511 132.899 254.511 131.209V98.2524C254.511 96.5499 253.126 95.1777 251.436 95.1777ZM251.97 131.209C251.97 131.502 251.728 131.743 251.436 131.743H249.162C248.87 131.743 248.628 131.502 248.628 131.209V98.2524C248.628 97.9601 248.87 97.7188 249.162 97.7188H251.436C251.728 97.7188 251.97 97.9601 251.97 98.2524V131.209Z" fill="#ABBDD9"/>
<path d="M271.498 97.7188H269.211C268.916 97.7188 268.677 97.9577 268.677 98.2524V131.222C268.677 131.517 268.916 131.756 269.211 131.756H271.498C271.792 131.756 272.031 131.517 272.031 131.222V98.2524C272.031 97.9577 271.792 97.7188 271.498 97.7188Z" fill="#F3F5F9"/>
<path d="M271.484 95.1777H269.21C267.507 95.1777 266.135 96.5626 266.135 98.2524V131.209C266.135 132.912 267.52 134.284 269.21 134.284H271.484C273.187 134.284 274.559 132.899 274.559 131.209V98.2524C274.559 96.5499 273.174 95.1777 271.484 95.1777ZM272.03 131.209C272.03 131.502 271.789 131.743 271.497 131.743H269.223C268.93 131.743 268.689 131.502 268.689 131.209V98.2524C268.689 97.9601 268.93 97.7188 269.223 97.7188H271.497C271.789 97.7188 272.03 97.9601 272.03 98.2524V131.209Z" fill="#ABBDD9"/>
<path d="M291.558 97.7188H289.271C288.977 97.7188 288.738 97.9577 288.738 98.2524V131.222C288.738 131.517 288.977 131.756 289.271 131.756H291.558C291.853 131.756 292.092 131.517 292.092 131.222V98.2524C292.092 97.9577 291.853 97.7188 291.558 97.7188Z" fill="#F3F5F9"/>
<path d="M291.546 95.1777H289.271C287.569 95.1777 286.197 96.5626 286.197 98.2524V131.209C286.197 132.912 287.582 134.284 289.271 134.284H291.546C293.248 134.284 294.62 132.899 294.62 131.209V98.2524C294.62 96.5499 293.235 95.1777 291.546 95.1777ZM292.079 131.209C292.079 131.502 291.838 131.743 291.546 131.743H289.271C288.979 131.743 288.738 131.502 288.738 131.209V98.2524C288.738 97.9601 288.979 97.7188 289.271 97.7188H291.546C291.838 97.7188 292.079 97.9601 292.079 98.2524V131.209Z" fill="#ABBDD9"/>
<path d="M92.2158 30.8393C92.3556 30.8393 92.508 30.8139 92.6478 30.763L98.5044 28.6415C99.165 28.4001 99.508 27.676 99.2666 27.0153C99.0252 26.3547 98.3011 26.0117 97.6405 26.2531L91.7839 28.3747C91.1233 28.616 90.7803 29.3402 91.0216 30.0008C91.2122 30.5217 91.695 30.8393 92.2158 30.8393Z" fill="#ABBDD9"/>
<path d="M178.712 32.0605C171.902 32.0605 166.362 37.6 166.362 44.4099C166.362 51.2198 171.902 56.7593 178.712 56.7593C179.41 56.7593 179.982 56.1875 179.982 55.4888C179.982 54.79 179.41 54.2182 178.712 54.2182C173.299 54.2182 168.903 49.8223 168.903 44.4099C168.903 38.9975 173.299 34.6016 178.712 34.6016C184.124 34.6016 188.52 38.9975 188.52 44.4099C188.52 45.1087 189.092 45.6804 189.79 45.6804C190.489 45.6804 191.061 45.1087 191.061 44.4099C191.061 37.6 185.522 32.0605 178.712 32.0605Z" fill="#ABBDD9"/>
<path d="M191.989 52.2096L189.931 50.1513C189.207 49.4271 188.228 49.0206 187.199 49.0206C186.17 49.0206 185.205 49.4271 184.468 50.1513C183.743 50.8755 183.337 51.8538 183.337 52.8829C183.337 53.912 183.743 54.8903 184.468 55.6145L187.072 58.2191L193.895 65.0417L192.51 65.0798C191.976 65.0925 191.455 65.2069 190.96 65.4356C190.477 65.6643 190.045 65.9692 189.677 66.3757C189.321 66.7696 189.041 67.227 188.864 67.7352C188.686 68.2434 188.61 68.777 188.648 69.3106C188.711 70.3016 189.143 71.2164 189.842 71.9025C190.553 72.5885 191.481 72.9824 192.472 73.0205L207.489 73.5033C207.489 73.5033 207.578 73.5033 207.629 73.5033C208.887 73.5033 210.094 73.0078 210.983 72.1185L216.65 66.452C220.22 62.8818 219.432 57.66 216.65 54.8776L208.175 46.4033C206.206 44.434 203.805 44.7771 202.445 46.1365C202.026 46.5558 201.721 47.0513 201.531 47.5849C199.968 46.9369 198.392 47.3943 197.376 48.398C196.893 48.8808 196.55 49.478 196.385 50.1259C196.029 50.037 195.712 49.9989 195.445 49.9989C195.381 49.9989 195.331 49.9989 195.267 50.0116C194.301 50.0243 193.437 50.4308 192.751 51.1042C192.434 51.4218 192.167 51.7903 191.989 52.2096ZM195.381 59.1847C195.877 59.6802 196.677 59.6802 197.173 59.1847C197.668 58.6892 197.668 57.8887 197.173 57.3932L194.81 55.0301C193.92 54.1407 194.111 53.3276 194.543 52.8956C194.784 52.6542 195.14 52.5399 195.419 52.5272C195.839 52.5272 196.271 52.7432 196.677 53.1497L199.04 55.5129C199.536 56.0084 200.336 56.0084 200.832 55.5129C201.327 55.0174 201.327 54.217 200.832 53.7215L199.434 52.3239C198.545 51.4345 198.735 50.6214 199.167 50.1894C199.599 49.7575 200.413 49.5669 201.302 50.4563L202.699 51.8538C203.195 52.3493 203.995 52.3493 204.491 51.8538C204.745 51.5997 204.859 51.2821 204.859 50.9518C204.859 50.6214 204.732 50.3038 204.491 50.0497C203.602 49.1603 203.792 48.3472 204.224 47.9152C204.656 47.4833 205.469 47.2927 206.359 48.182L214.833 56.6563C216.751 58.5748 217.298 62.1704 214.833 64.6352L209.166 70.3016C208.747 70.7209 208.15 70.9496 207.553 70.9369L192.548 70.4541C192.192 70.4541 191.862 70.3016 191.608 70.0602C191.354 69.8188 191.201 69.4885 191.176 69.1327C191.176 68.9422 191.189 68.7516 191.252 68.5737C191.316 68.3958 191.417 68.2307 191.544 68.0909C191.671 67.9512 191.837 67.8368 192.002 67.7606C192.18 67.6844 192.37 67.6336 192.561 67.6336L196.906 67.5319C197.414 67.5319 197.872 67.2016 198.049 66.7315C198.24 66.2614 198.126 65.7278 197.77 65.3593L186.246 53.8358C185.992 53.5817 185.865 53.2514 185.865 52.8956C185.865 52.5399 186.005 52.2096 186.259 51.9555C186.513 51.7014 186.844 51.5616 187.199 51.5616C187.555 51.5616 187.885 51.7014 188.127 51.9427L195.369 59.1974L195.381 59.1847Z" fill="#ABBDD9"/>
<path d="M116.419 106.308L109.215 102.154L107.449 101.137C107.195 100.998 106.941 100.883 106.674 100.782C105.594 100.388 104.413 100.388 103.32 100.782C103.053 100.883 102.799 100.985 102.545 101.137L100.779 102.154L93.5751 106.321C92.0632 107.198 91.1357 108.811 91.1357 110.552V120.919C91.1357 122.673 92.0632 124.286 93.5751 125.15L100.779 129.317L102.545 130.334C102.799 130.474 103.053 130.588 103.32 130.69C104.4 131.083 105.581 131.083 106.674 130.69C106.941 130.588 107.195 130.486 107.449 130.334L109.215 129.317L116.419 125.163C117.931 124.286 118.858 122.673 118.858 120.932V110.565C118.858 108.811 117.931 107.198 116.419 106.334V106.308ZM111.959 118.607L115.58 117.718C115.707 117.692 115.834 117.68 115.961 117.705C116.089 117.73 116.216 117.768 116.317 117.832C116.419 117.895 116.521 117.984 116.597 118.086C116.673 118.188 116.724 118.315 116.762 118.429C116.8 118.543 116.8 118.683 116.775 118.81C116.749 118.937 116.711 119.064 116.648 119.166C116.584 119.28 116.495 119.369 116.393 119.446C116.292 119.522 116.165 119.573 116.05 119.611L113.014 120.348L113.814 123.321C113.852 123.448 113.852 123.575 113.84 123.702C113.827 123.829 113.776 123.956 113.713 124.07C113.649 124.185 113.56 124.286 113.459 124.362C113.357 124.439 113.243 124.502 113.116 124.528C113.027 124.553 112.95 124.566 112.861 124.566C112.645 124.566 112.429 124.489 112.264 124.362C112.086 124.235 111.972 124.045 111.909 123.841L110.956 120.297L105.963 117.413V123.181L108.631 125.849C108.72 125.938 108.796 126.052 108.847 126.167C108.897 126.281 108.923 126.421 108.923 126.548C108.923 126.675 108.897 126.802 108.847 126.929C108.796 127.043 108.72 127.158 108.631 127.246C108.542 127.335 108.427 127.412 108.313 127.462C108.199 127.513 108.059 127.539 107.932 127.539C107.805 127.539 107.678 127.513 107.551 127.462C107.436 127.412 107.322 127.335 107.233 127.246L104.972 124.985L102.71 127.246C102.621 127.335 102.507 127.412 102.392 127.462C102.278 127.513 102.138 127.539 102.011 127.539C101.884 127.539 101.757 127.513 101.63 127.462C101.516 127.412 101.401 127.335 101.313 127.246C101.224 127.158 101.147 127.043 101.097 126.929C101.046 126.814 101.02 126.675 101.02 126.548C101.02 126.421 101.046 126.294 101.097 126.167C101.147 126.052 101.224 125.938 101.313 125.849L103.981 123.181V117.413L98.9875 120.297L98.0346 123.841C97.9838 124.057 97.8567 124.235 97.6789 124.362C97.501 124.489 97.2977 124.566 97.0817 124.566C96.9928 124.566 96.9039 124.566 96.8276 124.528C96.7006 124.489 96.5862 124.439 96.4846 124.362C96.3829 124.286 96.294 124.185 96.2305 124.07C96.167 123.956 96.1288 123.829 96.1034 123.702C96.0907 123.575 96.1034 123.448 96.1288 123.321L96.9293 120.348L93.8927 119.611C93.6386 119.547 93.4227 119.382 93.2829 119.166C93.1431 118.937 93.105 118.671 93.1686 118.416C93.2321 118.162 93.3972 117.946 93.6132 117.807C93.8419 117.667 94.1087 117.629 94.3628 117.692L97.9838 118.582L102.99 115.685L97.9838 112.801L94.3628 113.69C94.2866 113.716 94.2104 113.716 94.1214 113.716C93.88 113.716 93.6514 113.627 93.4735 113.474C93.2956 113.322 93.1813 113.093 93.1431 112.852C93.105 112.61 93.1686 112.369 93.3083 112.178C93.4481 111.975 93.6514 111.835 93.88 111.784L96.9166 111.047L96.1161 108.074C96.0526 107.82 96.078 107.554 96.2178 107.325C96.3575 107.096 96.5608 106.931 96.8149 106.867C97.069 106.804 97.3358 106.829 97.5645 106.969C97.7932 107.109 97.9584 107.312 98.0219 107.566L98.9748 111.111L103.968 113.995V108.227L101.3 105.559C101.109 105.368 101.008 105.127 101.008 104.86C101.008 104.733 101.033 104.606 101.084 104.479C101.135 104.365 101.211 104.25 101.3 104.161C101.389 104.072 101.503 103.996 101.617 103.945C101.732 103.894 101.872 103.869 101.999 103.869C102.265 103.869 102.507 103.971 102.697 104.161L104.959 106.423L107.22 104.161C107.411 103.971 107.652 103.869 107.919 103.869C108.186 103.869 108.427 103.971 108.618 104.161C108.809 104.352 108.91 104.593 108.91 104.86C108.91 105.127 108.809 105.368 108.618 105.559L105.95 108.227V113.995L110.943 111.111L111.896 107.566C111.959 107.312 112.125 107.096 112.353 106.969C112.582 106.842 112.849 106.804 113.103 106.867C113.357 106.931 113.573 107.096 113.7 107.325C113.827 107.554 113.865 107.82 113.802 108.074L113.001 111.047L116.038 111.784C116.279 111.835 116.495 111.975 116.635 112.178C116.775 112.381 116.838 112.623 116.813 112.864C116.787 113.106 116.66 113.334 116.482 113.5C116.292 113.665 116.05 113.741 115.809 113.741C115.733 113.741 115.657 113.741 115.568 113.716L111.947 112.826L106.941 115.71L111.947 118.594L111.959 118.607Z" fill="#F3F5F9"/>
<path d="M111.96 112.826L115.581 113.716C115.657 113.741 115.733 113.741 115.822 113.741C116.063 113.741 116.305 113.665 116.495 113.5C116.686 113.334 116.8 113.118 116.826 112.864C116.851 112.623 116.788 112.369 116.648 112.178C116.508 111.975 116.292 111.835 116.051 111.784L113.014 111.048L113.815 108.075C113.878 107.82 113.853 107.554 113.713 107.325C113.586 107.096 113.37 106.931 113.116 106.868C112.862 106.804 112.595 106.829 112.366 106.969C112.138 107.109 111.972 107.312 111.909 107.566L110.956 111.111L105.963 113.995V108.227L108.631 105.559C108.822 105.368 108.923 105.127 108.923 104.86C108.923 104.593 108.822 104.352 108.631 104.161C108.44 103.971 108.199 103.869 107.932 103.869C107.665 103.869 107.424 103.971 107.233 104.161L104.972 106.423L102.71 104.161C102.52 103.971 102.278 103.869 102.012 103.869C101.885 103.869 101.758 103.895 101.63 103.945C101.516 103.996 101.402 104.072 101.313 104.161C101.224 104.25 101.148 104.365 101.097 104.479C101.046 104.593 101.021 104.733 101.021 104.86C101.021 105.127 101.122 105.368 101.313 105.559L103.981 108.227V113.995L98.9878 111.111L98.0349 107.566C97.9714 107.312 97.8063 107.096 97.5776 106.969C97.3489 106.842 97.0821 106.804 96.828 106.868C96.5739 106.931 96.3579 107.096 96.2308 107.325C96.1038 107.554 96.0657 107.82 96.1292 108.075L96.9296 111.048L93.8931 111.784C93.6644 111.848 93.4484 111.988 93.3214 112.178C93.1816 112.382 93.1308 112.623 93.1562 112.852C93.1816 113.08 93.2959 113.309 93.4865 113.474C93.6771 113.639 93.9058 113.728 94.1345 113.716C94.2107 113.716 94.2869 113.716 94.3759 113.69L97.9968 112.801L103.003 115.685L97.9968 118.582L94.3759 117.692C94.1218 117.629 93.855 117.667 93.6263 117.807C93.3976 117.946 93.2451 118.162 93.1816 118.416C93.1181 118.671 93.1562 118.937 93.2959 119.166C93.4357 119.395 93.6517 119.547 93.9058 119.611L96.9423 120.348L96.1419 123.321C96.1038 123.448 96.1038 123.575 96.1165 123.702C96.1292 123.829 96.18 123.956 96.2435 124.07C96.3071 124.185 96.396 124.286 96.4976 124.362C96.5993 124.439 96.7136 124.502 96.8407 124.528C96.9296 124.553 97.0058 124.566 97.0948 124.566C97.3108 124.566 97.5267 124.49 97.6919 124.362C97.8698 124.235 97.9841 124.045 98.0477 123.842L99.0005 120.297L103.994 117.413V123.181L101.326 125.849C101.237 125.938 101.16 126.052 101.11 126.167C101.059 126.281 101.033 126.421 101.033 126.548C101.033 126.675 101.059 126.802 101.11 126.929C101.16 127.043 101.237 127.158 101.326 127.247C101.415 127.335 101.529 127.412 101.643 127.463C101.758 127.513 101.897 127.539 102.024 127.539C102.151 127.539 102.278 127.513 102.405 127.463C102.52 127.412 102.634 127.335 102.723 127.247L104.985 124.985L107.246 127.247C107.335 127.335 107.449 127.412 107.564 127.463C107.678 127.513 107.818 127.539 107.945 127.539C108.072 127.539 108.199 127.513 108.326 127.463C108.44 127.412 108.555 127.335 108.644 127.247C108.733 127.158 108.809 127.043 108.86 126.929C108.91 126.815 108.936 126.675 108.936 126.548C108.936 126.421 108.91 126.294 108.86 126.167C108.809 126.052 108.733 125.938 108.644 125.849L105.976 123.181V117.413L110.969 120.297L111.922 123.842C111.972 124.045 112.099 124.235 112.277 124.362C112.455 124.49 112.659 124.566 112.874 124.566C112.963 124.566 113.052 124.553 113.129 124.528C113.256 124.49 113.37 124.439 113.472 124.362C113.573 124.286 113.662 124.185 113.726 124.07C113.789 123.956 113.827 123.829 113.853 123.702C113.865 123.575 113.853 123.448 113.827 123.321L113.027 120.348L116.063 119.611C116.191 119.585 116.305 119.522 116.406 119.446C116.508 119.369 116.597 119.268 116.661 119.166C116.724 119.052 116.775 118.937 116.788 118.81C116.813 118.683 116.8 118.556 116.775 118.429C116.75 118.302 116.686 118.188 116.61 118.086C116.534 117.985 116.432 117.896 116.33 117.832C116.229 117.769 116.102 117.718 115.975 117.705C115.847 117.68 115.72 117.692 115.593 117.718L111.972 118.607L106.967 115.723L111.972 112.839L111.96 112.826Z" fill="#ABBDD9"/>
</svg>
