<svg width="360" height="140" viewBox="0 0 360 140" fill="none" xmlns="http://www.w3.org/2000/svg">
<path d="M255.032 59.4312C255.032 59.3995 255.032 59.3651 255.038 59.3334C254.985 56.3197 252.516 53.8823 249.486 53.8823H232.009C231.425 53.8823 230.952 53.4091 230.952 52.8248V49.6155H219.232V52.8248C219.232 53.4091 218.759 53.8823 218.175 53.8823H170.841C170.661 53.8823 170.489 53.9616 170.355 54.1043C170.204 54.2656 170.119 54.4929 170.119 54.7282V58.884C170.119 59.2567 169.924 59.6004 169.604 59.7908C169.284 59.9811 168.887 59.9917 168.56 59.8145C168.142 59.5898 167.674 59.4709 167.203 59.4709H157.9C157.316 59.4709 156.843 58.9977 156.843 58.4134V46.4273C156.843 46.377 156.832 46.3242 156.811 46.2686C156.801 46.2422 156.777 46.2026 156.751 46.1735C156.719 46.1391 156.69 46.1259 156.679 46.1206C156.655 46.11 156.632 46.1047 156.61 46.1047H153.142C153.094 46.1047 153.044 46.1285 153.005 46.1708C152.944 46.2369 152.909 46.3294 152.909 46.4273V58.4134C152.909 58.9977 152.436 59.4709 151.852 59.4709H145.137C144.452 59.4709 143.778 59.722 143.236 60.1794C142.679 60.6526 142.279 61.3214 142.113 62.0669L137.912 80.9476C137.804 81.4314 137.375 81.7751 136.881 81.7751H126.333C126.156 81.7751 125.979 81.857 125.847 81.9972C125.696 82.1584 125.611 82.3858 125.611 82.621V86.7742H255.032V59.4286V59.4312ZM154.953 76.8791C154.953 77.6563 154.667 78.3886 154.149 78.9464C153.618 79.5148 152.878 79.84 152.116 79.84H149.629C148.873 79.84 148.132 79.5148 147.601 78.9491C147.078 78.3886 146.792 77.6563 146.792 76.8791V69.6303C146.792 68.8531 147.078 68.1208 147.598 67.563C148.13 66.9946 148.87 66.6695 149.629 66.6695H152.116C152.872 66.6695 153.613 66.9946 154.144 67.5604C154.667 68.1208 154.953 68.8531 154.953 69.6303V76.8791ZM189.338 76.8606C189.338 77.651 189.029 78.3939 188.471 78.9543C187.911 79.5148 187.168 79.8215 186.378 79.8215H183.715C182.925 79.8215 182.182 79.5121 181.622 78.9543C181.061 78.3939 180.755 77.651 180.755 76.8606V69.6118C180.755 68.8214 181.064 68.0785 181.622 67.5181C182.182 66.9576 182.925 66.6509 183.715 66.6509H186.378C187.168 66.6509 187.911 66.9602 188.471 67.5181C189.032 68.0785 189.338 68.8214 189.338 69.6118V76.8606ZM208.232 76.8606C208.232 77.651 207.923 78.3939 207.365 78.9543C206.805 79.5148 206.062 79.8215 205.271 79.8215H202.609C201.819 79.8215 201.076 79.5121 200.516 78.9543C199.955 78.3939 199.649 77.651 199.649 76.8606V69.6118C199.649 68.8214 199.958 68.0785 200.516 67.5181C201.076 66.9576 201.819 66.6509 202.609 66.6509H205.271C206.062 66.6509 206.805 66.9602 207.365 67.5181C207.926 68.0785 208.232 68.8214 208.232 69.6118V76.8606ZM227.126 76.8606C227.126 77.651 226.817 78.3939 226.259 78.9543C225.701 79.5148 224.956 79.8215 224.165 79.8215H221.503C220.713 79.8215 219.97 79.5121 219.41 78.9543C218.849 78.3939 218.542 77.651 218.542 76.8606V69.6118C218.542 68.8214 218.852 68.0785 219.41 67.5181C219.97 66.9576 220.713 66.6509 221.503 66.6509H224.165C224.956 66.6509 225.699 66.9602 226.259 67.5181C226.82 68.0785 227.126 68.8214 227.126 69.6118V76.8606ZM246.023 76.8606C246.023 77.651 245.714 78.3939 245.156 78.9543C244.595 79.5148 243.852 79.8215 243.062 79.8215H240.4C239.609 79.8215 238.867 79.5121 238.306 78.9543C237.746 78.3965 237.439 77.651 237.439 76.8606V69.6118C237.439 68.8214 237.748 68.0785 238.306 67.5181C238.867 66.9576 239.609 66.6509 240.4 66.6509H243.062C243.852 66.6509 244.595 66.9602 245.156 67.5181C245.716 68.0785 246.023 68.8214 246.023 69.6118V76.8606Z" fill="#F3F5F9"/>
<path d="M243.062 66.6514H240.4C239.61 66.6514 238.867 66.9607 238.307 67.5185C237.746 68.0789 237.439 68.8218 237.439 69.6122V76.861C237.439 77.6515 237.749 78.3943 238.307 78.9548C238.864 79.5152 239.61 79.8219 240.4 79.8219H243.062C243.853 79.8219 244.596 79.5126 245.156 78.9548C245.717 78.3943 246.023 77.6515 246.023 76.861V69.6122C246.023 68.8218 245.714 68.0789 245.156 67.5185C244.596 66.958 243.853 66.6514 243.062 66.6514ZM243.908 76.861C243.908 77.0857 243.821 77.2999 243.66 77.4585C243.499 77.6197 243.287 77.707 243.062 77.707H240.4C240.176 77.707 239.961 77.6197 239.803 77.4585C239.644 77.2972 239.554 77.0857 239.554 76.861V69.6122C239.554 69.3875 239.642 69.1734 239.803 69.0148C239.964 68.8561 240.176 68.7663 240.4 68.7663H243.062C243.287 68.7663 243.501 68.8535 243.66 69.0148C243.821 69.176 243.908 69.3875 243.908 69.6122V76.861Z" fill="#ABBDD9"/>
<path d="M205.271 66.6514H202.609C201.819 66.6514 201.076 66.9607 200.516 67.5185C199.955 68.0789 199.648 68.8218 199.648 69.6122V76.861C199.648 77.6515 199.958 78.3943 200.516 78.9548C201.076 79.5152 201.819 79.8219 202.609 79.8219H205.271C206.062 79.8219 206.805 79.5126 207.365 78.9548C207.926 78.3943 208.232 77.6515 208.232 76.861V69.6122C208.232 68.8218 207.923 68.0789 207.365 67.5185C206.805 66.958 206.062 66.6514 205.271 66.6514ZM206.117 76.861C206.117 77.0857 206.03 77.2999 205.869 77.4585C205.708 77.6171 205.496 77.707 205.271 77.707H202.609C202.385 77.707 202.17 77.6197 202.012 77.4585C201.851 77.2972 201.763 77.0857 201.763 76.861V69.6122C201.763 69.3875 201.851 69.1734 202.012 69.0148C202.17 68.8535 202.385 68.7663 202.609 68.7663H205.271C205.496 68.7663 205.71 68.8535 205.869 69.0148C206.03 69.176 206.117 69.3875 206.117 69.6122V76.861Z" fill="#ABBDD9"/>
<path d="M224.166 66.6514H221.504C220.713 66.6514 219.971 66.9607 219.41 67.5185C218.85 68.0789 218.543 68.8218 218.543 69.6122V76.861C218.543 77.6515 218.852 78.3943 219.41 78.9548C219.971 79.5152 220.713 79.8219 221.504 79.8219H224.166C224.956 79.8219 225.699 79.5126 226.26 78.9548C226.82 78.397 227.127 77.6515 227.127 76.861V69.6122C227.127 68.8218 226.817 68.0789 226.26 67.5185C225.699 66.958 224.956 66.6514 224.166 66.6514ZM225.012 76.861C225.012 77.0857 224.925 77.2999 224.763 77.4585C224.602 77.6171 224.391 77.707 224.166 77.707H221.504C221.279 77.707 221.065 77.6197 220.906 77.4585C220.745 77.2972 220.658 77.0857 220.658 76.861V69.6122C220.658 69.3875 220.745 69.1734 220.906 69.0148C221.065 68.8535 221.279 68.7663 221.504 68.7663H224.166C224.391 68.7663 224.605 68.8535 224.763 69.0148C224.925 69.176 225.012 69.3875 225.012 69.6122V76.861Z" fill="#ABBDD9"/>
<path d="M186.379 66.6514H183.717C182.926 66.6514 182.183 66.9607 181.623 67.5185C181.063 68.0789 180.756 68.8218 180.756 69.6122V76.861C180.756 77.6515 181.065 78.3943 181.623 78.9548C182.183 79.5152 182.926 79.8219 183.717 79.8219H186.379C187.169 79.8219 187.912 79.5126 188.473 78.9548C189.033 78.3943 189.34 77.6515 189.34 76.861V69.6122C189.34 68.8218 189.03 68.0789 188.473 67.5185C187.912 66.958 187.169 66.6514 186.379 66.6514ZM187.225 76.861C187.225 77.0857 187.138 77.2999 186.976 77.4585C186.815 77.6197 186.604 77.707 186.379 77.707H183.717C183.492 77.707 183.278 77.6197 183.119 77.4585C182.958 77.2972 182.871 77.0857 182.871 76.861V69.6122C182.871 69.3875 182.958 69.1734 183.119 69.0148C183.278 68.8535 183.492 68.7663 183.717 68.7663H186.379C186.604 68.7663 186.818 68.8535 186.976 69.0148C187.138 69.176 187.225 69.3875 187.225 69.6122V76.861Z" fill="#ABBDD9"/>
<path d="M152.117 66.6694H149.63C148.868 66.6694 148.128 66.9946 147.599 67.563C147.081 68.1181 146.793 68.8531 146.793 69.6303V76.8791C146.793 77.6563 147.078 78.3886 147.602 78.949C148.133 79.5148 148.873 79.8399 149.63 79.8399H152.117C152.879 79.8399 153.619 79.5148 154.15 78.9464C154.668 78.3886 154.954 77.6563 154.954 76.8791V69.6303C154.954 68.8531 154.668 68.1208 154.145 67.5603C153.614 66.9946 152.873 66.6694 152.117 66.6694ZM152.839 76.8791C152.839 77.1144 152.752 77.3417 152.604 77.503C152.469 77.6457 152.297 77.725 152.117 77.725H149.63C149.452 77.725 149.278 77.6457 149.143 77.503C148.992 77.3417 148.908 77.1144 148.908 76.8791V69.6303C148.908 69.395 148.995 69.1677 149.143 69.0064C149.278 68.8636 149.45 68.7843 149.63 68.7843H152.117C152.294 68.7843 152.469 68.8636 152.604 69.0064C152.754 69.1677 152.839 69.395 152.839 69.6303V76.8791Z" fill="#ABBDD9"/>
<path d="M261.872 115.809V90.2166C261.872 89.4869 261.322 88.8948 260.648 88.8948H99.242C98.6922 88.8948 98.4014 89.286 98.3035 89.4526C98.0709 89.8491 98.0656 90.325 98.2877 90.7242L112.69 116.547C112.791 116.727 112.936 116.877 113.108 116.983C113.269 117.081 113.454 117.131 113.642 117.131H260.648C261.322 117.131 261.872 116.539 261.872 115.809ZM129.226 110.615C126.069 110.615 123.503 107.958 123.503 104.69C123.503 101.423 126.069 98.766 129.226 98.766C132.382 98.766 134.949 101.423 134.949 104.69C134.949 107.958 132.382 110.615 129.226 110.615ZM161.304 110.615C158.147 110.615 155.58 107.958 155.58 104.69C155.58 101.423 158.147 98.766 161.304 98.766C164.46 98.766 167.027 101.423 167.027 104.69C167.027 107.958 164.46 110.615 161.304 110.615Z" fill="#E8E9ED"/>
<path d="M129.225 98.7654C126.069 98.7654 123.502 101.422 123.502 104.69C123.502 107.957 126.069 110.614 129.225 110.614C132.382 110.614 134.949 107.957 134.949 104.69C134.949 101.422 132.382 98.7654 129.225 98.7654ZM129.225 108.499C127.235 108.499 125.617 106.791 125.617 104.69C125.617 102.588 127.235 100.88 129.225 100.88C131.216 100.88 132.834 102.588 132.834 104.69C132.834 106.791 131.216 108.499 129.225 108.499Z" fill="#ABBDD9"/>
<path d="M161.304 98.7654C158.147 98.7654 155.58 101.422 155.58 104.69C155.58 107.957 158.147 110.614 161.304 110.614C164.46 110.614 167.027 107.957 167.027 104.69C167.027 101.422 164.46 98.7654 161.304 98.7654ZM157.695 104.69C157.695 102.588 159.313 100.88 161.304 100.88C163.294 100.88 164.912 102.588 164.912 104.69C164.912 106.791 163.294 108.499 161.304 108.499C159.313 108.499 157.695 106.791 157.695 104.69Z" fill="#ABBDD9"/>
<path d="M218.516 47.501H231.776C232.823 47.501 233.677 46.6498 233.677 45.6029C233.677 44.556 232.823 43.7021 231.776 43.7021H218.516C217.469 43.7021 216.615 44.5534 216.615 45.6029C216.615 46.6524 217.469 47.501 218.516 47.501Z" fill="#E8E9ED"/>
<path d="M218.516 39.1209H231.776C232.823 39.1209 233.677 38.2697 233.677 37.2228C233.677 36.1759 232.823 35.322 231.776 35.322H218.516C217.469 35.322 216.615 36.1733 216.615 37.2228C216.615 38.2723 217.469 39.1209 218.516 39.1209Z" fill="#E8E9ED"/>
<path d="M218.516 41.2355H231.776C233.991 41.2355 235.792 39.4352 235.792 37.2224C235.792 35.0097 233.991 33.2068 231.776 33.2068H218.516C216.3 33.2068 214.5 35.0071 214.5 37.2224C214.5 39.4378 216.3 41.2355 218.516 41.2355ZM218.516 35.3217H231.776C232.823 35.3217 233.677 36.1729 233.677 37.2224C233.677 38.272 232.823 39.1206 231.776 39.1206H218.516C217.469 39.1206 216.615 38.2693 216.615 37.2224C216.615 36.1756 217.469 35.3217 218.516 35.3217Z" fill="#ABBDD9"/>
<path d="M65.8022 91.1416C65.8022 86.6395 64.0521 82.4071 60.8718 79.2294C57.6916 76.0491 53.4618 74.2991 48.9597 74.2991C44.4576 74.2991 40.2252 76.0491 37.0475 79.2294C33.8699 82.4097 32.1172 86.6395 32.1172 91.1416C32.1172 95.6437 33.8673 99.8761 37.0475 103.054L48.9597 114.966L60.8718 103.054C64.0521 99.8734 65.8022 95.6437 65.8022 91.1416ZM48.957 100.286C43.9157 100.286 39.8128 96.1829 39.8128 91.1416C39.8128 86.1002 43.9157 81.9973 48.957 81.9973C53.9984 81.9973 58.1013 86.1002 58.1013 91.1416C58.1013 96.1829 53.9984 100.286 48.957 100.286Z" fill="#E8E9ED"/>
<path d="M62.3685 77.7328C58.789 74.1533 54.0279 72.1812 48.96 72.1812C43.8922 72.1812 39.1311 74.1533 35.5516 77.7328C31.9721 81.3122 30 86.0734 30 91.1412C30 96.209 31.9721 100.97 35.5516 104.55L48.2119 117.21C48.4181 117.416 48.6877 117.519 48.96 117.519C49.2323 117.519 49.502 117.416 49.7082 117.21L62.3685 104.55C65.9479 100.97 67.9174 96.209 67.9174 91.1412C67.9174 86.0734 65.9453 81.3122 62.3658 77.7328H62.3685ZM37.0452 103.053C33.865 99.8731 32.1149 95.6433 32.1149 91.1412C32.1149 86.6391 33.865 82.4067 37.0452 79.229C40.2255 76.0514 44.4553 74.2987 48.9574 74.2987C53.4595 74.2987 57.6919 76.0488 60.8695 79.229C64.0498 82.4093 65.7999 86.6391 65.7999 91.1412C65.7999 95.6433 64.0498 99.8757 60.8695 103.053L48.9574 114.965L37.0452 103.053Z" fill="#ABBDD9"/>
<path d="M48.9571 84.1118C45.0816 84.1118 41.9277 87.2657 41.9277 91.1412C41.9277 95.0167 45.0816 98.1706 48.9571 98.1706C52.8327 98.1706 55.9865 95.0167 55.9865 91.1412C55.9865 87.2657 52.8327 84.1118 48.9571 84.1118Z" fill="#F3F5F9"/>
<path d="M48.9568 81.9976C43.9154 81.9976 39.8125 86.1005 39.8125 91.1418C39.8125 96.1832 43.9154 100.286 48.9568 100.286C53.9982 100.286 58.1011 96.1832 58.1011 91.1418C58.1011 86.1005 53.9982 81.9976 48.9568 81.9976ZM48.9568 98.1712C45.0812 98.1712 41.9274 95.0174 41.9274 91.1418C41.9274 87.2663 45.0812 84.1125 48.9568 84.1125C52.8323 84.1125 55.9862 87.2663 55.9862 91.1418C55.9862 95.0174 52.8323 98.1712 48.9568 98.1712Z" fill="#ABBDD9"/>
<path d="M322.956 79.2294C319.776 76.0491 315.546 74.2991 311.041 74.2991C306.536 74.2991 302.307 76.0491 299.126 79.2294C292.557 85.7988 292.557 96.487 299.126 103.056L311.038 114.969L322.953 103.056C329.523 96.487 329.523 85.7988 322.953 79.2294H322.956ZM311.041 100.286C306 100.286 301.897 96.1829 301.897 91.1416C301.897 86.1002 306 81.9973 311.041 81.9973C316.082 81.9973 320.185 86.1002 320.185 91.1416C320.185 96.1829 316.082 100.286 311.041 100.286Z" fill="#F3F5F9"/>
<path d="M324.452 77.7328C320.873 74.1533 316.112 72.1812 311.044 72.1812C305.976 72.1812 301.212 74.1533 297.635 77.7328C290.241 85.127 290.241 97.1554 297.635 104.55L310.296 117.21C310.502 117.416 310.772 117.519 311.044 117.519C311.316 117.519 311.586 117.416 311.792 117.21L324.455 104.55C331.849 97.1554 331.849 85.127 324.455 77.7328H324.452ZM311.041 114.968L299.129 103.056C292.56 96.4866 292.56 85.7984 299.129 79.229C302.309 76.0488 306.539 74.2987 311.044 74.2987C315.549 74.2987 319.778 76.0488 322.959 79.229C329.528 85.7984 329.528 96.4866 322.959 103.056L311.044 114.968H311.041Z" fill="#ABBDD9"/>
<path d="M311.041 98.1706C314.923 98.1706 318.07 95.0234 318.07 91.1412C318.07 87.259 314.923 84.1118 311.041 84.1118C307.159 84.1118 304.012 87.259 304.012 91.1412C304.012 95.0234 307.159 98.1706 311.041 98.1706Z" fill="#E8E9ED"/>
<path d="M311.041 81.9976C305.999 81.9976 301.896 86.1005 301.896 91.1418C301.896 96.1832 305.999 100.286 311.041 100.286C316.082 100.286 320.185 96.1832 320.185 91.1418C320.185 86.1005 316.082 81.9976 311.041 81.9976ZM311.041 98.1712C307.165 98.1712 304.011 95.0174 304.011 91.1418C304.011 87.2663 307.165 84.1125 311.041 84.1125C314.916 84.1125 318.07 87.2663 318.07 91.1418C318.07 95.0174 314.916 98.1712 311.041 98.1712Z" fill="#ABBDD9"/>
<path d="M65.9591 117.131H58.6785C58.0943 117.131 57.6211 117.605 57.6211 118.189C57.6211 118.773 58.0943 119.246 58.6785 119.246H65.9591C66.5433 119.246 67.0165 118.773 67.0165 118.189C67.0165 117.605 66.5433 117.131 65.9591 117.131Z" fill="#ABBDD9"/>
<path d="M76.437 117.131H70.8563C70.272 117.131 69.7988 117.605 69.7988 118.189C69.7988 118.773 70.272 119.246 70.8563 119.246H76.437C77.0212 119.246 77.4944 118.773 77.4944 118.189C77.4944 117.605 77.0212 117.131 76.437 117.131Z" fill="#ABBDD9"/>
<path d="M266.86 117.131H263.73C263.897 116.724 263.987 116.277 263.987 115.809V90.2162C263.987 88.3234 262.493 86.7822 260.653 86.7795H257.148V59.5423C257.15 59.508 257.153 59.471 257.153 59.4339C257.153 55.2068 253.714 51.7674 249.487 51.7674H233.067V49.3988C234.651 48.8595 235.793 47.3632 235.793 45.5999C235.793 43.3872 233.992 41.5842 231.777 41.5842H218.517C216.301 41.5842 214.501 43.3845 214.501 45.5999C214.501 47.3209 215.593 48.7881 217.118 49.3591V51.7674H170.842C170.08 51.7674 169.34 52.0926 168.809 52.661C168.291 53.2188 168.005 53.9511 168.005 54.7283V57.4221C167.743 57.3799 167.476 57.3561 167.209 57.3561H158.959V46.4273C158.959 46.1233 158.903 45.8193 158.787 45.5074C158.67 45.2139 158.504 44.9522 158.295 44.7275C158.078 44.4975 157.814 44.3098 157.534 44.1856C157.243 44.0587 156.926 43.9899 156.614 43.9899H153.145C152.511 43.9899 151.897 44.2596 151.461 44.7275C151.033 45.1848 150.798 45.7876 150.798 46.4273V57.3561H145.14C143.956 57.3561 142.798 57.7843 141.875 58.5668C140.966 59.3361 140.318 60.4174 140.054 61.6123L136.038 79.6656H126.339C125.578 79.6656 124.837 79.9907 124.309 80.5591C123.79 81.1143 123.502 81.8492 123.502 82.6264V86.7822H99.2471C98.1077 86.7822 97.074 87.3796 96.4845 88.3842C95.8686 89.4337 95.8527 90.6947 96.4449 91.7575L110.599 117.134H88.284C87.6998 117.134 87.2266 117.607 87.2266 118.191C87.2266 118.775 87.6998 119.248 88.284 119.248H266.863C267.447 119.248 267.921 118.775 267.921 118.191C267.921 117.607 267.447 117.134 266.863 117.134L266.86 117.131ZM113.108 116.983C112.936 116.88 112.79 116.729 112.69 116.547L98.2875 90.7238C98.0654 90.322 98.0707 89.8461 98.3033 89.4522C98.4011 89.2857 98.6919 88.8944 99.2418 88.8944H260.648C261.322 88.8944 261.872 89.4866 261.872 90.2162V115.809C261.872 116.539 261.322 117.131 260.648 117.131H113.642C113.454 117.131 113.269 117.078 113.108 116.983ZM125.612 82.6238C125.612 82.3885 125.699 82.1611 125.847 81.9999C125.979 81.8598 126.156 81.7778 126.334 81.7778H136.882C137.376 81.7778 137.807 81.4341 137.913 80.9504L142.113 62.0696C142.28 61.3241 142.676 60.6527 143.237 60.1821C143.779 59.7247 144.453 59.4736 145.138 59.4736H151.852C152.437 59.4736 152.91 59.0004 152.91 58.4162V46.43C152.91 46.3322 152.944 46.2396 153.005 46.1736C153.045 46.1313 153.095 46.1075 153.143 46.1075H156.611C156.632 46.1075 156.656 46.1127 156.68 46.1233C156.69 46.1286 156.719 46.1445 156.751 46.1762C156.778 46.2053 156.801 46.2449 156.812 46.2714C156.833 46.3269 156.844 46.3771 156.844 46.43V58.4162C156.844 59.0004 157.317 59.4736 157.901 59.4736H167.204C167.675 59.4736 168.145 59.5952 168.56 59.8173C168.888 59.9944 169.285 59.9838 169.604 59.7935C169.924 59.6031 170.12 59.2568 170.12 58.8867V54.7309C170.12 54.4957 170.207 54.2683 170.355 54.1071C170.49 53.9643 170.662 53.885 170.842 53.885H218.176C218.76 53.885 219.233 53.4118 219.233 52.8275V49.6182H230.952V52.8275C230.952 53.4118 231.425 53.885 232.01 53.885H249.487C252.514 53.885 254.983 56.3198 255.038 59.3361C255.036 59.3679 255.033 59.4022 255.033 59.4339V86.7795H125.612V82.6264V82.6238ZM218.517 43.7018H231.777C232.824 43.7018 233.678 44.553 233.678 45.6025C233.678 46.652 232.824 47.5006 231.777 47.5006H218.517C217.47 47.5006 216.616 46.6494 216.616 45.6025C216.616 44.5557 217.47 43.7018 218.517 43.7018Z" fill="#ABBDD9"/>
<path d="M272.032 119.246H278.02C278.604 119.246 279.077 118.773 279.077 118.189C279.077 117.605 278.604 117.131 278.02 117.131H272.032C271.448 117.131 270.975 117.605 270.975 118.189C270.975 118.773 271.448 119.246 272.032 119.246Z" fill="#ABBDD9"/>
<path d="M303.154 118.189C303.154 117.605 302.68 117.131 302.096 117.131H282.102C281.518 117.131 281.045 117.605 281.045 118.189C281.045 118.773 281.518 119.246 282.102 119.246H302.096C302.68 119.246 303.154 118.773 303.154 118.189Z" fill="#ABBDD9"/>
<path d="M274.481 114.603H287.546C288.13 114.603 288.603 114.13 288.603 113.546C288.603 112.962 288.13 112.489 287.546 112.489H274.481C273.897 112.489 273.424 112.962 273.424 113.546C273.424 114.13 273.897 114.603 274.481 114.603Z" fill="#ABBDD9"/>
<path d="M102.403 112.185C102.403 111.6 101.93 111.127 101.346 111.127H78.4813C77.897 111.127 77.4238 111.6 77.4238 112.185C77.4238 112.769 77.897 113.242 78.4813 113.242H101.346C101.93 113.242 102.403 112.769 102.403 112.185Z" fill="#ABBDD9"/>
<path d="M76.0337 122.017H74.3973C73.8131 122.017 73.3398 122.49 73.3398 123.074C73.3398 123.658 73.8131 124.131 74.3973 124.131H76.0337C76.6179 124.131 77.0911 123.658 77.0911 123.074C77.0911 122.49 76.6179 122.017 76.0337 122.017Z" fill="#ABBDD9"/>
<path d="M95.0851 122.017H80.9285C80.3443 122.017 79.8711 122.49 79.8711 123.074C79.8711 123.658 80.3443 124.131 80.9285 124.131H95.0851C95.6694 124.131 96.1426 123.658 96.1426 123.074C96.1426 122.49 95.6694 122.017 95.0851 122.017Z" fill="#ABBDD9"/>
<path d="M156.881 122.017H140.276C139.692 122.017 139.219 122.49 139.219 123.074C139.219 123.658 139.692 124.131 140.276 124.131H156.881C157.465 124.131 157.938 123.658 157.938 123.074C157.938 122.49 157.465 122.017 156.881 122.017Z" fill="#ABBDD9"/>
<path d="M235.555 122.017H168.587C168.003 122.017 167.529 122.49 167.529 123.074C167.529 123.658 168.003 124.131 168.587 124.131H235.555C236.139 124.131 236.612 123.658 236.612 123.074C236.612 122.49 236.139 122.017 235.555 122.017Z" fill="#ABBDD9"/>
<path d="M263.593 122.017H260.325C259.741 122.017 259.268 122.49 259.268 123.074C259.268 123.658 259.741 124.131 260.325 124.131H263.593C264.177 124.131 264.65 123.658 264.65 123.074C264.65 122.49 264.177 122.017 263.593 122.017Z" fill="#ABBDD9"/>
<path d="M279.925 122.017H270.942C270.358 122.017 269.885 122.49 269.885 123.074C269.885 123.658 270.358 124.131 270.942 124.131H279.925C280.509 124.131 280.983 123.658 280.983 123.074C280.983 122.49 280.509 122.017 279.925 122.017Z" fill="#ABBDD9"/>
<path d="M303.064 122.017H298.71C298.126 122.017 297.652 122.49 297.652 123.074C297.652 123.658 298.126 124.131 298.71 124.131H303.064C303.648 124.131 304.121 123.658 304.121 123.074C304.121 122.49 303.648 122.017 303.064 122.017Z" fill="#ABBDD9"/>
<path d="M83.1317 53.5043C83.4013 53.5043 83.6736 53.4012 83.8798 53.195L91.9349 45.1399C93.3651 46.4062 94.9804 47.4161 96.7542 48.151C98.8559 49.0207 101.074 49.4622 103.347 49.4622C105.621 49.4622 107.842 49.0207 109.941 48.151C112.042 47.2812 113.922 46.0255 115.532 44.4156C117.139 42.8082 118.398 40.926 119.267 38.8243C120.137 36.7226 120.579 34.5046 120.579 32.2311C120.579 29.9576 120.137 27.737 119.267 25.6379C118.398 23.5362 117.139 21.6566 115.532 20.0467C112.278 16.7924 107.95 15 103.347 15C98.7449 15 94.4173 16.7924 91.163 20.0467C87.9087 23.301 86.1163 27.6286 86.1163 32.2311C86.1163 36.4794 87.6443 40.4924 90.4386 43.6463L82.3835 51.7014C81.9711 52.1138 81.9711 52.7826 82.3835 53.1977C82.5897 53.4039 82.8594 53.507 83.1317 53.507V53.5043ZM88.2339 32.2285C88.2339 28.1917 89.8068 24.3954 92.6619 21.5403C95.517 18.6852 99.3133 17.1123 103.35 17.1123C107.387 17.1123 111.183 18.6852 114.038 21.5403C115.45 22.952 116.552 24.6016 117.316 26.4442C118.08 28.2868 118.466 30.2325 118.466 32.2285C118.466 34.2244 118.08 36.1701 117.316 38.0127C116.552 39.858 115.45 41.5076 114.038 42.9166C112.627 44.3283 110.977 45.4307 109.134 46.1947C107.292 46.9587 105.343 47.3447 103.35 47.3447C101.357 47.3447 99.4084 46.9587 97.5658 46.1947C95.7232 45.4307 94.0736 44.3283 92.6619 42.9166C89.8068 40.0615 88.2339 36.2653 88.2339 32.2285Z" fill="#ABBDD9"/>
</svg>
