<svg width="85" height="70" viewBox="0 0 85 70" fill="none" xmlns="http://www.w3.org/2000/svg">
<g id="Group 1000003648">
<g id="Mask group">
<mask id="mask0_5328_40216" style="mask-type:alpha" maskUnits="userSpaceOnUse" x="21" y="46" width="36" height="24">
<path id="Vector 418" d="M48.5 46.5L21.5 62.5L29 70L52 62.5L56.5 53L48.5 46.5Z" fill="#D9D9D9"/>
</mask>
<g mask="url(#mask0_5328_40216)">
<g id="Group 1000003658">
<g id="Vector">
<path d="M32.9295 64.7005L19.0098 56.6642L19 59.7184L32.9214 67.7562L32.9295 64.7005Z" fill="#54555A"/>
<path d="M53 53.0363L32.9295 64.7005L32.9214 67.7562L34.5593 66.8043V64.9565L51.5217 55.1412V56.9464L52.9919 56.092L53 53.0363Z" fill="#54555A"/>
<path d="M32.9295 64.7005L53 53.0363L39.0802 45L19.0098 56.6642L32.9295 64.7005Z" fill="#54555A"/>
<path d="M53 53.0363L32.9295 64.7005M53 53.0363L39.0802 45L19.0098 56.6642M53 53.0363L52.9919 56.092L51.5217 56.9464V55.1412L34.5593 64.9565V66.8043L32.9214 67.7562M32.9295 64.7005L19.0098 56.6642M32.9295 64.7005L32.9214 67.7562M19.0098 56.6642L19 59.7184L32.9214 67.7562" stroke="#54555A" stroke-width="0.7" stroke-linecap="round" stroke-linejoin="round"/>
</g>
<path id="Vector_2" d="M32.9295 64.7005L53 53.0363L39.0802 45L19.0098 56.6642L32.9295 64.7005Z" fill="#C5C6D0" stroke="#54555A" stroke-width="0.7" stroke-linecap="round" stroke-linejoin="round"/>
<g id="Vector_3">
<path d="M40.7914 51.2357L40.7644 58.6275L24 48.9504L24.0257 42.1126C25.9167 46.2509 28.9713 49.827 32.2305 51.7098C35.728 53.7295 38.914 53.548 40.7901 51.2371L40.7914 51.2357Z" fill="#54555A"/>
<path d="M40.7914 58.6127L40.8185 51.2195L44.2864 49.1082L44.2593 56.5L40.7914 58.6127Z" fill="#54555A"/>
<path d="M39.4071 52.4318C37.5283 53.5236 34.9749 53.2947 32.2305 51.7098M32.2305 51.7098C28.9713 49.827 25.9167 46.2509 24.0257 42.1126M32.2305 51.7098C35.728 53.7295 38.914 53.548 40.7901 51.2371L40.7914 51.2357L40.7644 58.6275L24 48.9504L24.0257 42.1126M24.0257 42.1126L27.4936 40C29.3846 44.1382 32.4392 47.7143 35.6983 49.5972C37.9213 50.881 40.3834 50.9388 42.0987 50.462M40.7914 58.6127L40.8185 51.2195L44.2864 49.1082L44.2593 56.5L40.7914 58.6127Z" stroke="#54555A" stroke-width="0.630289" stroke-linecap="round" stroke-linejoin="round"/>
</g>
</g>
</g>
</g>
<g id="Mask group_2">
<mask id="mask1_5328_40216" style="mask-type:alpha" maskUnits="userSpaceOnUse" x="49" y="30" width="35" height="24">
<path id="Vector 418_2" d="M76 30L49 46L56.5 53.5L79.5 46L84 36.5L76 30Z" fill="#D9D9D9"/>
</mask>
<g mask="url(#mask1_5328_40216)">
<g id="Group 1000003658_2">
<g id="Vector_4">
<path d="M60.4295 48.2005L46.5098 40.1642L46.5 43.2184L60.4214 51.2562L60.4295 48.2005Z" fill="#54555A"/>
<path d="M80.5 36.5363L60.4295 48.2005L60.4214 51.2562L62.0593 50.3043V48.4565L79.0217 38.6412V40.4464L80.4919 39.592L80.5 36.5363Z" fill="#54555A"/>
<path d="M60.4295 48.2005L80.5 36.5363L66.5802 28.5L46.5098 40.1642L60.4295 48.2005Z" fill="#54555A"/>
<path d="M80.5 36.5363L60.4295 48.2005M80.5 36.5363L66.5802 28.5L46.5098 40.1642M80.5 36.5363L80.4919 39.592L79.0217 40.4464V38.6412L62.0593 48.4565V50.3043L60.4214 51.2562M60.4295 48.2005L46.5098 40.1642M60.4295 48.2005L60.4214 51.2562M46.5098 40.1642L46.5 43.2184L60.4214 51.2562" stroke="#54555A" stroke-width="0.7" stroke-linecap="round" stroke-linejoin="round"/>
</g>
<path id="Vector_5" d="M60.4295 48.2005L80.5 36.5363L66.5802 28.5L46.5098 40.1642L60.4295 48.2005Z" fill="#C5C6D0" stroke="#54555A" stroke-width="0.7" stroke-linecap="round" stroke-linejoin="round"/>
<g id="Vector_6">
<path d="M68.2914 34.7357L68.2644 42.1275L51.5 32.4504L51.5257 25.6126C53.4167 29.7509 56.4713 33.327 59.7305 35.2098C63.228 37.2295 66.414 37.048 68.2901 34.7371L68.2914 34.7357Z" fill="#54555A"/>
<path d="M68.2914 42.1127L68.3185 34.7195L71.7864 32.6082L71.7593 40L68.2914 42.1127Z" fill="#54555A"/>
<path d="M66.9071 35.9318C65.0283 37.0236 62.4749 36.7947 59.7305 35.2098M59.7305 35.2098C56.4713 33.327 53.4167 29.7509 51.5257 25.6126M59.7305 35.2098C63.228 37.2295 66.414 37.048 68.2901 34.7371L68.2914 34.7357L68.2644 42.1275L51.5 32.4504L51.5257 25.6126M51.5257 25.6126L54.9936 23.5C56.8846 27.6382 59.9392 31.2143 63.1983 33.0972C65.4213 34.381 67.8834 34.4388 69.5987 33.962M68.2914 42.1127L68.3185 34.7195L71.7864 32.6082L71.7593 40L68.2914 42.1127Z" stroke="#54555A" stroke-width="0.630289" stroke-linecap="round" stroke-linejoin="round"/>
</g>
</g>
</g>
</g>
<g id="Group 1000003640">
<g id="Vector_7">
<path d="M19.1259 63.5723L80.7706 27.7468C82.6878 26.6333 83.8764 24.264 83.8843 20.8996C83.904 14.1215 79.1378 5.86848 73.2403 2.46461C70.2728 0.750832 67.5836 0.59288 65.6428 1.72026L4 37.5438" fill="white"/>
<path d="M11.5955 38.2879C17.4931 41.6918 22.2593 49.9468 22.2395 56.7229M19.1259 63.5723L80.7706 27.7468C82.6878 26.6333 83.8764 24.264 83.8843 20.8996C83.904 14.1215 79.1378 5.86848 73.2403 2.46461C70.2728 0.750832 67.5836 0.59288 65.6428 1.72026L4 37.5438" stroke="#54555A" stroke-width="0.7" stroke-linecap="round" stroke-linejoin="round"/>
</g>
<path id="Vector_8" d="M53.1279 43.7468C55.045 42.6333 56.2336 40.264 56.2415 36.8996C56.2612 30.1215 51.495 21.8685 45.5975 18.4646C42.63 16.7508 39.9408 16.5929 38 17.7203" stroke="#D3D3DE" stroke-width="0.7" stroke-linecap="round" stroke-linejoin="round"/>
<path id="Vector_9" d="M74.1279 31.7468C76.045 30.6333 77.2336 28.264 77.2415 24.8996C77.2612 18.1215 72.495 9.86848 66.5975 6.46461C63.63 4.75083 60.9408 4.59288 59 5.72026" stroke="#D3D3DE" stroke-width="0.7" stroke-linecap="round" stroke-linejoin="round"/>
<path id="Vector_10" d="M31.1279 56.7468C33.045 55.6333 34.2336 53.264 34.2415 49.8996C34.2612 43.1215 29.495 34.8685 23.5975 31.4646C20.63 29.7508 17.9408 29.5929 16 30.7203" stroke="#D3D3DE" stroke-width="0.7" stroke-linecap="round" stroke-linejoin="round"/>
<path id="Vector_11" d="M79.1279 28.7468C81.045 27.6333 82.2336 25.264 82.2415 21.8996C82.2612 15.1215 77.495 6.86848 71.5975 3.46461C68.63 1.75083 65.9408 1.59288 64 2.72026" stroke="#D3D3DE" stroke-width="0.7" stroke-linecap="round" stroke-linejoin="round"/>
</g>
<path id="Vector_12" d="M19.2416 63.5723L80.8863 27.7468C82.8035 26.6333 83.992 24.264 83.9999 20.8996C84.0197 14.1215 79.2535 5.86848 73.3559 2.46461C70.3884 0.750832 67.6993 0.59288 65.7584 1.72026L4.11567 37.5438M11.7112 38.2879C17.6087 41.6918 22.3749 49.9468 22.3552 56.7229C22.3354 63.4991 17.5396 66.2316 11.6421 62.8258C5.74455 59.4239 0.980317 51.1709 1.00006 44.3947C1.01981 37.6166 5.81563 34.8841 11.7112 38.2879Z" stroke="#54555A" stroke-width="0.7" stroke-linecap="round" stroke-linejoin="round"/>
<g id="Vector_13">
<path d="M65.5142 36.7468C67.4313 35.6333 68.6199 33.264 68.6278 29.8996C68.6475 23.1215 63.8813 14.8685 57.9838 11.4646C55.0163 9.75083 52.3271 9.59288 50.3863 10.7203L47 12.6883C48.9408 11.5609 51.63 11.7188 54.5975 13.4326C60.495 16.8365 65.2612 25.0895 65.2415 31.8676C65.2336 35.2284 64.0475 37.5962 62.134 38.7113L65.5142 36.7468Z" fill="#EEEDF4"/>
<path d="M62.1279 38.7148L62.1328 38.7119L62.134 38.7113M62.134 38.7113C64.0475 37.5962 65.2336 35.2284 65.2415 31.8676C65.2612 25.0895 60.495 16.8365 54.5975 13.4326C51.63 11.7188 48.9408 11.5609 47 12.6883L50.3863 10.7203C52.3271 9.59288 55.0163 9.75083 57.9838 11.4646C63.8813 14.8685 68.6475 23.1215 68.6278 29.8996C68.6199 33.264 67.4313 35.6333 65.5142 36.7468L62.134 38.7113Z" stroke="#54555A" stroke-width="0.7" stroke-linecap="round" stroke-linejoin="round"/>
</g>
<g id="Vector_14">
<path d="M43.5142 49.7468C45.4313 48.6333 46.6199 46.264 46.6278 42.8996C46.6475 36.1215 41.8813 27.8685 35.9838 24.4646C33.0163 22.7508 30.3271 22.5929 28.3863 23.7203L25 25.6883C26.9408 24.5609 29.63 24.7188 32.5975 26.4326C38.495 29.8365 43.2612 38.0895 43.2415 44.8676C43.2336 48.2284 42.0475 50.5962 40.134 51.7113L43.5142 49.7468Z" fill="#EEEDF4"/>
<path d="M40.1279 51.7148L40.1328 51.7119L40.134 51.7113M40.134 51.7113C42.0475 50.5962 43.2336 48.2284 43.2415 44.8676C43.2612 38.0895 38.495 29.8365 32.5975 26.4326C29.63 24.7188 26.9408 24.5609 25 25.6883L28.3863 23.7203C30.3271 22.5929 33.0163 22.7508 35.9838 24.4646C41.8813 27.8685 46.6475 36.1215 46.6278 42.8996C46.6199 46.264 45.4313 48.6333 43.5142 49.7468L40.134 51.7113Z" stroke="#54555A" stroke-width="0.7" stroke-linecap="round" stroke-linejoin="round"/>
</g>
<path id="Vector 404" d="M34.2695 27L33.0009 27.8004" stroke="#54555A" stroke-width="0.7" stroke-linecap="round" stroke-linejoin="round"/>
<path id="Vector 414" d="M55.2695 13L54.0009 13.8004" stroke="#54555A" stroke-width="0.7" stroke-linecap="round" stroke-linejoin="round"/>
<path id="Vector 405" d="M39.2695 32L38.0009 32.8004" stroke="#54555A" stroke-width="0.7" stroke-linecap="round" stroke-linejoin="round"/>
<path id="Vector 415" d="M60.2695 18L59.0009 18.8004" stroke="#54555A" stroke-width="0.7" stroke-linecap="round" stroke-linejoin="round"/>
<path id="Vector 406" d="M43.2695 39L42.0009 39.8004" stroke="#54555A" stroke-width="0.7" stroke-linecap="round" stroke-linejoin="round"/>
<path id="Vector 416" d="M64.2695 25L63.0009 25.8004" stroke="#54555A" stroke-width="0.7" stroke-linecap="round" stroke-linejoin="round"/>
<g id="Mask group_3">
<mask id="mask2_5328_40216" style="mask-type:alpha" maskUnits="userSpaceOnUse" x="1" y="37" width="22" height="28">
<path id="Vector_15" d="M11.7112 38.4642C17.6087 41.8681 22.3749 50.123 22.3552 56.8992C22.3354 63.6753 17.5396 66.4079 11.6421 63.0021C5.74455 59.6002 0.980317 51.3472 1.00006 44.571C1.01981 37.7929 5.81563 35.0603 11.7112 38.4642Z" fill="#787691"/>
</mask>
<g mask="url(#mask2_5328_40216)">
<path id="Vector_16" d="M11.7112 38.4642C17.6087 41.8681 22.3749 50.123 22.3552 56.8992C22.3354 63.6753 17.5396 66.4079 11.6421 63.0021C5.74455 59.6002 0.980317 51.3472 1.00006 44.571C1.01981 37.7929 5.81563 35.0603 11.7112 38.4642Z" fill="#1A1B21" fill-opacity="0.16"/>
<path id="Vector_17" d="M13.7112 38.4642C19.6087 41.8681 24.3749 50.123 24.3552 56.8992C24.3354 63.6753 19.5396 66.4079 13.6421 63.0021C7.74455 59.6002 2.98032 51.3472 3.00006 44.571C3.01981 37.7929 7.81563 35.0603 13.7112 38.4642Z" fill="#1A1B21" fill-opacity="0.16"/>
<path id="Vector_18" d="M38.6353 55.1121L20.6353 47.1763L-3 60.9119L14.1353 69.3506L38.6353 55.1121Z" fill="#C5C6D0"/>
</g>
</g>
<g id="Vector_19">
<path d="M11.7112 38.4642C12.876 39.1365 13.9967 39.998 15.0451 41C19.3047 45.0712 22.371 51.4614 22.3552 56.8992C22.3394 62.309 19.2795 65.1415 15.0451 64.3307C13.9756 64.126 12.8312 63.6888 11.6421 63.0021C9.56836 61.8059 7.63476 60.0099 6 57.8892C2.98559 53.9788 0.98726 48.9645 1.00006 44.571C1.01278 40.2053 3.00687 37.5179 6 37.0675C7.65393 36.8186 9.61291 37.2527 11.7112 38.4642Z" fill="#E1E2EC"/>
<path d="M22.3552 56.8992L1.00006 44.571M22.3552 56.8992C22.371 51.4614 19.3047 45.0712 15.0451 41M22.3552 56.8992C22.3394 62.309 19.2795 65.1415 15.0451 64.3307M1.00006 44.571C1.01278 40.2053 3.00687 37.5179 6 37.0675M1.00006 44.571C0.98726 48.9645 2.98559 53.9788 6 57.8892M6 37.0675C7.65393 36.8186 9.61291 37.2527 11.7112 38.4642C12.876 39.1365 13.9967 39.998 15.0451 41M6 37.0675V57.8892M6 57.8892C7.63476 60.0099 9.56836 61.8059 11.6421 63.0021C12.8312 63.6888 13.9756 64.126 15.0451 64.3307M15.0451 41V64.3307" stroke="#54555A" stroke-width="0.7" stroke-linecap="round" stroke-linejoin="round"/>
</g>
<g id="Vector_20">
<path d="M43.06 42.5377C43.4546 42.3095 43.814 42.2788 44.0814 42.4128C44.3717 42.5583 44.5537 42.898 44.5545 43.39C44.5561 44.3353 43.8928 45.4892 43.0698 45.9634C42.2468 46.4377 41.5769 46.0563 41.5737 45.1111C41.5704 44.1658 42.2354 43.0119 43.06 42.5361V42.5377Z" fill="#C5C6D0"/>
<path d="M42.0088 46.0709L41.4352 45.7368C41.1679 45.5803 41 45.2495 41 44.7801C40.9968 43.8332 41.6617 42.681 42.4864 42.2051C42.9003 41.9655 43.2752 41.9427 43.5457 42.1008L44.0814 42.4128M44.1194 42.4349L44.0814 42.4128M44.0814 42.4128C43.814 42.2788 43.4546 42.3095 43.06 42.5377V42.5361C42.2354 43.0119 41.5704 44.1658 41.5737 45.1111C41.5769 46.0563 42.2468 46.4377 43.0698 45.9634C43.8928 45.4892 44.5561 44.3353 44.5545 43.39C44.5537 42.898 44.3717 42.5583 44.0814 42.4128Z" stroke="#54555A" stroke-width="0.7" stroke-linecap="round" stroke-linejoin="round"/>
</g>
<g id="Vector_21">
<path d="M66.06 29.5377C66.4546 29.3095 66.814 29.2788 67.0814 29.4128C67.3717 29.5583 67.5537 29.898 67.5545 30.39C67.5561 31.3353 66.8928 32.4892 66.0698 32.9634C65.2468 33.4377 64.5769 33.0563 64.5737 32.1111C64.5704 31.1658 65.2354 30.0119 66.06 29.5361V29.5377Z" fill="#C5C6D0"/>
<path d="M65.0088 33.0709L64.4352 32.7368C64.1679 32.5803 64 32.2495 64 31.7801C63.9968 30.8332 64.6617 29.681 65.4864 29.2051C65.9003 28.9655 66.2752 28.9427 66.5457 29.1008L67.0814 29.4128M67.1194 29.4349L67.0814 29.4128M67.0814 29.4128C66.814 29.2788 66.4546 29.3095 66.06 29.5377V29.5361C65.2354 30.0119 64.5704 31.1658 64.5737 32.1111C64.5769 33.0563 65.2468 33.4377 66.0698 32.9634C66.8928 32.4892 67.5561 31.3353 67.5545 30.39C67.5537 29.898 67.3717 29.5583 67.0814 29.4128Z" stroke="#54555A" stroke-width="0.7" stroke-linecap="round" stroke-linejoin="round"/>
</g>
<g id="Group 1000003631">
<path id="Fill-157" opacity="0.85" fill-rule="evenodd" clip-rule="evenodd" d="M25 57L31.1771 53.0668V48L25 51.7318V57Z" fill="#FFBE4A" fill-opacity="0.85"/>
<path id="Fill-158" opacity="0.85" fill-rule="evenodd" clip-rule="evenodd" d="M27.0566 51.1468L27.7821 50.7129V54.5545L27.0566 55.0511V51.1468Z" fill="#54555A"/>
<path id="Fill-159" opacity="0.85" fill-rule="evenodd" clip-rule="evenodd" d="M28.7383 50.138L29.5093 49.6765V51.8892H28.7383V50.138Z" fill="#54555A"/>
<path id="Fill-160" opacity="0.85" fill-rule="evenodd" clip-rule="evenodd" d="M26.8092 51.2943L25.543 54.4231L26.5629 53.7817L27.4658 51.5611V50.9016L26.8092 51.2943Z" fill="#54555A"/>
<path id="Fill-161" opacity="0.85" fill-rule="evenodd" clip-rule="evenodd" d="M25.543 54.4233L28.3158 52.6794V53.5442L25.5531 55.3021L25.543 54.4233Z" fill="#54555A"/>
<path id="Fill-162" opacity="0.85" fill-rule="evenodd" clip-rule="evenodd" d="M28.7383 50.1377L30.6405 49.0017V49.9435L28.7383 51.0509V50.1377Z" fill="#54555A"/>
<path id="Fill-163" opacity="0.85" fill-rule="evenodd" clip-rule="evenodd" d="M29.8535 52.6263H30.6402V51.2051H29.8535V52.6263Z" fill="#54555A"/>
<path id="Fill-164" opacity="0.85" fill-rule="evenodd" clip-rule="evenodd" d="M28.7383 51.5918L30.6405 50.4309V51.2916L28.7383 52.4996V51.5918Z" fill="#54555A"/>
<path id="Fill-165" opacity="0.85" fill-rule="evenodd" clip-rule="evenodd" d="M28.7383 53.0263L30.6405 51.7634V52.7173L28.7383 53.9533V53.0263Z" fill="#54555A"/>
</g>
</g>
</svg>
