<svg width="107" height="76" viewBox="0 0 107 76" fill="none" xmlns="http://www.w3.org/2000/svg">
<g id="Group 1000003654">
<g id="Stroke-4">
<path fill-rule="evenodd" clip-rule="evenodd" d="M97.7969 13.2651L95.2675 11.8089L95.2676 11.8036L97.7969 13.2651Z" fill="#C5C6D0"/>
<path d="M97.7969 13.2651L99.5009 12.2514L97.1213 10.8795L95.2676 11.8036L97.7969 13.2651Z" fill="#C5C6D0"/>
<path d="M95.2675 11.8089L95.2676 11.8036L81.7676 4.08875L80.0495 5.07987L82.2676 6.35689L87.5176 9.37945L92.7676 12.402L95.2507 13.8316L95.2675 11.8089Z" fill="#C5C6D0"/>
<path d="M81.7676 2L80.0494 3.04744L80.0495 5.07987L81.7676 4.08875V2Z" fill="#C5C6D0"/>
<path d="M79.9854 1L78.2676 2.02158L80.0494 3.04744L81.7676 2L79.9854 1Z" fill="#C5C6D0"/>
</g>
<g id="Stroke-4_2">
<path fill-rule="evenodd" clip-rule="evenodd" d="M36.5294 49.9238L34 48.4676L34 48.4623L36.5294 49.9238Z" fill="#C5C6D0"/>
<path d="M36.5294 49.9238L38.2334 48.9101L35.8538 47.5382L34 48.4623L36.5294 49.9238Z" fill="#C5C6D0"/>
<path d="M34 48.4676L34 48.4623L20.5 40.7474L18.7819 41.7386L21 43.0156L26.25 46.0381L31.5 49.0607L33.9831 50.4903L34 48.4676Z" fill="#C5C6D0"/>
<path d="M20.5 38.6587L18.7819 39.7061L18.7819 41.7386L20.5 40.7474V38.6587Z" fill="#C5C6D0"/>
<path d="M18.7178 37.6587L17 38.6803L18.7819 39.7061L20.5 38.6587L18.7178 37.6587Z" fill="#C5C6D0"/>
</g>
<g id="Stroke-4_3">
<path d="M99.704 12L98 13.0137V28.2284L99.704 27.2284V12Z" fill="#54555A"/>
<path d="M98 28.2284V38.2229L99.704 37.2229V27.2284L98 28.2284Z" fill="#54555A"/>
</g>
<g id="Stroke-4_4">
<path d="M38.4364 49L36.7324 50.0137V65.2284L38.4364 64.2284V49Z" fill="#54555A"/>
<path d="M36.7324 65.2284V75.2229L38.4364 74.2229V64.2284L36.7324 65.2284Z" fill="#54555A"/>
</g>
<g id="Group 1000003651">
<path id="Fill-14" fill-rule="evenodd" clip-rule="evenodd" d="M83.8973 54.3327L79.4486 51.6501L75 54.3327L79.4486 57.0153L83.8973 54.3327Z" fill="#C5C6D0"/>
<path id="Stroke-15" fill-rule="evenodd" clip-rule="evenodd" d="M83.8973 54.3327L79.4486 51.6501L75 54.3327L79.4486 57.0153L83.8973 54.3327Z" stroke="#54555A" stroke-width="0.7" stroke-linecap="round" stroke-linejoin="round"/>
<path id="Fill-16" fill-rule="evenodd" clip-rule="evenodd" d="M75 54.3325V59.4652L79.4486 62.1475V57.0151L75 54.3325Z" fill="#E1E2EC"/>
<path id="Stroke-17" fill-rule="evenodd" clip-rule="evenodd" d="M75 54.3325V59.4652L79.4486 62.1475V57.0151L75 54.3325Z" stroke="#54555A" stroke-width="0.7" stroke-linecap="round" stroke-linejoin="round"/>
<path id="Fill-18" fill-rule="evenodd" clip-rule="evenodd" d="M79.4492 57.0151V62.1475L83.8978 59.4655V54.3325L79.4492 57.0151Z" fill="#54555A"/>
<path id="Stroke-19" fill-rule="evenodd" clip-rule="evenodd" d="M79.4492 57.0151V62.1475L83.8978 59.4655V54.3325L79.4492 57.0151Z" stroke="#54555A" stroke-width="0.7" stroke-linecap="round" stroke-linejoin="round"/>
<path id="Fill-20" fill-rule="evenodd" clip-rule="evenodd" d="M77.8032 56.8044L76.6465 56.1069V56.7166L77.8032 57.4143V56.8044Z" fill="#54555A"/>
<path id="Fill-21" fill-rule="evenodd" clip-rule="evenodd" d="M77.0078 55.5439L81.4564 52.8613L81.812 53.0757L77.3634 55.7583L77.0078 55.5439Z" fill="#54555A"/>
<path id="Fill-22" fill-rule="evenodd" clip-rule="evenodd" d="M97.4497 50.614L93.0014 47.9314L88.5527 50.614L93.0014 53.2966L97.4497 50.614Z" fill="#C5C6D0"/>
<path id="Stroke-23" fill-rule="evenodd" clip-rule="evenodd" d="M97.4497 50.614L93.0014 47.9314L88.5527 50.614L93.0014 53.2966L97.4497 50.614Z" stroke="#54555A" stroke-width="0.7" stroke-linecap="round" stroke-linejoin="round"/>
<path id="Fill-24" fill-rule="evenodd" clip-rule="evenodd" d="M88.5527 50.613V55.7457L93.0014 58.4283V53.2956L88.5527 50.613Z" fill="#E1E2EC"/>
<path id="Stroke-25" fill-rule="evenodd" clip-rule="evenodd" d="M88.5527 50.613V55.7457L93.0014 58.4283V53.2956L88.5527 50.613Z" stroke="#54555A" stroke-width="0.7" stroke-linecap="round" stroke-linejoin="round"/>
<path id="Fill-26" fill-rule="evenodd" clip-rule="evenodd" d="M93 53.2956V58.4283L97.4484 55.746V50.613L93 53.2956Z" fill="#54555A"/>
<path id="Stroke-27" fill-rule="evenodd" clip-rule="evenodd" d="M93 53.2956V58.4283L97.4484 55.746V50.613L93 53.2956Z" stroke="#54555A" stroke-width="0.7" stroke-linecap="round" stroke-linejoin="round"/>
<path id="Fill-28" fill-rule="evenodd" clip-rule="evenodd" d="M91.3559 53.0856L90.1992 52.3882V52.9976L91.3559 53.6955V53.0856Z" fill="#54555A"/>
<path id="Fill-29" fill-rule="evenodd" clip-rule="evenodd" d="M90.5605 51.8249L95.0089 49.1423L95.3645 49.3567L90.9161 52.0393L90.5605 51.8249Z" fill="#54555A"/>
<path id="Fill-40" fill-rule="evenodd" clip-rule="evenodd" d="M106.346 50.4975L101.898 47.8152L97.4492 50.4975L101.898 53.1801L106.346 50.4975Z" fill="#C5C6D0"/>
<path id="Stroke-41" fill-rule="evenodd" clip-rule="evenodd" d="M106.346 50.4975L101.898 47.8152L97.4492 50.4975L101.898 53.1801L106.346 50.4975Z" stroke="#54555A" stroke-width="0.7" stroke-linecap="round" stroke-linejoin="round"/>
<path id="Fill-43" fill-rule="evenodd" clip-rule="evenodd" d="M97.4492 50.4976V55.6302L101.898 58.3128V53.1801L97.4492 50.4976Z" fill="#E1E2EC"/>
<path id="Stroke-44" fill-rule="evenodd" clip-rule="evenodd" d="M97.4492 50.4976V55.6302L101.898 58.3128V53.1801L97.4492 50.4976Z" stroke="#54555A" stroke-width="0.7" stroke-linecap="round" stroke-linejoin="round"/>
<path id="Fill-45" fill-rule="evenodd" clip-rule="evenodd" d="M101.898 53.1801V58.3128L106.347 55.6305V50.4976L101.898 53.1801Z" fill="#54555A"/>
<path id="Stroke-46" fill-rule="evenodd" clip-rule="evenodd" d="M101.898 53.1801V58.3128L106.347 55.6305V50.4976L101.898 53.1801Z" stroke="#54555A" stroke-width="0.7" stroke-linecap="round" stroke-linejoin="round"/>
<path id="Fill-48" fill-rule="evenodd" clip-rule="evenodd" d="M100.253 52.9701L99.0957 52.2727V52.6797L100.253 53.3777V52.9701Z" fill="#54555A"/>
<path id="Fill-49" fill-rule="evenodd" clip-rule="evenodd" d="M99.459 51.7087L103.907 49.0261L104.263 49.2405L99.8146 51.9231L99.459 51.7087Z" fill="#54555A"/>
<path id="Fill-50" fill-rule="evenodd" clip-rule="evenodd" d="M101.897 42.6826L97.4484 40L93 42.6826L97.4484 45.3649L101.897 42.6826Z" fill="#C5C6D0"/>
<path id="Stroke-51" fill-rule="evenodd" clip-rule="evenodd" d="M101.897 42.6826L97.4484 40L93 42.6826L97.4484 45.3649L101.897 42.6826Z" stroke="#54555A" stroke-width="0.7" stroke-linecap="round" stroke-linejoin="round"/>
<path id="Fill-52" fill-rule="evenodd" clip-rule="evenodd" d="M93 42.6824V47.8151L97.4484 50.4974V45.3647L93 42.6824Z" fill="#E1E2EC"/>
<path id="Stroke-53" fill-rule="evenodd" clip-rule="evenodd" d="M93 42.6824V47.8151L97.4484 50.4974V45.3647L93 42.6824Z" stroke="#54555A" stroke-width="0.7" stroke-linecap="round" stroke-linejoin="round"/>
<path id="Fill-54" fill-rule="evenodd" clip-rule="evenodd" d="M97.4492 45.3647V50.4974L101.898 47.8153V42.6824L97.4492 45.3647Z" fill="#54555A"/>
<path id="Stroke-55" fill-rule="evenodd" clip-rule="evenodd" d="M97.4492 45.3647V50.4974L101.898 47.8153V42.6824L97.4492 45.3647Z" stroke="#54555A" stroke-width="0.7" stroke-linecap="round" stroke-linejoin="round"/>
<path id="Fill-56" fill-rule="evenodd" clip-rule="evenodd" d="M95.8032 45.1542L94.6465 44.4568V45.0664L95.8032 45.7641V45.1542Z" fill="#54555A"/>
<path id="Fill-57" fill-rule="evenodd" clip-rule="evenodd" d="M95.0098 43.8935L99.4584 41.2109L99.814 41.4253L95.3654 44.1079L95.0098 43.8935Z" fill="#54555A"/>
<path id="Fill-58" fill-rule="evenodd" clip-rule="evenodd" d="M101.897 53.155L97.4484 50.4724L93 53.155L97.4484 55.8376L101.897 53.155Z" fill="#C5C6D0"/>
<path id="Stroke-59" fill-rule="evenodd" clip-rule="evenodd" d="M101.897 53.155L97.4484 50.4724L93 53.155L97.4484 55.8376L101.897 53.155Z" stroke="#54555A" stroke-width="0.7" stroke-linecap="round" stroke-linejoin="round"/>
<path id="Fill-60" fill-rule="evenodd" clip-rule="evenodd" d="M93 53.1545V58.2872L97.4484 60.9696V55.8371L93 53.1545Z" fill="#E1E2EC"/>
<path id="Stroke-61" fill-rule="evenodd" clip-rule="evenodd" d="M93 53.1545V58.2872L97.4484 60.9696V55.8371L93 53.1545Z" stroke="#54555A" stroke-width="0.7" stroke-linecap="round" stroke-linejoin="round"/>
<path id="Fill-62" fill-rule="evenodd" clip-rule="evenodd" d="M97.4492 55.8371V60.9696L101.898 58.2875V53.1545L97.4492 55.8371Z" fill="#54555A"/>
<path id="Stroke-63" fill-rule="evenodd" clip-rule="evenodd" d="M97.4492 55.8371V60.9696L101.898 58.2875V53.1545L97.4492 55.8371Z" stroke="#54555A" stroke-width="0.7" stroke-linecap="round" stroke-linejoin="round"/>
<path id="Fill-64" fill-rule="evenodd" clip-rule="evenodd" d="M95.8032 55.6271L94.6465 54.9297V55.5393L95.8032 56.237V55.6271Z" fill="#54555A"/>
<path id="Fill-65" fill-rule="evenodd" clip-rule="evenodd" d="M95.0098 54.3659L99.4584 51.6833L99.814 51.8977L95.3654 54.5803L95.0098 54.3659Z" fill="#54555A"/>
</g>
<g id="Group 1000003634">
<path id="Vector 425" d="M78.666 22V2L80.166 3V5L95.666 14V12L98.166 13.5V33L78.666 22Z" fill="#E1E2EC"/>
<g id="Group 1000004162">
<path id="Vector 429" d="M78.3008 2L80.0008 1L81.8008 2L80.1008 3L78.3008 2Z" fill="white"/>
<path id="Vector 430" d="M95.3008 11.8L97.1008 10.8696L99.6008 12.3L97.8008 13.2L95.3008 11.8Z" fill="white"/>
<path id="Vector 431" d="M82 4.1001L80.5 5.1001L95.2998 13.8V12.0001L82 4.1001Z" fill="white"/>
</g>
<path id="Stroke-4_5" d="M78.5 2.02158L80.2178 1L82 2M78.5 2.02158L80.2819 3.04744M78.5 2.02158V22L98 33M98.0294 13.2651L99.7334 12.2514M98.0294 13.2651L95.5 11.8036M98.0294 13.2651V38.4743L99.7334 37.4743V27.4799M98.0294 13.2651L95.5 11.8089M99.7334 12.2514L97.3538 10.8795L95.5 11.8036M99.7334 12.2514V27.4799M80.2819 3.04744L82 2M80.2819 3.04744L80.2819 3.04213V23.0052L82.5 24.2564M95.5 11.8036L95.5 11.8089M95.5 11.8036L82 4.08875M82 2V4.08875M95.5 11.8089L95.3363 31.4974L93 30.1456M95.5 13.8413L93 12.402M82 4.08875L80.2819 5.07987L82.5 6.35689M78.5 17.9799L98.0294 28.4799L99.7334 27.4799M93 12.402V30.1456M93 12.402L87.75 9.37945M93 30.1456L87.75 27.2179M82.5 6.35689L82.5 24.2564M82.5 6.35689L87.75 9.37945M82.5 24.2564L87.75 27.2179M87.75 9.37945V27.2179" stroke="#54555A" stroke-width="0.7" stroke-linecap="round" stroke-linejoin="round"/>
<g id="Group 1000003633">
<g id="Group 1000003632">
<path id="Vector 424" d="M95.666 32.5L78.166 23.5L19.166 58.5L36.166 68L95.666 32.5Z" fill="white"/>
<path id="Fill-155" fill-rule="evenodd" clip-rule="evenodd" d="M36.5 75.2145L98 38.4902V33.0002L36.5 69.5002V75.2145Z" fill="#54555A"/>
<g id="Stroke-2">
<path fill-rule="evenodd" clip-rule="evenodd" d="M78.4159 22L97.9315 32.7514L88.0001 39L86.4739 38.0854L95.5001 32.7514L78.4159 23.5L70.2457 28.3599L69.0001 27.6134L78.4159 22Z" fill="white"/>
<path fill-rule="evenodd" clip-rule="evenodd" d="M86.4739 38.0854L88.0001 39L59.0001 56L57.5711 55.1654L86.4739 38.0854ZM70.2457 28.3599L69.0001 27.6134L40.0001 44.9023L41.2289 45.62L70.2457 28.3599Z" fill="white"/>
<path fill-rule="evenodd" clip-rule="evenodd" d="M38.3907 68.2481V66.5L57.5711 55.1654L59.0001 56L38.3907 68.2481ZM41.2289 45.62L40.0001 44.9023L35.873 47.3626L37.1318 48.0571L41.2289 45.62Z" fill="white"/>
<path d="M97.9315 32.7514L78.4159 22L69.0001 27.6134M97.9315 32.7514V38.4666L36.6516 75V74.9543M97.9315 32.7514L88.0001 39M36.6866 69.264V74.9744L36.6516 74.9543M36.6866 69.264L36.6516 69.2848V74.9543M36.6866 69.264L59.0001 56M69.0001 27.6134L40.0001 44.9023M69.0001 27.6134L70.2457 28.3599M88.0001 39L59.0001 56M88.0001 39L86.4739 38.0854M40.0001 44.9023L35.873 47.3626L37.1318 48.0571M40.0001 44.9023L41.2289 45.62M59.0001 56L38.3907 68.2481V66.5M59.0001 56L57.5711 55.1654M37.1318 48.0571L38.3907 48.7516V66.5M37.1318 48.0571L41.2289 45.62M38.3907 66.5L57.5711 55.1654M86.4739 38.0854L95.5001 32.7514L78.4159 23.5L70.2457 28.3599M86.4739 38.0854L70.2457 28.3599M86.4739 38.0854L57.5711 55.1654M70.2457 28.3599L41.2289 45.62M57.5711 55.1654L41.2289 45.62" stroke="#54555A" stroke-width="0.7" stroke-linecap="round" stroke-linejoin="round"/>
</g>
</g>
<g id="Group 1000003631">
<path id="Fill-157" opacity="0.85" fill-rule="evenodd" clip-rule="evenodd" d="M39 73L45.1771 69.0668V64L39 67.7318V73Z" fill="#FFBE4A" fill-opacity="0.85"/>
<path id="Fill-158" fill-rule="evenodd" clip-rule="evenodd" d="M41.0566 67.1468L41.7821 66.7129V70.5545L41.0566 71.0511V67.1468Z" fill="#54555A"/>
<path id="Fill-159" fill-rule="evenodd" clip-rule="evenodd" d="M42.7383 66.138L43.5093 65.6765V67.8892H42.7383V66.138Z" fill="#54555A"/>
<path id="Fill-160" fill-rule="evenodd" clip-rule="evenodd" d="M40.8092 67.2943L39.543 70.4231L40.5629 69.7817L41.4658 67.5611V66.9016L40.8092 67.2943Z" fill="#54555A"/>
<path id="Fill-161" fill-rule="evenodd" clip-rule="evenodd" d="M39.543 70.4233L42.3158 68.6794V69.5442L39.5531 71.3021L39.543 70.4233Z" fill="#54555A"/>
<path id="Fill-162" fill-rule="evenodd" clip-rule="evenodd" d="M42.7383 66.1377L44.6405 65.0017V65.9435L42.7383 67.0509V66.1377Z" fill="#54555A"/>
<path id="Fill-163" fill-rule="evenodd" clip-rule="evenodd" d="M43.8535 68.6263H44.6402V67.2051H43.8535V68.6263Z" fill="#54555A"/>
<path id="Fill-164" fill-rule="evenodd" clip-rule="evenodd" d="M42.7383 67.5918L44.6405 66.4309V67.2916L42.7383 68.4996V67.5918Z" fill="#54555A"/>
<path id="Fill-165" fill-rule="evenodd" clip-rule="evenodd" d="M42.7383 69.0263L44.6405 67.7634V68.7173L42.7383 69.9533V69.0263Z" fill="#54555A"/>
</g>
</g>
<g id="Group-6">
<path id="Stroke-4_6" d="M17 54.5V38.5417L18.7178 37.5201L20.4534 38.5208V40.5246L34 48.3237L35.8538 47.3996L38.2334 48.7716V64V68L36.5294 69V74.9945L33.8363 73.4442V71.2373L31.5 69.8855L26.25 66.8477L21 63.81L18.7819 62.5265V64.7559L17 63.7522V54.5Z" fill="#E1E2EC"/>
<path id="Vector 429_2" d="M17 38.5L18.7 37.5L20.5 38.5L18.8 39.5L17 38.5Z" fill="white"/>
<path id="Vector 430_2" d="M34 48.3L35.8 47.3696L38.3 48.8L36.5 49.7L34 48.3Z" fill="white"/>
<path id="Vector 431_2" d="M20.6992 40.6001L19.1992 41.6001L33.999 50.3V48.5001L20.6992 40.6001Z" fill="white"/>
<path id="Stroke-4_7" d="M17 38.5417V63.7522L18.7819 64.7559V62.5265M17 38.5417L18.7178 37.5201L20.4534 38.5208M17 38.5417L18.7819 39.5676M18.7819 62.5265L18.7819 39.5623L18.7819 39.5676M18.7819 62.5265L21 63.81M33.8363 71.2373V73.4442L36.5294 74.9945V69M33.8363 71.2373L34 48.329M33.8363 71.2373L31.5 69.8855M36.5294 49.7853L38.2334 48.7716M36.5294 49.7853L34 48.3237M36.5294 49.7853V69M36.5294 49.7853L34 48.329M38.2334 48.7716L35.8538 47.3996L34 48.3237M38.2334 48.7716V64M18.7819 39.5676L20.4534 38.5208M34 48.3237L34 48.329M34 48.3237L20.4534 40.5246M20.4534 38.5208V40.5246M36.5294 69L38.2334 68V64M34 50.3614L31.5 48.9221M20.4534 40.5246L18.7819 41.6L21 42.877M17 54.5L36.5294 65L38.2334 64M31.5 48.9221V69.8855M31.5 48.9221L26.25 45.8996M31.5 69.8855L26.25 66.8477M21 42.877V63.81M21 42.877L26.25 45.8996M21 63.81L26.25 66.8477M26.25 45.8996V66.8477" stroke="#54555A" stroke-width="0.7" stroke-linecap="round" stroke-linejoin="round"/>
<path id="Vector 428" d="M38.5 48.8L36.5 50V70.5H38.5V48.8Z" fill="#54555A"/>
</g>
<path id="Vector 398" d="M19.2988 60.75L17.9998 60" stroke="#54555A" stroke-width="0.7" stroke-linecap="round" stroke-linejoin="round"/>
<path id="Vector 402" d="M29 61.5L29 60" stroke="#54555A" stroke-width="0.7" stroke-linecap="round" stroke-linejoin="round"/>
<path id="Vector 408" d="M23 58.5L23 57" stroke="#54555A" stroke-width="0.7" stroke-linecap="round" stroke-linejoin="round"/>
<path id="Vector 404" d="M34.2988 68.75L32.9998 68" stroke="#54555A" stroke-width="0.7" stroke-linecap="round" stroke-linejoin="round"/>
<path id="Fill-96" fill-rule="evenodd" clip-rule="evenodd" d="M18.7812 64.7555L20.7238 63.6487L18.7812 62.5264V64.7555Z" fill="#E1E2EC"/>
<path id="Stroke-97" fill-rule="evenodd" clip-rule="evenodd" d="M18.7812 64.7555L20.7238 63.6487L18.7812 62.5264V64.7555Z" stroke="#54555A" stroke-width="0.7" stroke-linecap="round" stroke-linejoin="round"/>
</g>
<g id="Group 1000003650">
<path id="Fill-30" fill-rule="evenodd" clip-rule="evenodd" d="M54 32.6823L58.4486 35.3649L62.897 32.6823L58.4486 30L54 32.6823Z" fill="#C5C6D0"/>
<path id="Stroke-31" fill-rule="evenodd" clip-rule="evenodd" d="M62.897 32.6826L58.4486 30L54 32.6826L58.4486 35.3652L62.897 32.6826Z" stroke="#54555A" stroke-width="0.7" stroke-linecap="round" stroke-linejoin="round"/>
<path id="Fill-33" fill-rule="evenodd" clip-rule="evenodd" d="M54 37.8151L58.4486 40.4977V35.365L54 32.6824V37.8151Z" fill="#E1E2EC"/>
<path id="Stroke-34" fill-rule="evenodd" clip-rule="evenodd" d="M54 32.6824V37.8151L58.4486 40.4977V35.365L54 32.6824Z" stroke="#54555A" stroke-width="0.7" stroke-linecap="round" stroke-linejoin="round"/>
<path id="Fill-36" fill-rule="evenodd" clip-rule="evenodd" d="M58.4492 35.365V40.4976L62.8976 37.8153V32.6824L58.4492 35.365Z" fill="#54555A"/>
<path id="Stroke-37" fill-rule="evenodd" clip-rule="evenodd" d="M58.4492 35.365V40.4976L62.8976 37.8153V32.6824L58.4492 35.365Z" stroke="#54555A" stroke-width="0.7" stroke-linecap="round" stroke-linejoin="round"/>
<path id="Fill-38" fill-rule="evenodd" clip-rule="evenodd" d="M56.8013 35.155L55.6445 34.4575V35.0669L56.8013 35.7646V35.155Z" fill="#54555A"/>
<path id="Fill-39" fill-rule="evenodd" clip-rule="evenodd" d="M56.0078 33.8933L60.4562 31.2109L60.8118 31.4253L56.3634 34.1079L56.0078 33.8933Z" fill="#54555A"/>
</g>
<g id="Group 1000003652">
<path id="Fill-30_2" fill-rule="evenodd" clip-rule="evenodd" d="M59 35.6823L63.4486 38.3649L67.897 35.6823L63.4486 33L59 35.6823Z" fill="#C5C6D0"/>
<path id="Stroke-31_2" fill-rule="evenodd" clip-rule="evenodd" d="M67.897 35.6826L63.4486 33L59 35.6826L63.4486 38.3652L67.897 35.6826Z" stroke="#54555A" stroke-width="0.7" stroke-linecap="round" stroke-linejoin="round"/>
<path id="Fill-33_2" fill-rule="evenodd" clip-rule="evenodd" d="M59 40.8151L63.4486 43.4977V38.365L59 35.6824V40.8151Z" fill="#E1E2EC"/>
<path id="Stroke-34_2" fill-rule="evenodd" clip-rule="evenodd" d="M59 35.6824V40.8151L63.4486 43.4977V38.365L59 35.6824Z" stroke="#54555A" stroke-width="0.7" stroke-linecap="round" stroke-linejoin="round"/>
<path id="Fill-36_2" fill-rule="evenodd" clip-rule="evenodd" d="M63.4492 38.365V43.4976L67.8976 40.8153V35.6824L63.4492 38.365Z" fill="#54555A"/>
<path id="Stroke-37_2" fill-rule="evenodd" clip-rule="evenodd" d="M63.4492 38.365V43.4976L67.8976 40.8153V35.6824L63.4492 38.365Z" stroke="#54555A" stroke-width="0.7" stroke-linecap="round" stroke-linejoin="round"/>
<path id="Fill-38_2" fill-rule="evenodd" clip-rule="evenodd" d="M61.8013 38.155L60.6445 37.4575V38.0669L61.8013 38.7646V38.155Z" fill="#54555A"/>
<path id="Fill-39_2" fill-rule="evenodd" clip-rule="evenodd" d="M61.0078 36.8933L65.4562 34.2109L65.8118 34.4253L61.3634 37.1079L61.0078 36.8933Z" fill="#54555A"/>
</g>
<g id="Group 1000003653">
<path id="Fill-30_3" fill-rule="evenodd" clip-rule="evenodd" d="M1 62.6823L5.44863 65.3649L9.897 62.6823L5.44863 60L1 62.6823Z" fill="#C5C6D0"/>
<path id="Stroke-31_3" fill-rule="evenodd" clip-rule="evenodd" d="M9.897 62.6826L5.44863 60L1 62.6826L5.44863 65.3652L9.897 62.6826Z" stroke="#54555A" stroke-width="0.7" stroke-linecap="round" stroke-linejoin="round"/>
<path id="Fill-33_3" fill-rule="evenodd" clip-rule="evenodd" d="M1 67.8151L5.44863 70.4977V65.365L1 62.6824V67.8151Z" fill="#E1E2EC"/>
<path id="Stroke-34_3" fill-rule="evenodd" clip-rule="evenodd" d="M1 62.6824V67.8151L5.44863 70.4977V65.365L1 62.6824Z" stroke="#54555A" stroke-width="0.7" stroke-linecap="round" stroke-linejoin="round"/>
<path id="Fill-36_3" fill-rule="evenodd" clip-rule="evenodd" d="M5.44922 65.365V70.4976L9.89759 67.8153V62.6824L5.44922 65.365Z" fill="#54555A"/>
<path id="Stroke-37_3" fill-rule="evenodd" clip-rule="evenodd" d="M5.44922 65.365V70.4976L9.89759 67.8153V62.6824L5.44922 65.365Z" stroke="#54555A" stroke-width="0.7" stroke-linecap="round" stroke-linejoin="round"/>
<path id="Fill-38_3" fill-rule="evenodd" clip-rule="evenodd" d="M3.80127 65.155L2.64453 64.4575V65.0669L3.80127 65.7646V65.155Z" fill="#54555A"/>
<path id="Fill-39_3" fill-rule="evenodd" clip-rule="evenodd" d="M3.00781 63.8933L7.45618 61.2109L7.81179 61.4253L3.36342 64.1079L3.00781 63.8933Z" fill="#54555A"/>
</g>
</g>
</svg>
