<svg width="82" height="56" viewBox="0 0 82 56" fill="none" xmlns="http://www.w3.org/2000/svg">
<g opacity="0.75">
<path opacity="0.85" fill-rule="evenodd" clip-rule="evenodd" d="M11.5859 26.3141L27.1814 35.3254L70.5817 9.41175L54.986 0.400391L11.5859 26.3141Z" fill="#BAB6BF"/>
<g opacity="0.85">
<path opacity="0.85" fill-rule="evenodd" clip-rule="evenodd" d="M54.9906 0.400391L11.5906 26.3141L27.1861 35.3254L70.5863 9.41175L54.9906 0.400391Z" stroke="#141414" stroke-width="0.56" stroke-linecap="round" stroke-linejoin="round"/>
<path opacity="0.85" fill-rule="evenodd" clip-rule="evenodd" d="M11.5903 26.3145L11.5625 26.3312V44.6902V44.6955V46.4996L14.345 48.1014V46.3032L23.7105 51.7147V53.4927L27.186 55.4934V53.6838V35.326L11.5903 26.3145Z" stroke="#141414" stroke-width="0.56" stroke-linecap="round" stroke-linejoin="round"/>
</g>
<path opacity="0.85" fill-rule="evenodd" clip-rule="evenodd" d="M27.1827 35.3263V55.4939L30.3059 53.622V51.8123L50.5968 39.7805V41.5901L53.2099 40.0241V38.3037L67.9699 29.3476V31.1571L70.5828 29.591V9.42383L27.1827 35.3263Z" fill="#141414"/>
<path opacity="0.85" fill-rule="evenodd" clip-rule="evenodd" d="M27.1827 35.3245V55.4919L30.3059 53.62V51.8104L50.5968 39.7786V41.5884L53.2099 40.0223V38.3017L67.9699 29.3459V31.1553L70.5828 29.5892V9.42188L27.1827 35.3245Z" stroke="#141414" stroke-width="0.56" stroke-linecap="round" stroke-linejoin="round"/>
<path opacity="0.85" fill-rule="evenodd" clip-rule="evenodd" d="M14.3424 48.1028L15.8713 47.1863L14.3422 46.3027L14.3424 48.1028Z" fill="#141414"/>
<path opacity="0.85" fill-rule="evenodd" clip-rule="evenodd" d="M14.3424 48.1028L15.8713 47.1863L14.3422 46.3027L14.3424 48.1028Z" stroke="#141414" stroke-width="0.56" stroke-linecap="round" stroke-linejoin="round"/>
<path opacity="0.85" fill-rule="evenodd" clip-rule="evenodd" d="M67.9709 31.1535L66.4453 30.2722L67.9709 29.3457V31.1535Z" fill="white"/>
<path opacity="0.85" fill-rule="evenodd" clip-rule="evenodd" d="M67.9709 31.1535L66.4453 30.2722L67.9709 29.3457V31.1535Z" stroke="#141414" stroke-width="0.56" stroke-linecap="round" stroke-linejoin="round"/>
<path opacity="0.85" fill-rule="evenodd" clip-rule="evenodd" d="M50.5985 41.5871L49.0547 40.6951L50.5985 39.7793V41.5871Z" fill="white"/>
<path opacity="0.85" fill-rule="evenodd" clip-rule="evenodd" d="M50.5985 41.5871L49.0547 40.6951L50.5985 39.7793V41.5871Z" stroke="#141414" stroke-width="0.56" stroke-linecap="round" stroke-linejoin="round"/>
<path opacity="0.85" fill-rule="evenodd" clip-rule="evenodd" d="M12.9858 43.8363V43.8406L25.7584 51.2134V36.181L12.9858 28.8008V43.8363Z" fill="#5D5668"/>
<path opacity="0.85" fill-rule="evenodd" clip-rule="evenodd" d="M12.9858 43.8396L14.1522 43.1406L25.7584 49.833V51.2127L12.9858 43.8396Z" fill="#141414"/>
<path opacity="0.85" fill-rule="evenodd" clip-rule="evenodd" d="M14.1522 43.1414L14.1307 29.4624L12.9858 28.8008V43.8404L14.1522 43.1414Z" fill="#141414"/>
<path opacity="0.85" fill-rule="evenodd" clip-rule="evenodd" d="M14.1515 43.1401L25.7577 36.1797V49.8325L14.1515 43.1401Z" fill="#BAB6BF"/>
<path opacity="0.85" fill-rule="evenodd" clip-rule="evenodd" d="M63.1222 44.6695L59.5635 42.5234L56.0046 44.6695L59.5635 46.8156L63.1222 44.6695Z" fill="#BAB6BF"/>
<path opacity="0.85" fill-rule="evenodd" clip-rule="evenodd" d="M63.1222 44.6695L59.5635 42.5234L56.0046 44.6695L59.5635 46.8156L63.1222 44.6695Z" stroke="#141414" stroke-width="0.56" stroke-linecap="round" stroke-linejoin="round"/>
<path opacity="0.85" fill-rule="evenodd" clip-rule="evenodd" d="M56.0046 44.668V48.7741L59.5633 50.92V46.814L56.0046 44.668Z" fill="white"/>
<path opacity="0.85" fill-rule="evenodd" clip-rule="evenodd" d="M56.0046 44.668V48.7741L59.5633 50.92V46.814L56.0046 44.668Z" stroke="#141414" stroke-width="0.56" stroke-linecap="round" stroke-linejoin="round"/>
<path opacity="0.85" fill-rule="evenodd" clip-rule="evenodd" d="M59.5609 46.814V50.92L63.1198 48.7743V44.668L59.5609 46.814Z" fill="#141414"/>
<path opacity="0.85" fill-rule="evenodd" clip-rule="evenodd" d="M59.5609 46.814V50.92L63.1198 48.7743V44.668L59.5609 46.814Z" stroke="#141414" stroke-width="0.56" stroke-linecap="round" stroke-linejoin="round"/>
<path opacity="0.85" fill-rule="evenodd" clip-rule="evenodd" d="M58.2457 46.6458L57.3203 46.0879V46.5756L58.2457 47.1338V46.6458Z" fill="#141414"/>
<path opacity="0.85" fill-rule="evenodd" clip-rule="evenodd" d="M57.6108 45.6363L61.1695 43.4902L61.454 43.6617L57.8953 45.8078L57.6108 45.6363Z" fill="#141414"/>
<path opacity="0.85" fill-rule="evenodd" clip-rule="evenodd" d="M73.9628 41.6929L70.4039 39.5469L66.8452 41.6929L70.4039 43.839L73.9628 41.6929Z" fill="#BAB6BF"/>
<path opacity="0.85" fill-rule="evenodd" clip-rule="evenodd" d="M73.9628 41.6929L70.4039 39.5469L66.8452 41.6929L70.4039 43.839L73.9628 41.6929Z" stroke="#141414" stroke-width="0.56" stroke-linecap="round" stroke-linejoin="round"/>
<path opacity="0.85" fill-rule="evenodd" clip-rule="evenodd" d="M66.8452 41.6934V45.7995L70.4039 47.9456V43.8394L66.8452 41.6934Z" fill="white"/>
<path opacity="0.85" fill-rule="evenodd" clip-rule="evenodd" d="M66.8452 41.6934V45.7995L70.4039 47.9456V43.8394L66.8452 41.6934Z" stroke="#141414" stroke-width="0.56" stroke-linecap="round" stroke-linejoin="round"/>
<path opacity="0.85" fill-rule="evenodd" clip-rule="evenodd" d="M70.4047 43.8394V47.9456L73.9636 45.7997V41.6934L70.4047 43.8394Z" fill="black"/>
<path opacity="0.85" fill-rule="evenodd" clip-rule="evenodd" d="M70.4047 43.8394V47.9456L73.9636 45.7997V41.6934L70.4047 43.8394Z" stroke="black" stroke-width="0.56" stroke-linecap="round" stroke-linejoin="round"/>
<path opacity="0.85" fill-rule="evenodd" clip-rule="evenodd" d="M69.0863 43.6712L68.1609 43.1133V43.6008L69.0863 44.1592V43.6712Z" fill="#141414"/>
<path opacity="0.85" fill-rule="evenodd" clip-rule="evenodd" d="M68.4546 42.6617L72.0135 40.5156L72.298 40.6871L68.7391 42.8332L68.4546 42.6617Z" fill="#141414"/>
<path opacity="0.85" fill-rule="evenodd" clip-rule="evenodd" d="M0.910889 46.0502L4.46959 48.1962L8.02849 46.0502L4.46959 43.9043L0.910889 46.0502Z" fill="#BAB6BF"/>
<path opacity="0.85" fill-rule="evenodd" clip-rule="evenodd" d="M8.02849 46.0504L4.46959 43.9043L0.910889 46.0504L4.46959 48.1964L8.02849 46.0504Z" stroke="#141414" stroke-width="0.56" stroke-linecap="round" stroke-linejoin="round"/>
<path opacity="0.85" fill-rule="evenodd" clip-rule="evenodd" d="M0.910889 50.1569L4.46959 52.303V48.1968L0.910889 46.0508V50.1569Z" fill="white"/>
<path opacity="0.85" fill-rule="evenodd" clip-rule="evenodd" d="M0.910889 46.0508V50.1569L4.46959 52.303V48.1968L0.910889 46.0508Z" stroke="#141414" stroke-width="0.56" stroke-linecap="round" stroke-linejoin="round"/>
<path opacity="0.85" fill-rule="evenodd" clip-rule="evenodd" d="M4.47021 48.1969V52.303L8.02912 50.1571V46.0508L4.47021 48.1969Z" fill="#141414"/>
<path opacity="0.85" fill-rule="evenodd" clip-rule="evenodd" d="M4.47021 48.1969V52.303L8.02912 50.1571V46.0508L4.47021 48.1969Z" stroke="#141414" stroke-width="0.56" stroke-linecap="round" stroke-linejoin="round"/>
<path opacity="0.85" fill-rule="evenodd" clip-rule="evenodd" d="M3.15195 48.0267L2.22656 47.4688V47.9563L3.15195 48.5144V48.0267Z" fill="#141414"/>
<path opacity="0.85" fill-rule="evenodd" clip-rule="evenodd" d="M2.51709 47.0189L6.07599 44.873L6.36047 45.0445L2.80157 47.1906L2.51709 47.0189Z" fill="#141414"/>
<path opacity="0.85" fill-rule="evenodd" clip-rule="evenodd" d="M81.0816 41.6715L77.5227 39.5254L73.964 41.6715L77.5227 43.8175L81.0816 41.6715Z" fill="#BAB6BF"/>
<path opacity="0.85" fill-rule="evenodd" clip-rule="evenodd" d="M81.0816 41.6715L77.5227 39.5254L73.964 41.6715L77.5227 43.8175L81.0816 41.6715Z" stroke="#141414" stroke-width="0.56" stroke-linecap="round" stroke-linejoin="round"/>
<path opacity="0.85" fill-rule="evenodd" clip-rule="evenodd" d="M73.964 41.6719V45.778L77.5227 47.9241V43.8179L73.964 41.6719Z" fill="white"/>
<path opacity="0.85" fill-rule="evenodd" clip-rule="evenodd" d="M73.964 41.6719V45.778L77.5227 47.9241V43.8179L73.964 41.6719Z" stroke="black" stroke-width="0.56" stroke-linecap="round" stroke-linejoin="round"/>
<path opacity="0.85" fill-rule="evenodd" clip-rule="evenodd" d="M77.5234 43.8179V47.9241L81.0823 45.7782V41.6719L77.5234 43.8179Z" fill="#141414"/>
<path opacity="0.85" fill-rule="evenodd" clip-rule="evenodd" d="M77.5234 43.8179V47.9241L81.0823 45.7782V41.6719L77.5234 43.8179Z" stroke="#141414" stroke-width="0.56" stroke-linecap="round" stroke-linejoin="round"/>
<path opacity="0.85" fill-rule="evenodd" clip-rule="evenodd" d="M76.2051 43.648L75.2797 43.0898V43.4157L76.2051 43.9738V43.648Z" fill="black"/>
<path opacity="0.85" fill-rule="evenodd" clip-rule="evenodd" d="M75.5703 42.6402L79.1292 40.4941L79.4137 40.6656L75.8548 42.8117L75.5703 42.6402Z" fill="#141414"/>
<path opacity="0.85" fill-rule="evenodd" clip-rule="evenodd" d="M77.5223 35.441L73.9636 33.2949L70.4047 35.441L73.9636 37.5869L77.5223 35.441Z" fill="#BAB6BF"/>
<path opacity="0.85" fill-rule="evenodd" clip-rule="evenodd" d="M77.5223 35.441L73.9636 33.2949L70.4047 35.441L73.9636 37.5869L77.5223 35.441Z" stroke="#141414" stroke-width="0.56" stroke-linecap="round" stroke-linejoin="round"/>
<path opacity="0.85" fill-rule="evenodd" clip-rule="evenodd" d="M70.4047 35.4395V39.5454L73.9636 41.6915V37.5853L70.4047 35.4395Z" fill="white"/>
<path opacity="0.85" fill-rule="evenodd" clip-rule="evenodd" d="M70.4047 35.4395V39.5454L73.9636 41.6915V37.5853L70.4047 35.4395Z" stroke="#141414" stroke-width="0.56" stroke-linecap="round" stroke-linejoin="round"/>
<path opacity="0.85" fill-rule="evenodd" clip-rule="evenodd" d="M73.964 37.5853V41.6915L77.5227 39.5456V35.4395L73.964 37.5853Z" fill="#141414"/>
<path opacity="0.85" fill-rule="evenodd" clip-rule="evenodd" d="M73.964 37.5853V41.6915L77.5227 39.5456V35.4395L73.964 37.5853Z" stroke="#141414" stroke-width="0.56" stroke-linecap="round" stroke-linejoin="round"/>
<path opacity="0.85" fill-rule="evenodd" clip-rule="evenodd" d="M72.6456 37.4193L71.7202 36.8613V37.3491L72.6456 37.9072V37.4193Z" fill="#141414"/>
<path opacity="0.85" fill-rule="evenodd" clip-rule="evenodd" d="M72.0109 36.4097L75.5696 34.2637L75.854 34.4352L72.2954 36.5812L72.0109 36.4097Z" fill="#141414"/>
<path opacity="0.85" fill-rule="evenodd" clip-rule="evenodd" d="M77.5223 43.8179L73.9636 41.6719L70.4047 43.8179L73.9636 45.9638L77.5223 43.8179Z" fill="#BAB6BF"/>
<path opacity="0.85" fill-rule="evenodd" clip-rule="evenodd" d="M77.5223 43.8179L73.9636 41.6719L70.4047 43.8179L73.9636 45.9638L77.5223 43.8179Z" stroke="#141414" stroke-width="0.56" stroke-linecap="round" stroke-linejoin="round"/>
<path opacity="0.85" fill-rule="evenodd" clip-rule="evenodd" d="M70.4047 43.8184V47.9243L73.9636 50.0704V45.9642L70.4047 43.8184Z" fill="white"/>
<path opacity="0.85" fill-rule="evenodd" clip-rule="evenodd" d="M70.4047 43.8184V47.9243L73.9636 50.0704V45.9642L70.4047 43.8184Z" stroke="#141414" stroke-width="0.56" stroke-linecap="round" stroke-linejoin="round"/>
<path opacity="0.85" fill-rule="evenodd" clip-rule="evenodd" d="M73.964 45.9642V50.0704L77.5227 47.9245V43.8184L73.964 45.9642Z" fill="#141414"/>
<path opacity="0.85" fill-rule="evenodd" clip-rule="evenodd" d="M73.964 45.9642V50.0704L77.5227 47.9245V43.8184L73.964 45.9642Z" stroke="#141414" stroke-width="0.56" stroke-linecap="round" stroke-linejoin="round"/>
<path opacity="0.85" fill-rule="evenodd" clip-rule="evenodd" d="M72.6456 45.7962L71.7202 45.2383V45.726L72.6456 46.2842V45.7962Z" fill="#141414"/>
<path opacity="0.85" fill-rule="evenodd" clip-rule="evenodd" d="M72.0109 44.7867L75.5696 42.6406L75.854 42.8121L72.2954 44.9582L72.0109 44.7867Z" fill="#141414"/>
<path opacity="0.85" fill-rule="evenodd" clip-rule="evenodd" d="M17.6172 36.9508L21.1757 39.0968L24.7346 36.9508L21.1757 34.8047L17.6172 36.9508Z" fill="#BAB6BF"/>
<g opacity="0.85">
<mask id="mask0_1267_224606" style="mask-type:alpha" maskUnits="userSpaceOnUse" x="12" y="28" width="14" height="24">
<g opacity="0.85">
<path opacity="0.85" d="M12.9828 43.8344V43.8389L25.7555 51.2115V36.1792L12.9828 28.7988V43.8344Z" fill="white"/>
</g>
</mask>
<g mask="url(#mask0_1267_224606)">
<path opacity="0.85" fill-rule="evenodd" clip-rule="evenodd" d="M24.7332 36.9508L21.1743 34.8047L17.6156 36.9508L21.1743 39.0968L24.7332 36.9508Z" stroke="#141414" stroke-width="0.56" stroke-linecap="round" stroke-linejoin="round"/>
</g>
</g>
<path opacity="0.85" fill-rule="evenodd" clip-rule="evenodd" d="M17.6172 41.0573L21.1757 43.2034V39.0972L17.6172 36.9512V41.0573Z" fill="white"/>
<path opacity="0.85" fill-rule="evenodd" clip-rule="evenodd" d="M17.6172 36.9512V41.0573L21.1759 43.2034V39.0972L17.6172 36.9512Z" stroke="#141414" stroke-width="0.56" stroke-linecap="round" stroke-linejoin="round"/>
<path opacity="0.85" fill-rule="evenodd" clip-rule="evenodd" d="M21.1733 39.0972V43.2034L24.7322 41.0573V36.9512L21.1733 39.0972Z" fill="#141414"/>
<path opacity="0.85" fill-rule="evenodd" clip-rule="evenodd" d="M21.1733 39.0972V43.2034L24.7322 41.0575V36.9512L21.1733 39.0972Z" stroke="#141414" stroke-width="0.56" stroke-linecap="round" stroke-linejoin="round"/>
<path opacity="0.85" fill-rule="evenodd" clip-rule="evenodd" d="M18.9327 38.8588L19.8581 39.417V38.9293L18.9327 38.3711V38.8588Z" fill="#141414"/>
<path opacity="0.85" fill-rule="evenodd" clip-rule="evenodd" d="M19.2234 37.9215L19.5079 38.0929L23.0668 35.9469L22.7823 35.7754L19.2234 37.9215Z" fill="#141414"/>
<path opacity="0.85" fill-rule="evenodd" clip-rule="evenodd" d="M22.1984 39.7162L25.7573 41.8622V37.5703L22.1984 39.7162Z" fill="#BAB6BF"/>
<g opacity="0.85">
<mask id="mask1_1267_224606" style="mask-type:alpha" maskUnits="userSpaceOnUse" x="12" y="28" width="14" height="24">
<g opacity="0.85">
<path opacity="0.85" d="M12.9828 43.8344V43.8389L25.7555 51.2115V36.1792L12.9828 28.7988V43.8344Z" fill="white"/>
</g>
</mask>
<g mask="url(#mask1_1267_224606)">
<path opacity="0.85" fill-rule="evenodd" clip-rule="evenodd" d="M29.3145 39.7144L25.7558 37.5684L22.1969 39.7144L25.7558 41.8605L29.3145 39.7144Z" stroke="#141414" stroke-width="0.56" stroke-linecap="round" stroke-linejoin="round"/>
</g>
</g>
<path opacity="0.85" fill-rule="evenodd" clip-rule="evenodd" d="M22.1984 43.821L25.7573 45.9671V41.8609L22.1984 39.7148V43.821Z" fill="white"/>
<g opacity="0.85">
<g opacity="0.85">
<mask id="mask2_1267_224606" style="mask-type:alpha" maskUnits="userSpaceOnUse" x="12" y="28" width="14" height="24">
<g opacity="0.85">
<path opacity="0.85" d="M12.9812 43.8344V43.8389L25.7539 51.2115V36.1792L12.9812 28.7988V43.8344Z" fill="white"/>
</g>
</mask>
<g mask="url(#mask2_1267_224606)">
<path opacity="0.85" fill-rule="evenodd" clip-rule="evenodd" d="M22.1953 39.7148V43.821L25.7542 45.9671V41.8609L22.1953 39.7148Z" stroke="#141414" stroke-width="0.56" stroke-linecap="round" stroke-linejoin="round"/>
</g>
</g>
<g opacity="0.85">
<mask id="mask3_1267_224606" style="mask-type:alpha" maskUnits="userSpaceOnUse" x="12" y="28" width="14" height="24">
<g opacity="0.85">
<path opacity="0.85" d="M12.9812 43.8344V43.8389L25.7539 51.2115V36.1792L12.9812 28.7988V43.8344Z" fill="white"/>
</g>
</mask>
<g mask="url(#mask3_1267_224606)">
<path opacity="0.85" fill-rule="evenodd" clip-rule="evenodd" d="M25.7546 41.8609V45.9671L29.3133 43.8212V39.7148L25.7546 41.8609Z" stroke="black" stroke-width="0.56" stroke-linecap="round" stroke-linejoin="round"/>
</g>
</g>
</g>
<path opacity="0.85" fill-rule="evenodd" clip-rule="evenodd" d="M23.5171 41.6225L24.4425 42.1804V41.6929L23.5171 41.1348V41.6225Z" fill="#141414"/>
<path opacity="0.85" fill-rule="evenodd" clip-rule="evenodd" d="M23.8047 40.685L24.089 40.8565L25.7566 39.8508V39.5078L23.8047 40.685Z" fill="#141414"/>
<path opacity="0.85" fill-rule="evenodd" clip-rule="evenodd" d="M12.9858 43.8363V43.8406L25.7584 51.2134V36.181L12.9858 28.8008V43.8363Z" stroke="#141414" stroke-width="0.56" stroke-linecap="round" stroke-linejoin="round"/>
<g opacity="0.85">
<g opacity="0.85">
<path opacity="0.85" fill-rule="evenodd" clip-rule="evenodd" d="M26.9911 36.7253L22.8788 34.323V33.0254L26.9911 35.4083V36.7253Z" fill="#141414" stroke="#141414" stroke-width="0.56" stroke-linejoin="round"/>
<path opacity="0.85" fill-rule="evenodd" clip-rule="evenodd" d="M25.1198 34.3242L24.0038 34.9945L24.5705 35.3231L25.6868 34.6527L25.1198 34.3242Z" fill="#FFBE4A"/>
<path opacity="0.85" fill-rule="evenodd" clip-rule="evenodd" d="M26.2636 34.9863L25.1476 35.6564L25.7977 36.0332L26.9137 35.3632L26.2636 34.9863Z" fill="#FFBE4A"/>
<path opacity="0.85" fill-rule="evenodd" clip-rule="evenodd" d="M23.9787 33.6621L22.8788 34.3223L23.4383 34.6659L24.5544 33.9957L23.9787 33.6621Z" fill="#FFBE4A"/>
<path opacity="0.85" fill-rule="evenodd" clip-rule="evenodd" d="M22.8788 33.0254V33.7697L23.5091 33.3908L22.8788 33.0254Z" fill="#FFBE4A"/>
<path opacity="0.85" fill-rule="evenodd" clip-rule="evenodd" d="M26.9917 36.0176L26.3912 36.3785L26.9917 36.7267V36.0176Z" fill="#FFBE4A"/>
</g>
<g opacity="0.85">
<path opacity="0.85" fill-rule="evenodd" clip-rule="evenodd" d="M15.8169 30.237L11.7046 27.8349V26.5371L15.8169 28.9165V30.237Z" fill="#141414" stroke="#141414" stroke-width="0.8" stroke-linejoin="round"/>
<path opacity="0.85" fill-rule="evenodd" clip-rule="evenodd" d="M13.9457 27.834L12.8296 28.504L13.3963 28.8327L14.5126 28.1625L13.9457 27.834Z" fill="#FFBE4A"/>
<path opacity="0.85" fill-rule="evenodd" clip-rule="evenodd" d="M15.0895 28.498L13.9734 29.1683L14.6235 29.5449L15.7398 28.8749L15.0895 28.498Z" fill="#FFBE4A"/>
<path opacity="0.85" fill-rule="evenodd" clip-rule="evenodd" d="M12.8047 27.1738L11.7046 27.8343L12.2642 28.1777L13.3802 27.5074L12.8047 27.1738Z" fill="#FFBE4A"/>
<path opacity="0.85" fill-rule="evenodd" clip-rule="evenodd" d="M11.7046 26.5371V27.2816L12.3349 26.9027L11.7046 26.5371Z" fill="#FFBE4A"/>
<path opacity="0.85" fill-rule="evenodd" clip-rule="evenodd" d="M15.8175 29.5293L15.217 29.89L15.8175 30.2383V29.5293Z" fill="#FFBE4A"/>
</g>
<g opacity="0.85">
<path opacity="0.85" fill-rule="evenodd" clip-rule="evenodd" d="M33.8694 31.5938L27.2811 35.4116V36.7286L33.8694 32.9107V31.5938Z" fill="#141414" stroke="#141414" stroke-width="0.8" stroke-linejoin="round"/>
<path opacity="0.85" fill-rule="evenodd" clip-rule="evenodd" d="M29.1543 34.3262L30.2704 34.9964L29.7037 35.3251L28.5874 34.6547L29.1543 34.3262Z" fill="#FFBE4A"/>
<path opacity="0.85" fill-rule="evenodd" clip-rule="evenodd" d="M28.0062 34.9902L29.1222 35.6603L28.4721 36.0371L27.3561 35.3671L28.0062 34.9902Z" fill="#FFBE4A"/>
<path opacity="0.85" fill-rule="evenodd" clip-rule="evenodd" d="M30.2943 33.666L31.4104 34.336L30.8347 34.6698L29.7186 33.9996L30.2943 33.666Z" fill="#FFBE4A"/>
<path opacity="0.85" fill-rule="evenodd" clip-rule="evenodd" d="M27.2811 36.0195L27.8814 36.3804L27.2811 36.7287V36.0195Z" fill="#FFBE4A"/>
<path opacity="0.85" fill-rule="evenodd" clip-rule="evenodd" d="M32.6824 32.2812L33.7985 32.9513L33.2317 33.28L32.1155 32.6097L32.6824 32.2812Z" fill="#FFBE4A"/>
<path opacity="0.85" fill-rule="evenodd" clip-rule="evenodd" d="M31.5366 32.9453L32.6527 33.6156L32.0026 33.9922L30.8873 33.3228L31.5366 32.9453Z" fill="#FFBE4A"/>
<path opacity="0.85" fill-rule="evenodd" clip-rule="evenodd" d="M33.8702 32.3303L33.2467 31.9555L33.8702 31.5938V32.3303Z" fill="#FFBE4A"/>
</g>
</g>
<path opacity="0.85" fill-rule="evenodd" clip-rule="evenodd" d="M50.668 19.6274L51.968 18.8457L39.0671 11.3633L37.7671 12.145L50.668 19.6274Z" fill="#141414"/>
<path opacity="0.85" fill-rule="evenodd" clip-rule="evenodd" d="M48.068 21.1917L49.3678 20.41L36.4669 12.9277L35.1671 13.7094L48.068 21.1917Z" fill="#141414"/>
<path opacity="0.85" fill-rule="evenodd" clip-rule="evenodd" d="M45.468 22.7542L46.7678 21.9725L33.8669 14.4902L32.5671 15.2717L45.468 22.7542Z" fill="#141414"/>
<path opacity="0.85" fill-rule="evenodd" clip-rule="evenodd" d="M42.868 24.3167L44.168 23.5352L31.2672 16.0527L29.9672 16.8344L42.868 24.3167Z" fill="#141414"/>
<path opacity="0.85" fill-rule="evenodd" clip-rule="evenodd" d="M40.2681 25.8811L41.568 25.0994L28.6672 17.6172L27.3672 18.3989L40.2681 25.8811Z" fill="#141414"/>
<path opacity="0.85" fill-rule="evenodd" clip-rule="evenodd" d="M37.668 27.4456L38.968 26.6639L26.0669 19.1816L24.7671 19.9631L37.668 27.4456Z" fill="#141414"/>
<path opacity="0.85" fill-rule="evenodd" clip-rule="evenodd" d="M35.068 29.0081L36.368 28.2264L23.4671 20.7441L22.1671 21.5258L35.068 29.0081Z" fill="#141414"/>
<path opacity="0.85" fill-rule="evenodd" clip-rule="evenodd" d="M32.4742 30.5687L33.7677 29.7908L20.8668 22.3086L19.5734 23.0864L32.4742 30.5687Z" fill="#141414"/>
<path opacity="0.85" fill-rule="evenodd" clip-rule="evenodd" d="M29.8745 32.1311L31.1743 31.3494L18.2734 23.8672L16.9734 24.6487L29.8745 32.1311Z" fill="#141414"/>
<path opacity="0.85" fill-rule="evenodd" clip-rule="evenodd" d="M27.2827 33.6887L28.5743 32.9121L15.6734 25.4297L14.3734 26.2114L27.2827 33.6887Z" fill="#141414"/>
<path opacity="0.85" fill-rule="evenodd" clip-rule="evenodd" d="M66.4117 10.1606L67.7115 9.37894L54.8107 1.89648L53.5109 2.67819L66.4117 10.1606Z" fill="#141414"/>
<path opacity="0.85" fill-rule="evenodd" clip-rule="evenodd" d="M63.8117 11.7249L65.1118 10.9432L52.2109 3.46094L50.9109 4.24264L63.8117 11.7249Z" fill="#141414"/>
<path opacity="0.85" fill-rule="evenodd" clip-rule="evenodd" d="M61.2118 13.2874L62.5116 12.5057L49.6107 5.02344L48.3109 5.80514L61.2118 13.2874Z" fill="#141414"/>
<path opacity="0.85" fill-rule="evenodd" clip-rule="evenodd" d="M58.618 14.848L59.9115 14.0701L47.0106 6.58789L45.7172 7.36551L58.618 14.848Z" fill="#141414"/>
<path opacity="0.85" fill-rule="evenodd" clip-rule="evenodd" d="M56.0181 16.4104L57.318 15.6287L44.4172 8.14648L43.1172 8.92819L56.0181 16.4104Z" fill="#141414"/>
<path opacity="0.85" fill-rule="evenodd" clip-rule="evenodd" d="M53.418 17.9741L54.5669 17.2832L41.6661 9.80078L40.5171 10.4918L53.418 17.9741Z" fill="#141414"/>
<path opacity="0.85" fill-rule="evenodd" clip-rule="evenodd" d="M30.4692 36.1875L28.8578 37.1509V51.1003L30.4692 50.1345V36.1875Z" fill="white"/>
<path opacity="0.85" fill-rule="evenodd" clip-rule="evenodd" d="M33.694 34.2617L32.0828 35.2253V49.1699L33.694 48.2042V34.2617Z" fill="white"/>
<path opacity="0.85" fill-rule="evenodd" clip-rule="evenodd" d="M36.9159 32.334L35.3047 33.2974V47.2374L36.9159 46.2718V32.334Z" fill="white"/>
<path opacity="0.85" fill-rule="evenodd" clip-rule="evenodd" d="M40.1377 30.4082L38.5265 31.3716V45.307L40.1377 44.3411V30.4082Z" fill="white"/>
<path opacity="0.85" fill-rule="evenodd" clip-rule="evenodd" d="M43.3599 28.4805L41.7484 29.4439V43.3743L43.3599 42.4087V28.4805Z" fill="white"/>
<path opacity="0.85" fill-rule="evenodd" clip-rule="evenodd" d="M46.5815 26.5527L44.9702 27.5161V41.4423L46.5815 40.4765V26.5527Z" fill="white"/>
<path opacity="0.85" fill-rule="evenodd" clip-rule="evenodd" d="M49.8066 24.627L48.1953 25.5904V39.5116L49.8066 38.546V24.627Z" fill="white"/>
<path opacity="0.85" fill-rule="evenodd" clip-rule="evenodd" d="M53.0284 22.7012L51.4171 23.6646V37.5811L53.0284 36.6153V22.7012Z" fill="white"/>
<path opacity="0.85" fill-rule="evenodd" clip-rule="evenodd" d="M56.2503 20.7734L54.639 21.7368V35.6485L56.2503 34.6829V20.7734Z" fill="white"/>
<path opacity="0.85" fill-rule="evenodd" clip-rule="evenodd" d="M59.4721 18.8457L57.8608 19.8093V33.7163L59.4721 32.7504V18.8457Z" fill="white"/>
<path opacity="0.85" fill-rule="evenodd" clip-rule="evenodd" d="M62.694 16.9199L61.0828 17.8833V31.7856L62.694 30.82V16.9199Z" fill="white"/>
<path opacity="0.85" fill-rule="evenodd" clip-rule="evenodd" d="M65.9159 14.9941L64.3047 15.9575V29.8551L65.9159 28.8895V14.9941Z" fill="white"/>
<path opacity="0.85" fill-rule="evenodd" clip-rule="evenodd" d="M69.1409 13.0664L67.5297 14.0298V27.9227L69.1409 26.957V13.0664Z" fill="white"/>
</g>
</svg>
