<svg width="102" height="76" viewBox="0 0 102 76" fill="none" xmlns="http://www.w3.org/2000/svg">
<g id="img/container/RF40">
<path id="Stroke-1" fill-rule="evenodd" clip-rule="evenodd" d="M32.3008 49.4591V75.0243L35.21 73.2804V71.0007L66.1236 52.6455V54.9328L68.1664 53.7085V51.5293L92.6727 36.6206V38.6188L94.4457 37.1918V12.9192L32.3008 49.4591Z" fill="white" stroke="#54555A" stroke-width="0.7" stroke-linecap="round" stroke-linejoin="round"/>
<path id="Fill-3" fill-rule="evenodd" clip-rule="evenodd" d="M92.6723 38.6048L90.9785 37.6482L92.6723 36.6199V38.6048Z" fill="#54555A"/>
<path id="Stroke-4" fill-rule="evenodd" clip-rule="evenodd" d="M92.6723 38.6048L90.9785 37.6482L92.6723 36.6199V38.6048Z" stroke="#54555A" stroke-width="0.7" stroke-linecap="round" stroke-linejoin="round"/>
<path id="Fill-5" fill-rule="evenodd" clip-rule="evenodd" d="M66.1237 52.6458V54.9331L64.1953 53.7894L66.1237 52.6458Z" fill="#54555A"/>
<path id="Stroke-6" fill-rule="evenodd" clip-rule="evenodd" d="M66.1237 52.6458V54.9331L64.1953 53.7894L66.1237 52.6458Z" stroke="#54555A" stroke-width="0.7" stroke-linecap="round" stroke-linejoin="round"/>
<path id="Stroke-8" fill-rule="evenodd" clip-rule="evenodd" d="M74.655 1L12.5312 38.036L32.301 49.4592L94.4459 12.9193L74.655 1Z" fill="white" stroke="#54555A" stroke-width="0.7" stroke-linecap="round" stroke-linejoin="round"/>
<path id="Fill-10" fill-rule="evenodd" clip-rule="evenodd" d="M0.666016 62.2506L5.17725 64.9712L9.68873 62.2506L5.17725 59.5303L0.666016 62.2506Z" fill="#E8E7EF"/>
<path id="Stroke-11" fill-rule="evenodd" clip-rule="evenodd" d="M9.68874 62.2506L5.17725 59.5303L0.666016 62.2506L5.17725 64.9712L9.68874 62.2506Z" stroke="#54555A" stroke-width="0.7" stroke-linecap="round" stroke-linejoin="round"/>
<path id="Fill-13" fill-rule="evenodd" clip-rule="evenodd" d="M0.666016 67.4562L5.17725 70.1767V64.9715L0.666016 62.251V67.4562Z" fill="white"/>
<path id="Stroke-14" fill-rule="evenodd" clip-rule="evenodd" d="M0.666016 62.251V67.4562L5.17725 70.1767V64.9716L0.666016 62.251Z" stroke="#54555A" stroke-width="0.7" stroke-linecap="round" stroke-linejoin="round"/>
<path id="Fill-16" fill-rule="evenodd" clip-rule="evenodd" d="M5.17773 64.9716V70.1767L9.68922 67.4564V62.251L5.17773 64.9716Z" fill="#54555A"/>
<path id="Stroke-17" fill-rule="evenodd" clip-rule="evenodd" d="M5.17773 64.9716V70.1767L9.68922 67.4564V62.251L5.17773 64.9716Z" stroke="#54555A" stroke-width="0.7" stroke-linecap="round" stroke-linejoin="round"/>
<path id="Fill-18" fill-rule="evenodd" clip-rule="evenodd" d="M3.50715 64.7567L2.33398 64.0496V64.6676L3.50715 65.3752V64.7567Z" fill="#54555A"/>
<path id="Fill-19" fill-rule="evenodd" clip-rule="evenodd" d="M2.70312 63.4794L7.21436 60.7588L7.57492 60.9764L3.06369 63.6967L2.70312 63.4794Z" fill="#54555A"/>
<path id="Fill-20" fill-rule="evenodd" clip-rule="evenodd" d="M78.7317 61.3021L74.2202 58.5815L69.709 61.3021L74.2202 64.0224L78.7317 61.3021Z" fill="#E8E7EF"/>
<path id="Stroke-21" fill-rule="evenodd" clip-rule="evenodd" d="M78.7317 61.3021L74.2202 58.5815L69.709 61.3021L74.2202 64.0224L78.7317 61.3021Z" stroke="#54555A" stroke-width="0.7" stroke-linecap="round" stroke-linejoin="round"/>
<path id="Fill-22" fill-rule="evenodd" clip-rule="evenodd" d="M69.709 61.303V66.5079L74.2202 69.2285V64.0233L69.709 61.303Z" fill="white"/>
<path id="Stroke-23" fill-rule="evenodd" clip-rule="evenodd" d="M69.709 61.303V66.5079L74.2202 69.2285V64.0233L69.709 61.303Z" stroke="#54555A" stroke-width="0.7" stroke-linecap="round" stroke-linejoin="round"/>
<path id="Fill-24" fill-rule="evenodd" clip-rule="evenodd" d="M74.2207 64.0223V69.2275L78.7322 66.5072V61.302L74.2207 64.0223Z" fill="#54555A"/>
<path id="Stroke-25" fill-rule="evenodd" clip-rule="evenodd" d="M74.2207 64.0223V69.2275L78.7322 66.5072V61.302L74.2207 64.0223Z" stroke="#54555A" stroke-width="0.7" stroke-linecap="round" stroke-linejoin="round"/>
<path id="Fill-26" fill-rule="evenodd" clip-rule="evenodd" d="M72.5501 63.8089L71.377 63.1016V63.7196L72.5501 64.4272V63.8089Z" fill="#54555A"/>
<path id="Fill-27" fill-rule="evenodd" clip-rule="evenodd" d="M71.7441 62.5304L76.2556 59.8098L76.6159 60.0275L72.1047 62.7478L71.7441 62.5304Z" fill="#54555A"/>
<path id="Fill-28" fill-rule="evenodd" clip-rule="evenodd" d="M92.4736 57.5304L87.9624 54.8098L83.4512 57.5304L87.9624 60.2507L92.4736 57.5304Z" fill="#E8E7EF"/>
<path id="Stroke-29" fill-rule="evenodd" clip-rule="evenodd" d="M92.4736 57.5304L87.9624 54.8098L83.4512 57.5304L87.9624 60.2507L92.4736 57.5304Z" stroke="#54555A" stroke-width="0.7" stroke-linecap="round" stroke-linejoin="round"/>
<path id="Fill-30" fill-rule="evenodd" clip-rule="evenodd" d="M83.4531 57.5303V62.7355L87.9644 65.4558V60.2506L83.4531 57.5303Z" fill="white"/>
<path id="Stroke-31" fill-rule="evenodd" clip-rule="evenodd" d="M83.4531 57.5303V62.7355L87.9644 65.4558V60.2506L83.4531 57.5303Z" stroke="#54555A" stroke-width="0.7" stroke-linecap="round" stroke-linejoin="round"/>
<path id="Fill-32" fill-rule="evenodd" clip-rule="evenodd" d="M87.9629 60.2508V65.456L92.4741 62.736V57.5305L87.9629 60.2508Z" fill="#54555A"/>
<path id="Stroke-33" fill-rule="evenodd" clip-rule="evenodd" d="M87.9629 60.2508V65.456L92.4741 62.736V57.5305L87.9629 60.2508Z" stroke="#54555A" stroke-width="0.7" stroke-linecap="round" stroke-linejoin="round"/>
<path id="Fill-34" fill-rule="evenodd" clip-rule="evenodd" d="M86.2943 60.0372L85.1211 59.3298V59.9481L86.2943 60.6558V60.0372Z" fill="#54555A"/>
<path id="Fill-35" fill-rule="evenodd" clip-rule="evenodd" d="M85.4883 58.7584L89.9995 56.0381L90.3601 56.2555L85.8488 58.9758L85.4883 58.7584Z" fill="#54555A"/>
<path id="Fill-36" fill-rule="evenodd" clip-rule="evenodd" d="M101.497 57.4129L96.9861 54.6926L92.4746 57.4129L96.9861 60.1335L101.497 57.4129Z" fill="#E8E7EF"/>
<path id="Stroke-37" fill-rule="evenodd" clip-rule="evenodd" d="M101.497 57.4129L96.9861 54.6926L92.4746 57.4129L96.9861 60.1335L101.497 57.4129Z" stroke="#54555A" stroke-width="0.7" stroke-linecap="round" stroke-linejoin="round"/>
<path id="Fill-39" fill-rule="evenodd" clip-rule="evenodd" d="M92.4746 57.4131V62.6183L96.9861 65.3389V60.1337L92.4746 57.4131Z" fill="white"/>
<path id="Stroke-40" fill-rule="evenodd" clip-rule="evenodd" d="M92.4746 57.4131V62.6183L96.9861 65.3389V60.1337L92.4746 57.4131Z" stroke="#54555A" stroke-width="0.7" stroke-linecap="round" stroke-linejoin="round"/>
<path id="Fill-41" fill-rule="evenodd" clip-rule="evenodd" d="M96.9863 60.1337V65.3389L101.498 62.6185V57.4131L96.9863 60.1337Z" fill="#54555A"/>
<path id="Stroke-42" fill-rule="evenodd" clip-rule="evenodd" d="M96.9863 60.1337V65.3389L101.498 62.6185V57.4131L96.9863 60.1337Z" stroke="#54555A" stroke-width="0.7" stroke-linecap="round" stroke-linejoin="round"/>
<path id="Fill-44" fill-rule="evenodd" clip-rule="evenodd" d="M95.3177 59.919L94.1445 59.2119V59.6248L95.3177 60.3322V59.919Z" fill="#54555A"/>
<path id="Fill-45" fill-rule="evenodd" clip-rule="evenodd" d="M94.5117 58.6415L99.023 55.9209L99.3835 56.1385L94.872 58.8589L94.5117 58.6415Z" fill="#54555A"/>
<path id="Fill-46" fill-rule="evenodd" clip-rule="evenodd" d="M96.9856 49.4872L92.4741 46.7666L87.9629 49.4872L92.4741 52.2075L96.9856 49.4872Z" fill="#E8E7EF"/>
<path id="Stroke-47" fill-rule="evenodd" clip-rule="evenodd" d="M96.9856 49.4872L92.4741 46.7666L87.9629 49.4872L92.4741 52.2075L96.9856 49.4872Z" stroke="#54555A" stroke-width="0.7" stroke-linecap="round" stroke-linejoin="round"/>
<path id="Fill-48" fill-rule="evenodd" clip-rule="evenodd" d="M87.9629 49.4871V54.6922L92.4741 57.4126V52.2074L87.9629 49.4871Z" fill="white"/>
<path id="Stroke-49" fill-rule="evenodd" clip-rule="evenodd" d="M87.9629 49.4871V54.6922L92.4741 57.4126V52.2074L87.9629 49.4871Z" stroke="#54555A" stroke-width="0.7" stroke-linecap="round" stroke-linejoin="round"/>
<path id="Fill-50" fill-rule="evenodd" clip-rule="evenodd" d="M92.4746 52.2074V57.4126L96.9861 54.6925V49.4871L92.4746 52.2074Z" fill="#54555A"/>
<path id="Stroke-51" fill-rule="evenodd" clip-rule="evenodd" d="M92.4746 52.2074V57.4126L96.9861 54.6925V49.4871L92.4746 52.2074Z" stroke="#54555A" stroke-width="0.7" stroke-linecap="round" stroke-linejoin="round"/>
<path id="Fill-52" fill-rule="evenodd" clip-rule="evenodd" d="M90.806 51.9947L89.6328 51.2874V51.9056L90.806 52.6133V51.9947Z" fill="#54555A"/>
<path id="Fill-53" fill-rule="evenodd" clip-rule="evenodd" d="M90.002 50.7152L94.5134 47.9949L94.8737 48.2123L90.3625 50.9326L90.002 50.7152Z" fill="#54555A"/>
<path id="Fill-54" fill-rule="evenodd" clip-rule="evenodd" d="M96.9856 60.1078L92.4741 57.3872L87.9629 60.1078L92.4741 62.8281L96.9856 60.1078Z" fill="#E8E7EF"/>
<path id="Stroke-55" fill-rule="evenodd" clip-rule="evenodd" d="M96.9856 60.1078L92.4741 57.3872L87.9629 60.1078L92.4741 62.8281L96.9856 60.1078Z" stroke="#54555A" stroke-width="0.7" stroke-linecap="round" stroke-linejoin="round"/>
<path id="Fill-56" fill-rule="evenodd" clip-rule="evenodd" d="M87.9629 60.1077V65.3126L92.4741 68.0332V62.828L87.9629 60.1077Z" fill="white"/>
<path id="Stroke-57" fill-rule="evenodd" clip-rule="evenodd" d="M87.9629 60.1077V65.3126L92.4741 68.0332V62.828L87.9629 60.1077Z" stroke="#54555A" stroke-width="0.7" stroke-linecap="round" stroke-linejoin="round"/>
<path id="Fill-58" fill-rule="evenodd" clip-rule="evenodd" d="M92.4746 62.828V68.0332L96.9861 65.3129V60.1077L92.4746 62.828Z" fill="#54555A"/>
<path id="Stroke-59" fill-rule="evenodd" clip-rule="evenodd" d="M92.4746 62.828V68.0332L96.9861 65.3129V60.1077L92.4746 62.828Z" stroke="#54555A" stroke-width="0.7" stroke-linecap="round" stroke-linejoin="round"/>
<path id="Fill-60" fill-rule="evenodd" clip-rule="evenodd" d="M90.806 62.6146L89.6328 61.9072V62.5253L90.806 63.2329V62.6146Z" fill="#54555A"/>
<path id="Fill-61" fill-rule="evenodd" clip-rule="evenodd" d="M90.002 61.3361L94.5134 58.6155L94.8737 58.8331L90.3625 61.5534L90.002 61.3361Z" fill="#54555A"/>
<path id="Stroke-62" fill-rule="evenodd" clip-rule="evenodd" d="M12.5296 38.0364L12.4941 38.0575V63.6237L14.3013 64.6417V62.3811L29.568 71.2148V73.4527L32.2993 75.0248V49.4596L12.5296 38.0364Z" fill="#E1E2EC" stroke="#54555A" stroke-width="0.7" stroke-linecap="round" stroke-linejoin="round"/>
<path id="Fill-64" fill-rule="evenodd" clip-rule="evenodd" d="M14.3027 64.6417L16.2724 63.5197L14.3027 62.3811V64.6417Z" fill="#54555A"/>
<path id="Stroke-65" fill-rule="evenodd" clip-rule="evenodd" d="M14.3027 64.6417L16.2724 63.5197L14.3027 62.3811V64.6417Z" stroke="#54555A" stroke-width="0.7" stroke-linecap="round" stroke-linejoin="round"/>
<g id="Group-199">
<path id="Stroke-66" fill-rule="evenodd" clip-rule="evenodd" d="M24.7374 52.0341L27.4254 53.5868C27.6461 53.7143 27.9218 53.5552 27.9218 53.3009V50.8787C27.9218 50.5572 27.7503 50.2602 27.4718 50.0993L24.7837 48.5461C24.5631 48.4188 24.2871 48.5776 24.2871 48.8322V51.2547C24.2871 51.5762 24.4589 51.8732 24.7374 52.0341Z" stroke="#757780" stroke-width="0.7" stroke-linecap="round" stroke-linejoin="round"/>
<path id="Stroke-68" fill-rule="evenodd" clip-rule="evenodd" d="M16.7314 47.876L19.477 49.4027C19.7023 49.5277 19.9844 49.3717 19.9844 49.1215V46.2436C19.9844 45.9274 19.8091 45.6355 19.5247 45.4771L16.7788 43.9499C16.5536 43.8246 16.2715 43.9809 16.2715 44.2314V47.1095C16.2715 47.4254 16.4468 47.7176 16.7314 47.876Z" stroke="#757780" stroke-width="0.7" stroke-linecap="round" stroke-linejoin="round"/>
<path id="Fill-70" fill-rule="evenodd" clip-rule="evenodd" d="M14.3027 57.0003L30.4936 66.4058V60.8175L28.3896 57.0978L16.7225 50.3562L14.3027 51.1293V57.0003Z" fill="#54555A"/>
<path id="Stroke-72" fill-rule="evenodd" clip-rule="evenodd" d="M22.8379 56.7712C23.1722 57.9568 22.7581 59.1109 21.9124 59.3492C21.0669 59.5872 20.1104 58.8187 19.7758 57.6328C19.4417 56.4471 19.8561 55.2928 20.7013 55.055C21.547 54.8168 22.5036 55.5855 22.8379 56.7712Z" stroke="#E1E2EC" stroke-width="0.7" stroke-linecap="round" stroke-linejoin="round"/>
<path id="Fill-74" fill-rule="evenodd" clip-rule="evenodd" d="M21.8161 57.0592C21.9639 57.5836 21.8561 58.0723 21.575 58.1515C21.294 58.2309 20.9464 57.8699 20.7986 57.3456C20.6508 56.8212 20.7589 56.3325 21.0397 56.2533C21.3207 56.1742 21.6683 56.5349 21.8161 57.0592Z" fill="#E1E2EC"/>
<path id="Stroke-76" fill-rule="evenodd" clip-rule="evenodd" d="M28.3896 57.0976L16.7225 50.3562L14.3027 51.129V57.0001V59.9039L30.4936 69.2498V66.4055V60.8172L28.3896 57.0976Z" stroke="#54555A" stroke-width="0.7" stroke-linecap="round" stroke-linejoin="round"/>
<path id="Fill-78" fill-rule="evenodd" clip-rule="evenodd" d="M62.0666 29.5568L63.7145 28.5657L47.3608 19.0811L45.7129 20.0717L62.0666 29.5568Z" fill="#E2E2E9"/>
<path id="Fill-80" fill-rule="evenodd" clip-rule="evenodd" d="M58.7717 31.5398L60.4196 30.5486L44.0656 21.0637L42.418 22.0547L58.7717 31.5398Z" fill="#E2E2E9"/>
<path id="Fill-82" fill-rule="evenodd" clip-rule="evenodd" d="M55.4768 33.5222L57.1247 32.5312L40.7707 23.0464L39.123 24.0371L55.4768 33.5222Z" fill="#E2E2E9"/>
<path id="Fill-84" fill-rule="evenodd" clip-rule="evenodd" d="M52.1819 35.5034L53.8297 34.5122L37.4758 25.0273L35.8281 26.0183L52.1819 35.5034Z" fill="#E2E2E9"/>
<path id="Fill-86" fill-rule="evenodd" clip-rule="evenodd" d="M48.885 37.4856L50.5329 36.4946L34.1789 27.0098L32.5312 28.0005L48.885 37.4856Z" fill="#E2E2E9"/>
<path id="Fill-88" fill-rule="evenodd" clip-rule="evenodd" d="M45.5901 39.4668L47.2379 38.4756L30.884 28.9907L29.2363 29.9817L45.5901 39.4668Z" fill="#E2E2E9"/>
<path id="Fill-90" fill-rule="evenodd" clip-rule="evenodd" d="M42.2934 41.4492L43.9413 40.4582L27.5873 30.9734L25.9395 31.9643L42.2934 41.4492Z" fill="#E2E2E9"/>
<path id="Fill-92" fill-rule="evenodd" clip-rule="evenodd" d="M39.0061 43.4273L40.6455 42.4412L24.2918 32.9561L22.6523 33.9422L39.0061 43.4273Z" fill="#E2E2E9"/>
<path id="Fill-94" fill-rule="evenodd" clip-rule="evenodd" d="M35.7111 45.4084L37.359 44.4175L21.0051 34.9326L19.3574 35.9236L35.7111 45.4084Z" fill="#E2E2E9"/>
<path id="Fill-96" fill-rule="evenodd" clip-rule="evenodd" d="M32.4269 47.385L34.0641 46.4004L17.7101 36.9153L16.0625 37.9065L29.7256 45.831L32.4269 47.385Z" fill="#E2E2E9"/>
<path id="Fill-98" fill-rule="evenodd" clip-rule="evenodd" d="M88.6272 13.5829L90.2919 12.5815L73.9381 3.09668L72.2734 4.0978L88.6272 13.5829Z" fill="#E2E2E9"/>
<path id="Fill-100" fill-rule="evenodd" clip-rule="evenodd" d="M85.2973 15.5853L86.9618 14.5842L70.6083 5.09937L68.9434 6.10049L85.2973 15.5853Z" fill="#E2E2E9"/>
<path id="Fill-102" fill-rule="evenodd" clip-rule="evenodd" d="M81.969 17.588L83.6337 16.5867L67.2799 7.10181L65.6152 8.10293L81.969 17.588Z" fill="#E2E2E9"/>
<path id="Fill-104" fill-rule="evenodd" clip-rule="evenodd" d="M78.6391 19.5907L80.3038 18.5893L63.9501 9.10449L62.2852 10.1056L78.6391 19.5907Z" fill="#E2E2E9"/>
<path id="Fill-106" fill-rule="evenodd" clip-rule="evenodd" d="M75.3088 21.5922L76.9735 20.5908L60.6198 11.1062L58.9551 12.1073L75.3088 21.5922Z" fill="#E2E2E9"/>
<path id="Fill-108" fill-rule="evenodd" clip-rule="evenodd" d="M71.9887 23.5903L73.645 22.594L57.2911 13.1089L55.6348 14.1052L71.9887 23.5903Z" fill="#E2E2E9"/>
<path id="Fill-110" fill-rule="evenodd" clip-rule="evenodd" d="M68.6584 25.5922L70.3231 24.5908L53.9694 15.1062L52.3047 16.1071L68.6584 25.5922Z" fill="#E2E2E9"/>
<path id="Fill-112" fill-rule="evenodd" clip-rule="evenodd" d="M65.3637 27.5755L66.9956 26.594L50.6419 17.1089L49.0098 18.0904L65.3637 27.5755Z" fill="#E2E2E9"/>
<path id="Fill-114" fill-rule="evenodd" clip-rule="evenodd" d="M36.4664 49.4041L34.4238 50.6305V69.2507L36.4664 68.036V49.4041Z" fill="#D3D3DE"/>
<path id="Fill-116" fill-rule="evenodd" clip-rule="evenodd" d="M40.5524 46.9509L38.5098 48.1773V66.8212L40.5524 65.6065V46.9509Z" fill="#D3D3DE"/>
<path id="Fill-118" fill-rule="evenodd" clip-rule="evenodd" d="M44.6383 44.4995L42.5957 45.7257V64.3927L44.6383 63.1783V44.4995Z" fill="#D3D3DE"/>
<path id="Fill-120" fill-rule="evenodd" clip-rule="evenodd" d="M48.7242 42.0464L46.6816 43.2725V61.9633L48.7242 60.7488V42.0464Z" fill="#D3D3DE"/>
<path id="Fill-122" fill-rule="evenodd" clip-rule="evenodd" d="M52.8082 39.5933L50.7656 40.8194V59.5338L52.8082 58.3191V39.5933Z" fill="#D3D3DE"/>
<path id="Fill-124" fill-rule="evenodd" clip-rule="evenodd" d="M56.8922 37.1409L54.8496 38.367V57.1051L56.8922 55.8904V37.1409Z" fill="#D3D3DE"/>
<path id="Fill-126" fill-rule="evenodd" clip-rule="evenodd" d="M60.9781 34.6877L58.9355 35.9139V54.6754L60.9781 53.4609V34.6877Z" fill="#D3D3DE"/>
<path id="Fill-128" fill-rule="evenodd" clip-rule="evenodd" d="M65.0641 32.2356L63.0215 33.462V52.2469L65.0641 51.0325V32.2356Z" fill="#D3D3DE"/>
<path id="Fill-130" fill-rule="evenodd" clip-rule="evenodd" d="M67.1055 31.0097V49.8183L69.0742 48.6477V29.8276L67.1055 31.0097Z" fill="#D3D3DE"/>
<path id="Fill-132" fill-rule="evenodd" clip-rule="evenodd" d="M73.0114 27.4629L71.043 28.645V47.476L73.0114 46.3053V27.4629Z" fill="#D3D3DE"/>
<path id="Fill-134" fill-rule="evenodd" clip-rule="evenodd" d="M76.947 25.0994L74.9785 26.2815V45.1351L76.947 43.9645V25.0994Z" fill="#D3D3DE"/>
<path id="Fill-136" fill-rule="evenodd" clip-rule="evenodd" d="M80.8845 22.7356L78.916 23.9174V42.794L80.8845 41.6236V22.7356Z" fill="#D3D3DE"/>
<path id="Fill-138" fill-rule="evenodd" clip-rule="evenodd" d="M84.8039 20.3831L82.8535 21.5542V40.4537L84.8039 39.2937V20.3831Z" fill="#D3D3DE"/>
<path id="Fill-140" fill-rule="evenodd" clip-rule="evenodd" d="M88.7399 18.0186L86.7715 19.2007V38.1223L88.7399 36.9519V18.0186Z" fill="#D3D3DE"/>
<path id="Fill-142" fill-rule="evenodd" clip-rule="evenodd" d="M90.709 35.7813L92.6728 34.6134V15.6575L90.709 16.8368V35.7813Z" fill="#D3D3DE"/>
<g id="Group-166">
<path id="Fill-146" opacity="0.85" fill-rule="evenodd" clip-rule="evenodd" d="M53.6981 45.5557L54.0554 48.3658L53.3223 48.3641L53.6981 45.5557Z" fill="#F45531"/>
<path id="Fill-148" opacity="0.85" fill-rule="evenodd" clip-rule="evenodd" d="M56.1066 46.928L54.6493 48.9493L54.1328 48.4L56.1066 46.928Z" fill="#F45531"/>
<path id="Fill-150" opacity="0.85" fill-rule="evenodd" clip-rule="evenodd" d="M56.8916 49.4018L54.6758 49.8055L54.6781 49.0295L56.8916 49.4018Z" fill="#F45531"/>
<path id="Fill-152" opacity="0.85" fill-rule="evenodd" clip-rule="evenodd" d="M56.0308 51.7328L54.125 50.4313L54.6451 49.8845L56.0308 51.7328Z" fill="#F45531"/>
<path id="Fill-154" opacity="0.85" fill-rule="evenodd" clip-rule="evenodd" d="M53.6734 53.2731L53.3164 50.4629L54.0493 50.4649L53.6734 53.2731Z" fill="#F45531"/>
<path id="Fill-156" opacity="0.85" fill-rule="evenodd" clip-rule="evenodd" d="M50.8594 52.3411L52.7236 49.8794L53.2401 50.4284L50.8594 52.3411Z" fill="#F45531"/>
<path id="Fill-158" opacity="0.85" fill-rule="evenodd" clip-rule="evenodd" d="M49.7148 49.4056L52.6946 49.0244L52.6923 49.8001L49.7148 49.4056Z" fill="#F45531"/>
<path id="Fill-160" opacity="0.85" fill-rule="evenodd" clip-rule="evenodd" d="M50.877 46.4741L53.2465 48.3972L52.7264 48.9437L50.877 46.4741Z" fill="#F45531"/>
<path id="Fill-162" opacity="0.85" fill-rule="evenodd" clip-rule="evenodd" d="M54.7503 49.417C54.7483 50.0386 54.2698 50.5416 53.6819 50.54C53.0938 50.5388 52.6188 50.0335 52.6211 49.4116C52.6229 48.79 53.1012 48.2873 53.6893 48.2883C54.2774 48.2899 54.7524 48.7954 54.7503 49.417Z" fill="#EEEDF4"/>
<path id="Fill-164" opacity="0.85" fill-rule="evenodd" clip-rule="evenodd" d="M54.5299 49.4164C54.5283 49.9087 54.1497 50.3068 53.6839 50.3058C53.2183 50.3045 52.8422 49.9046 52.8438 49.4121C52.8455 48.9198 53.2242 48.5214 53.6897 48.5227C54.1553 48.524 54.5316 48.9239 54.5299 49.4164Z" fill="#F45531"/>
</g>
<g id="Group-198">
<path id="Fill-167" opacity="0.85" fill-rule="evenodd" clip-rule="evenodd" d="M46.5015 53.2769C46.4994 53.8984 46.0571 54.4014 45.5128 54.3999C44.9688 54.3984 44.5292 53.8934 44.5313 53.2715C44.5328 52.6497 44.9757 52.1469 45.5197 52.1482C46.0637 52.1497 46.5033 52.655 46.5015 53.2769Z" fill="#EEEDF4"/>
<path id="Fill-169" opacity="0.85" fill-rule="evenodd" clip-rule="evenodd" d="M46.2966 53.2764C46.2953 53.7244 45.9449 54.0866 45.514 54.0856C45.0831 54.0843 44.7351 53.7201 44.7363 53.2721C44.7379 52.8243 45.0882 52.4619 45.5189 52.4631C45.9498 52.4642 46.2978 52.8282 46.2966 53.2764Z" fill="#005ADD"/>
<path id="Fill-171" opacity="0.85" fill-rule="evenodd" clip-rule="evenodd" d="M45.7488 50.5428C45.7483 50.6886 45.6446 50.8066 45.5172 50.8063C45.3898 50.806 45.2869 50.6876 45.2871 50.5415C45.2874 50.3958 45.3913 50.2778 45.519 50.2783C45.6464 50.2786 45.7493 50.3971 45.7488 50.5428Z" fill="#005ADD"/>
<path id="Fill-173" opacity="0.85" fill-rule="evenodd" clip-rule="evenodd" d="M45.8518 51.6323C45.851 51.8438 45.7004 52.015 45.5157 52.0145C45.3305 52.014 45.1809 51.842 45.1816 51.6303C45.1824 51.4188 45.3328 51.2475 45.5177 51.248C45.703 51.2486 45.8523 51.4206 45.8518 51.6323Z" fill="#005ADD"/>
<path id="Fill-175" opacity="0.85" fill-rule="evenodd" clip-rule="evenodd" d="M45.4629 53.2738H45.5727V50.542H45.4629V53.2738Z" fill="#005ADD"/>
<path id="Fill-177" opacity="0.85" fill-rule="evenodd" clip-rule="evenodd" d="M47.7468 51.4954C47.6362 51.5984 47.4739 51.6131 47.3839 51.5285C47.2942 51.4439 47.3108 51.2921 47.4214 51.1891C47.5317 51.0864 47.6943 51.0717 47.784 51.1562C47.8739 51.2408 47.8574 51.3927 47.7468 51.4954Z" fill="#005ADD"/>
<path id="Fill-178" opacity="0.85" fill-rule="evenodd" clip-rule="evenodd" d="M46.9954 52.3349C46.8348 52.4842 46.5991 52.5056 46.4686 52.3828C46.3382 52.26 46.3626 52.0396 46.5229 51.8903C46.6832 51.7412 46.9189 51.7195 47.0496 51.8424C47.1801 51.9652 47.1556 52.1856 46.9954 52.3349Z" fill="#005ADD"/>
<path id="Fill-179" opacity="0.85" fill-rule="evenodd" clip-rule="evenodd" d="M45.5562 53.3095L45.4785 53.2369L47.5453 51.3052L47.6228 51.3777L45.5562 53.3095Z" fill="#005ADD"/>
<path id="Fill-180" opacity="0.85" fill-rule="evenodd" clip-rule="evenodd" d="M48.4376 53.4905C48.2819 53.4903 48.1557 53.3932 48.1563 53.2737C48.1563 53.1547 48.2832 53.0583 48.4388 53.0586C48.5948 53.0591 48.7207 53.1562 48.7204 53.2752C48.7199 53.3947 48.5933 53.491 48.4376 53.4905Z" fill="#005ADD"/>
<path id="Fill-181" opacity="0.85" fill-rule="evenodd" clip-rule="evenodd" d="M47.274 53.5878C47.0477 53.5873 46.865 53.4464 46.8652 53.2734C46.8657 53.1001 47.0497 52.9602 47.276 52.9607C47.5023 52.9615 47.685 53.1024 47.6845 53.2754C47.684 53.4484 47.5002 53.5883 47.274 53.5878Z" fill="#005ADD"/>
<path id="Fill-182" opacity="0.85" fill-rule="evenodd" clip-rule="evenodd" d="M45.5156 53.3253H48.4383V53.2227H45.5156V53.3253Z" fill="#005ADD"/>
<path id="Fill-183" opacity="0.85" fill-rule="evenodd" clip-rule="evenodd" d="M47.4201 55.3586C47.3103 55.2552 47.2945 55.1031 47.3847 55.019C47.4754 54.9349 47.6377 54.9504 47.7476 55.0541C47.8574 55.1573 47.8732 55.3095 47.783 55.3935C47.6923 55.4776 47.5302 55.4618 47.4201 55.3586Z" fill="#005ADD"/>
<path id="Fill-184" opacity="0.85" fill-rule="evenodd" clip-rule="evenodd" d="M46.5231 54.6571C46.3636 54.507 46.3407 54.2863 46.4719 54.164C46.6029 54.0422 46.8386 54.0649 46.9981 54.215C47.1576 54.3651 47.1805 54.5858 47.0493 54.7078C46.9183 54.8299 46.6826 54.8072 46.5231 54.6571Z" fill="#005ADD"/>
<path id="Fill-185" opacity="0.85" fill-rule="evenodd" clip-rule="evenodd" d="M47.5451 55.2421L45.4785 53.3101L45.556 53.2375L47.6228 55.1695L47.5451 55.2421Z" fill="#005ADD"/>
<path id="Fill-186" opacity="0.85" fill-rule="evenodd" clip-rule="evenodd" d="M45.2871 56.0054C45.2874 55.8597 45.3911 55.7417 45.5187 55.7419C45.6461 55.7425 45.7491 55.8609 45.7488 56.0067C45.7483 56.1525 45.6444 56.2704 45.517 56.2702C45.3895 56.2697 45.2866 56.1512 45.2871 56.0054Z" fill="#005ADD"/>
<path id="Fill-187" opacity="0.85" fill-rule="evenodd" clip-rule="evenodd" d="M45.1816 54.9169C45.1824 54.7052 45.3328 54.5339 45.5177 54.5344C45.703 54.5349 45.8523 54.7069 45.8518 54.9187C45.851 55.1304 45.7004 55.3017 45.5157 55.3012C45.3305 55.3007 45.1809 55.1284 45.1816 54.9169Z" fill="#005ADD"/>
<path id="Fill-188" opacity="0.85" fill-rule="evenodd" clip-rule="evenodd" d="M45.4609 56.006H45.5708V53.2739H45.4609V56.006Z" fill="#005ADD"/>
<path id="Fill-189" opacity="0.85" fill-rule="evenodd" clip-rule="evenodd" d="M43.2886 55.0528C43.3992 54.9501 43.5615 54.9351 43.6515 55.0197C43.7412 55.1043 43.7246 55.2564 43.614 55.3591C43.5037 55.4618 43.3411 55.4768 43.2514 55.3922C43.1612 55.3076 43.178 55.1555 43.2886 55.0528Z" fill="#005ADD"/>
<path id="Fill-190" opacity="0.85" fill-rule="evenodd" clip-rule="evenodd" d="M44.0367 54.2133C44.197 54.064 44.4329 54.0426 44.5631 54.1657C44.6938 54.2882 44.6694 54.5086 44.5091 54.658C44.3488 54.8073 44.1129 54.8287 43.9824 54.7061C43.8519 54.583 43.8761 54.3626 44.0367 54.2133Z" fill="#005ADD"/>
<path id="Fill-191" opacity="0.85" fill-rule="evenodd" clip-rule="evenodd" d="M43.4898 55.2421L43.4121 55.1695L45.4787 53.2375L45.5561 53.3101L43.4898 55.2421Z" fill="#005ADD"/>
<path id="Fill-192" opacity="0.85" fill-rule="evenodd" clip-rule="evenodd" d="M42.5951 53.0586C42.751 53.0591 42.8769 53.1562 42.8767 53.2754C42.8764 53.3947 42.7495 53.491 42.5938 53.4905C42.4381 53.4903 42.312 53.3932 42.3125 53.2739C42.3128 53.1547 42.4394 53.0583 42.5951 53.0586Z" fill="#005ADD"/>
<path id="Fill-193" opacity="0.85" fill-rule="evenodd" clip-rule="evenodd" d="M43.7618 52.9607C43.9881 52.9615 44.171 53.1024 44.1705 53.2754C44.17 53.4484 43.9863 53.5883 43.76 53.5878C43.5338 53.5873 43.3511 53.4464 43.3516 53.2734C43.3521 53.1001 43.5355 52.9602 43.7618 52.9607Z" fill="#005ADD"/>
<path id="Fill-194" opacity="0.85" fill-rule="evenodd" clip-rule="evenodd" d="M42.5938 53.3253H45.5162V53.2227H42.5938V53.3253Z" fill="#005ADD"/>
<path id="Fill-195" opacity="0.85" fill-rule="evenodd" clip-rule="evenodd" d="M43.6146 51.1895C43.7246 51.2927 43.7404 51.4449 43.65 51.529C43.5595 51.613 43.3972 51.5978 43.2874 51.4941C43.1773 51.3906 43.1618 51.2385 43.252 51.1544C43.3424 51.0703 43.5047 51.0861 43.6146 51.1895Z" fill="#005ADD"/>
<path id="Fill-196" opacity="0.85" fill-rule="evenodd" clip-rule="evenodd" d="M44.5119 51.8921C44.6714 52.0422 44.6943 52.2626 44.5631 52.385C44.4319 52.507 44.1962 52.4841 44.0369 52.334C43.8774 52.1842 43.8542 51.9632 43.9857 51.8414C44.1167 51.7191 44.3524 51.7418 44.5119 51.8921Z" fill="#005ADD"/>
<path id="Fill-197" opacity="0.85" fill-rule="evenodd" clip-rule="evenodd" d="M45.4784 53.3095L43.4121 51.3777L43.4896 51.3052L45.5561 53.2369L45.4784 53.3095Z" fill="#005ADD"/>
</g>
</g>
</g>
</svg>
