<svg width="110" height="80" viewBox="0 0 110 80" fill="none" xmlns="http://www.w3.org/2000/svg">
<g opacity="0.75">
<path d="M77 25L21 43.5M77 8L16 62" stroke="#141414" stroke-opacity="0.85"/>
<path d="M95.5 39.1099V13.9993L97.5 13.3887V38.4993L95.5 39.1099Z" fill="#141414" fill-opacity="0.85"/>
<path fill-rule="evenodd" clip-rule="evenodd" d="M76 2.87378L77.4579 2L97.5 13L95.5 14L76 2.87378Z" fill="#BAB6BF" fill-opacity="0.85"/>
<path opacity="0.85" d="M76 3.02093L76.035 3L95.5294 14.2645M76 3.02093V28.2314L77.7819 29.2351V27.0057L92.8363 35.7165V37.9234L95.5294 39.4737M76 3.02093L78 2.02093L78.035 2L97.5294 13.2645M95.5294 39.4737V14.2645M95.5294 39.4737L97.5294 38.4737V13.2645M95.5294 14.2645L97.5294 13.2645" stroke="#141414" stroke-opacity="0.85" stroke-width="0.7" stroke-linecap="round" stroke-linejoin="round"/>
<path fill-rule="evenodd" clip-rule="evenodd" d="M77.7812 24.907L79.2392 24.0332L93.7469 32.3987V34.1233L77.7812 24.907Z" fill="#BAB6BF" fill-opacity="0.85"/>
<path opacity="0.85" fill-rule="evenodd" clip-rule="evenodd" d="M79.2392 24.0317L79.2126 7.13542L77.7812 6.30859V24.9055L79.2392 24.0317Z" fill="#5D5668" fill-opacity="0.85"/>
<path opacity="0.85" d="M77.7812 24.9058V24.9004V6.30859M77.7812 24.9058L93.7469 15.5336M77.7812 24.9058L91.4991 32.8243L93.7469 34.1218M93.7469 34.1218L77.7812 6.30859M93.7469 34.1218V15.5336M93.7469 15.5336L77.7812 6.30859M93.7469 32.2611L78.9991 23.9995V7.01696" stroke="#141414" stroke-opacity="0.85" stroke-width="0.7" stroke-linecap="round" stroke-linejoin="round"/>
<path opacity="0.85" fill-rule="evenodd" clip-rule="evenodd" d="M77.7812 29.235L79.7238 28.1282L77.7812 27.0059V29.235Z" fill="white" fill-opacity="0.85"/>
<path opacity="0.85" fill-rule="evenodd" clip-rule="evenodd" d="M77.7812 29.235L79.7238 28.1282L77.7812 27.0059V29.235Z" stroke="#141414" stroke-opacity="0.85" stroke-width="0.7" stroke-linecap="round" stroke-linejoin="round"/>
<path d="M34 71.5L16 62L77.5 25.5L95 35L34 71.5Z" fill="#BAB6BF" fill-opacity="0.85" stroke="#141414" stroke-opacity="0.85" stroke-width="0.7" stroke-linecap="round" stroke-linejoin="round"/>
<path d="M85.9882 30.2748C85.9882 30.2597 85.9882 30.2445 85.9882 30.2294C85.9882 30.1519 85.9798 30.0156 85.9664 29.8472C85.9664 29.8405 85.9664 29.8321 85.9664 29.8253C85.9614 29.7681 85.9564 29.7058 85.9514 29.6418C85.9514 29.6267 85.948 29.6115 85.948 29.5964C85.943 29.5324 85.9363 29.4651 85.9296 29.3961C85.9296 29.3927 85.9296 29.3893 85.9296 29.386C85.9263 29.3456 85.9213 29.3052 85.9163 29.2631C85.9129 29.2378 85.9112 29.2109 85.9079 29.1873C85.8995 29.1116 85.8911 29.0341 85.8794 28.9533C85.8543 28.753 85.8259 28.5561 85.7924 28.3827C85.7891 28.3675 85.7857 28.3507 85.784 28.3355C85.7472 28.1201 85.7071 27.918 85.6719 27.7531C85.6703 27.743 85.6669 27.7312 85.6652 27.7211C85.6452 27.6319 85.6284 27.5544 85.6134 27.4938C85.5581 27.2767 85.4912 26.9838 85.4243 26.77C85.3607 26.568 85.3138 26.4148 85.2737 26.2902C85.2536 26.2246 85.2335 26.1623 85.2151 26.1017C85.1482 25.8896 85.0461 25.6101 84.9607 25.4047V25.4031C84.9607 25.3997 84.9591 25.398 84.9574 25.3946C84.8603 25.1472 84.7599 24.9132 84.6612 24.696C84.5759 24.5008 84.519 24.388 84.3901 24.1321C84.2981 23.9486 84.1726 23.7045 84.0688 23.5277C83.9483 23.3089 83.8781 23.1877 83.7509 22.9874C83.7425 22.9722 83.7325 22.9554 83.7224 22.9419C83.6137 22.7669 83.4664 22.5379 83.3493 22.3696C83.2338 22.1928 83.0681 21.9672 82.941 21.8006C82.8171 21.639 82.6531 21.4302 82.5193 21.2653C82.5176 21.2619 82.5143 21.2585 82.5126 21.2552C82.377 21.0835 82.1829 20.8646 82.034 20.7047C82.0306 20.7013 82.0256 20.6963 82.0223 20.6929C82.0206 20.6912 82.0173 20.6879 82.0156 20.6862C81.9302 20.5885 81.8231 20.4791 81.7177 20.3714C81.6441 20.2939 81.5705 20.2199 81.5052 20.1542C81.5019 20.1509 81.2927 19.9371 80.9379 19.6223C80.8425 19.533 80.7271 19.4354 80.6099 19.3395C80.5363 19.2772 80.4593 19.2149 80.379 19.1492C80.3656 19.1374 80.3506 19.1257 80.3372 19.1156C79.7816 18.6526 78.9499 18.1308 78.7508 18.0129C78.6019 17.9203 78.4262 17.821 78.2454 17.7234C78.1434 17.6678 78.043 17.6123 77.9543 17.5668C77.9141 17.5466 77.8723 17.5248 77.8288 17.5045C77.7786 17.4793 77.73 17.454 77.6832 17.4305C77.6062 17.3918 77.5209 17.3514 77.4322 17.311C77.228 17.215 77.0205 17.1207 76.8415 17.05C76.4332 16.8699 75.8692 16.678 75.4392 16.5568C75.2183 16.4945 74.9656 16.4289 74.7062 16.3666C74.6343 16.3481 74.564 16.3312 74.4971 16.3161C74.3297 16.2774 74.1456 16.242 73.9532 16.2083C73.8628 16.1915 73.7742 16.1763 73.6922 16.1646C73.58 16.1477 73.4596 16.1326 73.334 16.1174C73.0462 16.0821 72.7651 16.0518 72.5174 16.0333C71.9803 15.9895 71.2657 15.9895 70.7152 16.0299C70.5512 16.0417 70.3989 16.0535 70.2567 16.0686C70.2567 16.0686 70.2517 16.0686 70.2483 16.0686C70.1948 16.0737 70.1412 16.0787 70.091 16.0854C69.9304 16.1023 69.7547 16.1258 69.5622 16.1545C69.5489 16.1561 69.5321 16.1578 69.5187 16.1612C69.5154 16.1612 69.5104 16.1612 69.5053 16.1629C69.4836 16.1662 69.4618 16.1696 69.4418 16.173C69.3765 16.1831 69.3096 16.1949 69.2409 16.2066C69.01 16.2471 68.7607 16.2976 68.4879 16.3615C68.3022 16.4053 68.098 16.4608 67.8889 16.5214C67.8286 16.5366 67.7684 16.5534 67.7131 16.5686C67.4521 16.6393 67.1609 16.742 66.8681 16.8564C66.7242 16.9086 66.587 16.9608 66.4598 17.0113C66.2724 17.0871 66.0665 17.1797 65.8574 17.2807C65.8088 17.3025 65.7586 17.3244 65.7118 17.3446C65.4122 17.4742 65.0374 17.7032 64.7496 17.8564L31.7972 37.1195C31.4375 37.335 30.9639 37.6346 30.6275 37.8871C30.4368 38.0302 30.2176 38.1986 30.0017 38.3736C29.6787 38.6261 29.2855 38.9965 29.001 39.2877C28.6563 39.6395 28.2128 40.126 27.9167 40.52C27.592 40.924 27.2038 41.4997 26.9444 41.9492C26.9076 42.0131 26.8691 42.0805 26.8306 42.1512C26.8105 42.1848 26.7888 42.2202 26.7704 42.2539C26.516 42.6932 26.2265 43.306 26.0391 43.7773C26.024 43.8127 26.0107 43.8514 25.9956 43.8884C25.9923 43.8969 25.9889 43.9036 25.9872 43.912C25.7898 44.4238 25.5806 45.0736 25.4451 45.5786C25.3279 45.9961 25.2158 46.5667 25.1589 46.9977C25.1489 47.0667 25.1405 47.1408 25.1321 47.2148C25.1204 47.3007 25.107 47.3849 25.097 47.464C25.0401 47.8848 25.0167 48.4538 25.0016 48.878C24.9932 49.5564 25.0183 50.016 25.0568 50.4335C25.0619 50.5025 25.0685 50.5699 25.0752 50.6355C25.0786 50.6692 25.0819 50.7028 25.087 50.7365C25.0903 50.7634 25.092 50.7887 25.0953 50.8156C25.1187 51.0277 25.1522 51.2634 25.189 51.494C25.2543 51.8997 25.3179 52.2011 25.353 52.3559C25.3664 52.4132 25.3781 52.4654 25.3882 52.5074C25.4066 52.5781 25.4267 52.6589 25.4467 52.7414C25.4568 52.7835 25.4668 52.8256 25.4785 52.8677C25.4785 52.8727 25.4819 52.8778 25.4819 52.8845C25.4953 52.9384 25.5086 52.9923 25.5237 53.0444C25.5421 53.1118 25.5605 53.1757 25.5773 53.233C25.589 53.2717 25.6007 53.3054 25.6107 53.3407C25.6676 53.5259 25.7312 53.7363 25.7864 53.9013C25.7965 53.9282 25.8065 53.9602 25.8166 53.9888C25.8868 54.1976 25.9337 54.3205 26.0374 54.5898C26.0374 54.5932 26.0391 54.5949 26.0408 54.5982C26.1111 54.78 26.2081 55.0157 26.2935 55.2009C26.5662 55.812 26.8289 56.2884 26.931 56.4735C27.0264 56.6486 27.095 56.7664 27.1954 56.928C27.2875 57.0762 27.4079 57.2597 27.6121 57.5762C27.6255 57.5964 27.6372 57.6132 27.6506 57.6351C27.6506 57.6351 27.6506 57.6368 27.6523 57.6384C27.766 57.8118 27.9284 58.0324 28.0539 58.199C28.2563 58.4818 28.75 59.0727 28.9659 59.2999C28.9692 59.3033 28.9726 59.3067 28.9742 59.31C28.9776 59.3134 28.9809 59.3168 28.9826 59.3201C29.0797 59.4329 29.2085 59.5609 29.3273 59.6821C29.3842 59.741 29.4411 59.7999 29.493 59.8504C29.4963 59.8538 29.7055 60.0693 30.0603 60.3824C30.159 60.4733 30.2795 60.5743 30.3983 60.6736C30.4669 60.7308 30.5388 60.7898 30.6125 60.8487C30.6275 60.8621 30.6459 60.8756 30.661 60.8891C30.7932 60.9985 31.2852 61.3941 32.1135 61.9092C32.5218 62.1634 32.9502 62.3923 33.2999 62.5657C33.305 62.5674 33.31 62.5708 33.315 62.5725C33.32 62.5742 33.325 62.5775 33.3284 62.5792C33.5543 62.6903 33.7467 62.7779 33.8756 62.8334C33.9977 62.8856 34.1032 62.931 34.1969 62.9698C34.2521 62.9933 34.309 63.0169 34.3676 63.0405C34.55 63.1145 34.7022 63.1718 34.8897 63.2341C35.1223 63.3149 35.3565 63.3872 35.559 63.4462C35.6594 63.4748 35.7665 63.5034 35.877 63.532C35.9104 63.5421 35.9439 63.5505 35.979 63.5623C36.4208 63.6903 37.0249 63.803 37.4801 63.8636C37.6407 63.8855 37.8198 63.904 38.0038 63.9226C38.0524 63.9276 38.1009 63.9327 38.1511 63.936C38.1544 63.936 38.1578 63.936 38.1611 63.936C38.5627 63.9731 38.9727 63.9966 39.3191 64C39.4028 64 39.4898 64 39.5802 64C40.3432 63.9916 40.9607 63.9158 41.3523 63.8603C41.3623 63.8603 41.374 63.8586 41.3841 63.8569C41.7271 63.8182 42.1806 63.7307 42.5136 63.6414C42.609 63.6162 42.7111 63.5876 42.8131 63.5589C42.9805 63.5169 43.1428 63.4731 43.2901 63.4344C43.5712 63.3586 43.8858 63.2458 44.2021 63.1196C44.3209 63.0758 44.438 63.0337 44.5451 62.99C44.7325 62.9142 44.9383 62.8216 45.1475 62.7206C45.196 62.6987 45.2462 62.6768 45.2931 62.6566C45.5926 62.527 45.9675 62.2981 46.2553 62.1449L49.085 60.4901C49.4431 60.2814 49.8046 60.0693 50.1694 59.8555L52.4217 58.5391C53.1095 58.1367 53.8056 57.7293 54.5068 57.3203L55.9308 56.4887C56.1785 56.3439 56.4261 56.1991 56.6738 56.0544L59.6976 54.2868C60.5109 53.8121 61.3258 53.3357 62.1424 52.8576L65.757 50.7449C66.771 50.1524 67.7801 49.5632 68.7808 48.9774L69.5237 48.543C70.0007 48.2636 70.4759 47.9875 70.9478 47.7114L73.0328 46.4927C73.7942 46.0482 74.5456 45.6072 75.2852 45.1762L76.3696 44.5416C77.3385 43.976 78.2823 43.4238 79.1993 42.8868C79.621 42.6293 80.1765 42.2707 80.5698 41.9711C80.5999 41.9475 80.6334 41.9222 80.6652 41.8987C80.7773 41.8145 80.8844 41.7303 80.9814 41.6462C80.9865 41.6428 80.9915 41.6377 80.9948 41.6344C81.2927 41.3903 81.6023 41.1176 81.8382 40.8785C81.8918 40.8247 81.9486 40.7657 82.0055 40.7068C82.0624 40.6513 82.1177 40.5974 82.1695 40.5452C82.3938 40.3213 82.6749 40.0032 82.8707 39.7523C82.9259 39.6833 82.9828 39.6076 83.0414 39.5318C83.1083 39.4493 83.1736 39.3685 83.2321 39.2911C83.4045 39.0689 83.5902 38.7945 83.7676 38.5184C83.786 38.4898 83.8061 38.4612 83.8245 38.4342C83.9668 38.2221 84.1291 37.9393 84.2646 37.6919C84.3834 37.4764 84.5073 37.2357 84.6244 36.9882C84.6411 36.9512 84.6595 36.9158 84.6763 36.8788C84.7633 36.6919 84.847 36.5051 84.9206 36.3283V36.3249C84.9591 36.2324 84.9959 36.1431 85.0294 36.0573C85.0628 35.9714 85.0963 35.8788 85.1298 35.7829C85.2184 35.5422 85.3021 35.2981 85.3791 35.0523C85.4377 34.8604 85.4962 34.6415 85.5498 34.416C85.5749 34.3267 85.5983 34.2409 85.6201 34.1584C85.7071 33.8402 85.7874 33.4127 85.8326 33.0726C85.8727 32.8151 85.9012 32.512 85.9313 32.2747C85.9665 31.9952 85.9849 31.6182 85.9916 31.337C85.9916 31.2916 85.9932 31.2428 85.9949 31.1939C85.9949 31.1737 85.9966 31.1519 85.9966 31.1317C86.0049 30.8808 85.9966 30.5644 85.9865 30.2849L85.9882 30.2748Z" fill="white" stroke="#141414" stroke-opacity="0.85" stroke-width="0.7" stroke-linecap="round" stroke-linejoin="round"/>
<path d="M49.9275 60.0002C51.8193 58.9648 52.9921 56.762 52.9999 53.634C53.0194 47.3321 48.3163 39.659 42.4969 36.4942C39.5687 34.9009 36.4151 34.4521 34.5 35.5002" stroke="#141414" stroke-opacity="0.85" stroke-width="0.7" stroke-linecap="round" stroke-linejoin="round"/>
<path d="M75.4275 45.0666C77.3193 44.0312 78.4921 41.8284 78.4999 38.7004C78.5194 32.3985 73.8163 24.7254 67.9969 21.5606C65.0687 19.9673 61.9151 19.5185 60 20.5667" stroke="#141414" stroke-opacity="0.85" stroke-width="0.7" stroke-linecap="round" stroke-linejoin="round"/>
<path d="M34.5 51.5L32 49.5L93.5 13L95.5 14.5L34.5 51.5Z" fill="#BAB6BF" fill-opacity="0.85"/>
<path d="M34.5 54.5V51.5L95.5 14.5V17.5L34.5 54.5Z" fill="#141414" fill-opacity="0.85"/>
<path d="M32.5 77.4993V52.3887L34.5 51.3887V76.4993L32.5 77.4993Z" fill="#141414" fill-opacity="0.85"/>
<path d="M34 74.5V71.5L95.5 34.5V37.5L34 74.5Z" fill="#141414" fill-opacity="0.85"/>
<path d="M95.5 14.5L34.5 51.4669V54.8532M95.5 14.5V17.5M95.5 14.5L93 13L32 49.5M34.5 54.8532V74.4338L95.5 37.3357V17.5M34.5 54.8532L95.5 17.5M34.5 71.8532L95.5 34.5" stroke="#141414" stroke-opacity="0.85" stroke-width="0.7" stroke-linecap="round" stroke-linejoin="round"/>
<path d="M34.5 55L95.5 34.5M95.5 17.5L34.5 71.5" stroke="#141414" stroke-opacity="0.85"/>
<path d="M17.5 41.5L15 39.5L76.5 3L78.5 4.5L17.5 41.5Z" fill="#BAB6BF" fill-opacity="0.85"/>
<path d="M20.5 43L17.5 41.5L78.5 4.5V7.5L20.5 43Z" fill="#141414" fill-opacity="0.85"/>
<path d="M78.5 4.5L17.5 41.5L20 43L78.5 7.5V4.5ZM78.5 4.5L76 3L15 40" stroke="#141414" stroke-opacity="0.85" stroke-width="0.7" stroke-linecap="round" stroke-linejoin="round"/>
<path fill-rule="evenodd" clip-rule="evenodd" d="M13 40.8738L14.4579 40L34.5 51L32.5 52L13 40.8738Z" fill="#BAB6BF" fill-opacity="0.85"/>
<path opacity="0.85" fill-rule="evenodd" clip-rule="evenodd" d="M62 50.2503L68 46.5V41L62 44.5028L62 50.2503Z" fill="#141414" fill-opacity="0.85"/>
<path opacity="0.85" fill-rule="evenodd" clip-rule="evenodd" d="M62.3438 49.5L67.8345 46.0038V41.5L62.3438 44.8172V49.5Z" fill="#FFBE4A" fill-opacity="0.85"/>
<path opacity="0.85" fill-rule="evenodd" clip-rule="evenodd" d="M64.1719 44.2978L64.8168 43.9121V47.3269L64.1719 47.7683V44.2978Z" fill="#141414" fill-opacity="0.85"/>
<path opacity="0.85" fill-rule="evenodd" clip-rule="evenodd" d="M65.666 43.4004L66.3514 42.9902V44.9571H65.666V43.4004Z" fill="#141414" fill-opacity="0.85"/>
<path opacity="0.85" fill-rule="evenodd" clip-rule="evenodd" d="M63.9517 44.4292L62.8262 47.2103L63.7328 46.6401L64.5354 44.6663V44.0801L63.9517 44.4292Z" fill="#141414" fill-opacity="0.85"/>
<path opacity="0.85" fill-rule="evenodd" clip-rule="evenodd" d="M62.8262 47.2102L65.2909 45.6602V46.4288L62.8351 47.9914L62.8262 47.2102Z" fill="#141414" fill-opacity="0.85"/>
<path opacity="0.85" fill-rule="evenodd" clip-rule="evenodd" d="M65.666 43.4004L67.3569 42.3906V43.2278L65.666 44.2121V43.4004Z" fill="#141414" fill-opacity="0.85"/>
<path opacity="0.85" fill-rule="evenodd" clip-rule="evenodd" d="M66.6582 45.6129H67.3575V44.3496H66.6582V45.6129Z" fill="#141414" fill-opacity="0.85"/>
<path opacity="0.85" fill-rule="evenodd" clip-rule="evenodd" d="M65.666 44.6921L67.3569 43.6602V44.4252L65.666 45.499V44.6921Z" fill="#141414" fill-opacity="0.85"/>
<path opacity="0.85" fill-rule="evenodd" clip-rule="evenodd" d="M65.666 45.9682L67.3569 44.8457V45.6936L65.666 46.7922V45.9682Z" fill="#141414" fill-opacity="0.85"/>
<path opacity="0.85" d="M13 41.0209L13.035 41L32.5294 52.2645M13 41.0209V66.2314L14.7819 67.2351V65.0057L29.8363 73.7165V75.9234L32.5294 77.4737M13 41.0209L15 40.0209L15.035 40L34.5294 51.2645M32.5294 77.4737V52.2645M32.5294 77.4737L34.5294 76.4737V51.2645M32.5294 52.2645L34.5294 51.2645" stroke="#141414" stroke-opacity="0.85" stroke-width="0.7" stroke-linecap="round" stroke-linejoin="round"/>
<path fill-rule="evenodd" clip-rule="evenodd" d="M14.7812 62.907L16.2392 62.0332L30.7469 70.3987V72.1233L14.7812 62.907Z" fill="#BAB6BF" fill-opacity="0.85"/>
<path opacity="0.85" fill-rule="evenodd" clip-rule="evenodd" d="M16.2392 62.0317L16.2126 45.1354L14.7812 44.3086V62.9055L16.2392 62.0317Z" fill="#5D5668" fill-opacity="0.85"/>
<path opacity="0.85" d="M14.7812 62.9058V62.9004V44.3086M14.7812 62.9058L30.7469 53.5336M14.7812 62.9058L28.4991 70.8243M30.7469 72.1218L14.7812 44.3086M30.7469 72.1218L28.4991 70.8243M30.7469 72.1218V67.4747M30.7469 53.5336L28.4991 52.2348M30.7469 53.5336V58.1806M14.7812 44.3086L28.4991 52.2348M30.7469 70.2611L15.9991 61.9995V45.017M28.4991 52.2348V56.8822M28.4991 70.8243V66.1769M28.4991 61.5295L30.7469 62.8277M28.4991 61.5295V56.8822M28.4991 61.5295V66.1769M30.7469 62.8277V58.1806M30.7469 62.8277V67.4747M28.4991 56.8822L30.7469 58.1806M28.4991 66.1769L30.7469 67.4747" stroke="#141414" stroke-opacity="0.85" stroke-width="0.7" stroke-linecap="round" stroke-linejoin="round"/>
<path opacity="0.85" fill-rule="evenodd" clip-rule="evenodd" d="M14.7812 67.235L16.7238 66.1282L14.7812 65.0059V67.235Z" fill="white" fill-opacity="0.85"/>
<path opacity="0.85" fill-rule="evenodd" clip-rule="evenodd" d="M14.7812 67.235L16.7238 66.1282L14.7812 65.0059V67.235Z" stroke="#141414" stroke-opacity="0.85" stroke-width="0.7" stroke-linecap="round" stroke-linejoin="round"/>
</g>
</svg>
