<svg width="86" height="77" viewBox="0 0 86 77" fill="none" xmlns="http://www.w3.org/2000/svg">
<g id="Group 1000003649">
<path id="Vector 414" d="M65 24L9 42.5M65 7L4 61" stroke="#54555A"/>
<path id="Vector 413" d="M83.5 38.1106V13L85.5 12.3894V37.5L83.5 38.1106Z" fill="#54555A"/>
<path id="Fill-11" fill-rule="evenodd" clip-rule="evenodd" d="M64 1.87378L65.4579 1L85.5 12L83.5 13L64 1.87378Z" fill="#E1E2EC"/>
<g id="Group 1000003642">
<path id="Subtract" fill-rule="evenodd" clip-rule="evenodd" d="M64 2V27.1L65.6 28V26L81 35V37L83.5 38.5V13L64 2ZM66 5.5L81.5 14.5V33L66 24V5.5Z" fill="#E1E2EC"/>
<path id="Stroke-4" d="M64 2.02093L64.035 2L83.5294 13.2645M64 2.02093V27.2314L65.7819 28.2351V26.0057L80.8363 34.7165V36.9234L83.5294 38.4737M64 2.02093L66 1.02093L66.035 1L85.5294 12.2645M83.5294 38.4737V13.2645M83.5294 38.4737L85.5294 37.4737V12.2645M83.5294 13.2645L85.5294 12.2645" stroke="#54555A" stroke-width="0.7" stroke-linecap="round" stroke-linejoin="round"/>
<path id="Fill-11_2" fill-rule="evenodd" clip-rule="evenodd" d="M65.7812 23.9067L67.2392 23.033L81.7469 31.3984V33.123L65.7812 23.9067Z" fill="#C5C6D0"/>
<path id="Fill-12" fill-rule="evenodd" clip-rule="evenodd" d="M67.2392 23.0322L67.2126 6.13591L65.7812 5.30908V23.906L67.2392 23.0322Z" fill="#1A1B21" fill-opacity="0.16"/>
<path id="Stroke-93" d="M65.7812 23.9062V23.9009V5.30908M65.7812 23.9062L81.7469 14.534M65.7812 23.9062L79.4991 31.8248L81.7469 33.1223M81.7469 33.1223L65.7812 5.30908M81.7469 33.1223V14.534M81.7469 14.534L65.7812 5.30908M81.7469 31.2616L66.9991 23V6.01745" stroke="#54555A" stroke-width="0.7" stroke-linecap="round" stroke-linejoin="round"/>
<path id="Fill-96" fill-rule="evenodd" clip-rule="evenodd" d="M65.7812 28.2345L67.7238 27.1277L65.7812 26.0054V28.2345Z" fill="#E1E2EC"/>
<path id="Stroke-97" fill-rule="evenodd" clip-rule="evenodd" d="M65.7812 28.2345L67.7238 27.1277L65.7812 26.0054V28.2345Z" stroke="#54555A" stroke-width="0.7" stroke-linecap="round" stroke-linejoin="round"/>
</g>
<path id="Vector 412" d="M22 70.5L4 61L65.5 24.5L83 34L22 70.5Z" fill="#C5C6D0" stroke="#54555A" stroke-width="0.7" stroke-linecap="round" stroke-linejoin="round"/>
<path id="Vector" d="M73.9882 29.2748C73.9882 29.2597 73.9882 29.2445 73.9882 29.2294C73.9882 29.1519 73.9798 29.0156 73.9664 28.8472C73.9664 28.8405 73.9664 28.8321 73.9664 28.8253C73.9614 28.7681 73.9564 28.7058 73.9514 28.6418C73.9514 28.6267 73.948 28.6115 73.948 28.5964C73.943 28.5324 73.9363 28.4651 73.9296 28.3961C73.9296 28.3927 73.9296 28.3893 73.9296 28.386C73.9263 28.3456 73.9213 28.3052 73.9163 28.2631C73.9129 28.2378 73.9112 28.2109 73.9079 28.1873C73.8995 28.1116 73.8911 28.0341 73.8794 27.9533C73.8543 27.753 73.8259 27.5561 73.7924 27.3827C73.7891 27.3675 73.7857 27.3507 73.784 27.3355C73.7472 27.1201 73.7071 26.918 73.6719 26.7531C73.6703 26.743 73.6669 26.7312 73.6652 26.7211C73.6452 26.6319 73.6284 26.5544 73.6134 26.4938C73.5581 26.2767 73.4912 25.9838 73.4243 25.77C73.3607 25.568 73.3138 25.4148 73.2737 25.2902C73.2536 25.2246 73.2335 25.1623 73.2151 25.1017C73.1482 24.8896 73.0461 24.6101 72.9607 24.4047V24.4031C72.9607 24.3997 72.9591 24.398 72.9574 24.3946C72.8603 24.1472 72.7599 23.9132 72.6612 23.696C72.5759 23.5008 72.519 23.388 72.3901 23.1321C72.2981 22.9486 72.1726 22.7045 72.0688 22.5277C71.9483 22.3089 71.8781 22.1877 71.7509 21.9874C71.7425 21.9722 71.7325 21.9554 71.7224 21.9419C71.6137 21.7669 71.4664 21.5379 71.3493 21.3696C71.2338 21.1928 71.0681 20.9672 70.941 20.8006C70.8171 20.639 70.6531 20.4302 70.5193 20.2653C70.5176 20.2619 70.5143 20.2585 70.5126 20.2552C70.377 20.0835 70.1829 19.8646 70.034 19.7047C70.0306 19.7013 70.0256 19.6963 70.0223 19.6929C70.0206 19.6912 70.0173 19.6879 70.0156 19.6862C69.9302 19.5885 69.8231 19.4791 69.7177 19.3714C69.6441 19.2939 69.5705 19.2199 69.5052 19.1542C69.5019 19.1509 69.2927 18.9371 68.9379 18.6223C68.8425 18.533 68.7271 18.4354 68.6099 18.3395C68.5363 18.2772 68.4593 18.2149 68.379 18.1492C68.3656 18.1374 68.3506 18.1257 68.3372 18.1156C67.7816 17.6526 66.9499 17.1308 66.7508 17.0129C66.6019 16.9203 66.4262 16.821 66.2454 16.7234C66.1434 16.6678 66.043 16.6123 65.9543 16.5668C65.9141 16.5466 65.8723 16.5248 65.8288 16.5045C65.7786 16.4793 65.73 16.454 65.6832 16.4305C65.6062 16.3918 65.5209 16.3514 65.4322 16.311C65.228 16.215 65.0205 16.1207 64.8415 16.05C64.4332 15.8699 63.8692 15.678 63.4392 15.5568C63.2183 15.4945 62.9656 15.4289 62.7062 15.3666C62.6343 15.3481 62.564 15.3312 62.4971 15.3161C62.3297 15.2774 62.1456 15.242 61.9532 15.2083C61.8628 15.1915 61.7742 15.1763 61.6922 15.1646C61.58 15.1477 61.4596 15.1326 61.334 15.1174C61.0462 15.0821 60.7651 15.0518 60.5174 15.0333C59.9803 14.9895 59.2657 14.9895 58.7152 15.0299C58.5512 15.0417 58.3989 15.0535 58.2567 15.0686C58.2567 15.0686 58.2517 15.0686 58.2483 15.0686C58.1948 15.0737 58.1412 15.0787 58.091 15.0854C57.9304 15.1023 57.7547 15.1258 57.5622 15.1545C57.5489 15.1561 57.5321 15.1578 57.5187 15.1612C57.5154 15.1612 57.5104 15.1612 57.5053 15.1629C57.4836 15.1662 57.4618 15.1696 57.4418 15.173C57.3765 15.1831 57.3096 15.1949 57.2409 15.2066C57.01 15.2471 56.7607 15.2976 56.4879 15.3615C56.3022 15.4053 56.098 15.4608 55.8889 15.5214C55.8286 15.5366 55.7684 15.5534 55.7131 15.5686C55.4521 15.6393 55.1609 15.742 54.8681 15.8564C54.7242 15.9086 54.587 15.9608 54.4598 16.0113C54.2724 16.0871 54.0665 16.1797 53.8574 16.2807C53.8088 16.3025 53.7586 16.3244 53.7118 16.3446C53.4122 16.4742 53.0374 16.7032 52.7496 16.8564L19.7972 36.1195C19.4375 36.335 18.9639 36.6346 18.6275 36.8871C18.4368 37.0302 18.2176 37.1986 18.0017 37.3736C17.6787 37.6261 17.2855 37.9965 17.001 38.2877C16.6563 38.6395 16.2128 39.126 15.9167 39.52C15.592 39.924 15.2038 40.4997 14.9444 40.9492C14.9076 41.0131 14.8691 41.0805 14.8306 41.1512C14.8105 41.1848 14.7888 41.2202 14.7704 41.2539C14.516 41.6932 14.2265 42.306 14.0391 42.7773C14.024 42.8127 14.0107 42.8514 13.9956 42.8884C13.9923 42.8969 13.9889 42.9036 13.9872 42.912C13.7898 43.4238 13.5806 44.0736 13.4451 44.5786C13.3279 44.9961 13.2158 45.5667 13.1589 45.9977C13.1489 46.0667 13.1405 46.1408 13.1321 46.2148C13.1204 46.3007 13.107 46.3849 13.097 46.464C13.0401 46.8848 13.0167 47.4538 13.0016 47.878C12.9932 48.5564 13.0183 49.016 13.0568 49.4335C13.0619 49.5025 13.0685 49.5699 13.0752 49.6355C13.0786 49.6692 13.0819 49.7028 13.087 49.7365C13.0903 49.7634 13.092 49.7887 13.0953 49.8156C13.1187 50.0277 13.1522 50.2634 13.189 50.494C13.2543 50.8997 13.3179 51.2011 13.353 51.3559C13.3664 51.4132 13.3781 51.4654 13.3882 51.5074C13.4066 51.5781 13.4267 51.6589 13.4467 51.7414C13.4568 51.7835 13.4668 51.8256 13.4785 51.8677C13.4785 51.8727 13.4819 51.8778 13.4819 51.8845C13.4953 51.9384 13.5086 51.9923 13.5237 52.0444C13.5421 52.1118 13.5605 52.1757 13.5773 52.233C13.589 52.2717 13.6007 52.3054 13.6107 52.3407C13.6676 52.5259 13.7312 52.7363 13.7864 52.9013C13.7965 52.9282 13.8065 52.9602 13.8166 52.9888C13.8868 53.1976 13.9337 53.3205 14.0374 53.5898C14.0374 53.5932 14.0391 53.5949 14.0408 53.5982C14.1111 53.78 14.2081 54.0157 14.2935 54.2009C14.5662 54.812 14.8289 55.2884 14.931 55.4735C15.0264 55.6486 15.095 55.7664 15.1954 55.928C15.2875 56.0762 15.4079 56.2597 15.6121 56.5762C15.6255 56.5964 15.6372 56.6132 15.6506 56.6351C15.6506 56.6351 15.6506 56.6368 15.6523 56.6384C15.766 56.8118 15.9284 57.0324 16.0539 57.199C16.2563 57.4818 16.75 58.0727 16.9659 58.2999C16.9692 58.3033 16.9726 58.3067 16.9742 58.31C16.9776 58.3134 16.9809 58.3168 16.9826 58.3201C17.0797 58.4329 17.2085 58.5609 17.3273 58.6821C17.3842 58.741 17.4411 58.7999 17.493 58.8504C17.4963 58.8538 17.7055 59.0693 18.0603 59.3824C18.159 59.4733 18.2795 59.5743 18.3983 59.6736C18.4669 59.7308 18.5388 59.7898 18.6125 59.8487C18.6275 59.8621 18.6459 59.8756 18.661 59.8891C18.7932 59.9985 19.2852 60.3941 20.1135 60.9092C20.5218 61.1634 20.9502 61.3923 21.2999 61.5657C21.305 61.5674 21.31 61.5708 21.315 61.5725C21.32 61.5742 21.325 61.5775 21.3284 61.5792C21.5543 61.6903 21.7467 61.7779 21.8756 61.8334C21.9977 61.8856 22.1032 61.931 22.1969 61.9698C22.2521 61.9933 22.309 62.0169 22.3676 62.0405C22.55 62.1145 22.7022 62.1718 22.8897 62.2341C23.1223 62.3149 23.3565 62.3872 23.559 62.4462C23.6594 62.4748 23.7665 62.5034 23.877 62.532C23.9104 62.5421 23.9439 62.5505 23.979 62.5623C24.4208 62.6903 25.0249 62.803 25.4801 62.8636C25.6407 62.8855 25.8198 62.904 26.0038 62.9226C26.0524 62.9276 26.1009 62.9327 26.1511 62.936C26.1544 62.936 26.1578 62.936 26.1611 62.936C26.5627 62.9731 26.9727 62.9966 27.3191 63C27.4028 63 27.4898 63 27.5802 63C28.3432 62.9916 28.9607 62.9158 29.3523 62.8603C29.3623 62.8603 29.374 62.8586 29.3841 62.8569C29.7271 62.8182 30.1806 62.7307 30.5136 62.6414C30.609 62.6162 30.7111 62.5876 30.8131 62.5589C30.9805 62.5169 31.1428 62.4731 31.2901 62.4344C31.5712 62.3586 31.8858 62.2458 32.2021 62.1196C32.3209 62.0758 32.438 62.0337 32.5451 61.99C32.7325 61.9142 32.9383 61.8216 33.1475 61.7206C33.196 61.6987 33.2462 61.6768 33.2931 61.6566C33.5926 61.527 33.9675 61.2981 34.2553 61.1449L37.085 59.4901C37.4431 59.2814 37.8046 59.0693 38.1694 58.8555L40.4217 57.5391C41.1095 57.1367 41.8056 56.7293 42.5068 56.3203L43.9308 55.4887C44.1785 55.3439 44.4261 55.1991 44.6738 55.0544L47.6976 53.2868C48.5109 52.8121 49.3258 52.3357 50.1424 51.8576L53.757 49.7449C54.771 49.1524 55.7801 48.5632 56.7808 47.9774L57.5237 47.543C58.0007 47.2636 58.4759 46.9875 58.9478 46.7114L61.0328 45.4927C61.7942 45.0482 62.5456 44.6072 63.2852 44.1762L64.3696 43.5416C65.3385 42.976 66.2823 42.4238 67.1993 41.8868C67.621 41.6293 68.1765 41.2707 68.5698 40.9711C68.5999 40.9475 68.6334 40.9222 68.6652 40.8987C68.7773 40.8145 68.8844 40.7303 68.9814 40.6462C68.9865 40.6428 68.9915 40.6377 68.9948 40.6344C69.2927 40.3903 69.6023 40.1176 69.8382 39.8785C69.8918 39.8247 69.9486 39.7657 70.0055 39.7068C70.0624 39.6513 70.1177 39.5974 70.1695 39.5452C70.3938 39.3213 70.6749 39.0032 70.8707 38.7523C70.9259 38.6833 70.9828 38.6076 71.0414 38.5318C71.1083 38.4493 71.1736 38.3685 71.2321 38.2911C71.4045 38.0689 71.5902 37.7945 71.7676 37.5184C71.786 37.4898 71.8061 37.4612 71.8245 37.4342C71.9668 37.2221 72.1291 36.9393 72.2646 36.6919C72.3834 36.4764 72.5073 36.2357 72.6244 35.9882C72.6411 35.9512 72.6595 35.9158 72.6763 35.8788C72.7633 35.6919 72.847 35.5051 72.9206 35.3283V35.3249C72.9591 35.2324 72.9959 35.1431 73.0294 35.0573C73.0628 34.9714 73.0963 34.8788 73.1298 34.7829C73.2184 34.5422 73.3021 34.2981 73.3791 34.0523C73.4377 33.8604 73.4962 33.6415 73.5498 33.416C73.5749 33.3267 73.5983 33.2409 73.6201 33.1584C73.7071 32.8402 73.7874 32.4127 73.8326 32.0726C73.8727 31.8151 73.9012 31.512 73.9313 31.2747C73.9665 30.9952 73.9849 30.6182 73.9916 30.337C73.9916 30.2916 73.9932 30.2428 73.9949 30.1939C73.9949 30.1737 73.9966 30.1519 73.9966 30.1317C74.0049 29.8808 73.9966 29.5644 73.9865 29.2849L73.9882 29.2748Z" fill="white" stroke="#54555A" stroke-width="0.7" stroke-linecap="round" stroke-linejoin="round"/>
<path id="Vector_2" d="M37.9275 58.9999C39.8193 57.9646 40.9921 55.7618 40.9999 52.6338C41.0194 46.3319 36.3163 38.6587 30.4969 35.494C27.5687 33.9006 24.4151 33.4518 22.5 34.5" stroke="#54555A" stroke-width="0.7" stroke-linecap="round" stroke-linejoin="round"/>
<path id="Vector_3" d="M63.4275 44.0666C65.3193 43.0312 66.4921 40.8284 66.4999 37.7004C66.5194 31.3985 61.8163 23.7254 55.9969 20.5606C53.0687 18.9673 49.9151 18.5185 48 19.5667" stroke="#54555A" stroke-width="0.7" stroke-linecap="round" stroke-linejoin="round"/>
<g id="Group 1000003643">
<path id="Vector 409" d="M22.5 50.5L20 48.5L81.5 12L83.5 13.5L22.5 50.5Z" fill="#E1E2EC"/>
<path id="Vector 410" d="M22.5 53.5V50.5L83.5 13.5V16.5L22.5 53.5Z" fill="#54555A"/>
<path id="Vector 412_2" d="M20.5 76.5V51.3895L22.5 50.3894V75.5L20.5 76.5Z" fill="#54555A"/>
<path id="Vector 411" d="M22 73.5V70.5L83.5 33.5V36.5L22 73.5Z" fill="#54555A"/>
<path id="Fill-7" d="M83.5 13.5L22.5 50.4669V53.8532M83.5 13.5V16.5M83.5 13.5L81 12L20 48.5M22.5 53.8532V73.4338L83.5 36.3357V16.5M22.5 53.8532L83.5 16.5M22.5 70.8532L83.5 33.5" stroke="#54555A" stroke-width="0.7" stroke-linecap="round" stroke-linejoin="round"/>
<path id="Vector 414_2" d="M22.5 54L83.5 33.5M83.5 16.5L22.5 70.5" stroke="#54555A"/>
</g>
<g id="Group 1000003644">
<path id="Vector 409_2" d="M5.5 40.5L3 39L64.5 2L66.5 3.5L5.5 40.5Z" fill="#E1E2EC"/>
<path id="Vector 410_2" d="M8.5 42L5.5 40.5L66.5 3.5V6.5L8.5 42Z" fill="#54555A"/>
<path id="Fill-7_2" d="M66.5 3.5L5.5 40.5L8 42L66.5 6.5V3.5ZM66.5 3.5L64 2L3 39" stroke="#54555A" stroke-width="0.7" stroke-linecap="round" stroke-linejoin="round"/>
</g>
<path id="Fill-11_3" fill-rule="evenodd" clip-rule="evenodd" d="M1 39.8738L2.45793 39L22.5 50L20.5 51L1 39.8738Z" fill="#E1E2EC"/>
<g id="Group 1000003645">
<path id="Fill-155" opacity="0.85" fill-rule="evenodd" clip-rule="evenodd" d="M50 49.2503L56 45.5V40L50 43.5028L50 49.2503Z" fill="#54555A"/>
<g id="Group 1000003631">
<path id="Fill-157" opacity="0.85" fill-rule="evenodd" clip-rule="evenodd" d="M50.3438 48.5L55.8345 45.0038V40.5L50.3438 43.8172V48.5Z" fill="#FFBE4A" fill-opacity="0.85"/>
<path id="Fill-158" fill-rule="evenodd" clip-rule="evenodd" d="M52.1719 43.2971L52.8168 42.9114V46.3261L52.1719 46.7676V43.2971Z" fill="#54555A"/>
<path id="Fill-159" fill-rule="evenodd" clip-rule="evenodd" d="M53.666 42.4004L54.3514 41.9902V43.9571H53.666V42.4004Z" fill="#54555A"/>
<path id="Fill-160" fill-rule="evenodd" clip-rule="evenodd" d="M51.9517 43.4282L50.8262 46.2093L51.7328 45.6392L52.5354 43.6654V43.0791L51.9517 43.4282Z" fill="#54555A"/>
<path id="Fill-161" fill-rule="evenodd" clip-rule="evenodd" d="M50.8262 46.2095L53.2909 44.6594V45.4281L50.8351 46.9907L50.8262 46.2095Z" fill="#54555A"/>
<path id="Fill-162" fill-rule="evenodd" clip-rule="evenodd" d="M53.666 42.4002L55.3569 41.3904V42.2275L53.666 43.2119V42.4002Z" fill="#54555A"/>
<path id="Fill-163" fill-rule="evenodd" clip-rule="evenodd" d="M54.6582 44.6122H55.3575V43.3489H54.6582V44.6122Z" fill="#54555A"/>
<path id="Fill-164" fill-rule="evenodd" clip-rule="evenodd" d="M53.666 43.6928L55.3569 42.6609V43.426L53.666 44.4997V43.6928Z" fill="#54555A"/>
<path id="Fill-165" fill-rule="evenodd" clip-rule="evenodd" d="M53.666 44.9677L55.3569 43.8452V44.6931L53.666 45.7917V44.9677Z" fill="#54555A"/>
</g>
</g>
<g id="Group 1000003641">
<path id="Subtract_2" fill-rule="evenodd" clip-rule="evenodd" d="M1 40V65.1L2.6 66V64L18 73V75L20.5 76.5V51L1 40ZM3 43.5L18.5 52.5V71L3 62V43.5Z" fill="#E1E2EC"/>
<path id="Stroke-4_2" d="M1 40.0209L1.035 40L20.5294 51.2645M1 40.0209V65.2314L2.78185 66.2351V64.0057L17.8363 72.7165V74.9234L20.5294 76.4737M1 40.0209L3 39.0209L3.035 39L22.5294 50.2645M20.5294 76.4737V51.2645M20.5294 76.4737L22.5294 75.4737V50.2645M20.5294 51.2645L22.5294 50.2645" stroke="#54555A" stroke-width="0.7" stroke-linecap="round" stroke-linejoin="round"/>
<path id="Fill-11_4" fill-rule="evenodd" clip-rule="evenodd" d="M2.78125 61.9067L4.23918 61.033L18.7469 69.3984V71.123L2.78125 61.9067Z" fill="#C5C6D0"/>
<path id="Fill-12_2" fill-rule="evenodd" clip-rule="evenodd" d="M4.23917 61.0322L4.21261 44.1359L2.78125 43.3091V61.906L4.23917 61.0322Z" fill="#1A1B21" fill-opacity="0.16"/>
<path id="Stroke-93_2" d="M2.78125 61.9062V61.9009V43.3091M2.78125 61.9062L18.7469 52.534M2.78125 61.9062L16.4991 69.8248M18.7469 71.1223L2.78125 43.3091M18.7469 71.1223L16.4991 69.8248M18.7469 71.1223V66.4752M18.7469 52.534L16.4991 51.2353M18.7469 52.534V57.1811M2.78125 43.3091L16.4991 51.2353M18.7469 69.2616L3.99913 61V44.0175M16.4991 51.2353V55.8827M16.4991 69.8248V65.1774M16.4991 60.53L18.7469 61.8282M16.4991 60.53V55.8827M16.4991 60.53V65.1774M18.7469 61.8282V57.1811M18.7469 61.8282V66.4752M16.4991 55.8827L18.7469 57.1811M16.4991 65.1774L18.7469 66.4752" stroke="#54555A" stroke-width="0.7" stroke-linecap="round" stroke-linejoin="round"/>
<path id="Fill-96_2" fill-rule="evenodd" clip-rule="evenodd" d="M2.78125 66.2345L4.72379 65.1277L2.78125 64.0054V66.2345Z" fill="#E1E2EC"/>
<path id="Stroke-97_2" fill-rule="evenodd" clip-rule="evenodd" d="M2.78125 66.2345L4.72379 65.1277L2.78125 64.0054V66.2345Z" stroke="#54555A" stroke-width="0.7" stroke-linecap="round" stroke-linejoin="round"/>
</g>
</g>
</svg>
