<svg width="70" height="65" viewBox="0 0 70 65" fill="none" xmlns="http://www.w3.org/2000/svg">
<g id="empty-img-default">
<g id="Group">
<path id="Vector" d="M29.6375 64.5813C45.7297 64.5813 58.7751 62.1593 58.7751 59.1715C58.7751 56.1838 45.7297 53.7617 29.6375 53.7617C13.5453 53.7617 0.5 56.1838 0.5 59.1715C0.5 62.1593 13.5453 64.5813 29.6375 64.5813Z" fill="#F5F5F7" fill-opacity="0.8"/>
<path id="Vector_2" fill-rule="evenodd" clip-rule="evenodd" d="M52.9472 43.2786L42.6648 30.7042C42.1715 30.1123 41.4503 29.754 40.6909 29.754H18.5832C17.8242 29.754 17.103 30.1123 16.6097 30.7042L6.3277 43.2786V49.8478H52.9477V43.2786H52.9472Z" fill="#AEB8C2"/>
<path id="Vector_3" fill-rule="evenodd" clip-rule="evenodd" d="M15.0393 13.5245H44.2353C44.6912 13.5245 45.1285 13.7045 45.4509 14.0249C45.7733 14.3452 45.9544 14.7797 45.9544 15.2327V55.0949C45.9544 55.5479 45.7733 55.9824 45.4509 56.3027C45.1285 56.6231 44.6912 56.8031 44.2353 56.8031H15.0393C14.5834 56.8031 14.1461 56.6231 13.8237 56.3027C13.5013 55.9824 13.3202 55.5479 13.3202 55.0949V15.2327C13.3202 14.7797 13.5013 14.3452 13.8237 14.0249C14.1461 13.7045 14.5834 13.5245 15.0393 13.5245V13.5245Z" fill="#F5F5F7"/>
<path id="Vector_4" fill-rule="evenodd" clip-rule="evenodd" d="M18.842 17.7749H40.4327C40.6606 17.7749 40.8792 17.8649 41.0404 18.0251C41.2016 18.1852 41.2922 18.4025 41.2922 18.629V29.2868C41.2922 29.5133 41.2016 29.7305 41.0404 29.8907C40.8792 30.0509 40.6606 30.1409 40.4327 30.1409H18.842C18.614 30.1409 18.3954 30.0509 18.2342 29.8907C18.073 29.7305 17.9824 29.5133 17.9824 29.2868V18.629C17.9824 18.4025 18.073 18.1852 18.2342 18.0251C18.3954 17.8649 18.614 17.7749 18.842 17.7749ZM18.9546 34.7773H40.32C40.5779 34.7773 40.8251 34.8791 41.0075 35.0602C41.1898 35.2414 41.2922 35.4871 41.2922 35.7433C41.2922 35.9995 41.1898 36.2452 41.0075 36.4263C40.8251 36.6075 40.5779 36.7093 40.32 36.7093H18.9546C18.6968 36.7093 18.4495 36.6075 18.2672 36.4263C18.0849 36.2452 17.9824 35.9995 17.9824 35.7433C17.9824 35.4871 18.0849 35.2414 18.2672 35.0602C18.4495 34.8791 18.6968 34.7773 18.9546 34.7773ZM18.9546 39.8006H40.32C40.5779 39.8006 40.8253 39.9024 41.0076 40.0836C41.19 40.2648 41.2924 40.5106 41.2924 40.7668C41.2924 41.0231 41.19 41.2688 41.0076 41.45C40.8253 41.6312 40.5779 41.733 40.32 41.733H18.9546C18.6967 41.733 18.4494 41.6312 18.267 41.45C18.0847 41.2688 17.9822 41.0231 17.9822 40.7668C17.9822 40.5106 18.0847 40.2648 18.267 40.0836C18.4494 39.9024 18.6967 39.8006 18.9546 39.8006ZM52.8523 58.378C52.5192 59.6894 51.3494 60.6669 49.9578 60.6669H9.31685C7.92524 60.6669 6.75539 59.689 6.42274 58.378C6.3593 58.1281 6.32725 57.8713 6.32733 57.6136V43.2789H17.6382C18.8875 43.2789 19.8945 44.3243 19.8945 45.5935V45.6106C19.8945 46.8794 20.9131 47.9038 22.1624 47.9038H37.1122C38.3616 47.9038 39.3801 46.87 39.3801 45.6008V45.5956C39.3801 44.3265 40.3871 43.2785 41.6365 43.2785H52.9473V57.614C52.9473 57.8775 52.9142 58.1333 52.8523 58.378Z" fill="#DCE0E6"/>
</g>
<path id="Vector_5" fill-rule="evenodd" clip-rule="evenodd" d="M54.274 14.2172L51.3386 15.3489C51.2632 15.378 51.181 15.3854 51.1016 15.3702C51.0221 15.355 50.9486 15.3178 50.8895 15.263C50.8304 15.2081 50.788 15.1377 50.7673 15.06C50.7467 14.9823 50.7485 14.9004 50.7726 14.8236L51.6051 12.1729C50.4924 10.9157 49.8391 9.38262 49.8391 7.72825C49.8391 3.45992 54.1876 0 59.552 0C64.9152 0 69.2641 3.45992 69.2641 7.72825C69.2641 11.9966 64.9157 15.4565 59.5516 15.4565C57.6056 15.4565 55.7937 15.0013 54.274 14.2172Z" fill="#DCE0E6"/>
<g id="Group_2">
<path id="Vector_6" d="M63.378 9.12387C64.0542 9.12387 64.6024 8.58566 64.6024 7.92174C64.6024 7.25782 64.0542 6.7196 63.378 6.7196C62.7018 6.7196 62.1536 7.25782 62.1536 7.92174C62.1536 8.58566 62.7018 9.12387 63.378 9.12387Z" fill="white"/>
<path id="Vector_7" fill-rule="evenodd" clip-rule="evenodd" d="M56.9502 8.9735H54.5013L55.7468 6.86987L56.9502 8.9735ZM58.4806 6.86987H60.6231V8.9735H58.4806V6.86987Z" fill="white"/>
</g>
</g>
</svg>
