<svg width="110" height="80" viewBox="0 0 110 80" fill="none" xmlns="http://www.w3.org/2000/svg">
<g opacity="0.75">
<path fill-rule="evenodd" clip-rule="evenodd" d="M98.7969 15.2651L96.2675 13.8089L96.2676 13.8036L98.7969 15.2651Z" fill="#BAB6BF" fill-opacity="0.85"/>
<path d="M98.7969 15.2651L100.501 14.2514L98.1213 12.8795L96.2676 13.8036L98.7969 15.2651Z" fill="#BAB6BF" fill-opacity="0.85"/>
<path d="M96.2675 13.8089L96.2676 13.8036L82.7676 6.08875L81.0495 7.07987L83.2676 8.35689L88.5176 11.3794L93.7676 14.402L96.2507 15.8316L96.2675 13.8089Z" fill="#BAB6BF" fill-opacity="0.85"/>
<path d="M82.7676 4L81.0494 5.04744L81.0495 7.07987L82.7676 6.08875V4Z" fill="#BAB6BF" fill-opacity="0.85"/>
<path d="M80.9854 3L79.2676 4.02158L81.0494 5.04744L82.7676 4L80.9854 3Z" fill="#BAB6BF" fill-opacity="0.85"/>
<path fill-rule="evenodd" clip-rule="evenodd" d="M37.5294 51.9233L35 50.4671L35 50.4618L37.5294 51.9233Z" fill="#BAB6BF" fill-opacity="0.85"/>
<path d="M37.5294 51.9233L39.2334 50.9096L36.8538 49.5377L35 50.4618L37.5294 51.9233Z" fill="#BAB6BF" fill-opacity="0.85"/>
<path d="M35 50.4671L35 50.4618L21.5 42.7469L19.7819 43.7381L22 45.0151L27.25 48.0376L32.5 51.0602L34.9831 52.4898L35 50.4671Z" fill="#BAB6BF" fill-opacity="0.85"/>
<path d="M21.5 40.6582L19.7819 41.7056L19.7819 43.7381L21.5 42.7469V40.6582Z" fill="#BAB6BF" fill-opacity="0.85"/>
<path d="M19.7178 39.6582L18 40.6798L19.7819 41.7056L21.5 40.6582L19.7178 39.6582Z" fill="#BAB6BF" fill-opacity="0.85"/>
<path d="M100.704 14L99 15.0137V30.2284L100.704 29.2284V14Z" fill="#141414" fill-opacity="0.85"/>
<path d="M99 30.2284V40.2229L100.704 39.2229V29.2284L99 30.2284Z" fill="#141414" fill-opacity="0.85"/>
<path d="M39.4364 51L37.7324 52.0137V67.2284L39.4364 66.2284V51Z" fill="#141414" fill-opacity="0.85"/>
<path d="M37.7324 67.2284V77.2229L39.4364 76.2229V66.2284L37.7324 67.2284Z" fill="#141414" fill-opacity="0.85"/>
<path fill-rule="evenodd" clip-rule="evenodd" d="M84.8973 56.333L80.4486 53.6504L76 56.333L80.4486 59.0156L84.8973 56.333Z" fill="#BAB6BF" fill-opacity="0.85"/>
<path opacity="0.85" fill-rule="evenodd" clip-rule="evenodd" d="M84.8973 56.333L80.4486 53.6504L76 56.333L80.4486 59.0156L84.8973 56.333Z" stroke="#141414" stroke-opacity="0.85" stroke-width="0.7" stroke-linecap="round" stroke-linejoin="round"/>
<path opacity="0.85" fill-rule="evenodd" clip-rule="evenodd" d="M76 56.332V61.4647L80.4486 64.147V59.0146L76 56.332Z" fill="white" fill-opacity="0.85"/>
<path opacity="0.85" fill-rule="evenodd" clip-rule="evenodd" d="M76 56.332V61.4647L80.4486 64.147V59.0146L76 56.332Z" stroke="#141414" stroke-opacity="0.85" stroke-width="0.7" stroke-linecap="round" stroke-linejoin="round"/>
<path opacity="0.85" fill-rule="evenodd" clip-rule="evenodd" d="M80.4492 59.0146V64.147L84.8978 61.465V56.332L80.4492 59.0146Z" fill="#141414" fill-opacity="0.85"/>
<path opacity="0.85" fill-rule="evenodd" clip-rule="evenodd" d="M80.4492 59.0146V64.147L84.8978 61.465V56.332L80.4492 59.0146Z" stroke="#141414" stroke-opacity="0.85" stroke-width="0.7" stroke-linecap="round" stroke-linejoin="round"/>
<path opacity="0.85" fill-rule="evenodd" clip-rule="evenodd" d="M78.8032 58.8049L77.6465 58.1074V58.7171L78.8032 59.4148V58.8049Z" fill="#141414" fill-opacity="0.85"/>
<path opacity="0.85" fill-rule="evenodd" clip-rule="evenodd" d="M78.0078 57.5439L82.4564 54.8613L82.812 55.0757L78.3634 57.7583L78.0078 57.5439Z" fill="#141414" fill-opacity="0.85"/>
<path fill-rule="evenodd" clip-rule="evenodd" d="M98.4497 52.6142L94.0014 49.9316L89.5527 52.6142L94.0014 55.2968L98.4497 52.6142Z" fill="#BAB6BF" fill-opacity="0.85"/>
<path opacity="0.85" fill-rule="evenodd" clip-rule="evenodd" d="M98.4497 52.6142L94.0014 49.9316L89.5527 52.6142L94.0014 55.2968L98.4497 52.6142Z" stroke="#141414" stroke-opacity="0.85" stroke-width="0.7" stroke-linecap="round" stroke-linejoin="round"/>
<path opacity="0.85" fill-rule="evenodd" clip-rule="evenodd" d="M89.5527 52.6133V57.746L94.0014 60.4286V55.2959L89.5527 52.6133Z" fill="white" fill-opacity="0.85"/>
<path opacity="0.85" fill-rule="evenodd" clip-rule="evenodd" d="M89.5527 52.6133V57.746L94.0014 60.4286V55.2959L89.5527 52.6133Z" stroke="#141414" stroke-opacity="0.85" stroke-width="0.7" stroke-linecap="round" stroke-linejoin="round"/>
<path opacity="0.85" fill-rule="evenodd" clip-rule="evenodd" d="M94 55.2959V60.4286L98.4484 57.7462V52.6133L94 55.2959Z" fill="#141414" fill-opacity="0.85"/>
<path opacity="0.85" fill-rule="evenodd" clip-rule="evenodd" d="M94 55.2959V60.4286L98.4484 57.7462V52.6133L94 55.2959Z" stroke="#141414" stroke-opacity="0.85" stroke-width="0.7" stroke-linecap="round" stroke-linejoin="round"/>
<path opacity="0.85" fill-rule="evenodd" clip-rule="evenodd" d="M92.3559 55.0861L91.1992 54.3887V54.9981L92.3559 55.696V55.0861Z" fill="#141414" fill-opacity="0.85"/>
<path opacity="0.85" fill-rule="evenodd" clip-rule="evenodd" d="M91.5605 53.8252L96.0089 51.1426L96.3645 51.3569L91.9161 54.0395L91.5605 53.8252Z" fill="#141414" fill-opacity="0.85"/>
<path fill-rule="evenodd" clip-rule="evenodd" d="M107.346 52.4968L102.898 49.8145L98.4492 52.4968L102.898 55.1794L107.346 52.4968Z" fill="#BAB6BF" fill-opacity="0.85"/>
<path opacity="0.85" fill-rule="evenodd" clip-rule="evenodd" d="M107.346 52.4968L102.898 49.8145L98.4492 52.4968L102.898 55.1794L107.346 52.4968Z" stroke="#141414" stroke-opacity="0.85" stroke-width="0.7" stroke-linecap="round" stroke-linejoin="round"/>
<path opacity="0.85" fill-rule="evenodd" clip-rule="evenodd" d="M98.4492 52.498V57.6307L102.898 60.3133V55.1806L98.4492 52.498Z" fill="white" fill-opacity="0.85"/>
<path opacity="0.85" fill-rule="evenodd" clip-rule="evenodd" d="M98.4492 52.498V57.6307L102.898 60.3133V55.1806L98.4492 52.498Z" stroke="#141414" stroke-opacity="0.85" stroke-width="0.7" stroke-linecap="round" stroke-linejoin="round"/>
<path opacity="0.85" fill-rule="evenodd" clip-rule="evenodd" d="M102.898 55.1806V60.3133L107.347 57.631V52.498L102.898 55.1806Z" fill="#141414" fill-opacity="0.85"/>
<path opacity="0.85" fill-rule="evenodd" clip-rule="evenodd" d="M102.898 55.1806V60.3133L107.347 57.631V52.498L102.898 55.1806Z" stroke="#141414" stroke-opacity="0.85" stroke-width="0.7" stroke-linecap="round" stroke-linejoin="round"/>
<path opacity="0.85" fill-rule="evenodd" clip-rule="evenodd" d="M101.253 54.9709L100.096 54.2734V54.6805L101.253 55.3784V54.9709Z" fill="#141414" fill-opacity="0.85"/>
<path opacity="0.85" fill-rule="evenodd" clip-rule="evenodd" d="M100.459 53.708L104.907 51.0254L105.263 51.2398L100.815 53.9223L100.459 53.708Z" fill="#141414" fill-opacity="0.85"/>
<path fill-rule="evenodd" clip-rule="evenodd" d="M102.897 44.6826L98.4484 42L94 44.6826L98.4484 47.3649L102.897 44.6826Z" fill="#BAB6BF" fill-opacity="0.85"/>
<path opacity="0.85" fill-rule="evenodd" clip-rule="evenodd" d="M102.897 44.6826L98.4484 42L94 44.6826L98.4484 47.3649L102.897 44.6826Z" stroke="#141414" stroke-opacity="0.85" stroke-width="0.7" stroke-linecap="round" stroke-linejoin="round"/>
<path opacity="0.85" fill-rule="evenodd" clip-rule="evenodd" d="M94 44.6816V49.8143L98.4484 52.4967V47.364L94 44.6816Z" fill="white" fill-opacity="0.85"/>
<path opacity="0.85" fill-rule="evenodd" clip-rule="evenodd" d="M94 44.6816V49.8143L98.4484 52.4967V47.364L94 44.6816Z" stroke="#141414" stroke-opacity="0.85" stroke-width="0.7" stroke-linecap="round" stroke-linejoin="round"/>
<path opacity="0.85" fill-rule="evenodd" clip-rule="evenodd" d="M98.4492 47.364V52.4967L102.898 49.8146V44.6816L98.4492 47.364Z" fill="#141414" fill-opacity="0.85"/>
<path opacity="0.85" fill-rule="evenodd" clip-rule="evenodd" d="M98.4492 47.364V52.4967L102.898 49.8146V44.6816L98.4492 47.364Z" stroke="#141414" stroke-opacity="0.85" stroke-width="0.7" stroke-linecap="round" stroke-linejoin="round"/>
<path opacity="0.85" fill-rule="evenodd" clip-rule="evenodd" d="M96.8032 47.1545L95.6465 46.457V47.0667L96.8032 47.7644V47.1545Z" fill="#141414" fill-opacity="0.85"/>
<path opacity="0.85" fill-rule="evenodd" clip-rule="evenodd" d="M96.0098 45.8935L100.458 43.2109L100.814 43.4253L96.3654 46.1079L96.0098 45.8935Z" fill="#141414" fill-opacity="0.85"/>
<path fill-rule="evenodd" clip-rule="evenodd" d="M102.897 55.1552L98.4484 52.4727L94 55.1552L98.4484 57.8378L102.897 55.1552Z" fill="#BAB6BF" fill-opacity="0.85"/>
<path opacity="0.85" fill-rule="evenodd" clip-rule="evenodd" d="M102.897 55.1552L98.4484 52.4727L94 55.1552L98.4484 57.8378L102.897 55.1552Z" stroke="#141414" stroke-opacity="0.85" stroke-width="0.7" stroke-linecap="round" stroke-linejoin="round"/>
<path opacity="0.85" fill-rule="evenodd" clip-rule="evenodd" d="M94 55.1543V60.287L98.4484 62.9693V57.8369L94 55.1543Z" fill="white" fill-opacity="0.85"/>
<path opacity="0.85" fill-rule="evenodd" clip-rule="evenodd" d="M94 55.1543V60.287L98.4484 62.9693V57.8369L94 55.1543Z" stroke="#141414" stroke-opacity="0.85" stroke-width="0.7" stroke-linecap="round" stroke-linejoin="round"/>
<path opacity="0.85" fill-rule="evenodd" clip-rule="evenodd" d="M98.4492 57.8369V62.9693L102.898 60.2872V55.1543L98.4492 57.8369Z" fill="#141414" fill-opacity="0.85"/>
<path opacity="0.85" fill-rule="evenodd" clip-rule="evenodd" d="M98.4492 57.8369V62.9693L102.898 60.2872V55.1543L98.4492 57.8369Z" stroke="#141414" stroke-opacity="0.85" stroke-width="0.7" stroke-linecap="round" stroke-linejoin="round"/>
<path opacity="0.85" fill-rule="evenodd" clip-rule="evenodd" d="M96.8032 57.6271L95.6465 56.9297V57.5393L96.8032 58.237V57.6271Z" fill="#141414" fill-opacity="0.85"/>
<path opacity="0.85" fill-rule="evenodd" clip-rule="evenodd" d="M96.0098 56.3662L100.458 53.6836L100.814 53.898L96.3654 56.5805L96.0098 56.3662Z" fill="#141414" fill-opacity="0.85"/>
<path d="M79.5 4.02158L81.2178 3L83 4M79.5 4.02158L81.2819 5.04744M79.5 4.02158V24L99 35M99.0294 15.2651L100.733 14.2514M99.0294 15.2651L96.5 13.8036M99.0294 15.2651V40.4743L100.733 39.4743V29.4799M99.0294 15.2651L96.5 13.8089M100.733 14.2514L98.3538 12.8795L96.5 13.8036M100.733 14.2514V29.4799M81.2819 5.04744L83 4M81.2819 5.04744L81.2819 5.04213V25.0052L83.5 26.2564M96.5 13.8036L96.5 13.8089M96.5 13.8036L83 6.08875M83 4V6.08875M96.5 13.8089L96.3363 33.4974L94 32.1456M96.5 15.8413L94 14.402M83 6.08875L81.2819 7.07987L83.5 8.35689M79.5 19.9799L99.0294 30.4799L100.733 29.4799M94 14.402V32.1456M94 14.402L88.75 11.3794M94 32.1456L88.75 29.2179M83.5 8.35689L83.5 26.2564M83.5 8.35689L88.75 11.3794M83.5 26.2564L88.75 29.2179M88.75 11.3794V29.2179" stroke="#141414" stroke-opacity="0.85" stroke-width="0.7" stroke-linecap="round" stroke-linejoin="round"/>
<path opacity="0.85" fill-rule="evenodd" clip-rule="evenodd" d="M37.5 77.2142L99 40.4899V35L37.5 71.5V77.2142Z" fill="#141414" fill-opacity="0.85"/>
<g opacity="0.85">
<path fill-rule="evenodd" clip-rule="evenodd" d="M79.4159 24L98.9315 34.7514L89.0001 41L87.4739 40.0854L96.5001 34.7514L79.4159 25.5L71.2457 30.3599L70.0001 29.6134L79.4159 24Z" fill="#BAB6BF" fill-opacity="0.85"/>
<path fill-rule="evenodd" clip-rule="evenodd" d="M87.4739 40.0854L89.0001 41L60.0001 58L58.5711 57.1654L87.4739 40.0854ZM71.2457 30.3599L70.0001 29.6134L41.0001 46.9023L42.2289 47.62L71.2457 30.3599Z" fill="#BAB6BF" fill-opacity="0.85"/>
<path fill-rule="evenodd" clip-rule="evenodd" d="M39.3907 70.2481V68.5L58.5711 57.1654L60.0001 58L39.3907 70.2481ZM42.2289 47.62L41.0001 46.9023L36.873 49.3626L38.1318 50.0571L42.2289 47.62Z" fill="#BAB6BF" fill-opacity="0.85"/>
<path d="M98.9315 34.7514L79.4159 24L70.0001 29.6134M98.9315 34.7514V40.4666L37.6516 77V76.9543M98.9315 34.7514L89.0001 41M37.6866 71.264V76.9744L37.6516 76.9543M37.6866 71.264L37.6516 71.2848V76.9543M37.6866 71.264L60.0001 58M70.0001 29.6134L41.0001 46.9023M70.0001 29.6134L71.2457 30.3599M89.0001 41L60.0001 58M89.0001 41L87.4739 40.0854M41.0001 46.9023L36.873 49.3626L38.1318 50.0571M41.0001 46.9023L42.2289 47.62M60.0001 58L39.3907 70.2481V68.5M60.0001 58L58.5711 57.1654M38.1318 50.0571L39.3907 50.7516V68.5M38.1318 50.0571L42.2289 47.62M39.3907 68.5L58.5711 57.1654M87.4739 40.0854L96.5001 34.7514L79.4159 25.5L71.2457 30.3599M87.4739 40.0854L71.2457 30.3599M87.4739 40.0854L58.5711 57.1654M71.2457 30.3599L42.2289 47.62M58.5711 57.1654L42.2289 47.62" stroke="#141414" stroke-opacity="0.85" stroke-width="0.7" stroke-linecap="round" stroke-linejoin="round"/>
</g>
<path opacity="0.85" fill-rule="evenodd" clip-rule="evenodd" d="M40 75L46.1771 71.0668V66L40 69.7318V75Z" fill="#FFBE4A" fill-opacity="0.85"/>
<path opacity="0.85" fill-rule="evenodd" clip-rule="evenodd" d="M42.0566 69.1468L42.7821 68.7129V72.5545L42.0566 73.0511V69.1468Z" fill="#141414" fill-opacity="0.85"/>
<path opacity="0.85" fill-rule="evenodd" clip-rule="evenodd" d="M43.7383 68.1373L44.5093 67.6758V69.8885H43.7383V68.1373Z" fill="#141414" fill-opacity="0.85"/>
<path opacity="0.85" fill-rule="evenodd" clip-rule="evenodd" d="M41.8092 69.2951L40.543 72.4238L41.5629 71.7824L42.4658 69.5619V68.9023L41.8092 69.2951Z" fill="#141414" fill-opacity="0.85"/>
<path opacity="0.85" fill-rule="evenodd" clip-rule="evenodd" d="M40.543 72.4235L43.3158 70.6797V71.5444L40.5531 73.3024L40.543 72.4235Z" fill="#141414" fill-opacity="0.85"/>
<path opacity="0.85" fill-rule="evenodd" clip-rule="evenodd" d="M43.7383 68.138L45.6405 67.002V67.9438L43.7383 69.0511V68.138Z" fill="#141414" fill-opacity="0.85"/>
<path opacity="0.85" fill-rule="evenodd" clip-rule="evenodd" d="M44.8535 70.6263H45.6402V69.2051H44.8535V70.6263Z" fill="#141414" fill-opacity="0.85"/>
<path opacity="0.85" fill-rule="evenodd" clip-rule="evenodd" d="M43.7383 69.5925L45.6405 68.4316V69.2923L43.7383 70.5003V69.5925Z" fill="#141414" fill-opacity="0.85"/>
<path opacity="0.85" fill-rule="evenodd" clip-rule="evenodd" d="M43.7383 71.0265L45.6405 69.7637V70.7176L43.7383 71.9535V71.0265Z" fill="#141414" fill-opacity="0.85"/>
<g opacity="0.85">
<path d="M18 40.5412V65.7517L19.7819 66.7554V64.526M18 40.5412L19.7178 39.5196L21.4534 40.5203M18 40.5412L19.7819 41.5671M19.7819 64.526L19.7819 41.5618L19.7819 41.5671M19.7819 64.526L22 65.8095M34.8363 73.2368V75.4437L37.5294 76.994V70.9995M34.8363 73.2368L35 50.3285M34.8363 73.2368L32.5 71.885M37.5294 51.7848L39.2334 50.7711M37.5294 51.7848L35 50.3232M37.5294 51.7848V70.9995M37.5294 51.7848L35 50.3285M39.2334 50.7711L36.8538 49.3992L35 50.3232M39.2334 50.7711V65.9995M19.7819 41.5671L21.4534 40.5203M35 50.3232L35 50.3285M35 50.3232L21.4534 42.5241M21.4534 40.5203V42.5241M37.5294 70.9995L39.2334 69.9995V65.9995M35 52.361L32.5 50.9217M21.4534 42.5241L19.7819 43.5995L22 44.8765M18 56.4995L37.5294 66.9995L39.2334 65.9995M32.5 50.9217V71.885M32.5 50.9217L27.25 47.8991M32.5 71.885L27.25 68.8472M22 44.8765V65.8095M22 44.8765L27.25 47.8991M22 65.8095L27.25 68.8472M27.25 47.8991V68.8472" stroke="#141414" stroke-opacity="0.85" stroke-width="0.7" stroke-linecap="round" stroke-linejoin="round"/>
</g>
<path opacity="0.85" d="M20.2988 62.75L18.9998 62" stroke="#141414" stroke-opacity="0.85" stroke-width="0.7" stroke-linecap="round" stroke-linejoin="round"/>
<path opacity="0.85" d="M30 63.5L30 62" stroke="#141414" stroke-opacity="0.85" stroke-width="0.7" stroke-linecap="round" stroke-linejoin="round"/>
<path opacity="0.85" d="M24 60.5L24 59" stroke="#141414" stroke-opacity="0.85" stroke-width="0.7" stroke-linecap="round" stroke-linejoin="round"/>
<path opacity="0.85" d="M35.2988 70.75L33.9998 70" stroke="#141414" stroke-opacity="0.85" stroke-width="0.7" stroke-linecap="round" stroke-linejoin="round"/>
<path opacity="0.85" fill-rule="evenodd" clip-rule="evenodd" d="M19.7812 66.7565L21.7238 65.6497L19.7812 64.5273V66.7565Z" fill="white" fill-opacity="0.85"/>
<path opacity="0.85" fill-rule="evenodd" clip-rule="evenodd" d="M19.7812 66.7565L21.7238 65.6497L19.7812 64.5273V66.7565Z" stroke="#141414" stroke-opacity="0.85" stroke-width="0.7" stroke-linecap="round" stroke-linejoin="round"/>
<path fill-rule="evenodd" clip-rule="evenodd" d="M55 34.6823L59.4486 37.3649L63.897 34.6823L59.4486 32L55 34.6823Z" fill="#BAB6BF" fill-opacity="0.85"/>
<path opacity="0.85" fill-rule="evenodd" clip-rule="evenodd" d="M63.897 34.6826L59.4486 32L55 34.6826L59.4486 37.3652L63.897 34.6826Z" stroke="#141414" stroke-opacity="0.85" stroke-width="0.7" stroke-linecap="round" stroke-linejoin="round"/>
<path opacity="0.85" fill-rule="evenodd" clip-rule="evenodd" d="M55 39.8143L59.4486 42.4969V37.3642L55 34.6816V39.8143Z" fill="white" fill-opacity="0.85"/>
<path opacity="0.85" fill-rule="evenodd" clip-rule="evenodd" d="M55 34.6816V39.8143L59.4486 42.4969V37.3642L55 34.6816Z" stroke="#141414" stroke-opacity="0.85" stroke-width="0.7" stroke-linecap="round" stroke-linejoin="round"/>
<path opacity="0.85" fill-rule="evenodd" clip-rule="evenodd" d="M59.4492 37.3642V42.4969L63.8976 39.8146V34.6816L59.4492 37.3642Z" fill="#141414" fill-opacity="0.85"/>
<path opacity="0.85" fill-rule="evenodd" clip-rule="evenodd" d="M59.4492 37.3642V42.4969L63.8976 39.8146V34.6816L59.4492 37.3642Z" stroke="#141414" stroke-opacity="0.85" stroke-width="0.7" stroke-linecap="round" stroke-linejoin="round"/>
<path opacity="0.85" fill-rule="evenodd" clip-rule="evenodd" d="M57.8013 37.1545L56.6445 36.457V37.0664L57.8013 37.7641V37.1545Z" fill="#141414" fill-opacity="0.85"/>
<path opacity="0.85" fill-rule="evenodd" clip-rule="evenodd" d="M57.0078 35.8933L61.4562 33.2109L61.8118 33.4253L57.3634 36.1079L57.0078 35.8933Z" fill="#141414" fill-opacity="0.85"/>
<path fill-rule="evenodd" clip-rule="evenodd" d="M60 37.6823L64.4486 40.3649L68.897 37.6823L64.4486 35L60 37.6823Z" fill="#BAB6BF" fill-opacity="0.85"/>
<path opacity="0.85" fill-rule="evenodd" clip-rule="evenodd" d="M68.897 37.6826L64.4486 35L60 37.6826L64.4486 40.3652L68.897 37.6826Z" stroke="#141414" stroke-opacity="0.85" stroke-width="0.7" stroke-linecap="round" stroke-linejoin="round"/>
<path opacity="0.85" fill-rule="evenodd" clip-rule="evenodd" d="M60 42.8143L64.4486 45.4969V40.3642L60 37.6816V42.8143Z" fill="white" fill-opacity="0.85"/>
<path opacity="0.85" fill-rule="evenodd" clip-rule="evenodd" d="M60 37.6816V42.8143L64.4486 45.4969V40.3642L60 37.6816Z" stroke="#141414" stroke-opacity="0.85" stroke-width="0.7" stroke-linecap="round" stroke-linejoin="round"/>
<path opacity="0.85" fill-rule="evenodd" clip-rule="evenodd" d="M64.4492 40.3642V45.4969L68.8976 42.8146V37.6816L64.4492 40.3642Z" fill="#141414" fill-opacity="0.85"/>
<path opacity="0.85" fill-rule="evenodd" clip-rule="evenodd" d="M64.4492 40.3642V45.4969L68.8976 42.8146V37.6816L64.4492 40.3642Z" stroke="#141414" stroke-opacity="0.85" stroke-width="0.7" stroke-linecap="round" stroke-linejoin="round"/>
<path opacity="0.85" fill-rule="evenodd" clip-rule="evenodd" d="M62.8013 40.1545L61.6445 39.457V40.0664L62.8013 40.7641V40.1545Z" fill="#141414" fill-opacity="0.85"/>
<path opacity="0.85" fill-rule="evenodd" clip-rule="evenodd" d="M62.0078 38.8933L66.4562 36.2109L66.8118 36.4253L62.3634 39.1079L62.0078 38.8933Z" fill="#141414" fill-opacity="0.85"/>
<path fill-rule="evenodd" clip-rule="evenodd" d="M2 64.6823L6.44863 67.3649L10.897 64.6823L6.44863 62L2 64.6823Z" fill="#BAB6BF" fill-opacity="0.85"/>
<path opacity="0.85" fill-rule="evenodd" clip-rule="evenodd" d="M10.897 64.6826L6.44863 62L2 64.6826L6.44863 67.3652L10.897 64.6826Z" stroke="#141414" stroke-opacity="0.85" stroke-width="0.7" stroke-linecap="round" stroke-linejoin="round"/>
<path opacity="0.85" fill-rule="evenodd" clip-rule="evenodd" d="M2 69.8143L6.44863 72.4969V67.3642L2 64.6816V69.8143Z" fill="white" fill-opacity="0.85"/>
<path opacity="0.85" fill-rule="evenodd" clip-rule="evenodd" d="M2 64.6816V69.8143L6.44863 72.4969V67.3642L2 64.6816Z" stroke="#141414" stroke-opacity="0.85" stroke-width="0.7" stroke-linecap="round" stroke-linejoin="round"/>
<path opacity="0.85" fill-rule="evenodd" clip-rule="evenodd" d="M6.44922 67.3642V72.4969L10.8976 69.8146V64.6816L6.44922 67.3642Z" fill="#141414" fill-opacity="0.85"/>
<path opacity="0.85" fill-rule="evenodd" clip-rule="evenodd" d="M6.44922 67.3642V72.4969L10.8976 69.8146V64.6816L6.44922 67.3642Z" stroke="#141414" stroke-opacity="0.85" stroke-width="0.7" stroke-linecap="round" stroke-linejoin="round"/>
<path opacity="0.85" fill-rule="evenodd" clip-rule="evenodd" d="M4.80127 67.1545L3.64453 66.457V67.0664L4.80127 67.7641V67.1545Z" fill="#141414" fill-opacity="0.85"/>
<path opacity="0.85" fill-rule="evenodd" clip-rule="evenodd" d="M4.00781 65.8933L8.45618 63.2109L8.81179 63.4253L4.36342 66.1079L4.00781 65.8933Z" fill="#141414" fill-opacity="0.85"/>
</g>
</svg>
