<svg width="60" height="56" viewBox="0 0 60 56" fill="none" xmlns="http://www.w3.org/2000/svg">
<g opacity="0.75">
<path opacity="0.85" fill-rule="evenodd" clip-rule="evenodd" d="M0.629639 26.3141L16.2251 35.3254L59.6254 9.41175L44.0297 0.400391L0.629639 26.3141Z" fill="#BAB6BF"/>
<g opacity="0.85">
<path opacity="0.85" fill-rule="evenodd" clip-rule="evenodd" d="M44.0274 0.400391L0.627319 26.3141L16.2226 35.3254L59.6228 9.41175L44.0274 0.400391Z" stroke="#141414" stroke-width="0.56" stroke-linecap="round" stroke-linejoin="round"/>
<path opacity="0.85" fill-rule="evenodd" clip-rule="evenodd" d="M0.630294 26.3145L0.602295 26.3312V44.6902V44.6955V46.4996L3.385 48.1014V46.3032L12.7505 51.7147V53.4927L16.2258 55.4934V53.6838V35.326L0.630294 26.3145Z" fill="white" stroke="#141414" stroke-width="0.56" stroke-linecap="round" stroke-linejoin="round"/>
</g>
<path opacity="0.85" fill-rule="evenodd" clip-rule="evenodd" d="M16.2266 35.3263V55.4939L19.3497 53.622V51.8123L39.6408 39.7805V41.5901L42.2535 40.0241V38.3037L57.0137 29.3476V31.1571L59.6266 29.591V9.42383L16.2266 35.3263Z" fill="#141414"/>
<path opacity="0.85" fill-rule="evenodd" clip-rule="evenodd" d="M16.2234 35.3245V55.4919L19.3466 53.62V51.8104L39.6377 39.7786V41.5884L42.2505 40.0223V38.3017L57.0106 29.3459V31.1553L59.6234 29.5892V9.42188L16.2234 35.3245Z" stroke="#141414" stroke-width="0.56" stroke-linecap="round" stroke-linejoin="round"/>
<path opacity="0.85" fill-rule="evenodd" clip-rule="evenodd" d="M3.38322 48.1028L4.91211 47.1863L3.38281 46.3027L3.38322 48.1028Z" fill="#141414"/>
<path opacity="0.85" fill-rule="evenodd" clip-rule="evenodd" d="M3.38322 48.1028L4.91211 47.1863L3.38281 46.3027L3.38322 48.1028Z" stroke="#141414" stroke-width="0.56" stroke-linecap="round" stroke-linejoin="round"/>
<path opacity="0.85" fill-rule="evenodd" clip-rule="evenodd" d="M57.0115 31.1535L55.4858 30.2722L57.0115 29.3457V31.1535Z" fill="white"/>
<path opacity="0.85" fill-rule="evenodd" clip-rule="evenodd" d="M57.0115 31.1535L55.4858 30.2722L57.0115 29.3457V31.1535Z" stroke="#141414" stroke-width="0.56" stroke-linecap="round" stroke-linejoin="round"/>
<path opacity="0.85" fill-rule="evenodd" clip-rule="evenodd" d="M39.639 41.5871L38.0952 40.6951L39.639 39.7793V41.5871Z" fill="white"/>
<path opacity="0.85" fill-rule="evenodd" clip-rule="evenodd" d="M39.639 41.5871L38.0952 40.6951L39.639 39.7793V41.5871Z" stroke="#141414" stroke-width="0.56" stroke-linecap="round" stroke-linejoin="round"/>
<path opacity="0.85" fill-rule="evenodd" clip-rule="evenodd" d="M2.02649 43.8363V43.8406L14.799 51.2134V36.181L2.02649 28.8008V43.8363Z" fill="#5D5668"/>
<path opacity="0.85" fill-rule="evenodd" clip-rule="evenodd" d="M2.02649 43.8396L3.19283 43.1406L14.799 49.833V51.2127L2.02649 43.8396Z" fill="#141414"/>
<path opacity="0.85" fill-rule="evenodd" clip-rule="evenodd" d="M3.19283 43.1414L3.17158 29.4624L2.02649 28.8008V43.8404L3.19283 43.1414Z" fill="#141414"/>
<path opacity="0.85" fill-rule="evenodd" clip-rule="evenodd" d="M3.19531 43.1401L14.8015 36.1797V49.8325L3.19531 43.1401Z" fill="#BAB6BF"/>
<path opacity="0.85" fill-rule="evenodd" clip-rule="evenodd" d="M2.02649 43.8363V43.8406L14.799 51.2134V36.181L2.02649 28.8008V43.8363Z" stroke="black" stroke-width="0.56" stroke-linecap="round" stroke-linejoin="round"/>
<path opacity="0.85" fill-rule="evenodd" clip-rule="evenodd" d="M39.7086 19.6274L41.0084 18.8457L28.1075 11.3633L26.8077 12.145L39.7086 19.6274Z" fill="#141414"/>
<path opacity="0.85" fill-rule="evenodd" clip-rule="evenodd" d="M37.1086 21.1917L38.4086 20.41L25.5078 12.9277L24.2078 13.7094L37.1086 21.1917Z" fill="#141414"/>
<path opacity="0.85" fill-rule="evenodd" clip-rule="evenodd" d="M34.5087 22.7542L35.8087 21.9725L22.9078 14.4902L21.6078 15.2717L34.5087 22.7542Z" fill="#141414"/>
<path opacity="0.85" fill-rule="evenodd" clip-rule="evenodd" d="M31.9087 24.3167L33.2087 23.5352L20.3076 16.0527L19.0078 16.8344L31.9087 24.3167Z" fill="#141414"/>
<path opacity="0.85" fill-rule="evenodd" clip-rule="evenodd" d="M29.3088 25.8811L30.6086 25.0994L17.7077 17.6172L16.4077 18.3989L29.3088 25.8811Z" fill="#141414"/>
<path opacity="0.85" fill-rule="evenodd" clip-rule="evenodd" d="M26.7086 27.4456L28.0086 26.6639L15.1077 19.1816L13.8077 19.9631L26.7086 27.4456Z" fill="#141414"/>
<path opacity="0.85" fill-rule="evenodd" clip-rule="evenodd" d="M24.1086 29.0081L25.4086 28.2264L12.5078 20.7441L11.2078 21.5258L24.1086 29.0081Z" fill="#141414"/>
<path opacity="0.85" fill-rule="evenodd" clip-rule="evenodd" d="M21.5151 30.5687L22.8083 29.7908L9.90747 22.3086L8.61401 23.0864L21.5151 30.5687Z" fill="#141414"/>
<path opacity="0.85" fill-rule="evenodd" clip-rule="evenodd" d="M18.9149 32.1311L20.2149 31.3494L7.31404 23.8672L6.01404 24.6487L18.9149 32.1311Z" fill="#141414"/>
<path opacity="0.85" fill-rule="evenodd" clip-rule="evenodd" d="M16.3233 33.6887L17.6149 32.9121L4.71386 25.4297L3.41406 26.2114L14.196 32.4648L16.3233 33.6887Z" fill="#141414"/>
<path opacity="0.85" fill-rule="evenodd" clip-rule="evenodd" d="M55.4524 10.1606L56.7524 9.37894L43.8515 1.89648L42.5515 2.67819L55.4524 10.1606Z" fill="#141414"/>
<path opacity="0.85" fill-rule="evenodd" clip-rule="evenodd" d="M52.8524 11.7249L54.1522 10.9432L41.2513 3.46094L39.9515 4.24264L52.8524 11.7249Z" fill="#141414"/>
<path opacity="0.85" fill-rule="evenodd" clip-rule="evenodd" d="M50.2524 13.2874L51.5524 12.5057L38.6516 5.02344L37.3516 5.80514L50.2524 13.2874Z" fill="#141414"/>
<path opacity="0.85" fill-rule="evenodd" clip-rule="evenodd" d="M47.6587 14.848L48.9521 14.0701L36.0513 6.58789L34.7578 7.36551L47.6587 14.848Z" fill="#141414"/>
<path opacity="0.85" fill-rule="evenodd" clip-rule="evenodd" d="M45.0586 16.4104L46.3584 15.6287L33.4575 8.14648L32.1577 8.92819L45.0586 16.4104Z" fill="#141414"/>
<path opacity="0.85" fill-rule="evenodd" clip-rule="evenodd" d="M42.4618 17.9741L43.611 17.2832L30.7101 9.80078L29.5609 10.4918L42.4618 17.9741Z" fill="#141414"/>
<path opacity="0.85" fill-rule="evenodd" clip-rule="evenodd" d="M19.5127 34.9629L17.9015 35.9263V51.1007L19.5127 50.1348V34.9629Z" fill="white"/>
<path opacity="0.85" fill-rule="evenodd" clip-rule="evenodd" d="M22.7349 33.0371L21.1234 34.0007V49.1702L22.7349 48.2045V33.0371Z" fill="white"/>
<path opacity="0.85" fill-rule="evenodd" clip-rule="evenodd" d="M25.9565 31.1094L24.3452 32.0728V47.2378L25.9565 46.2721V31.1094Z" fill="white"/>
<path opacity="0.85" fill-rule="evenodd" clip-rule="evenodd" d="M29.1816 29.1836L27.5703 30.147V45.3073L29.1816 44.3414V29.1836Z" fill="white"/>
<path opacity="0.85" fill-rule="evenodd" clip-rule="evenodd" d="M32.4034 27.2559L30.7921 28.2193V43.3746L32.4034 42.409V27.2559Z" fill="white"/>
<path opacity="0.85" fill-rule="evenodd" clip-rule="evenodd" d="M35.6253 25.3281L34.014 26.2915V41.4426L35.6253 40.4768V25.3281Z" fill="white"/>
<path opacity="0.85" fill-rule="evenodd" clip-rule="evenodd" d="M38.8471 23.4023L37.2358 24.3657V39.5119L38.8471 38.5463V23.4023Z" fill="white"/>
<path opacity="0.85" fill-rule="evenodd" clip-rule="evenodd" d="M42.069 21.4766L40.4578 22.44V37.5815L42.069 36.6156V21.4766Z" fill="white"/>
<path opacity="0.85" fill-rule="evenodd" clip-rule="evenodd" d="M45.294 19.5488L43.6827 20.5122V35.6488L45.294 34.6832V19.5488Z" fill="white"/>
<path opacity="0.85" fill-rule="evenodd" clip-rule="evenodd" d="M48.5159 17.6211L46.9047 18.5845V33.7164L48.5159 32.7507V17.6211Z" fill="white"/>
<path opacity="0.85" fill-rule="evenodd" clip-rule="evenodd" d="M51.7377 15.6953L50.1265 16.6587V31.7859L51.7377 30.8203V15.6953Z" fill="white"/>
<path opacity="0.85" fill-rule="evenodd" clip-rule="evenodd" d="M54.9596 13.7695L53.3484 14.7329V29.8554L54.9596 28.8898V13.7695Z" fill="white"/>
<path opacity="0.85" fill-rule="evenodd" clip-rule="evenodd" d="M58.1816 11.8398L56.5703 12.8032V27.9211L58.1816 26.9554V11.8398Z" fill="white"/>
</g>
</svg>
