<svg width="82" height="60" viewBox="0 0 82 60" fill="none" xmlns="http://www.w3.org/2000/svg">
<g opacity="0.75">
<path opacity="0.85" fill-rule="evenodd" clip-rule="evenodd" d="M25.6406 39.1675V59.6197L27.968 58.2246V56.4008L52.6988 41.7166V43.5465L54.3331 42.567V40.8237L73.9381 28.8967V30.4952L75.3565 29.3537V9.93555L25.6406 39.1675Z" fill="white" stroke="#141414" stroke-width="0.56" stroke-linecap="round" stroke-linejoin="round"/>
<path opacity="0.85" fill-rule="evenodd" clip-rule="evenodd" d="M73.9394 30.4844L72.5844 29.7192L73.9394 28.8965V30.4844Z" fill="#141414"/>
<path opacity="0.85" fill-rule="evenodd" clip-rule="evenodd" d="M73.9394 30.4844L72.5844 29.7192L73.9394 28.8965V30.4844Z" stroke="#141414" stroke-width="0.56" stroke-linecap="round" stroke-linejoin="round"/>
<path opacity="0.85" fill-rule="evenodd" clip-rule="evenodd" d="M52.702 41.7168V43.5467L51.1593 42.6317L52.702 41.7168Z" fill="#141414"/>
<path opacity="0.85" fill-rule="evenodd" clip-rule="evenodd" d="M52.702 41.7168V43.5467L51.1593 42.6317L52.702 41.7168Z" stroke="#141414" stroke-width="0.56" stroke-linecap="round" stroke-linejoin="round"/>
<path opacity="0.85" fill-rule="evenodd" clip-rule="evenodd" d="M59.5271 0.400391L9.82812 30.0292L25.6439 39.1678L75.3598 9.93585L59.5271 0.400391Z" fill="white" stroke="#141414" stroke-width="0.56" stroke-linecap="round" stroke-linejoin="round"/>
<path opacity="0.85" fill-rule="evenodd" clip-rule="evenodd" d="M0.334351 49.4009L3.94334 51.5773L7.55253 49.4009L3.94334 47.2246L0.334351 49.4009Z" fill="#DDE2EA"/>
<path opacity="0.85" fill-rule="evenodd" clip-rule="evenodd" d="M7.55253 49.4009L3.94334 47.2246L0.334351 49.4009L3.94334 51.5773L7.55253 49.4009Z" stroke="#141414" stroke-width="0.56" stroke-linecap="round" stroke-linejoin="round"/>
<path opacity="0.85" fill-rule="evenodd" clip-rule="evenodd" d="M0.334351 53.5645L3.94334 55.741V51.5768L0.334351 49.4004V53.5645Z" fill="white"/>
<path opacity="0.85" fill-rule="evenodd" clip-rule="evenodd" d="M0.334351 49.4004V53.5645L3.94334 55.741V51.5769L0.334351 49.4004Z" stroke="#141414" stroke-width="0.56" stroke-linecap="round" stroke-linejoin="round"/>
<path opacity="0.85" fill-rule="evenodd" clip-rule="evenodd" d="M3.94373 51.5769V55.741L7.55292 53.5647V49.4004L3.94373 51.5769Z" fill="#5C6373"/>
<path opacity="0.85" fill-rule="evenodd" clip-rule="evenodd" d="M3.94373 51.5769V55.741L7.55292 53.5647V49.4004L3.94373 51.5769Z" stroke="#141414" stroke-width="0.56" stroke-linecap="round" stroke-linejoin="round"/>
<path opacity="0.85" fill-rule="evenodd" clip-rule="evenodd" d="M2.60723 51.4055L1.6687 50.8398V51.3343L2.60723 51.9004V51.4055Z" fill="#141414"/>
<path opacity="0.85" fill-rule="evenodd" clip-rule="evenodd" d="M1.96558 50.3835L5.57456 48.207L5.86301 48.3811L2.25403 50.5574L1.96558 50.3835Z" fill="#141414"/>
<path opacity="0.85" fill-rule="evenodd" clip-rule="evenodd" d="M62.7869 48.6413L59.1777 46.4648L55.5687 48.6413L59.1777 50.8176L62.7869 48.6413Z" fill="#DDE2EA"/>
<path opacity="0.85" fill-rule="evenodd" clip-rule="evenodd" d="M62.7869 48.6413L59.1777 46.4648L55.5687 48.6413L59.1777 50.8176L62.7869 48.6413Z" stroke="#141414" stroke-width="0.56" stroke-linecap="round" stroke-linejoin="round"/>
<path opacity="0.85" fill-rule="evenodd" clip-rule="evenodd" d="M55.5687 48.6426V52.8065L59.1777 54.983V50.8188L55.5687 48.6426Z" fill="white"/>
<path opacity="0.85" fill-rule="evenodd" clip-rule="evenodd" d="M55.5687 48.6426V52.8065L59.1777 54.983V50.8188L55.5687 48.6426Z" stroke="#141414" stroke-width="0.56" stroke-linecap="round" stroke-linejoin="round"/>
<path opacity="0.85" fill-rule="evenodd" clip-rule="evenodd" d="M59.1781 50.8188V54.983L62.7873 52.8067V48.6426L59.1781 50.8188Z" fill="#5C6373"/>
<path opacity="0.85" fill-rule="evenodd" clip-rule="evenodd" d="M59.1781 50.8188V54.983L62.7873 52.8067V48.6426L59.1781 50.8188Z" stroke="#141414" stroke-width="0.56" stroke-linecap="round" stroke-linejoin="round"/>
<path opacity="0.85" fill-rule="evenodd" clip-rule="evenodd" d="M57.8416 50.6479L56.9031 50.082V50.5765L57.8416 51.1426V50.6479Z" fill="#141414"/>
<path opacity="0.85" fill-rule="evenodd" clip-rule="evenodd" d="M57.1969 49.6257L60.8061 47.4492L61.0943 47.6233L57.4854 49.7996L57.1969 49.6257Z" fill="#141414"/>
<path opacity="0.85" fill-rule="evenodd" clip-rule="evenodd" d="M73.7805 45.6257L70.1715 43.4492L66.5625 45.6257L70.1715 47.8019L73.7805 45.6257Z" fill="#DDE2EA"/>
<path opacity="0.85" fill-rule="evenodd" clip-rule="evenodd" d="M73.7805 45.6257L70.1715 43.4492L66.5625 45.6257L70.1715 47.8019L73.7805 45.6257Z" stroke="#141414" stroke-width="0.56" stroke-linecap="round" stroke-linejoin="round"/>
<path opacity="0.85" fill-rule="evenodd" clip-rule="evenodd" d="M66.5625 45.625V49.7891L70.1715 51.9654V47.8013L66.5625 45.625Z" fill="white"/>
<path opacity="0.85" fill-rule="evenodd" clip-rule="evenodd" d="M66.5625 45.625V49.7891L70.1715 51.9654V47.8013L66.5625 45.625Z" stroke="#141414" stroke-width="0.56" stroke-linecap="round" stroke-linejoin="round"/>
<path opacity="0.85" fill-rule="evenodd" clip-rule="evenodd" d="M70.1719 47.8013V51.9654L73.7809 49.7894V45.625L70.1719 47.8013Z" fill="black"/>
<path opacity="0.85" fill-rule="evenodd" clip-rule="evenodd" d="M70.1719 47.8013V51.9654L73.7809 49.7894V45.625L70.1719 47.8013Z" stroke="black" stroke-width="0.56" stroke-linecap="round" stroke-linejoin="round"/>
<path opacity="0.85" fill-rule="evenodd" clip-rule="evenodd" d="M68.8354 47.6304L67.8969 47.0645V47.5591L68.8354 48.1252V47.6304Z" fill="#141414"/>
<path opacity="0.85" fill-rule="evenodd" clip-rule="evenodd" d="M68.1937 46.6079L71.8027 44.4316L72.0912 44.6055L68.4822 46.7818L68.1937 46.6079Z" fill="#141414"/>
<path opacity="0.85" fill-rule="evenodd" clip-rule="evenodd" d="M80.9994 45.5317L77.3904 43.3555L73.7812 45.5317L77.3904 47.7082L80.9994 45.5317Z" fill="#DDE2EA"/>
<path opacity="0.85" fill-rule="evenodd" clip-rule="evenodd" d="M80.9994 45.5317L77.3904 43.3555L73.7812 45.5317L77.3904 47.7082L80.9994 45.5317Z" stroke="#141414" stroke-width="0.56" stroke-linecap="round" stroke-linejoin="round"/>
<path opacity="0.85" fill-rule="evenodd" clip-rule="evenodd" d="M73.7812 45.5312V49.6954L77.3904 51.8719V47.7077L73.7812 45.5312Z" fill="white"/>
<path opacity="0.85" fill-rule="evenodd" clip-rule="evenodd" d="M73.7812 45.5312V49.6954L77.3904 51.8719V47.7077L73.7812 45.5312Z" stroke="black" stroke-width="0.56" stroke-linecap="round" stroke-linejoin="round"/>
<path opacity="0.85" fill-rule="evenodd" clip-rule="evenodd" d="M77.3906 47.7077V51.8719L80.9996 49.6956V45.5312L77.3906 47.7077Z" fill="#5C6373"/>
<path opacity="0.85" fill-rule="evenodd" clip-rule="evenodd" d="M77.3906 47.7077V51.8719L80.9996 49.6956V45.5312L77.3906 47.7077Z" stroke="#141414" stroke-width="0.56" stroke-linecap="round" stroke-linejoin="round"/>
<path opacity="0.85" fill-rule="evenodd" clip-rule="evenodd" d="M76.0541 47.5364L75.1156 46.9707V47.301L76.0541 47.8669V47.5364Z" fill="black"/>
<path opacity="0.85" fill-rule="evenodd" clip-rule="evenodd" d="M75.4093 46.5144L79.0183 44.3379L79.3067 44.512L75.6975 46.6883L75.4093 46.5144Z" fill="#141414"/>
<path opacity="0.85" fill-rule="evenodd" clip-rule="evenodd" d="M77.39 39.1901L73.7809 37.0137L70.1719 39.1901L73.7809 41.3664L77.39 39.1901Z" fill="#DDE2EA"/>
<path opacity="0.85" fill-rule="evenodd" clip-rule="evenodd" d="M77.39 39.1901L73.7809 37.0137L70.1719 39.1901L73.7809 41.3664L77.39 39.1901Z" stroke="#141414" stroke-width="0.56" stroke-linecap="round" stroke-linejoin="round"/>
<path opacity="0.85" fill-rule="evenodd" clip-rule="evenodd" d="M70.1719 39.1895V43.3536L73.7809 45.5299V41.3657L70.1719 39.1895Z" fill="white"/>
<path opacity="0.85" fill-rule="evenodd" clip-rule="evenodd" d="M70.1719 39.1895V43.3536L73.7809 45.5299V41.3657L70.1719 39.1895Z" stroke="#141414" stroke-width="0.56" stroke-linecap="round" stroke-linejoin="round"/>
<path opacity="0.85" fill-rule="evenodd" clip-rule="evenodd" d="M73.7812 41.3657V45.5299L77.3904 43.3538V39.1895L73.7812 41.3657Z" fill="#5C6373"/>
<path opacity="0.85" fill-rule="evenodd" clip-rule="evenodd" d="M73.7812 41.3657V45.5299L77.3904 43.3538V39.1895L73.7812 41.3657Z" stroke="#141414" stroke-width="0.56" stroke-linecap="round" stroke-linejoin="round"/>
<path opacity="0.85" fill-rule="evenodd" clip-rule="evenodd" d="M72.4479 41.1968L71.5094 40.6309V41.1255L72.4479 41.6916V41.1968Z" fill="#141414"/>
<path opacity="0.85" fill-rule="evenodd" clip-rule="evenodd" d="M71.8031 40.1724L75.4123 37.9961L75.7005 38.17L72.0916 40.3463L71.8031 40.1724Z" fill="#141414"/>
<path fill-rule="evenodd" clip-rule="evenodd" d="M77.39 47.6862L73.7809 45.5098L70.1719 47.6862L73.7809 49.8625L77.39 47.6862Z" fill="#DDE2EA"/>
<path opacity="0.85" fill-rule="evenodd" clip-rule="evenodd" d="M77.39 47.6862L73.7809 45.5098L70.1719 47.6862L73.7809 49.8625L77.39 47.6862Z" stroke="#141414" stroke-width="0.56" stroke-linecap="round" stroke-linejoin="round"/>
<path opacity="0.85" fill-rule="evenodd" clip-rule="evenodd" d="M70.1719 47.6855V51.8495L73.7809 54.026V49.8618L70.1719 47.6855Z" fill="white"/>
<path opacity="0.85" fill-rule="evenodd" clip-rule="evenodd" d="M70.1719 47.6855V51.8495L73.7809 54.026V49.8618L70.1719 47.6855Z" stroke="#141414" stroke-width="0.56" stroke-linecap="round" stroke-linejoin="round"/>
<path opacity="0.85" fill-rule="evenodd" clip-rule="evenodd" d="M73.7812 49.8618V54.026L77.3904 51.8497V47.6855L73.7812 49.8618Z" fill="#5C6373"/>
<path opacity="0.85" fill-rule="evenodd" clip-rule="evenodd" d="M73.7812 49.8618V54.026L77.3904 51.8497V47.6855L73.7812 49.8618Z" stroke="#141414" stroke-width="0.56" stroke-linecap="round" stroke-linejoin="round"/>
<path opacity="0.85" fill-rule="evenodd" clip-rule="evenodd" d="M72.4479 49.6929L71.5094 49.127V49.6214L72.4479 50.1875V49.6929Z" fill="#141414"/>
<path opacity="0.85" fill-rule="evenodd" clip-rule="evenodd" d="M71.8031 48.6686L75.4123 46.4922L75.7005 46.6663L72.0916 48.8426L71.8031 48.6686Z" fill="#141414"/>
<path opacity="0.85" fill-rule="evenodd" clip-rule="evenodd" d="M9.82521 30.0293L9.79688 30.0462V50.4992L11.2426 51.3135V49.505L23.4559 56.572V58.3624L25.641 59.62V39.1679L9.82521 30.0293Z" fill="white" stroke="#141414" stroke-width="0.56" stroke-linecap="round" stroke-linejoin="round"/>
<path opacity="0.85" fill-rule="evenodd" clip-rule="evenodd" d="M11.2438 51.3144L12.8195 50.4167L11.2438 49.5059V51.3144Z" fill="#141414"/>
<path opacity="0.85" fill-rule="evenodd" clip-rule="evenodd" d="M11.2438 51.3144L12.8195 50.4167L11.2438 49.5059V51.3144Z" stroke="#141414" stroke-width="0.56" stroke-linecap="round" stroke-linejoin="round"/>
<g opacity="0.85">
<path opacity="0.85" fill-rule="evenodd" clip-rule="evenodd" d="M19.5868 41.2286L21.7372 42.4708C21.9137 42.5728 22.1343 42.4456 22.1343 42.2421V40.3043C22.1343 40.0471 21.9971 39.8095 21.7743 39.6808L19.6239 38.4382C19.4473 38.3364 19.2266 38.4635 19.2266 38.6671V40.6051C19.2266 40.8623 19.364 41.0999 19.5868 41.2286Z" stroke="#CCCCD8" stroke-width="0.56" stroke-linecap="round" stroke-linejoin="round"/>
<path opacity="0.85" fill-rule="evenodd" clip-rule="evenodd" d="M13.1851 37.9008L15.3816 39.1222C15.5618 39.2222 15.7875 39.0973 15.7875 38.8972V36.5949C15.7875 36.3419 15.6472 36.1084 15.4197 35.9817L13.223 34.7599C13.0428 34.6597 12.8171 34.7847 12.8171 34.9851V37.2876C12.8171 37.5403 12.9574 37.7741 13.1851 37.9008Z" stroke="#CCCCD8" stroke-width="0.56" stroke-linecap="round" stroke-linejoin="round"/>
<path opacity="0.85" fill-rule="evenodd" clip-rule="evenodd" d="M11.2422 45.202L24.1949 52.7264V48.2557L22.5117 45.28L13.178 39.8867L11.2422 40.5052V45.202Z" fill="#8B919C"/>
<path opacity="0.85" fill-rule="evenodd" clip-rule="evenodd" d="M18.0688 45.0169C18.3363 45.9655 18.005 46.8888 17.3284 47.0794C16.652 47.2698 15.8868 46.655 15.6191 45.7062C15.3519 44.7577 15.6833 43.8342 16.3595 43.644C17.0361 43.4534 17.8014 44.0684 18.0688 45.0169Z" stroke="white" stroke-width="0.56" stroke-linecap="round" stroke-linejoin="round"/>
<path opacity="0.85" fill-rule="evenodd" clip-rule="evenodd" d="M17.2529 45.2491C17.3712 45.6686 17.2849 46.0596 17.0601 46.1229C16.8352 46.1865 16.5572 45.8977 16.4389 45.4782C16.3207 45.0587 16.4071 44.6678 16.6318 44.6044C16.8566 44.5411 17.1347 44.8296 17.2529 45.2491Z" fill="white"/>
<path opacity="0.85" fill-rule="evenodd" clip-rule="evenodd" d="M22.5117 45.2798L13.178 39.8867L11.2422 40.505V45.2018V47.5249L24.1949 55.0016V52.7262V48.2555L22.5117 45.2798Z" stroke="#141414" stroke-width="0.56" stroke-linecap="round" stroke-linejoin="round"/>
<path opacity="0.85" fill-rule="evenodd" clip-rule="evenodd" d="M49.4533 23.2459L50.7716 22.4529L37.6887 14.8652L36.3704 15.6578L49.4533 23.2459Z" fill="#E7E6E8"/>
<path opacity="0.85" fill-rule="evenodd" clip-rule="evenodd" d="M46.8158 24.832L48.1341 24.0391L35.0509 16.4512L33.7328 17.2439L46.8158 24.832Z" fill="#E7E6E8"/>
<path opacity="0.85" fill-rule="evenodd" clip-rule="evenodd" d="M44.1783 26.4177L45.4966 25.625L32.4134 18.0371L31.0953 18.8297L44.1783 26.4177Z" fill="#E7E6E8"/>
<path opacity="0.85" fill-rule="evenodd" clip-rule="evenodd" d="M41.5439 28.0039L42.8622 27.2109L29.779 19.623L28.4609 20.4158L41.5439 28.0039Z" fill="#E7E6E8"/>
<path opacity="0.85" fill-rule="evenodd" clip-rule="evenodd" d="M38.9065 29.5896L40.2248 28.7969L27.1416 21.209L25.8235 22.0015L38.9065 29.5896Z" fill="#E7E6E8"/>
<path opacity="0.85" fill-rule="evenodd" clip-rule="evenodd" d="M36.2721 31.1738L37.5904 30.3809L24.5072 22.793L23.1891 23.5857L36.2721 31.1738Z" fill="#E7E6E8"/>
<path opacity="0.85" fill-rule="evenodd" clip-rule="evenodd" d="M33.6347 32.7595L34.953 31.9668L21.8698 24.3789L20.5515 25.1717L33.6347 32.7595Z" fill="#E7E6E8"/>
<path opacity="0.85" fill-rule="evenodd" clip-rule="evenodd" d="M31.0033 34.3418L32.3148 33.5529L19.2319 25.9648L17.9203 26.7537L31.0033 34.3418Z" fill="#E7E6E8"/>
<path opacity="0.85" fill-rule="evenodd" clip-rule="evenodd" d="M28.3689 35.9275L29.6872 35.1348L16.604 27.5469L15.2859 28.3396L28.3689 35.9275Z" fill="#E7E6E8"/>
<path opacity="0.85" fill-rule="evenodd" clip-rule="evenodd" d="M25.74 37.5086L27.0497 36.7209L13.9665 29.1328L12.6484 29.9258L23.579 36.2654L25.74 37.5086Z" fill="#E7E6E8"/>
<path opacity="0.85" fill-rule="evenodd" clip-rule="evenodd" d="M70.7002 10.4671L72.0319 9.66601L58.949 2.07812L57.6172 2.87903L70.7002 10.4671Z" fill="#E7E6E8"/>
<path opacity="0.85" fill-rule="evenodd" clip-rule="evenodd" d="M68.0379 12.0685L69.3695 11.2676L56.2867 3.67969L54.9547 4.48059L68.0379 12.0685Z" fill="#E7E6E8"/>
<path opacity="0.85" fill-rule="evenodd" clip-rule="evenodd" d="M65.372 13.6722L66.7038 12.8711L53.6208 5.2832L52.2891 6.0841L65.372 13.6722Z" fill="#E7E6E8"/>
<path opacity="0.85" fill-rule="evenodd" clip-rule="evenodd" d="M62.7098 15.2738L64.0415 14.4726L50.9586 6.88477L49.6266 7.68567L62.7098 15.2738Z" fill="#E7E6E8"/>
<path opacity="0.85" fill-rule="evenodd" clip-rule="evenodd" d="M60.0471 16.8751L61.3789 16.074L48.2959 8.48633L46.9641 9.28723L60.0471 16.8751Z" fill="#E7E6E8"/>
<path opacity="0.85" fill-rule="evenodd" clip-rule="evenodd" d="M57.391 18.473L58.7161 17.676L45.6329 10.0879L44.3079 10.8849L57.391 18.473Z" fill="#E7E6E8"/>
<path opacity="0.85" fill-rule="evenodd" clip-rule="evenodd" d="M54.7252 20.0743L56.057 19.2732L42.974 11.6855L41.6422 12.4862L54.7252 20.0743Z" fill="#E7E6E8"/>
<path opacity="0.85" fill-rule="evenodd" clip-rule="evenodd" d="M52.0878 21.6604L53.3933 20.8752L40.3103 13.2871L39.0046 14.0723L52.0878 21.6604Z" fill="#E7E6E8"/>
<path opacity="0.85" fill-rule="evenodd" clip-rule="evenodd" d="M28.9732 39.125L27.3391 40.1061V55.0023L28.9732 54.0305V39.125Z" fill="#E7E6E8"/>
<path opacity="0.85" fill-rule="evenodd" clip-rule="evenodd" d="M32.2419 37.1621L30.6078 38.1432V53.0583L32.2419 52.0866V37.1621Z" fill="#E7E6E8"/>
<path opacity="0.85" fill-rule="evenodd" clip-rule="evenodd" d="M35.5107 35.2012L33.8766 36.1821V51.1157L35.5107 50.1442V35.2012Z" fill="#E7E6E8"/>
<path opacity="0.85" fill-rule="evenodd" clip-rule="evenodd" d="M38.7763 33.2383L37.1422 34.2192V49.1718L38.7763 48.2002V33.2383Z" fill="#E7E6E8"/>
<path opacity="0.85" fill-rule="evenodd" clip-rule="evenodd" d="M42.045 31.2754L40.4109 32.2563V47.2278L42.045 46.2561V31.2754Z" fill="#E7E6E8"/>
<path opacity="0.85" fill-rule="evenodd" clip-rule="evenodd" d="M45.3138 29.3145L43.6797 30.2954V45.2858L45.3138 44.3141V29.3145Z" fill="#E7E6E8"/>
<path opacity="0.85" fill-rule="evenodd" clip-rule="evenodd" d="M48.5826 27.3516L46.9485 28.3325V43.3417L48.5826 42.3701V27.3516Z" fill="#E7E6E8"/>
<path opacity="0.85" fill-rule="evenodd" clip-rule="evenodd" d="M51.8482 25.3887L50.2141 26.3698V41.3977L51.8482 40.4262V25.3887Z" fill="#E7E6E8"/>
<path opacity="0.85" fill-rule="evenodd" clip-rule="evenodd" d="M53.4828 24.4086V39.4554L55.0577 38.5189V23.4629L53.4828 24.4086Z" fill="#E7E6E8"/>
<path opacity="0.85" fill-rule="evenodd" clip-rule="evenodd" d="M58.2076 21.5703L56.6328 22.516V37.5808L58.2076 36.6443V21.5703Z" fill="#E7E6E8"/>
<path opacity="0.85" fill-rule="evenodd" clip-rule="evenodd" d="M61.3576 19.6797L59.7828 20.6254V35.7083L61.3576 34.7718V19.6797Z" fill="#E7E6E8"/>
<path opacity="0.85" fill-rule="evenodd" clip-rule="evenodd" d="M64.5076 17.7891L62.9329 18.7345V33.8358L64.5076 32.8995V17.7891Z" fill="#E7E6E8"/>
<path opacity="0.85" fill-rule="evenodd" clip-rule="evenodd" d="M67.64 15.9082L66.0797 16.8451V31.9647L67.64 31.0367V15.9082Z" fill="#E7E6E8"/>
<path opacity="0.85" fill-rule="evenodd" clip-rule="evenodd" d="M70.7919 14.0156L69.2172 14.9613V30.0986L70.7919 29.1623V14.0156Z" fill="#E7E6E8"/>
<path opacity="0.85" fill-rule="evenodd" clip-rule="evenodd" d="M72.3672 28.226L73.9383 27.2917V12.127L72.3672 13.0704V28.226Z" fill="#E7E6E8"/>
<path opacity="0.85" fill-rule="evenodd" clip-rule="evenodd" d="M26.0422 41.1448L74.7087 12.4728V11.0781L26.0422 39.6784V41.1448Z" fill="white"/>
<g opacity="0.85">
<path opacity="0.85" fill-rule="evenodd" clip-rule="evenodd" d="M42.7547 36.0449L43.0405 38.2931L42.454 38.2916L42.7547 36.0449Z" fill="#F45531"/>
<path opacity="0.85" fill-rule="evenodd" clip-rule="evenodd" d="M44.683 37.1426L43.5172 38.7597L43.104 38.3202L44.683 37.1426Z" fill="#F45531"/>
<path opacity="0.85" fill-rule="evenodd" clip-rule="evenodd" d="M45.311 39.122L43.5383 39.4449L43.5402 38.8242L45.311 39.122Z" fill="#F45531"/>
<path opacity="0.85" fill-rule="evenodd" clip-rule="evenodd" d="M44.6223 40.9864L43.0977 39.9452L43.5137 39.5078L44.6223 40.9864Z" fill="#F45531"/>
<path opacity="0.85" fill-rule="evenodd" clip-rule="evenodd" d="M42.7364 42.2188L42.4508 39.9707L43.0371 39.9723L42.7364 42.2188Z" fill="#F45531"/>
<path opacity="0.85" fill-rule="evenodd" clip-rule="evenodd" d="M40.4852 41.4733L41.9766 39.5039L42.3898 39.9431L40.4852 41.4733Z" fill="#F45531"/>
<path opacity="0.85" fill-rule="evenodd" clip-rule="evenodd" d="M39.5696 39.1253L41.9534 38.8203L41.9516 39.4408L39.5696 39.1253Z" fill="#F45531"/>
<path opacity="0.85" fill-rule="evenodd" clip-rule="evenodd" d="M40.4977 36.7793L42.3933 38.3178L41.9772 38.755L40.4977 36.7793Z" fill="#F45531"/>
<path opacity="0.85" fill-rule="evenodd" clip-rule="evenodd" d="M43.5979 39.1334C43.5963 39.6307 43.2135 40.0331 42.7432 40.0318C42.2727 40.0308 41.8927 39.6266 41.8945 39.1291C41.896 38.6318 42.2786 38.2297 42.7491 38.2305C43.2196 38.2317 43.5996 38.6361 43.5979 39.1334Z" fill="white"/>
<path opacity="0.85" fill-rule="evenodd" clip-rule="evenodd" d="M43.4217 39.1329C43.4204 39.5268 43.1175 39.8453 42.7449 39.8444C42.3724 39.8434 42.0715 39.5235 42.0728 39.1295C42.0742 38.7356 42.3771 38.417 42.7495 38.418C43.122 38.419 43.4231 38.7389 43.4217 39.1329Z" fill="#F45531"/>
</g>
<g opacity="0.85">
<path opacity="0.85" fill-rule="evenodd" clip-rule="evenodd" d="M36.9997 42.2232C36.998 42.7205 36.6441 43.1229 36.2087 43.1217C35.7735 43.1205 35.4218 42.7164 35.4235 42.219C35.4247 41.7215 35.779 41.3193 36.2142 41.3203C36.6494 41.3215 37.0011 41.7258 36.9997 42.2232Z" fill="white"/>
<path opacity="0.85" fill-rule="evenodd" clip-rule="evenodd" d="M36.8341 42.2229C36.8331 42.5813 36.5528 42.8711 36.2081 42.8702C35.8634 42.8692 35.5849 42.5778 35.5859 42.2194C35.5872 41.8612 35.8675 41.5713 36.212 41.5723C36.5567 41.5731 36.8351 41.8643 36.8341 42.2229Z" fill="#005ADD"/>
<path opacity="0.85" fill-rule="evenodd" clip-rule="evenodd" d="M36.396 40.0358C36.3956 40.1524 36.3126 40.2468 36.2107 40.2466C36.1088 40.2464 36.0264 40.1516 36.0266 40.0348C36.0268 39.9182 36.11 39.8238 36.2121 39.8242C36.314 39.8244 36.3964 39.9192 36.396 40.0358Z" fill="#005ADD"/>
<path opacity="0.85" fill-rule="evenodd" clip-rule="evenodd" d="M36.4783 40.907C36.4777 41.0762 36.3572 41.2132 36.2094 41.2128C36.0612 41.2124 35.9415 41.0748 35.9421 40.9054C35.9428 40.7362 36.063 40.5992 36.211 40.5996C36.3592 40.6 36.4787 40.7376 36.4783 40.907Z" fill="#005ADD"/>
<path opacity="0.85" fill-rule="evenodd" clip-rule="evenodd" d="M36.1672 42.2206H36.2551V40.0352H36.1672V42.2206Z" fill="#005ADD"/>
<path opacity="0.85" fill-rule="evenodd" clip-rule="evenodd" d="M37.9974 40.7977C37.9089 40.88 37.779 40.8919 37.7071 40.8242C37.6353 40.7565 37.6486 40.635 37.737 40.5527C37.8253 40.4705 37.9554 40.4587 38.0271 40.5264C38.0991 40.594 38.0858 40.7155 37.9974 40.7977Z" fill="#005ADD"/>
<path opacity="0.85" fill-rule="evenodd" clip-rule="evenodd" d="M37.3963 41.4695C37.2679 41.589 37.0793 41.6061 36.9749 41.5078C36.8706 41.4096 36.8901 41.2332 37.0184 41.1138C37.1466 40.9945 37.3351 40.9772 37.4397 41.0755C37.5441 41.1737 37.5245 41.35 37.3963 41.4695Z" fill="#005ADD"/>
<path opacity="0.85" fill-rule="evenodd" clip-rule="evenodd" d="M36.2419 42.2499L36.1797 42.1919L37.8331 40.6465L37.8951 40.7045L36.2419 42.2499Z" fill="#005ADD"/>
<path opacity="0.85" fill-rule="evenodd" clip-rule="evenodd" d="M38.5485 42.3944C38.424 42.3942 38.3231 42.3165 38.3235 42.2209C38.3235 42.1257 38.425 42.0486 38.5496 42.0488C38.6743 42.0492 38.775 42.1269 38.7748 42.2221C38.7744 42.3177 38.6731 42.3948 38.5485 42.3944Z" fill="#005ADD"/>
<path opacity="0.85" fill-rule="evenodd" clip-rule="evenodd" d="M37.6192 42.4724C37.4382 42.472 37.292 42.3592 37.2922 42.2208C37.2926 42.0822 37.4398 41.9703 37.6208 41.9707C37.8019 41.9713 37.948 42.084 37.9476 42.2225C37.9472 42.3609 37.8002 42.4728 37.6192 42.4724Z" fill="#005ADD"/>
<path opacity="0.85" fill-rule="evenodd" clip-rule="evenodd" d="M36.2109 42.2618H38.5491V42.1797H36.2109V42.2618Z" fill="#005ADD"/>
<path opacity="0.85" fill-rule="evenodd" clip-rule="evenodd" d="M37.733 43.8893C37.6451 43.8065 37.6325 43.6848 37.7047 43.6175C37.7772 43.5502 37.9071 43.5627 37.9949 43.6456C38.0828 43.7282 38.0954 43.8499 38.0233 43.9172C37.9507 43.9844 37.8211 43.9718 37.733 43.8893Z" fill="#005ADD"/>
<path opacity="0.85" fill-rule="evenodd" clip-rule="evenodd" d="M37.017 43.3263C36.8894 43.2062 36.871 43.0297 36.976 42.9318C37.0808 42.8344 37.2693 42.8525 37.3969 42.9726C37.5246 43.0927 37.5429 43.2692 37.4379 43.3668C37.3331 43.4645 37.1446 43.4463 37.017 43.3263Z" fill="#005ADD"/>
<path opacity="0.85" fill-rule="evenodd" clip-rule="evenodd" d="M37.8329 43.795L36.1797 42.2494L36.2417 42.1914L37.8951 43.737L37.8329 43.795Z" fill="#005ADD"/>
<path opacity="0.85" fill-rule="evenodd" clip-rule="evenodd" d="M36.0266 44.4061C36.0268 44.2895 36.1098 44.1951 36.2119 44.1953C36.3138 44.1957 36.3962 44.2905 36.396 44.4071C36.3956 44.5237 36.3124 44.6181 36.2105 44.6179C36.1086 44.6175 36.0262 44.5227 36.0266 44.4061Z" fill="#005ADD"/>
<path opacity="0.85" fill-rule="evenodd" clip-rule="evenodd" d="M35.9421 43.5345C35.9428 43.3651 36.063 43.2281 36.211 43.2285C36.3592 43.2289 36.4787 43.3665 36.4783 43.5359C36.4777 43.7053 36.3572 43.8423 36.2094 43.8419C36.0612 43.8415 35.9415 43.7037 35.9421 43.5345Z" fill="#005ADD"/>
<path opacity="0.85" fill-rule="evenodd" clip-rule="evenodd" d="M36.1672 44.4063H36.2551V42.2207H36.1672V44.4063Z" fill="#005ADD"/>
<path opacity="0.85" fill-rule="evenodd" clip-rule="evenodd" d="M34.4278 43.6446C34.5162 43.5624 34.6461 43.5504 34.7181 43.6181C34.7898 43.6858 34.7766 43.8075 34.6881 43.8896C34.5998 43.9718 34.4698 43.9838 34.398 43.9161C34.3258 43.8484 34.3393 43.7267 34.4278 43.6446Z" fill="#005ADD"/>
<path opacity="0.85" fill-rule="evenodd" clip-rule="evenodd" d="M35.0278 42.9712C35.1561 42.8518 35.3448 42.8346 35.449 42.9331C35.5536 43.0312 35.534 43.2075 35.4058 43.3269C35.2775 43.4464 35.0888 43.4635 34.9844 43.3655C34.88 43.267 34.8994 43.0907 35.0278 42.9712Z" fill="#005ADD"/>
<path opacity="0.85" fill-rule="evenodd" clip-rule="evenodd" d="M34.5918 43.795L34.5297 43.737L36.1829 42.1914L36.2449 42.2494L34.5918 43.795Z" fill="#005ADD"/>
<path opacity="0.85" fill-rule="evenodd" clip-rule="evenodd" d="M33.8745 42.0488C33.9993 42.0492 34.1 42.1269 34.0998 42.2223C34.0996 42.3177 33.998 42.3948 33.8735 42.3944C33.7489 42.3942 33.648 42.3165 33.6484 42.2211C33.6486 42.1257 33.75 42.0486 33.8745 42.0488Z" fill="#005ADD"/>
<path opacity="0.85" fill-rule="evenodd" clip-rule="evenodd" d="M34.8079 41.9707C34.989 41.9713 35.1353 42.084 35.1349 42.2225C35.1345 42.3609 34.9875 42.4728 34.8065 42.4724C34.6255 42.472 34.4793 42.3592 34.4797 42.2208C34.4801 42.0822 34.6269 41.9703 34.8079 41.9707Z" fill="#005ADD"/>
<path opacity="0.85" fill-rule="evenodd" clip-rule="evenodd" d="M33.8734 42.2618H36.2114V42.1797H33.8734V42.2618Z" fill="#005ADD"/>
<path opacity="0.85" fill-rule="evenodd" clip-rule="evenodd" d="M34.6917 40.5538C34.7798 40.6363 34.7924 40.758 34.72 40.8253C34.6477 40.8926 34.5178 40.8804 34.43 40.7974C34.3419 40.7146 34.3295 40.5929 34.4016 40.5257C34.474 40.4584 34.6038 40.471 34.6917 40.5538Z" fill="#005ADD"/>
<path opacity="0.85" fill-rule="evenodd" clip-rule="evenodd" d="M35.4064 41.1153C35.534 41.2353 35.5524 41.4117 35.4474 41.5095C35.3424 41.6072 35.1539 41.5888 35.0264 41.4688C34.8988 41.3489 34.8803 41.1721 34.9855 41.0747C35.0903 40.9769 35.2788 40.995 35.4064 41.1153Z" fill="#005ADD"/>
<path opacity="0.85" fill-rule="evenodd" clip-rule="evenodd" d="M36.1827 42.2499L34.5297 40.7045L34.5916 40.6465L36.2449 42.1919L36.1827 42.2499Z" fill="#005ADD"/>
</g>
</g>
</g>
</svg>
