<svg width="110" height="80" viewBox="0 0 110 80" fill="none" xmlns="http://www.w3.org/2000/svg">
<path fill-rule="evenodd" clip-rule="evenodd" d="M4 66.6823L8.44863 69.3649L12.897 66.6823L8.44863 64L4 66.6823Z" fill="#C5C6D0"/>
<path fill-rule="evenodd" clip-rule="evenodd" d="M12.897 66.6826L8.44863 64L4 66.6826L8.44863 69.3652L12.897 66.6826Z" stroke="#54555A" stroke-width="0.7" stroke-linecap="round" stroke-linejoin="round"/>
<path fill-rule="evenodd" clip-rule="evenodd" d="M4 71.8151L8.44863 74.4977V69.365L4 66.6824V71.8151Z" fill="#E1E2EC"/>
<path fill-rule="evenodd" clip-rule="evenodd" d="M4 66.6824V71.8151L8.44863 74.4977V69.365L4 66.6824Z" stroke="#54555A" stroke-width="0.7" stroke-linecap="round" stroke-linejoin="round"/>
<path fill-rule="evenodd" clip-rule="evenodd" d="M8.44922 69.365V74.4976L12.8976 71.8153V66.6824L8.44922 69.365Z" fill="#54555A"/>
<path fill-rule="evenodd" clip-rule="evenodd" d="M8.44922 69.365V74.4976L12.8976 71.8153V66.6824L8.44922 69.365Z" stroke="#54555A" stroke-width="0.7" stroke-linecap="round" stroke-linejoin="round"/>
<path fill-rule="evenodd" clip-rule="evenodd" d="M6.80127 69.155L5.64453 68.4575V69.0669L6.80127 69.7646V69.155Z" fill="#54555A"/>
<path fill-rule="evenodd" clip-rule="evenodd" d="M6.00781 67.8933L10.4562 65.2109L10.8118 65.4253L6.36342 68.1079L6.00781 67.8933Z" fill="#54555A"/>
<path fill-rule="evenodd" clip-rule="evenodd" d="M82.8973 60.3327L78.4486 57.6501L74 60.3327L78.4486 63.0153L82.8973 60.3327Z" fill="#C5C6D0"/>
<path fill-rule="evenodd" clip-rule="evenodd" d="M82.8973 60.3327L78.4486 57.6501L74 60.3327L78.4486 63.0153L82.8973 60.3327Z" stroke="#54555A" stroke-width="0.7" stroke-linecap="round" stroke-linejoin="round"/>
<path fill-rule="evenodd" clip-rule="evenodd" d="M74 60.3325V65.4652L78.4486 68.1475V63.0151L74 60.3325Z" fill="#E1E2EC"/>
<path fill-rule="evenodd" clip-rule="evenodd" d="M74 60.3325V65.4652L78.4486 68.1475V63.0151L74 60.3325Z" stroke="#54555A" stroke-width="0.7" stroke-linecap="round" stroke-linejoin="round"/>
<path fill-rule="evenodd" clip-rule="evenodd" d="M78.4492 63.0151V68.1475L82.8978 65.4655V60.3325L78.4492 63.0151Z" fill="#54555A"/>
<path fill-rule="evenodd" clip-rule="evenodd" d="M78.4492 63.0151V68.1475L82.8978 65.4655V60.3325L78.4492 63.0151Z" stroke="#54555A" stroke-width="0.7" stroke-linecap="round" stroke-linejoin="round"/>
<path fill-rule="evenodd" clip-rule="evenodd" d="M76.8032 62.8044L75.6465 62.1069V62.7166L76.8032 63.4143V62.8044Z" fill="#54555A"/>
<path fill-rule="evenodd" clip-rule="evenodd" d="M76.0078 61.5439L80.4564 58.8613L80.812 59.0757L76.3634 61.7583L76.0078 61.5439Z" fill="#54555A"/>
<path fill-rule="evenodd" clip-rule="evenodd" d="M96.4497 56.614L92.0014 53.9314L87.5527 56.614L92.0014 59.2966L96.4497 56.614Z" fill="#C5C6D0"/>
<path fill-rule="evenodd" clip-rule="evenodd" d="M96.4497 56.614L92.0014 53.9314L87.5527 56.614L92.0014 59.2966L96.4497 56.614Z" stroke="#54555A" stroke-width="0.7" stroke-linecap="round" stroke-linejoin="round"/>
<path fill-rule="evenodd" clip-rule="evenodd" d="M87.5527 56.613V61.7457L92.0014 64.4283V59.2956L87.5527 56.613Z" fill="#E1E2EC"/>
<path fill-rule="evenodd" clip-rule="evenodd" d="M87.5527 56.613V61.7457L92.0014 64.4283V59.2956L87.5527 56.613Z" stroke="#54555A" stroke-width="0.7" stroke-linecap="round" stroke-linejoin="round"/>
<path fill-rule="evenodd" clip-rule="evenodd" d="M92 59.2956V64.4283L96.4484 61.746V56.613L92 59.2956Z" fill="#54555A"/>
<path fill-rule="evenodd" clip-rule="evenodd" d="M92 59.2956V64.4283L96.4484 61.746V56.613L92 59.2956Z" stroke="#54555A" stroke-width="0.7" stroke-linecap="round" stroke-linejoin="round"/>
<path fill-rule="evenodd" clip-rule="evenodd" d="M90.3559 59.0856L89.1992 58.3882V58.9976L90.3559 59.6955V59.0856Z" fill="#54555A"/>
<path fill-rule="evenodd" clip-rule="evenodd" d="M89.5605 57.8249L94.0089 55.1423L94.3645 55.3567L89.9161 58.0393L89.5605 57.8249Z" fill="#54555A"/>
<path fill-rule="evenodd" clip-rule="evenodd" d="M105.346 56.4975L100.898 53.8152L96.4492 56.4975L100.898 59.1801L105.346 56.4975Z" fill="#C5C6D0"/>
<path fill-rule="evenodd" clip-rule="evenodd" d="M105.346 56.4975L100.898 53.8152L96.4492 56.4975L100.898 59.1801L105.346 56.4975Z" stroke="#54555A" stroke-width="0.7" stroke-linecap="round" stroke-linejoin="round"/>
<path fill-rule="evenodd" clip-rule="evenodd" d="M96.4492 56.4976V61.6302L100.898 64.3128V59.1801L96.4492 56.4976Z" fill="#E1E2EC"/>
<path fill-rule="evenodd" clip-rule="evenodd" d="M96.4492 56.4976V61.6302L100.898 64.3128V59.1801L96.4492 56.4976Z" stroke="#54555A" stroke-width="0.7" stroke-linecap="round" stroke-linejoin="round"/>
<path fill-rule="evenodd" clip-rule="evenodd" d="M100.898 59.1801V64.3128L105.347 61.6305V56.4976L100.898 59.1801Z" fill="#54555A"/>
<path fill-rule="evenodd" clip-rule="evenodd" d="M100.898 59.1801V64.3128L105.347 61.6305V56.4976L100.898 59.1801Z" stroke="#54555A" stroke-width="0.7" stroke-linecap="round" stroke-linejoin="round"/>
<path fill-rule="evenodd" clip-rule="evenodd" d="M99.2527 58.9701L98.0957 58.2727V58.6797L99.2527 59.3777V58.9701Z" fill="#54555A"/>
<path fill-rule="evenodd" clip-rule="evenodd" d="M98.459 57.7087L102.907 55.0261L103.263 55.2405L98.8146 57.9231L98.459 57.7087Z" fill="#54555A"/>
<path fill-rule="evenodd" clip-rule="evenodd" d="M100.897 48.6826L96.4484 46L92 48.6826L96.4484 51.3649L100.897 48.6826Z" fill="#C5C6D0"/>
<path fill-rule="evenodd" clip-rule="evenodd" d="M100.897 48.6826L96.4484 46L92 48.6826L96.4484 51.3649L100.897 48.6826Z" stroke="#54555A" stroke-width="0.7" stroke-linecap="round" stroke-linejoin="round"/>
<path fill-rule="evenodd" clip-rule="evenodd" d="M92 48.6824V53.8151L96.4484 56.4974V51.3647L92 48.6824Z" fill="#E1E2EC"/>
<path fill-rule="evenodd" clip-rule="evenodd" d="M92 48.6824V53.8151L96.4484 56.4974V51.3647L92 48.6824Z" stroke="#54555A" stroke-width="0.7" stroke-linecap="round" stroke-linejoin="round"/>
<path fill-rule="evenodd" clip-rule="evenodd" d="M96.4492 51.3647V56.4974L100.898 53.8153V48.6824L96.4492 51.3647Z" fill="#54555A"/>
<path fill-rule="evenodd" clip-rule="evenodd" d="M96.4492 51.3647V56.4974L100.898 53.8153V48.6824L96.4492 51.3647Z" stroke="#54555A" stroke-width="0.7" stroke-linecap="round" stroke-linejoin="round"/>
<path fill-rule="evenodd" clip-rule="evenodd" d="M94.8032 51.1542L93.6465 50.4568V51.0664L94.8032 51.7641V51.1542Z" fill="#54555A"/>
<path fill-rule="evenodd" clip-rule="evenodd" d="M94.0098 49.8935L98.4584 47.2109L98.814 47.4253L94.3654 50.1079L94.0098 49.8935Z" fill="#54555A"/>
<path fill-rule="evenodd" clip-rule="evenodd" d="M100.897 59.155L96.4484 56.4724L92 59.155L96.4484 61.8376L100.897 59.155Z" fill="#C5C6D0"/>
<path fill-rule="evenodd" clip-rule="evenodd" d="M100.897 59.155L96.4484 56.4724L92 59.155L96.4484 61.8376L100.897 59.155Z" stroke="#54555A" stroke-width="0.7" stroke-linecap="round" stroke-linejoin="round"/>
<path fill-rule="evenodd" clip-rule="evenodd" d="M92 59.1545V64.2872L96.4484 66.9696V61.8371L92 59.1545Z" fill="#E1E2EC"/>
<path fill-rule="evenodd" clip-rule="evenodd" d="M92 59.1545V64.2872L96.4484 66.9696V61.8371L92 59.1545Z" stroke="#54555A" stroke-width="0.7" stroke-linecap="round" stroke-linejoin="round"/>
<path fill-rule="evenodd" clip-rule="evenodd" d="M96.4492 61.8371V66.9696L100.898 64.2875V59.1545L96.4492 61.8371Z" fill="#54555A"/>
<path fill-rule="evenodd" clip-rule="evenodd" d="M96.4492 61.8371V66.9696L100.898 64.2875V59.1545L96.4492 61.8371Z" stroke="#54555A" stroke-width="0.7" stroke-linecap="round" stroke-linejoin="round"/>
<path fill-rule="evenodd" clip-rule="evenodd" d="M94.8032 61.6271L93.6465 60.9297V61.5393L94.8032 62.237V61.6271Z" fill="#54555A"/>
<path fill-rule="evenodd" clip-rule="evenodd" d="M94.0098 60.3659L98.4584 57.6833L98.814 57.8977L94.3654 60.5803L94.0098 60.3659Z" fill="#54555A"/>
<path d="M74.834 5L76.334 4L95.334 15.2L94.0007 16L74.834 5Z" fill="#C5C6D0"/>
<path d="M15.334 40.5L16.834 39.5L35.834 50.6L34.334 51.5L15.334 40.5Z" fill="white"/>
<path d="M36.0005 50.4999L34.6816 49.8192L75.0005 25.5L78.4868 27.5624L36.0005 52.9999V50.4999Z" fill="#C5C6D0"/>
<path d="M74.5 25.5V5L94 16V36.5L74.5 25.5Z" fill="#E1E2EC"/>
<path d="M74.5 25.5L34.5 49.5L18.5 40.4466L74.5 5V25.5Z" fill="#757780" stroke="#54555A" stroke-width="0.7" stroke-linecap="round" stroke-linejoin="round"/>
<path fill-rule="evenodd" clip-rule="evenodd" d="M35 43.6823L39.4486 46.3649L43.897 43.6823L39.4486 41L35 43.6823Z" fill="#C5C6D0"/>
<path fill-rule="evenodd" clip-rule="evenodd" d="M43.897 43.6826L39.4486 41L35 43.6826L39.4486 46.3652L43.897 43.6826Z" stroke="#54555A" stroke-width="0.7" stroke-linecap="round" stroke-linejoin="round"/>
<path fill-rule="evenodd" clip-rule="evenodd" d="M35 48.8151L39.4486 51.4977V46.365L35 43.6824V48.8151Z" fill="#E1E2EC"/>
<path fill-rule="evenodd" clip-rule="evenodd" d="M35 43.6824V48.8151L39.4486 51.4977V46.365L35 43.6824Z" stroke="#54555A" stroke-width="0.7" stroke-linecap="round" stroke-linejoin="round"/>
<path fill-rule="evenodd" clip-rule="evenodd" d="M39.4492 46.365V51.4976L43.8976 48.8153V43.6824L39.4492 46.365Z" fill="#54555A"/>
<path fill-rule="evenodd" clip-rule="evenodd" d="M39.4492 46.365V51.4976L43.8976 48.8153V43.6824L39.4492 46.365Z" stroke="#54555A" stroke-width="0.7" stroke-linecap="round" stroke-linejoin="round"/>
<path fill-rule="evenodd" clip-rule="evenodd" d="M37.8013 46.155L36.6445 45.4575V46.0669L37.8013 46.7646V46.155Z" fill="#54555A"/>
<path fill-rule="evenodd" clip-rule="evenodd" d="M37.0078 44.8933L41.4562 42.2109L41.8118 42.4253L37.3634 45.1079L37.0078 44.8933Z" fill="#54555A"/>
<path fill-rule="evenodd" clip-rule="evenodd" d="M46 37.6823L50.4486 40.3649L54.897 37.6823L50.4486 35L46 37.6823Z" fill="#C5C6D0"/>
<path fill-rule="evenodd" clip-rule="evenodd" d="M54.897 37.6826L50.4486 35L46 37.6826L50.4486 40.3652L54.897 37.6826Z" stroke="#54555A" stroke-width="0.7" stroke-linecap="round" stroke-linejoin="round"/>
<path fill-rule="evenodd" clip-rule="evenodd" d="M46 42.8151L50.4486 45.4977V40.365L46 37.6824V42.8151Z" fill="#E1E2EC"/>
<path fill-rule="evenodd" clip-rule="evenodd" d="M46 37.6824V42.8151L50.4486 45.4977V40.365L46 37.6824Z" stroke="#54555A" stroke-width="0.7" stroke-linecap="round" stroke-linejoin="round"/>
<path fill-rule="evenodd" clip-rule="evenodd" d="M50.4492 40.365V45.4976L54.8976 42.8153V37.6824L50.4492 40.365Z" fill="#54555A"/>
<path fill-rule="evenodd" clip-rule="evenodd" d="M50.4492 40.365V45.4976L54.8976 42.8153V37.6824L50.4492 40.365Z" stroke="#54555A" stroke-width="0.7" stroke-linecap="round" stroke-linejoin="round"/>
<path fill-rule="evenodd" clip-rule="evenodd" d="M48.8013 40.155L47.6445 39.4575V40.0669L48.8013 40.7646V40.155Z" fill="#54555A"/>
<path fill-rule="evenodd" clip-rule="evenodd" d="M48.0078 38.8933L52.4562 36.2109L52.8118 36.4253L48.3634 39.1079L48.0078 38.8933Z" fill="#54555A"/>
<path fill-rule="evenodd" clip-rule="evenodd" d="M76.2941 4L74.6113 5.00049L94.1057 16.2649L95.8097 15.2514L76.2941 4Z" fill="white"/>
<path d="M95.8097 15.2514L94.1057 16.2649L74.6113 5.00049L76.2941 4L95.8097 15.2514ZM95.8097 15.2514V17.5005M94.1113 18.5005V16.2616M74.6113 25.5L78.5004 27.7472" stroke="#54555A" stroke-width="0.7" stroke-linecap="round" stroke-linejoin="round"/>
<path d="M95.834 15.2L94.334 16.2V18.2L95.834 17.2V15.2Z" fill="#54555A"/>
<path fill-rule="evenodd" clip-rule="evenodd" d="M15.035 40.5208L15 40.5417V65.7522L16.7819 66.7559V64.5265L31.8363 73.2373V75.4442L34.5294 76.9945V51.7853L15.035 40.5208Z" fill="#E1E2EC"/>
<path d="M15.035 40.5208L15 40.5417V65.7522L16.7819 66.7559V64.5265L31.8363 73.2373V75.4442L34.5294 76.9945V51.7853M15.035 40.5208L34.5294 51.7853M15.035 40.5208L16.7178 39.5201L36.2334 50.7716M34.5294 51.7853L36.2334 50.7716M36.2334 50.7716V53.0005" stroke="#54555A" stroke-width="0.7" stroke-linecap="round" stroke-linejoin="round"/>
<path d="M36.0996 51L34.5996 52V54L36.0996 53V51Z" fill="#54555A"/>
<path fill-rule="evenodd" clip-rule="evenodd" d="M34.5293 53.5005V76.9945L37.3981 75.275V73.0061L64.8213 56.7452V59.0006L66.8354 57.7936V55.6448L94.0605 39.1255V41.0956L95.8092 39.6887V16.9674L34.5293 53.5005Z" fill="#54555A"/>
<path fill-rule="evenodd" clip-rule="evenodd" d="M34.2889 53.6725L29.1484 50.6696V49.0476L34.2889 52.0262V53.6725Z" fill="#54555A" stroke="#54555A" stroke-width="0.7" stroke-linejoin="round"/>
<path fill-rule="evenodd" clip-rule="evenodd" d="M31.9478 50.6699L30.5527 51.5077L31.2611 51.9186L32.6565 51.0805L31.9478 50.6699Z" fill="#FFBE4A" fill-opacity="0.85"/>
<path fill-rule="evenodd" clip-rule="evenodd" d="M33.3795 51.4998L31.9844 52.3373L32.797 52.8084L34.1921 51.9708L33.3795 51.4998Z" fill="#FFBE4A" fill-opacity="0.85"/>
<path fill-rule="evenodd" clip-rule="evenodd" d="M30.5233 49.8442L29.1484 50.6695L29.8479 51.099L31.243 50.2612L30.5233 49.8442Z" fill="#FFBE4A" fill-opacity="0.85"/>
<path fill-rule="evenodd" clip-rule="evenodd" d="M29.1484 49.0476V49.978L29.9363 49.5044L29.1484 49.0476Z" fill="#FFBE4A" fill-opacity="0.85"/>
<path fill-rule="evenodd" clip-rule="evenodd" d="M34.2896 52.7871L33.5391 53.2383L34.2896 53.6736V52.7871Z" fill="#FFBE4A" fill-opacity="0.85"/>
<path fill-rule="evenodd" clip-rule="evenodd" d="M20.1116 45.5619L15.1816 42.5593V40.937L20.1116 43.9113V45.5619Z" fill="#54555A" stroke="#54555A" stroke-linejoin="round"/>
<path fill-rule="evenodd" clip-rule="evenodd" d="M17.8673 42.5591L16.5293 43.3966L17.2087 43.8075L18.5469 42.9697L17.8673 42.5591Z" fill="#FFBE4A" fill-opacity="0.85"/>
<path fill-rule="evenodd" clip-rule="evenodd" d="M19.2403 43.3892L17.9023 44.227L18.6817 44.6978L20.0199 43.8602L19.2403 43.3892Z" fill="#FFBE4A" fill-opacity="0.85"/>
<path fill-rule="evenodd" clip-rule="evenodd" d="M16.5005 41.7339L15.1816 42.5594L15.8525 42.9887L17.1904 42.1509L16.5005 41.7339Z" fill="#FFBE4A" fill-opacity="0.85"/>
<path fill-rule="evenodd" clip-rule="evenodd" d="M15.1816 40.937V41.8677L15.9372 41.394L15.1816 40.937Z" fill="#FFBE4A" fill-opacity="0.85"/>
<path fill-rule="evenodd" clip-rule="evenodd" d="M20.1104 44.6763L19.3906 45.1272L20.1104 45.5625V44.6763Z" fill="#FFBE4A" fill-opacity="0.85"/>
<path fill-rule="evenodd" clip-rule="evenodd" d="M16.7812 62.4224V62.4277L32.7469 71.6438V53.0555L16.7812 43.8306V62.4224Z" stroke="#54555A" stroke-width="0.7" stroke-linecap="round" stroke-linejoin="round"/>
<path d="M24.1113 48.0005V66.5005" stroke="#54555A" stroke-width="0.7" stroke-linecap="round" stroke-linejoin="round"/>
<path d="M29.1113 49.0005V71.5005M20.1113 43.5005V66.3494" stroke="#54555A" stroke-width="0.7" stroke-linecap="round" stroke-linejoin="round"/>
<path d="M17.4102 47.7505L16.1111 47.0005" stroke="#54555A" stroke-width="0.7" stroke-linecap="round" stroke-linejoin="round"/>
<path d="M33.4102 56.7505L32.1111 56.0005" stroke="#54555A" stroke-width="0.7" stroke-linecap="round" stroke-linejoin="round"/>
<path d="M27.4102 58.7505L26.1111 58.0005" stroke="#54555A" stroke-width="0.7" stroke-linecap="round" stroke-linejoin="round"/>
<path d="M22.4102 55.7505L21.1111 55.0005" stroke="#54555A" stroke-width="0.7" stroke-linecap="round" stroke-linejoin="round"/>
<path d="M17.4102 53.7505L16.1111 53.0005" stroke="#54555A" stroke-width="0.7" stroke-linecap="round" stroke-linejoin="round"/>
<path d="M33.4102 62.7505L32.1111 62.0005" stroke="#54555A" stroke-width="0.7" stroke-linecap="round" stroke-linejoin="round"/>
<path d="M17.4102 59.7505L16.1111 59.0005" stroke="#54555A" stroke-width="0.7" stroke-linecap="round" stroke-linejoin="round"/>
<path d="M33.4102 68.7505L32.1111 68.0005" stroke="#54555A" stroke-width="0.7" stroke-linecap="round" stroke-linejoin="round"/>
<path fill-rule="evenodd" clip-rule="evenodd" d="M94.0608 41.0818L92.3906 40.1386L94.0608 39.1245V41.0818Z" fill="#E1E2EC"/>
<path fill-rule="evenodd" clip-rule="evenodd" d="M94.0608 41.0818L92.3906 40.1386L94.0608 39.1245V41.0818Z" stroke="#54555A" stroke-width="0.7" stroke-linecap="round" stroke-linejoin="round"/>
<path fill-rule="evenodd" clip-rule="evenodd" d="M16.7812 66.7555L18.7238 65.6487L16.7812 64.5264V66.7555Z" fill="#E1E2EC"/>
<path fill-rule="evenodd" clip-rule="evenodd" d="M16.7812 66.7555L18.7238 65.6487L16.7812 64.5264V66.7555Z" stroke="#54555A" stroke-width="0.7" stroke-linecap="round" stroke-linejoin="round"/>
<path fill-rule="evenodd" clip-rule="evenodd" d="M64.8216 56.7451V59.0005L62.9199 57.8728L64.8216 56.7451Z" fill="#E1E2EC"/>
<path fill-rule="evenodd" clip-rule="evenodd" d="M64.8216 56.7451V59.0005L62.9199 57.8728L64.8216 56.7451Z" stroke="#54555A" stroke-width="0.7" stroke-linecap="round" stroke-linejoin="round"/>
<path fill-rule="evenodd" clip-rule="evenodd" d="M48.709 64.1158L50.7233 62.9181V45.6079L48.709 46.817V64.1158Z" fill="#E1E2EC"/>
<path fill-rule="evenodd" clip-rule="evenodd" d="M52.7383 61.72L54.7523 60.5227V43.189L52.7383 44.3981V61.72Z" fill="#E1E2EC"/>
<path fill-rule="evenodd" clip-rule="evenodd" d="M60.793 56.9288L62.807 55.7312V38.3511L60.793 39.5604V56.9288Z" fill="#E1E2EC"/>
<path fill-rule="evenodd" clip-rule="evenodd" d="M64.8203 54.5341L66.8346 53.3365V35.9331L64.8203 37.1427V54.5341Z" fill="#E1E2EC"/>
<path fill-rule="evenodd" clip-rule="evenodd" d="M68.8496 52.1391L70.8637 50.9415V33.5151L68.8496 34.7242V52.1391Z" fill="#E1E2EC"/>
<path fill-rule="evenodd" clip-rule="evenodd" d="M72.8047 49.7869L74.7459 48.6329V31.1841L72.8047 32.3493V49.7869Z" fill="#E1E2EC"/>
<path fill-rule="evenodd" clip-rule="evenodd" d="M76.6875 47.4785L78.6288 46.3245V28.853L76.6875 30.0185V47.4785Z" fill="#E1E2EC"/>
<path fill-rule="evenodd" clip-rule="evenodd" d="M80.5684 45.1697L82.5096 44.0157V26.522L80.5684 27.6874V45.1697Z" fill="#E1E2EC"/>
<path fill-rule="evenodd" clip-rule="evenodd" d="M84.4512 42.8613L86.3743 41.7178V24.2017L84.4512 25.3567V42.8613Z" fill="#E1E2EC"/>
<path fill-rule="evenodd" clip-rule="evenodd" d="M88.3164 40.5625L90.2577 39.4085V21.8701L88.3164 23.0353V40.5625Z" fill="#E1E2EC"/>
<path fill-rule="evenodd" clip-rule="evenodd" d="M92.1973 38.2548L94.0609 37.1467V19.5864L92.1973 20.7054V38.2548Z" fill="#E1E2EC"/>
<path fill-rule="evenodd" clip-rule="evenodd" d="M38.6391 60.7808L36.625 61.9899V71.3013L38.6391 70.1035V60.7808Z" fill="#E1E2EC"/>
<path fill-rule="evenodd" clip-rule="evenodd" d="M40.6523 68.9058L42.6662 67.7082V58.3623L40.6523 59.5717V68.9058Z" fill="#E1E2EC"/>
<path fill-rule="evenodd" clip-rule="evenodd" d="M44.6797 66.5108L46.6938 65.3131V48.0259L44.6797 49.2352V66.5108Z" fill="#E1E2EC"/>
<path fill-rule="evenodd" clip-rule="evenodd" d="M56.7656 59.3241L58.7797 58.1265V40.7695L56.7656 41.9786V59.3241Z" fill="#E1E2EC"/>
<path fill-rule="evenodd" clip-rule="evenodd" d="M36.625 62.0014L42.6672 58.1493V49.313L36.625 52.9408V62.0014Z" fill="#54555A"/>
<path fill-rule="evenodd" clip-rule="evenodd" d="M36.625 62.0014L42.6672 58.1493V49.313L36.625 52.9408V62.0014Z" stroke="#54555A" stroke-width="0.7" stroke-linecap="round" stroke-linejoin="round"/>
<path fill-rule="evenodd" clip-rule="evenodd" d="M35.6289 60.7658L42.6654 56.2854V50.5137L35.6289 54.7647V60.7658Z" fill="#FFBE4A" fill-opacity="0.85"/>
<path fill-rule="evenodd" clip-rule="evenodd" d="M37.9727 54.0983L38.7991 53.604V57.98L37.9727 58.5458V54.0983Z" fill="#54555A"/>
<path fill-rule="evenodd" clip-rule="evenodd" d="M39.8867 52.949L40.765 52.4233V54.9439H39.8867V52.949Z" fill="#54555A"/>
<path fill-rule="evenodd" clip-rule="evenodd" d="M37.6923 54.2662L36.25 57.8302L37.4118 57.0996L38.4403 54.5701V53.8188L37.6923 54.2662Z" fill="#54555A"/>
<path fill-rule="evenodd" clip-rule="evenodd" d="M36.248 57.8307L39.4066 55.8442V56.8293L36.2595 58.8318L36.248 57.8307Z" fill="#54555A"/>
<path fill-rule="evenodd" clip-rule="evenodd" d="M39.8867 52.9489L42.0536 51.6548V52.7276L39.8867 53.989V52.9489Z" fill="#54555A"/>
<path fill-rule="evenodd" clip-rule="evenodd" d="M41.1582 55.7835H42.0544V54.1646H41.1582V55.7835Z" fill="#54555A"/>
<path fill-rule="evenodd" clip-rule="evenodd" d="M39.8867 54.6051L42.0536 53.2827V54.2632L39.8867 55.6392V54.6051Z" fill="#54555A"/>
<path fill-rule="evenodd" clip-rule="evenodd" d="M39.8867 56.2393L42.0536 54.8008V55.8874L39.8867 57.2953V56.2393Z" fill="#54555A"/>
<mask id="mask0_5240_377937" style="mask-type:alpha" maskUnits="userSpaceOnUse" x="39" y="43" width="10" height="8">
<path d="M39.5 50.5L39 45L45 43L49 45L39.5 50.5Z" fill="#D9D9D9"/>
</mask>
<g mask="url(#mask0_5240_377937)">
<path fill-rule="evenodd" clip-rule="evenodd" d="M40 46.6823L44.4486 49.3649L48.897 46.6823L44.4486 44L40 46.6823Z" fill="#C5C6D0"/>
<path fill-rule="evenodd" clip-rule="evenodd" d="M48.897 46.6826L44.4486 44L40 46.6826L44.4486 49.3652L48.897 46.6826Z" stroke="#54555A" stroke-width="0.7" stroke-linecap="round" stroke-linejoin="round"/>
<path fill-rule="evenodd" clip-rule="evenodd" d="M40 51.8151L44.4486 54.4977V49.365L40 46.6824V51.8151Z" fill="#E1E2EC"/>
<path fill-rule="evenodd" clip-rule="evenodd" d="M40 46.6824V51.8151L44.4486 54.4977V49.365L40 46.6824Z" stroke="#54555A" stroke-width="0.7" stroke-linecap="round" stroke-linejoin="round"/>
<path fill-rule="evenodd" clip-rule="evenodd" d="M44.4492 49.365V54.4976L48.8976 51.8153V46.6824L44.4492 49.365Z" fill="#54555A"/>
<path fill-rule="evenodd" clip-rule="evenodd" d="M44.4492 49.365V54.4976L48.8976 51.8153V46.6824L44.4492 49.365Z" stroke="#54555A" stroke-width="0.7" stroke-linecap="round" stroke-linejoin="round"/>
<path fill-rule="evenodd" clip-rule="evenodd" d="M42.8013 49.155L41.6445 48.4575V49.0669L42.8013 49.7646V49.155Z" fill="#54555A"/>
<path fill-rule="evenodd" clip-rule="evenodd" d="M42.0078 47.8933L46.4562 45.2109L46.8118 45.4253L42.3634 48.1079L42.0078 47.8933Z" fill="#54555A"/>
</g>
<path fill-rule="evenodd" clip-rule="evenodd" d="M34.5293 54.0005V76.9951L37.3981 75.2756V73.007L64.8213 56.7461V59.0015L66.8354 57.7944V55.6457L94.0608 39.1263V41.0964L95.8092 39.6895V17.4671L34.5293 54.0005Z" stroke="#54555A" stroke-width="0.7" stroke-linecap="round" stroke-linejoin="round"/>
</svg>
