<svg width="110" height="80" viewBox="0 0 110 80" fill="none" xmlns="http://www.w3.org/2000/svg">
<g opacity="0.75">
<mask id="mask0_2167_355911" style="mask-type:alpha" maskUnits="userSpaceOnUse" x="33" y="52" width="36" height="24">
<path d="M60.5 52.5L33.5 68.5L41 76L64 68.5L68.5 59L60.5 52.5Z" fill="#D9D9D9"/>
</mask>
<g mask="url(#mask0_2167_355911)">
<path d="M44.9295 70.7005L31.0098 62.6642L31 65.7184L44.9214 73.7562L44.9295 70.7005Z" fill="#141414" fill-opacity="0.85"/>
<path d="M65 59.0363L44.9295 70.7005L44.9214 73.7562L46.5593 72.8043V70.9565L63.5217 61.1412V62.9464L64.9919 62.092L65 59.0363Z" fill="#141414" fill-opacity="0.85"/>
<path d="M44.9295 70.7005L65 59.0363L51.0802 51L31.0098 62.6642L44.9295 70.7005Z" fill="#141414" fill-opacity="0.85"/>
<path d="M65 59.0363L44.9295 70.7005M65 59.0363L51.0802 51L31.0098 62.6642M65 59.0363L64.9919 62.092L63.5217 62.9464V61.1412L46.5593 70.9565V72.8043L44.9214 73.7562M44.9295 70.7005L31.0098 62.6642M44.9295 70.7005L44.9214 73.7562M31.0098 62.6642L31 65.7184L44.9214 73.7562" stroke="#141414" stroke-opacity="0.85" stroke-width="0.7" stroke-linecap="round" stroke-linejoin="round"/>
<path d="M44.9295 70.7005L65 59.0363L51.0802 51L31.0098 62.6642L44.9295 70.7005Z" fill="#BAB6BF" fill-opacity="0.85" stroke="#141414" stroke-opacity="0.85" stroke-width="0.7" stroke-linecap="round" stroke-linejoin="round"/>
<path d="M52.7914 57.2357L52.7644 64.6275L36 54.9504L36.0257 48.1126C37.9167 52.2509 40.9713 55.827 44.2305 57.7098C47.728 59.7295 50.914 59.548 52.7901 57.2371L52.7914 57.2357Z" fill="#141414" fill-opacity="0.85"/>
<path d="M52.7914 64.6127L52.8185 57.2195L56.2864 55.1082L56.2593 62.5L52.7914 64.6127Z" fill="#141414" fill-opacity="0.85"/>
<path d="M51.4071 58.4318C49.5283 59.5236 46.9749 59.2947 44.2305 57.7098M44.2305 57.7098C40.9713 55.827 37.9167 52.2509 36.0257 48.1126M44.2305 57.7098C47.728 59.7295 50.914 59.548 52.7901 57.2371L52.7914 57.2357L52.7644 64.6275L36 54.9504L36.0257 48.1126M36.0257 48.1126L39.4936 46C41.3846 50.1382 44.4392 53.7143 47.6983 55.5972C49.9213 56.881 52.3834 56.9388 54.0987 56.462M52.7914 64.6127L52.8185 57.2195L56.2864 55.1082L56.2593 62.5L52.7914 64.6127Z" stroke="#141414" stroke-opacity="0.85" stroke-width="0.630289" stroke-linecap="round" stroke-linejoin="round"/>
</g>
<mask id="mask1_2167_355911" style="mask-type:alpha" maskUnits="userSpaceOnUse" x="61" y="36" width="35" height="24">
<path d="M88 36L61 52L68.5 59.5L91.5 52L96 42.5L88 36Z" fill="#D9D9D9"/>
</mask>
<g mask="url(#mask1_2167_355911)">
<path d="M72.4295 54.2005L58.5098 46.1642L58.5 49.2184L72.4214 57.2562L72.4295 54.2005Z" fill="#141414" fill-opacity="0.85"/>
<path d="M92.5 42.5363L72.4295 54.2005L72.4214 57.2562L74.0593 56.3043V54.4565L91.0217 44.6412V46.4464L92.4919 45.592L92.5 42.5363Z" fill="#141414" fill-opacity="0.85"/>
<path d="M72.4295 54.2005L92.5 42.5363L78.5802 34.5L58.5098 46.1642L72.4295 54.2005Z" fill="#141414" fill-opacity="0.85"/>
<path d="M92.5 42.5363L72.4295 54.2005M92.5 42.5363L78.5802 34.5L58.5098 46.1642M92.5 42.5363L92.4919 45.592L91.0217 46.4464V44.6412L74.0593 54.4565V56.3043L72.4214 57.2562M72.4295 54.2005L58.5098 46.1642M72.4295 54.2005L72.4214 57.2562M58.5098 46.1642L58.5 49.2184L72.4214 57.2562" stroke="#141414" stroke-opacity="0.85" stroke-width="0.7" stroke-linecap="round" stroke-linejoin="round"/>
<path d="M72.4295 54.2005L92.5 42.5363L78.5802 34.5L58.5098 46.1642L72.4295 54.2005Z" fill="#BAB6BF" fill-opacity="0.85" stroke="#141414" stroke-opacity="0.85" stroke-width="0.7" stroke-linecap="round" stroke-linejoin="round"/>
<path d="M80.2914 40.7357L80.2644 48.1275L63.5 38.4504L63.5257 31.6126C65.4167 35.7509 68.4713 39.327 71.7305 41.2098C75.228 43.2295 78.414 43.048 80.2901 40.7371L80.2914 40.7357Z" fill="#141414" fill-opacity="0.85"/>
<path d="M80.2914 48.1127L80.3185 40.7195L83.7864 38.6082L83.7593 46L80.2914 48.1127Z" fill="#141414" fill-opacity="0.85"/>
<path d="M78.9071 41.9318C77.0283 43.0236 74.4749 42.7947 71.7305 41.2098M71.7305 41.2098C68.4713 39.327 65.4167 35.7509 63.5257 31.6126M71.7305 41.2098C75.228 43.2295 78.414 43.048 80.2901 40.7371L80.2914 40.7357L80.2644 48.1275L63.5 38.4504L63.5257 31.6126M63.5257 31.6126L66.9936 29.5C68.8846 33.6382 71.9392 37.2143 75.1983 39.0972C77.4213 40.381 79.8834 40.4388 81.5987 39.962M80.2914 48.1127L80.3185 40.7195L83.7864 38.6082L83.7593 46L80.2914 48.1127Z" stroke="#141414" stroke-opacity="0.85" stroke-width="0.630289" stroke-linecap="round" stroke-linejoin="round"/>
</g>
<path d="M31.1259 69.5723L92.7706 33.7468C94.6878 32.6333 95.8764 30.264 95.8843 26.8996C95.904 20.1215 91.1378 11.8685 85.2403 8.46461C82.2728 6.75083 79.5836 6.59288 77.6428 7.72026L16 43.5438" fill="white" fill-opacity="0.85"/>
<path d="M65.1279 49.7468C67.045 48.6333 68.2336 46.264 68.2415 42.8996C68.2612 36.1215 63.495 27.8685 57.5975 24.4646C54.63 22.7508 51.9408 22.5929 50 23.7203" stroke="#E7E6E8" stroke-width="0.7" stroke-linecap="round" stroke-linejoin="round"/>
<path d="M86.1279 37.7468C88.045 36.6333 89.2336 34.264 89.2415 30.8996C89.2612 24.1215 84.495 15.8685 78.5975 12.4646C75.63 10.7508 72.9408 10.5929 71 11.7203" stroke="#E7E6E8" stroke-width="0.7" stroke-linecap="round" stroke-linejoin="round"/>
<path d="M43.1279 62.7468C45.045 61.6333 46.2336 59.264 46.2415 55.8996C46.2612 49.1215 41.495 40.8685 35.5975 37.4646C32.63 35.7508 29.9408 35.5929 28 36.7203" stroke="#E7E6E8" stroke-width="0.7" stroke-linecap="round" stroke-linejoin="round"/>
<path d="M32.1279 68.7468C34.045 67.6333 35.2336 65.264 35.2415 61.8996C35.2612 55.1215 30.495 46.8685 24.5975 43.4646C21.63 41.7508 18.9408 41.5929 17 42.7203" stroke="white" stroke-opacity="0.85" stroke-width="0.7" stroke-linecap="round" stroke-linejoin="round"/>
<path d="M91.1279 34.7468C93.045 33.6333 94.2336 31.264 94.2415 27.8996C94.2612 21.1215 89.495 12.8685 83.5975 9.46461C80.63 7.75083 77.9408 7.59288 76 8.72026" stroke="white" stroke-opacity="0.85" stroke-width="0.7" stroke-linecap="round" stroke-linejoin="round"/>
<path d="M31.2416 69.5723L92.8863 33.7468C94.8035 32.6333 95.992 30.264 95.9999 26.8996C96.0197 20.1215 91.2535 11.8685 85.3559 8.46461C82.3884 6.75083 79.6993 6.59288 77.7584 7.72026L16.1157 43.5438M23.7112 44.2879C29.6087 47.6918 34.3749 55.9468 34.3552 62.7229C34.3354 69.4991 29.5396 72.2316 23.6421 68.8258C17.7445 65.4239 12.9803 57.1709 13.0001 50.3947C13.0198 43.6166 17.8156 40.8841 23.7112 44.2879Z" stroke="#141414" stroke-opacity="0.85" stroke-width="0.7" stroke-linecap="round" stroke-linejoin="round"/>
<g opacity="0.8">
<path d="M77.5142 42.7468C79.4313 41.6333 80.6199 39.264 80.6278 35.8996C80.6475 29.1215 75.8813 20.8685 69.9838 17.4646C67.0163 15.7508 64.3271 15.5929 62.3863 16.7203L59 18.6883C60.9408 17.5609 63.63 17.7188 66.5975 19.4326C72.495 22.8365 77.2612 31.0895 77.2415 37.8676C77.2336 41.2284 76.0475 43.5962 74.134 44.7113L77.5142 42.7468Z" fill="#E7E6E8"/>
<path d="M74.1279 44.7148L74.1328 44.7119L74.134 44.7113M74.134 44.7113C76.0475 43.5962 77.2336 41.2284 77.2415 37.8676C77.2612 31.0895 72.495 22.8365 66.5975 19.4326C63.63 17.7188 60.9408 17.5609 59 18.6883L62.3863 16.7203C64.3271 15.5929 67.0163 15.7508 69.9838 17.4646C75.8813 20.8685 80.6475 29.1215 80.6278 35.8996C80.6199 39.264 79.4313 41.6333 77.5142 42.7468L74.134 44.7113Z" stroke="#141414" stroke-opacity="0.85" stroke-width="0.7" stroke-linecap="round" stroke-linejoin="round"/>
</g>
<g opacity="0.8">
<path d="M55.5142 55.7468C57.4313 54.6333 58.6199 52.264 58.6278 48.8996C58.6475 42.1215 53.8813 33.8685 47.9838 30.4646C45.0163 28.7508 42.3271 28.5929 40.3863 29.7203L37 31.6883C38.9408 30.5609 41.63 30.7188 44.5975 32.4326C50.495 35.8365 55.2612 44.0895 55.2415 50.8676C55.2336 54.2284 54.0475 56.5962 52.134 57.7113L55.5142 55.7468Z" fill="#E7E6E8"/>
<path d="M52.1279 57.7148L52.1328 57.7119L52.134 57.7113M52.134 57.7113C54.0475 56.5962 55.2336 54.2284 55.2415 50.8676C55.2612 44.0895 50.495 35.8365 44.5975 32.4326C41.63 30.7188 38.9408 30.5609 37 31.6883L40.3863 29.7203C42.3271 28.5929 45.0163 28.7508 47.9838 30.4646C53.8813 33.8685 58.6475 42.1215 58.6278 48.8996C58.6199 52.264 57.4313 54.6333 55.5142 55.7468L52.134 57.7113Z" stroke="#141414" stroke-opacity="0.85" stroke-width="0.7" stroke-linecap="round" stroke-linejoin="round"/>
</g>
<path opacity="0.85" d="M46.2695 33L45.0009 33.8004" stroke="#141414" stroke-opacity="0.85" stroke-width="0.7" stroke-linecap="round" stroke-linejoin="round"/>
<path opacity="0.85" d="M67.2695 19L66.0009 19.8004" stroke="#141414" stroke-opacity="0.85" stroke-width="0.7" stroke-linecap="round" stroke-linejoin="round"/>
<path opacity="0.85" d="M51.2695 38L50.0009 38.8004" stroke="#141414" stroke-opacity="0.85" stroke-width="0.7" stroke-linecap="round" stroke-linejoin="round"/>
<path opacity="0.85" d="M72.2695 24L71.0009 24.8004" stroke="#141414" stroke-opacity="0.85" stroke-width="0.7" stroke-linecap="round" stroke-linejoin="round"/>
<path opacity="0.85" d="M55.2695 45L54.0009 45.8004" stroke="#141414" stroke-opacity="0.85" stroke-width="0.7" stroke-linecap="round" stroke-linejoin="round"/>
<path opacity="0.85" d="M76.2695 31L75.0009 31.8004" stroke="#141414" stroke-opacity="0.85" stroke-width="0.7" stroke-linecap="round" stroke-linejoin="round"/>
<mask id="mask2_2167_355911" style="mask-type:alpha" maskUnits="userSpaceOnUse" x="13" y="43" width="22" height="28">
<path d="M23.7112 44.4642C29.6087 47.8681 34.3749 56.123 34.3552 62.8992C34.3354 69.6753 29.5396 72.4079 23.6421 69.0021C17.7445 65.6002 12.9803 57.3472 13.0001 50.571C13.0198 43.7929 17.8156 41.0603 23.7112 44.4642Z" fill="#787691"/>
</mask>
<g mask="url(#mask2_2167_355911)">
<path d="M23.7112 44.4642C29.6087 47.8681 34.3749 56.123 34.3552 62.8992C34.3354 69.6753 29.5396 72.4079 23.6421 69.0021C17.7445 65.6002 12.9803 57.3472 13.0001 50.571C13.0198 43.7929 17.8156 41.0603 23.7112 44.4642Z" fill="#5D5668" fill-opacity="0.85"/>
<path d="M25.7112 44.4642C31.6087 47.8681 36.3749 56.123 36.3552 62.8992C36.3354 69.6753 31.5396 72.4079 25.6421 69.0021C19.7445 65.6002 14.9803 57.3472 15.0001 50.571C15.0198 43.7929 19.8156 41.0603 25.7112 44.4642Z" fill="#5D5668" fill-opacity="0.85"/>
<path d="M50.6353 61.1117L32.6353 53.1758L9 66.9114L26.1353 75.3501L50.6353 61.1117Z" fill="#BAB6BF" fill-opacity="0.85"/>
</g>
<path d="M34.3552 62.8992L13.0001 50.571M34.3552 62.8992C34.371 57.4614 31.3047 51.0712 27.0451 47M34.3552 62.8992C34.3394 68.309 31.2795 71.1415 27.0451 70.3307M13.0001 50.571C13.0128 46.2053 15.0069 43.5179 18 43.0675M13.0001 50.571C12.9873 54.9645 14.9856 59.9788 18 63.8892M18 43.0675C19.6539 42.8186 21.6129 43.2527 23.7112 44.4642C24.876 45.1365 25.9967 45.998 27.0451 47M18 43.0675V63.8892M18 63.8892C19.6348 66.0099 21.5684 67.8059 23.6421 69.0021C24.8312 69.6888 25.9756 70.126 27.0451 70.3307M27.0451 47V70.3307" stroke="#141414" stroke-opacity="0.85" stroke-width="0.7" stroke-linecap="round" stroke-linejoin="round"/>
<path d="M55.06 48.5377C55.4546 48.3095 55.814 48.2788 56.0814 48.4128C56.3717 48.5583 56.5537 48.898 56.5545 49.39C56.5561 50.3353 55.8928 51.4892 55.0698 51.9634C54.2468 52.4377 53.5769 52.0563 53.5737 51.1111C53.5704 50.1658 54.2354 49.0119 55.06 48.5361V48.5377Z" fill="#BAB6BF" fill-opacity="0.85"/>
<path d="M54.0088 52.0709L53.4352 51.7368C53.1679 51.5803 53 51.2495 53 50.7801C52.9968 49.8332 53.6617 48.681 54.4864 48.2051C54.9003 47.9655 55.2752 47.9427 55.5457 48.1008L56.0814 48.4128M56.1194 48.4349L56.0814 48.4128M56.0814 48.4128C55.814 48.2788 55.4546 48.3095 55.06 48.5377V48.5361C54.2354 49.0119 53.5704 50.1658 53.5737 51.1111C53.5769 52.0563 54.2468 52.4377 55.0698 51.9634C55.8928 51.4892 56.5561 50.3353 56.5545 49.39C56.5537 48.898 56.3717 48.5583 56.0814 48.4128Z" stroke="#141414" stroke-opacity="0.85" stroke-width="0.7" stroke-linecap="round" stroke-linejoin="round"/>
<path d="M78.06 35.5377C78.4546 35.3095 78.814 35.2788 79.0814 35.4128C79.3717 35.5583 79.5537 35.898 79.5545 36.39C79.5561 37.3353 78.8928 38.4892 78.0698 38.9634C77.2468 39.4377 76.5769 39.0563 76.5737 38.1111C76.5704 37.1658 77.2354 36.0119 78.06 35.5361V35.5377Z" fill="#BAB6BF" fill-opacity="0.85"/>
<path d="M77.0088 39.0709L76.4352 38.7368C76.1679 38.5803 76 38.2495 76 37.7801C75.9968 36.8332 76.6617 35.681 77.4864 35.2051C77.9003 34.9655 78.2752 34.9427 78.5457 35.1008L79.0814 35.4128M79.1194 35.4349L79.0814 35.4128M79.0814 35.4128C78.814 35.2788 78.4546 35.3095 78.06 35.5377V35.5361C77.2354 36.0119 76.5704 37.1658 76.5737 38.1111C76.5769 39.0563 77.2468 39.4377 78.0698 38.9634C78.8928 38.4892 79.5561 37.3353 79.5545 36.39C79.5537 35.898 79.3717 35.5583 79.0814 35.4128Z" stroke="#141414" stroke-opacity="0.85" stroke-width="0.7" stroke-linecap="round" stroke-linejoin="round"/>
<path opacity="0.85" fill-rule="evenodd" clip-rule="evenodd" d="M37 63L43.1771 59.0668V54L37 57.7318V63Z" fill="#FFBE4A" fill-opacity="0.85"/>
<path opacity="0.85" fill-rule="evenodd" clip-rule="evenodd" d="M39.0566 57.1468L39.7821 56.7129V60.5545L39.0566 61.0511V57.1468Z" fill="#141414" fill-opacity="0.85"/>
<path opacity="0.85" fill-rule="evenodd" clip-rule="evenodd" d="M40.7383 56.1373L41.5093 55.6758V57.8885H40.7383V56.1373Z" fill="#141414" fill-opacity="0.85"/>
<path opacity="0.85" fill-rule="evenodd" clip-rule="evenodd" d="M38.8092 57.2951L37.543 60.4238L38.5629 59.7824L39.4658 57.5619V56.9023L38.8092 57.2951Z" fill="#141414" fill-opacity="0.85"/>
<path opacity="0.85" fill-rule="evenodd" clip-rule="evenodd" d="M37.543 60.4235L40.3158 58.6797V59.5444L37.5531 61.3024L37.543 60.4235Z" fill="#141414" fill-opacity="0.85"/>
<path opacity="0.85" fill-rule="evenodd" clip-rule="evenodd" d="M40.7383 56.138L42.6405 55.002V55.9438L40.7383 57.0511V56.138Z" fill="#141414" fill-opacity="0.85"/>
<path opacity="0.85" fill-rule="evenodd" clip-rule="evenodd" d="M41.8535 58.6263H42.6402V57.2051H41.8535V58.6263Z" fill="#141414" fill-opacity="0.85"/>
<path opacity="0.85" fill-rule="evenodd" clip-rule="evenodd" d="M40.7383 57.5925L42.6405 56.4316V57.2923L40.7383 58.5003V57.5925Z" fill="#141414" fill-opacity="0.85"/>
<path opacity="0.85" fill-rule="evenodd" clip-rule="evenodd" d="M40.7383 59.0265L42.6405 57.7637V58.7176L40.7383 59.9535V59.0265Z" fill="#141414" fill-opacity="0.85"/>
</g>
</svg>
