<svg width="110" height="80" viewBox="0 0 110 80" fill="none" xmlns="http://www.w3.org/2000/svg">
<g opacity="0.75">
<path fill-rule="evenodd" clip-rule="evenodd" d="M4 66.6823L8.44863 69.3649L12.897 66.6823L8.44863 64L4 66.6823Z" fill="#BAB6BF" fill-opacity="0.85"/>
<path opacity="0.85" fill-rule="evenodd" clip-rule="evenodd" d="M12.897 66.6826L8.44863 64L4 66.6826L8.44863 69.3652L12.897 66.6826Z" stroke="#141414" stroke-opacity="0.85" stroke-width="0.7" stroke-linecap="round" stroke-linejoin="round"/>
<path opacity="0.85" fill-rule="evenodd" clip-rule="evenodd" d="M4 71.8143L8.44863 74.4969V69.3642L4 66.6816V71.8143Z" fill="white" fill-opacity="0.85"/>
<path opacity="0.85" fill-rule="evenodd" clip-rule="evenodd" d="M4 66.6816V71.8143L8.44863 74.4969V69.3642L4 66.6816Z" stroke="#141414" stroke-opacity="0.85" stroke-width="0.7" stroke-linecap="round" stroke-linejoin="round"/>
<path opacity="0.85" fill-rule="evenodd" clip-rule="evenodd" d="M8.44922 69.3642V74.4969L12.8976 71.8146V66.6816L8.44922 69.3642Z" fill="#141414" fill-opacity="0.85"/>
<path opacity="0.85" fill-rule="evenodd" clip-rule="evenodd" d="M8.44922 69.3642V74.4969L12.8976 71.8146V66.6816L8.44922 69.3642Z" stroke="#141414" stroke-opacity="0.85" stroke-width="0.7" stroke-linecap="round" stroke-linejoin="round"/>
<path opacity="0.85" fill-rule="evenodd" clip-rule="evenodd" d="M6.80127 69.1545L5.64453 68.457V69.0664L6.80127 69.7641V69.1545Z" fill="#141414" fill-opacity="0.85"/>
<path opacity="0.85" fill-rule="evenodd" clip-rule="evenodd" d="M6.00781 67.8933L10.4562 65.2109L10.8118 65.4253L6.36342 68.1079L6.00781 67.8933Z" fill="#141414" fill-opacity="0.85"/>
<path fill-rule="evenodd" clip-rule="evenodd" d="M82.8973 60.333L78.4486 57.6504L74 60.333L78.4486 63.0156L82.8973 60.333Z" fill="#BAB6BF" fill-opacity="0.85"/>
<path opacity="0.85" fill-rule="evenodd" clip-rule="evenodd" d="M82.8973 60.333L78.4486 57.6504L74 60.333L78.4486 63.0156L82.8973 60.333Z" stroke="#141414" stroke-opacity="0.85" stroke-width="0.7" stroke-linecap="round" stroke-linejoin="round"/>
<path opacity="0.85" fill-rule="evenodd" clip-rule="evenodd" d="M74 60.332V65.4647L78.4486 68.147V63.0146L74 60.332Z" fill="white" fill-opacity="0.85"/>
<path opacity="0.85" fill-rule="evenodd" clip-rule="evenodd" d="M74 60.332V65.4647L78.4486 68.147V63.0146L74 60.332Z" stroke="#141414" stroke-opacity="0.85" stroke-width="0.7" stroke-linecap="round" stroke-linejoin="round"/>
<path opacity="0.85" fill-rule="evenodd" clip-rule="evenodd" d="M78.4492 63.0146V68.147L82.8978 65.465V60.332L78.4492 63.0146Z" fill="#141414" fill-opacity="0.85"/>
<path opacity="0.85" fill-rule="evenodd" clip-rule="evenodd" d="M78.4492 63.0146V68.147L82.8978 65.465V60.332L78.4492 63.0146Z" stroke="#141414" stroke-opacity="0.85" stroke-width="0.7" stroke-linecap="round" stroke-linejoin="round"/>
<path opacity="0.85" fill-rule="evenodd" clip-rule="evenodd" d="M76.8032 62.8049L75.6465 62.1074V62.7171L76.8032 63.4148V62.8049Z" fill="#141414" fill-opacity="0.85"/>
<path opacity="0.85" fill-rule="evenodd" clip-rule="evenodd" d="M76.0078 61.5439L80.4564 58.8613L80.812 59.0757L76.3634 61.7583L76.0078 61.5439Z" fill="#141414" fill-opacity="0.85"/>
<path fill-rule="evenodd" clip-rule="evenodd" d="M96.4497 56.6142L92.0014 53.9316L87.5527 56.6142L92.0014 59.2968L96.4497 56.6142Z" fill="#BAB6BF" fill-opacity="0.85"/>
<path opacity="0.85" fill-rule="evenodd" clip-rule="evenodd" d="M96.4497 56.6142L92.0014 53.9316L87.5527 56.6142L92.0014 59.2968L96.4497 56.6142Z" stroke="#141414" stroke-opacity="0.85" stroke-width="0.7" stroke-linecap="round" stroke-linejoin="round"/>
<path opacity="0.85" fill-rule="evenodd" clip-rule="evenodd" d="M87.5527 56.6133V61.746L92.0014 64.4286V59.2959L87.5527 56.6133Z" fill="white" fill-opacity="0.85"/>
<path opacity="0.85" fill-rule="evenodd" clip-rule="evenodd" d="M87.5527 56.6133V61.746L92.0014 64.4286V59.2959L87.5527 56.6133Z" stroke="#141414" stroke-opacity="0.85" stroke-width="0.7" stroke-linecap="round" stroke-linejoin="round"/>
<path opacity="0.85" fill-rule="evenodd" clip-rule="evenodd" d="M92 59.2959V64.4286L96.4484 61.7462V56.6133L92 59.2959Z" fill="#141414" fill-opacity="0.85"/>
<path opacity="0.85" fill-rule="evenodd" clip-rule="evenodd" d="M92 59.2959V64.4286L96.4484 61.7462V56.6133L92 59.2959Z" stroke="#141414" stroke-opacity="0.85" stroke-width="0.7" stroke-linecap="round" stroke-linejoin="round"/>
<path opacity="0.85" fill-rule="evenodd" clip-rule="evenodd" d="M90.3559 59.0861L89.1992 58.3887V58.9981L90.3559 59.696V59.0861Z" fill="#141414" fill-opacity="0.85"/>
<path opacity="0.85" fill-rule="evenodd" clip-rule="evenodd" d="M89.5605 57.8252L94.0089 55.1426L94.3645 55.3569L89.9161 58.0395L89.5605 57.8252Z" fill="#141414" fill-opacity="0.85"/>
<path fill-rule="evenodd" clip-rule="evenodd" d="M105.346 56.4968L100.898 53.8145L96.4492 56.4968L100.898 59.1794L105.346 56.4968Z" fill="#BAB6BF" fill-opacity="0.85"/>
<path opacity="0.85" fill-rule="evenodd" clip-rule="evenodd" d="M105.346 56.4968L100.898 53.8145L96.4492 56.4968L100.898 59.1794L105.346 56.4968Z" stroke="#141414" stroke-opacity="0.85" stroke-width="0.7" stroke-linecap="round" stroke-linejoin="round"/>
<path opacity="0.85" fill-rule="evenodd" clip-rule="evenodd" d="M96.4492 56.498V61.6307L100.898 64.3133V59.1806L96.4492 56.498Z" fill="white" fill-opacity="0.85"/>
<path opacity="0.85" fill-rule="evenodd" clip-rule="evenodd" d="M96.4492 56.498V61.6307L100.898 64.3133V59.1806L96.4492 56.498Z" stroke="#141414" stroke-opacity="0.85" stroke-width="0.7" stroke-linecap="round" stroke-linejoin="round"/>
<path opacity="0.85" fill-rule="evenodd" clip-rule="evenodd" d="M100.898 59.1806V64.3133L105.347 61.631V56.498L100.898 59.1806Z" fill="#141414" fill-opacity="0.85"/>
<path opacity="0.85" fill-rule="evenodd" clip-rule="evenodd" d="M100.898 59.1806V64.3133L105.347 61.631V56.498L100.898 59.1806Z" stroke="#141414" stroke-opacity="0.85" stroke-width="0.7" stroke-linecap="round" stroke-linejoin="round"/>
<path opacity="0.85" fill-rule="evenodd" clip-rule="evenodd" d="M99.2527 58.9709L98.0957 58.2734V58.6805L99.2527 59.3784V58.9709Z" fill="#141414" fill-opacity="0.85"/>
<path opacity="0.85" fill-rule="evenodd" clip-rule="evenodd" d="M98.459 57.708L102.907 55.0254L103.263 55.2398L98.8146 57.9223L98.459 57.708Z" fill="#141414" fill-opacity="0.85"/>
<path fill-rule="evenodd" clip-rule="evenodd" d="M100.897 48.6826L96.4484 46L92 48.6826L96.4484 51.3649L100.897 48.6826Z" fill="#BAB6BF" fill-opacity="0.85"/>
<path opacity="0.85" fill-rule="evenodd" clip-rule="evenodd" d="M100.897 48.6826L96.4484 46L92 48.6826L96.4484 51.3649L100.897 48.6826Z" stroke="#141414" stroke-opacity="0.85" stroke-width="0.7" stroke-linecap="round" stroke-linejoin="round"/>
<path opacity="0.85" fill-rule="evenodd" clip-rule="evenodd" d="M92 48.6816V53.8143L96.4484 56.4967V51.364L92 48.6816Z" fill="white" fill-opacity="0.85"/>
<path opacity="0.85" fill-rule="evenodd" clip-rule="evenodd" d="M92 48.6816V53.8143L96.4484 56.4967V51.364L92 48.6816Z" stroke="#141414" stroke-opacity="0.85" stroke-width="0.7" stroke-linecap="round" stroke-linejoin="round"/>
<path opacity="0.85" fill-rule="evenodd" clip-rule="evenodd" d="M96.4492 51.364V56.4967L100.898 53.8146V48.6816L96.4492 51.364Z" fill="#141414" fill-opacity="0.85"/>
<path opacity="0.85" fill-rule="evenodd" clip-rule="evenodd" d="M96.4492 51.364V56.4967L100.898 53.8146V48.6816L96.4492 51.364Z" stroke="#141414" stroke-opacity="0.85" stroke-width="0.7" stroke-linecap="round" stroke-linejoin="round"/>
<path opacity="0.85" fill-rule="evenodd" clip-rule="evenodd" d="M94.8032 51.1545L93.6465 50.457V51.0667L94.8032 51.7644V51.1545Z" fill="#141414" fill-opacity="0.85"/>
<path opacity="0.85" fill-rule="evenodd" clip-rule="evenodd" d="M94.0098 49.8935L98.4584 47.2109L98.814 47.4253L94.3654 50.1079L94.0098 49.8935Z" fill="#141414" fill-opacity="0.85"/>
<path fill-rule="evenodd" clip-rule="evenodd" d="M100.897 59.1552L96.4484 56.4727L92 59.1552L96.4484 61.8378L100.897 59.1552Z" fill="#BAB6BF" fill-opacity="0.85"/>
<path opacity="0.85" fill-rule="evenodd" clip-rule="evenodd" d="M100.897 59.1552L96.4484 56.4727L92 59.1552L96.4484 61.8378L100.897 59.1552Z" stroke="#141414" stroke-opacity="0.85" stroke-width="0.7" stroke-linecap="round" stroke-linejoin="round"/>
<path opacity="0.85" fill-rule="evenodd" clip-rule="evenodd" d="M92 59.1543V64.287L96.4484 66.9693V61.8369L92 59.1543Z" fill="white" fill-opacity="0.85"/>
<path opacity="0.85" fill-rule="evenodd" clip-rule="evenodd" d="M92 59.1543V64.287L96.4484 66.9693V61.8369L92 59.1543Z" stroke="#141414" stroke-opacity="0.85" stroke-width="0.7" stroke-linecap="round" stroke-linejoin="round"/>
<path opacity="0.85" fill-rule="evenodd" clip-rule="evenodd" d="M96.4492 61.8369V66.9693L100.898 64.2872V59.1543L96.4492 61.8369Z" fill="#141414" fill-opacity="0.85"/>
<path opacity="0.85" fill-rule="evenodd" clip-rule="evenodd" d="M96.4492 61.8369V66.9693L100.898 64.2872V59.1543L96.4492 61.8369Z" stroke="#141414" stroke-opacity="0.85" stroke-width="0.7" stroke-linecap="round" stroke-linejoin="round"/>
<path opacity="0.85" fill-rule="evenodd" clip-rule="evenodd" d="M94.8032 61.6271L93.6465 60.9297V61.5393L94.8032 62.237V61.6271Z" fill="#141414" fill-opacity="0.85"/>
<path opacity="0.85" fill-rule="evenodd" clip-rule="evenodd" d="M94.0098 60.3662L98.4584 57.6836L98.814 57.898L94.3654 60.5805L94.0098 60.3662Z" fill="#141414" fill-opacity="0.85"/>
</g>
<g opacity="0.75">
<path d="M36.0005 50.4999L34.6816 49.8192L75.0005 25.5L78.4868 27.5624L36.0005 52.9999V50.4999Z" fill="#BAB6BF" fill-opacity="0.85"/>
<path d="M74.5 25.5V5L94 16V36.5L74.5 25.5Z" fill="white" fill-opacity="0.85"/>
<path opacity="0.85" d="M74.5 25.5L34.5 49.5L18.5 40.4466L74.5 5V25.5Z" fill="#5D5668" fill-opacity="0.85" stroke="#141414" stroke-opacity="0.85" stroke-width="0.7" stroke-linecap="round" stroke-linejoin="round"/>
<path fill-rule="evenodd" clip-rule="evenodd" d="M35 43.6823L39.4486 46.3649L43.897 43.6823L39.4486 41L35 43.6823Z" fill="#BAB6BF" fill-opacity="0.85"/>
<path opacity="0.85" fill-rule="evenodd" clip-rule="evenodd" d="M43.897 43.6826L39.4486 41L35 43.6826L39.4486 46.3652L43.897 43.6826Z" stroke="#141414" stroke-opacity="0.85" stroke-width="0.7" stroke-linecap="round" stroke-linejoin="round"/>
<path opacity="0.85" fill-rule="evenodd" clip-rule="evenodd" d="M35 48.8143L39.4486 51.4969V46.3642L35 43.6816V48.8143Z" fill="white" fill-opacity="0.85"/>
<path opacity="0.85" fill-rule="evenodd" clip-rule="evenodd" d="M35 43.6816V48.8143L39.4486 51.4969V46.3642L35 43.6816Z" stroke="#141414" stroke-opacity="0.85" stroke-width="0.7" stroke-linecap="round" stroke-linejoin="round"/>
<path opacity="0.85" fill-rule="evenodd" clip-rule="evenodd" d="M39.4492 46.3642V51.4969L43.8976 48.8146V43.6816L39.4492 46.3642Z" fill="#141414" fill-opacity="0.85"/>
<path opacity="0.85" fill-rule="evenodd" clip-rule="evenodd" d="M39.4492 46.3642V51.4969L43.8976 48.8146V43.6816L39.4492 46.3642Z" stroke="#141414" stroke-opacity="0.85" stroke-width="0.7" stroke-linecap="round" stroke-linejoin="round"/>
<path opacity="0.85" fill-rule="evenodd" clip-rule="evenodd" d="M37.8013 46.1545L36.6445 45.457V46.0664L37.8013 46.7641V46.1545Z" fill="#141414" fill-opacity="0.85"/>
<path opacity="0.85" fill-rule="evenodd" clip-rule="evenodd" d="M37.0078 44.8933L41.4562 42.2109L41.8118 42.4253L37.3634 45.1079L37.0078 44.8933Z" fill="#141414" fill-opacity="0.85"/>
<path fill-rule="evenodd" clip-rule="evenodd" d="M46 37.6823L50.4486 40.3649L54.897 37.6823L50.4486 35L46 37.6823Z" fill="#BAB6BF" fill-opacity="0.85"/>
<path opacity="0.85" fill-rule="evenodd" clip-rule="evenodd" d="M54.897 37.6826L50.4486 35L46 37.6826L50.4486 40.3652L54.897 37.6826Z" stroke="#141414" stroke-opacity="0.85" stroke-width="0.7" stroke-linecap="round" stroke-linejoin="round"/>
<path opacity="0.85" fill-rule="evenodd" clip-rule="evenodd" d="M46 42.8143L50.4486 45.4969V40.3642L46 37.6816V42.8143Z" fill="white" fill-opacity="0.85"/>
<path opacity="0.85" fill-rule="evenodd" clip-rule="evenodd" d="M46 37.6816V42.8143L50.4486 45.4969V40.3642L46 37.6816Z" stroke="#141414" stroke-opacity="0.85" stroke-width="0.7" stroke-linecap="round" stroke-linejoin="round"/>
<path opacity="0.85" fill-rule="evenodd" clip-rule="evenodd" d="M50.4492 40.3642V45.4969L54.8976 42.8146V37.6816L50.4492 40.3642Z" fill="#141414" fill-opacity="0.85"/>
<path opacity="0.85" fill-rule="evenodd" clip-rule="evenodd" d="M50.4492 40.3642V45.4969L54.8976 42.8146V37.6816L50.4492 40.3642Z" stroke="#141414" stroke-opacity="0.85" stroke-width="0.7" stroke-linecap="round" stroke-linejoin="round"/>
<path opacity="0.85" fill-rule="evenodd" clip-rule="evenodd" d="M48.8013 40.1545L47.6445 39.457V40.0664L48.8013 40.7641V40.1545Z" fill="#141414" fill-opacity="0.85"/>
<path opacity="0.85" fill-rule="evenodd" clip-rule="evenodd" d="M48.0078 38.8933L52.4562 36.2109L52.8118 36.4253L48.3634 39.1079L48.0078 38.8933Z" fill="#141414" fill-opacity="0.85"/>
<path opacity="0.85" d="M95.8097 15.2514L94.1057 16.2649L74.6113 5.00049L76.2941 4L95.8097 15.2514ZM95.8097 15.2514V17.5005M94.1113 18.5005V16.2616M74.6113 25.5L78.5004 27.7472" stroke="#141414" stroke-opacity="0.85" stroke-width="0.7" stroke-linecap="round" stroke-linejoin="round"/>
<path d="M15.035 40.5203L15 40.5412V65.7517L16.7819 66.7554V64.526L31.8363 73.2368V75.4437L34.5294 76.994V51.7848M15.035 40.5203L34.5294 51.7848M15.035 40.5203L16.7178 39.5196L36.2334 50.7711M34.5294 51.7848L36.2334 50.7711M36.2334 50.7711V53" stroke="#141414" stroke-opacity="0.85" stroke-width="0.7" stroke-linecap="round" stroke-linejoin="round"/>
<path opacity="0.85" fill-rule="evenodd" clip-rule="evenodd" d="M34.5293 53.5V76.994L37.3981 75.2745V73.0056L64.8213 56.7447V59.0001L66.8354 57.7931V55.6444L94.0605 39.125V41.0951L95.8092 39.6882V16.9669L34.5293 53.5Z" fill="#141414" fill-opacity="0.85"/>
<g opacity="0.85">
<g opacity="0.85">
<path opacity="0.85" fill-rule="evenodd" clip-rule="evenodd" d="M34.2889 53.6737L29.1484 50.6708V49.0488L34.2889 52.0274V53.6737Z" fill="#141414" fill-opacity="0.85" stroke="#141414" stroke-opacity="0.85" stroke-width="0.7" stroke-linejoin="round"/>
<path opacity="0.85" fill-rule="evenodd" clip-rule="evenodd" d="M31.9478 50.6719L30.5527 51.5097L31.2611 51.9205L32.6565 51.0825L31.9478 50.6719Z" fill="#FFBE4A" fill-opacity="0.85"/>
<path opacity="0.85" fill-rule="evenodd" clip-rule="evenodd" d="M33.3795 51.5L31.9844 52.3375L32.797 52.8086L34.1921 51.9711L33.3795 51.5Z" fill="#FFBE4A" fill-opacity="0.85"/>
<path opacity="0.85" fill-rule="evenodd" clip-rule="evenodd" d="M30.5233 49.8457L29.1484 50.671L29.8479 51.1005L31.243 50.2627L30.5233 49.8457Z" fill="#FFBE4A" fill-opacity="0.85"/>
<path opacity="0.85" fill-rule="evenodd" clip-rule="evenodd" d="M29.1484 49.0488V49.9792L29.9363 49.5056L29.1484 49.0488Z" fill="#FFBE4A" fill-opacity="0.85"/>
<path opacity="0.85" fill-rule="evenodd" clip-rule="evenodd" d="M34.2896 52.7891L33.5391 53.2402L34.2896 53.6755V52.7891Z" fill="#FFBE4A" fill-opacity="0.85"/>
</g>
<g opacity="0.85">
<path opacity="0.85" fill-rule="evenodd" clip-rule="evenodd" d="M20.1116 45.5624L15.1816 42.5598V40.9375L20.1116 43.9118V45.5624Z" fill="#141414" fill-opacity="0.85" stroke="#141414" stroke-opacity="0.85" stroke-linejoin="round"/>
<path opacity="0.85" fill-rule="evenodd" clip-rule="evenodd" d="M17.8673 42.5586L16.5293 43.3961L17.2087 43.807L18.5469 42.9692L17.8673 42.5586Z" fill="#FFBE4A" fill-opacity="0.85"/>
<path opacity="0.85" fill-rule="evenodd" clip-rule="evenodd" d="M19.2403 43.3906L17.9023 44.2284L18.6817 44.6993L20.0199 43.8617L19.2403 43.3906Z" fill="#FFBE4A" fill-opacity="0.85"/>
<path opacity="0.85" fill-rule="evenodd" clip-rule="evenodd" d="M16.5005 41.7344L15.1816 42.5599L15.8525 42.9892L17.1904 42.1514L16.5005 41.7344Z" fill="#FFBE4A" fill-opacity="0.85"/>
<path opacity="0.85" fill-rule="evenodd" clip-rule="evenodd" d="M15.1816 40.9375V41.8682L15.9372 41.3945L15.1816 40.9375Z" fill="#FFBE4A" fill-opacity="0.85"/>
<path opacity="0.85" fill-rule="evenodd" clip-rule="evenodd" d="M20.1104 44.6758L19.3906 45.1267L20.1104 45.562V44.6758Z" fill="#FFBE4A" fill-opacity="0.85"/>
</g>
</g>
<path opacity="0.85" fill-rule="evenodd" clip-rule="evenodd" d="M16.7812 62.4219V62.4272L32.7469 71.6433V53.055L16.7812 43.8301V62.4219Z" stroke="#141414" stroke-opacity="0.85" stroke-width="0.7" stroke-linecap="round" stroke-linejoin="round"/>
<path opacity="0.85" d="M24.1113 48V66.5" stroke="#141414" stroke-opacity="0.85" stroke-width="0.7" stroke-linecap="round" stroke-linejoin="round"/>
<path d="M29.1113 49V71.5M20.1113 43.5V66.3489" stroke="#141414" stroke-opacity="0.85" stroke-width="0.7" stroke-linecap="round" stroke-linejoin="round"/>
<path opacity="0.85" d="M17.4102 47.75L16.1111 47" stroke="#141414" stroke-opacity="0.85" stroke-width="0.7" stroke-linecap="round" stroke-linejoin="round"/>
<path opacity="0.85" d="M33.4102 56.75L32.1111 56" stroke="#141414" stroke-opacity="0.85" stroke-width="0.7" stroke-linecap="round" stroke-linejoin="round"/>
<path opacity="0.85" d="M27.4102 58.75L26.1111 58" stroke="#141414" stroke-opacity="0.85" stroke-width="0.7" stroke-linecap="round" stroke-linejoin="round"/>
<path opacity="0.85" d="M22.4102 55.75L21.1111 55" stroke="#141414" stroke-opacity="0.85" stroke-width="0.7" stroke-linecap="round" stroke-linejoin="round"/>
<path opacity="0.85" d="M17.4102 53.75L16.1111 53" stroke="#141414" stroke-opacity="0.85" stroke-width="0.7" stroke-linecap="round" stroke-linejoin="round"/>
<path opacity="0.85" d="M33.4102 62.75L32.1111 62" stroke="#141414" stroke-opacity="0.85" stroke-width="0.7" stroke-linecap="round" stroke-linejoin="round"/>
<path opacity="0.85" d="M17.4102 59.75L16.1111 59" stroke="#141414" stroke-opacity="0.85" stroke-width="0.7" stroke-linecap="round" stroke-linejoin="round"/>
<path opacity="0.85" d="M33.4102 68.75L32.1111 68" stroke="#141414" stroke-opacity="0.85" stroke-width="0.7" stroke-linecap="round" stroke-linejoin="round"/>
<path opacity="0.85" fill-rule="evenodd" clip-rule="evenodd" d="M94.0608 41.0823L92.3906 40.1391L94.0608 39.125V41.0823Z" fill="white" fill-opacity="0.85"/>
<path opacity="0.85" fill-rule="evenodd" clip-rule="evenodd" d="M94.0608 41.0823L92.3906 40.1391L94.0608 39.125V41.0823Z" stroke="#141414" stroke-opacity="0.85" stroke-width="0.7" stroke-linecap="round" stroke-linejoin="round"/>
<path opacity="0.85" fill-rule="evenodd" clip-rule="evenodd" d="M16.7812 66.7565L18.7238 65.6497L16.7812 64.5273V66.7565Z" fill="white" fill-opacity="0.85"/>
<path opacity="0.85" fill-rule="evenodd" clip-rule="evenodd" d="M16.7812 66.7565L18.7238 65.6497L16.7812 64.5273V66.7565Z" stroke="#141414" stroke-opacity="0.85" stroke-width="0.7" stroke-linecap="round" stroke-linejoin="round"/>
<path opacity="0.85" fill-rule="evenodd" clip-rule="evenodd" d="M64.8216 56.7461V59.0015L62.9199 57.8738L64.8216 56.7461Z" fill="white" fill-opacity="0.85"/>
<path opacity="0.85" fill-rule="evenodd" clip-rule="evenodd" d="M64.8216 56.7461V59.0015L62.9199 57.8738L64.8216 56.7461Z" stroke="#141414" stroke-opacity="0.85" stroke-width="0.7" stroke-linecap="round" stroke-linejoin="round"/>
<path opacity="0.85" fill-rule="evenodd" clip-rule="evenodd" d="M48.709 64.1153L50.7233 62.9176V45.6074L48.709 46.8165V64.1153Z" fill="white" fill-opacity="0.85"/>
<path opacity="0.85" fill-rule="evenodd" clip-rule="evenodd" d="M52.7383 61.7205L54.7523 60.5232V43.1895L52.7383 44.3986V61.7205Z" fill="white" fill-opacity="0.85"/>
<path opacity="0.85" fill-rule="evenodd" clip-rule="evenodd" d="M60.793 56.9293L62.807 55.7317V38.3516L60.793 39.5609V56.9293Z" fill="white" fill-opacity="0.85"/>
<path opacity="0.85" fill-rule="evenodd" clip-rule="evenodd" d="M64.8203 54.5346L66.8346 53.337V35.9336L64.8203 37.1432V54.5346Z" fill="white" fill-opacity="0.85"/>
<path opacity="0.85" fill-rule="evenodd" clip-rule="evenodd" d="M68.8496 52.1396L70.8637 50.942V33.5156L68.8496 34.7247V52.1396Z" fill="white" fill-opacity="0.85"/>
<path opacity="0.85" fill-rule="evenodd" clip-rule="evenodd" d="M72.8047 49.7864L74.7459 48.6324V31.1836L72.8047 32.3488V49.7864Z" fill="white" fill-opacity="0.85"/>
<path opacity="0.85" fill-rule="evenodd" clip-rule="evenodd" d="M76.6875 47.479L78.6288 46.325V28.8535L76.6875 30.019V47.479Z" fill="white" fill-opacity="0.85"/>
<path opacity="0.85" fill-rule="evenodd" clip-rule="evenodd" d="M80.5684 45.1692L82.5096 44.0152V26.5215L80.5684 27.6869V45.1692Z" fill="white" fill-opacity="0.85"/>
<path opacity="0.85" fill-rule="evenodd" clip-rule="evenodd" d="M84.4512 42.8609L86.3743 41.7173V24.2012L84.4512 25.3562V42.8609Z" fill="white" fill-opacity="0.85"/>
<path opacity="0.85" fill-rule="evenodd" clip-rule="evenodd" d="M88.3164 40.5634L90.2577 39.4095V21.8711L88.3164 23.0363V40.5634Z" fill="white" fill-opacity="0.85"/>
<path opacity="0.85" fill-rule="evenodd" clip-rule="evenodd" d="M92.1973 38.2543L94.0609 37.1462V19.5859L92.1973 20.705V38.2543Z" fill="white" fill-opacity="0.85"/>
<path opacity="0.85" fill-rule="evenodd" clip-rule="evenodd" d="M38.6391 60.7812L36.625 61.9904V71.3018L38.6391 70.1039V60.7812Z" fill="white" fill-opacity="0.85"/>
<path opacity="0.85" fill-rule="evenodd" clip-rule="evenodd" d="M40.6523 68.9068L42.6662 67.7092V58.3633L40.6523 59.5726V68.9068Z" fill="white" fill-opacity="0.85"/>
<path opacity="0.85" fill-rule="evenodd" clip-rule="evenodd" d="M44.6797 66.5103L46.6938 65.3126V48.0254L44.6797 49.2347V66.5103Z" fill="white" fill-opacity="0.85"/>
<path opacity="0.85" fill-rule="evenodd" clip-rule="evenodd" d="M56.7656 59.3241L58.7797 58.1265V40.7695L56.7656 41.9786V59.3241Z" fill="white" fill-opacity="0.85"/>
<path opacity="0.85" fill-rule="evenodd" clip-rule="evenodd" d="M36.625 62.0009L42.6672 58.1488V49.3125L36.625 52.9403V62.0009Z" fill="#141414" fill-opacity="0.85"/>
<path opacity="0.85" fill-rule="evenodd" clip-rule="evenodd" d="M36.625 62.0009L42.6672 58.1488V49.3125L36.625 52.9403V62.0009Z" stroke="#141414" stroke-opacity="0.85" stroke-width="0.7" stroke-linecap="round" stroke-linejoin="round"/>
<path opacity="0.85" fill-rule="evenodd" clip-rule="evenodd" d="M35.6289 60.7658L42.6654 56.2854V50.5137L35.6289 54.7647V60.7658Z" fill="#FFBE4A" fill-opacity="0.85"/>
<path opacity="0.85" fill-rule="evenodd" clip-rule="evenodd" d="M37.9727 54.0978L38.7991 53.6035V57.9796L37.9727 58.5453V54.0978Z" fill="#141414" fill-opacity="0.85"/>
<path opacity="0.85" fill-rule="evenodd" clip-rule="evenodd" d="M39.8867 52.9495L40.765 52.4238V54.9444H39.8867V52.9495Z" fill="#141414" fill-opacity="0.85"/>
<path opacity="0.85" fill-rule="evenodd" clip-rule="evenodd" d="M37.6923 54.2657L36.25 57.8297L37.4118 57.0991L38.4403 54.5696V53.8184L37.6923 54.2657Z" fill="#141414" fill-opacity="0.85"/>
<path opacity="0.85" fill-rule="evenodd" clip-rule="evenodd" d="M36.248 57.8302L39.4066 55.8438V56.8288L36.2595 58.8313L36.248 57.8302Z" fill="#141414" fill-opacity="0.85"/>
<path opacity="0.85" fill-rule="evenodd" clip-rule="evenodd" d="M39.8867 52.9484L42.0536 51.6543V52.7271L39.8867 53.9885V52.9484Z" fill="#141414" fill-opacity="0.85"/>
<path opacity="0.85" fill-rule="evenodd" clip-rule="evenodd" d="M41.1582 55.783H42.0544V54.1641H41.1582V55.783Z" fill="#141414" fill-opacity="0.85"/>
<path opacity="0.85" fill-rule="evenodd" clip-rule="evenodd" d="M39.8867 54.6056L42.0536 53.2832V54.2637L39.8867 55.6397V54.6056Z" fill="#141414" fill-opacity="0.85"/>
<path opacity="0.85" fill-rule="evenodd" clip-rule="evenodd" d="M39.8867 56.2393L42.0536 54.8008V55.8874L39.8867 57.2953V56.2393Z" fill="#141414" fill-opacity="0.85"/>
<mask id="mask0_2167_355602" style="mask-type:alpha" maskUnits="userSpaceOnUse" x="39" y="43" width="10" height="8">
<path d="M39.5 50.5L39 45L45 43L49 45L39.5 50.5Z" fill="#D9D9D9"/>
</mask>
<g mask="url(#mask0_2167_355602)">
<path fill-rule="evenodd" clip-rule="evenodd" d="M40 46.6823L44.4486 49.3649L48.897 46.6823L44.4486 44L40 46.6823Z" fill="#BAB6BF" fill-opacity="0.85"/>
<path opacity="0.85" fill-rule="evenodd" clip-rule="evenodd" d="M48.897 46.6826L44.4486 44L40 46.6826L44.4486 49.3652L48.897 46.6826Z" stroke="#141414" stroke-opacity="0.85" stroke-width="0.7" stroke-linecap="round" stroke-linejoin="round"/>
<path opacity="0.85" fill-rule="evenodd" clip-rule="evenodd" d="M40 51.8143L44.4486 54.4969V49.3642L40 46.6816V51.8143Z" fill="white" fill-opacity="0.85"/>
<path opacity="0.85" fill-rule="evenodd" clip-rule="evenodd" d="M40 46.6816V51.8143L44.4486 54.4969V49.3642L40 46.6816Z" stroke="#141414" stroke-opacity="0.85" stroke-width="0.7" stroke-linecap="round" stroke-linejoin="round"/>
<path opacity="0.85" fill-rule="evenodd" clip-rule="evenodd" d="M44.4492 49.3642V54.4969L48.8976 51.8146V46.6816L44.4492 49.3642Z" fill="#141414" fill-opacity="0.85"/>
<path opacity="0.85" fill-rule="evenodd" clip-rule="evenodd" d="M44.4492 49.3642V54.4969L48.8976 51.8146V46.6816L44.4492 49.3642Z" stroke="#141414" stroke-opacity="0.85" stroke-width="0.7" stroke-linecap="round" stroke-linejoin="round"/>
<path opacity="0.85" fill-rule="evenodd" clip-rule="evenodd" d="M42.8013 49.1545L41.6445 48.457V49.0664L42.8013 49.7641V49.1545Z" fill="#141414" fill-opacity="0.85"/>
<path opacity="0.85" fill-rule="evenodd" clip-rule="evenodd" d="M42.0078 47.8933L46.4562 45.2109L46.8118 45.4253L42.3634 48.1079L42.0078 47.8933Z" fill="#141414" fill-opacity="0.85"/>
</g>
<path opacity="0.85" fill-rule="evenodd" clip-rule="evenodd" d="M34.5293 54V76.9946L37.3981 75.2751V73.0065L64.8213 56.7456V59.001L66.8354 57.7939V55.6452L94.0608 39.1258V41.0959L95.8092 39.689V17.4666L34.5293 54Z" stroke="#141414" stroke-opacity="0.85" stroke-width="0.7" stroke-linecap="round" stroke-linejoin="round"/>
</g>
</svg>
