<svg width="102" height="76" viewBox="0 0 102 76" fill="none" xmlns="http://www.w3.org/2000/svg">
<g id="img/container/RF40" opacity="0.75">
<path id="Stroke-1" opacity="0.85" fill-rule="evenodd" clip-rule="evenodd" d="M32.3008 49.4598V75.0251L35.21 73.2812V71.0015L66.1236 52.6462V54.9336L68.1664 53.7092V51.5301L92.6727 36.6214V38.6195L94.4457 37.1926V12.9199L32.3008 49.4598Z" fill="white" stroke="#141414" stroke-width="0.7" stroke-linecap="round" stroke-linejoin="round"/>
<path id="Fill-3" opacity="0.85" fill-rule="evenodd" clip-rule="evenodd" d="M92.6723 38.6041L90.9785 37.6475L92.6723 36.6191V38.6041Z" fill="#141414"/>
<path id="Stroke-4" opacity="0.85" fill-rule="evenodd" clip-rule="evenodd" d="M92.6723 38.6041L90.9785 37.6475L92.6723 36.6191V38.6041Z" stroke="#141414" stroke-width="0.7" stroke-linecap="round" stroke-linejoin="round"/>
<path id="Fill-5" opacity="0.85" fill-rule="evenodd" clip-rule="evenodd" d="M66.1237 52.6465V54.9338L64.1953 53.7902L66.1237 52.6465Z" fill="#141414"/>
<path id="Stroke-6" opacity="0.85" fill-rule="evenodd" clip-rule="evenodd" d="M66.1237 52.6465V54.9338L64.1953 53.7902L66.1237 52.6465Z" stroke="#141414" stroke-width="0.7" stroke-linecap="round" stroke-linejoin="round"/>
<path id="Stroke-8" opacity="0.85" fill-rule="evenodd" clip-rule="evenodd" d="M74.655 1L12.5312 38.036L32.301 49.4592L94.4459 12.9193L74.655 1Z" fill="white" stroke="#141414" stroke-width="0.7" stroke-linecap="round" stroke-linejoin="round"/>
<path id="Fill-10" opacity="0.85" fill-rule="evenodd" clip-rule="evenodd" d="M0.666016 62.2516L5.17725 64.9721L9.68873 62.2516L5.17725 59.5312L0.666016 62.2516Z" fill="#DDE2EA"/>
<path id="Stroke-11" opacity="0.85" fill-rule="evenodd" clip-rule="evenodd" d="M9.68874 62.2516L5.17725 59.5312L0.666016 62.2516L5.17725 64.9722L9.68874 62.2516Z" stroke="#141414" stroke-width="0.7" stroke-linecap="round" stroke-linejoin="round"/>
<path id="Fill-13" opacity="0.85" fill-rule="evenodd" clip-rule="evenodd" d="M0.666016 67.4552L5.17725 70.1758V64.9706L0.666016 62.25V67.4552Z" fill="white"/>
<path id="Stroke-14" opacity="0.85" fill-rule="evenodd" clip-rule="evenodd" d="M0.666016 62.25V67.4552L5.17725 70.1758V64.9706L0.666016 62.25Z" stroke="#141414" stroke-width="0.7" stroke-linecap="round" stroke-linejoin="round"/>
<path id="Fill-16" opacity="0.85" fill-rule="evenodd" clip-rule="evenodd" d="M5.17773 64.9706V70.1758L9.68922 67.4554V62.25L5.17773 64.9706Z" fill="#5C6373"/>
<path id="Stroke-17" opacity="0.85" fill-rule="evenodd" clip-rule="evenodd" d="M5.17773 64.9706V70.1758L9.68922 67.4554V62.25L5.17773 64.9706Z" stroke="#141414" stroke-width="0.7" stroke-linecap="round" stroke-linejoin="round"/>
<path id="Fill-18" opacity="0.85" fill-rule="evenodd" clip-rule="evenodd" d="M3.50715 64.756L2.33398 64.0488V64.6669L3.50715 65.3745V64.756Z" fill="#141414"/>
<path id="Fill-19" opacity="0.85" fill-rule="evenodd" clip-rule="evenodd" d="M2.70312 63.4784L7.21436 60.7578L7.57492 60.9754L3.06369 63.6958L2.70312 63.4784Z" fill="#141414"/>
<path id="Fill-20" opacity="0.85" fill-rule="evenodd" clip-rule="evenodd" d="M78.7317 61.3026L74.2202 58.582L69.709 61.3026L74.2202 64.0229L78.7317 61.3026Z" fill="#DDE2EA"/>
<path id="Stroke-21" opacity="0.85" fill-rule="evenodd" clip-rule="evenodd" d="M78.7317 61.3026L74.2202 58.582L69.709 61.3026L74.2202 64.0229L78.7317 61.3026Z" stroke="#141414" stroke-width="0.7" stroke-linecap="round" stroke-linejoin="round"/>
<path id="Fill-22" opacity="0.85" fill-rule="evenodd" clip-rule="evenodd" d="M69.709 61.3027V66.5077L74.2202 69.2282V64.0231L69.709 61.3027Z" fill="white"/>
<path id="Stroke-23" opacity="0.85" fill-rule="evenodd" clip-rule="evenodd" d="M69.709 61.3027V66.5077L74.2202 69.2282V64.0231L69.709 61.3027Z" stroke="#141414" stroke-width="0.7" stroke-linecap="round" stroke-linejoin="round"/>
<path id="Fill-24" opacity="0.85" fill-rule="evenodd" clip-rule="evenodd" d="M74.2207 64.0231V69.2282L78.7322 66.5079V61.3027L74.2207 64.0231Z" fill="#5C6373"/>
<path id="Stroke-25" opacity="0.85" fill-rule="evenodd" clip-rule="evenodd" d="M74.2207 64.0231V69.2282L78.7322 66.5079V61.3027L74.2207 64.0231Z" stroke="#141414" stroke-width="0.7" stroke-linecap="round" stroke-linejoin="round"/>
<path id="Fill-26" opacity="0.85" fill-rule="evenodd" clip-rule="evenodd" d="M72.5501 63.8089L71.377 63.1016V63.7196L72.5501 64.4272V63.8089Z" fill="#141414"/>
<path id="Fill-27" opacity="0.85" fill-rule="evenodd" clip-rule="evenodd" d="M71.7441 62.5311L76.2556 59.8105L76.6159 60.0282L72.1047 62.7485L71.7441 62.5311Z" fill="#141414"/>
<path id="Fill-28" opacity="0.85" fill-rule="evenodd" clip-rule="evenodd" d="M92.4736 57.5311L87.9624 54.8105L83.4512 57.5311L87.9624 60.2514L92.4736 57.5311Z" fill="#DDE2EA"/>
<path id="Stroke-29" opacity="0.85" fill-rule="evenodd" clip-rule="evenodd" d="M92.4736 57.5311L87.9624 54.8105L83.4512 57.5311L87.9624 60.2514L92.4736 57.5311Z" stroke="#141414" stroke-width="0.7" stroke-linecap="round" stroke-linejoin="round"/>
<path id="Fill-30" opacity="0.85" fill-rule="evenodd" clip-rule="evenodd" d="M83.4531 57.5312V62.7364L87.9644 65.4568V60.2516L83.4531 57.5312Z" fill="white"/>
<path id="Stroke-31" opacity="0.85" fill-rule="evenodd" clip-rule="evenodd" d="M83.4531 57.5312V62.7364L87.9644 65.4568V60.2516L83.4531 57.5312Z" stroke="#141414" stroke-width="0.7" stroke-linecap="round" stroke-linejoin="round"/>
<path id="Fill-32" opacity="0.85" fill-rule="evenodd" clip-rule="evenodd" d="M87.9629 60.2516V65.4568L92.4741 62.7367V57.5312L87.9629 60.2516Z" fill="black"/>
<path id="Stroke-33" opacity="0.85" fill-rule="evenodd" clip-rule="evenodd" d="M87.9629 60.2516V65.4568L92.4741 62.7367V57.5312L87.9629 60.2516Z" stroke="black" stroke-width="0.7" stroke-linecap="round" stroke-linejoin="round"/>
<path id="Fill-34" opacity="0.85" fill-rule="evenodd" clip-rule="evenodd" d="M86.2943 60.0375L85.1211 59.3301V59.9484L86.2943 60.656V60.0375Z" fill="#141414"/>
<path id="Fill-35" opacity="0.85" fill-rule="evenodd" clip-rule="evenodd" d="M85.4883 58.7594L89.9995 56.0391L90.3601 56.2564L85.8488 58.9768L85.4883 58.7594Z" fill="#141414"/>
<path id="Fill-36" opacity="0.85" fill-rule="evenodd" clip-rule="evenodd" d="M101.497 57.4137L96.9861 54.6934L92.4746 57.4137L96.9861 60.1343L101.497 57.4137Z" fill="#DDE2EA"/>
<path id="Stroke-37" opacity="0.85" fill-rule="evenodd" clip-rule="evenodd" d="M101.497 57.4137L96.9861 54.6934L92.4746 57.4137L96.9861 60.1343L101.497 57.4137Z" stroke="#141414" stroke-width="0.7" stroke-linecap="round" stroke-linejoin="round"/>
<path id="Fill-39" opacity="0.85" fill-rule="evenodd" clip-rule="evenodd" d="M92.4746 57.4141V62.6193L96.9861 65.3398V60.1346L92.4746 57.4141Z" fill="white"/>
<path id="Stroke-40" opacity="0.85" fill-rule="evenodd" clip-rule="evenodd" d="M92.4746 57.4141V62.6193L96.9861 65.3398V60.1346L92.4746 57.4141Z" stroke="black" stroke-width="0.7" stroke-linecap="round" stroke-linejoin="round"/>
<path id="Fill-41" opacity="0.85" fill-rule="evenodd" clip-rule="evenodd" d="M96.9863 60.1346V65.3398L101.498 62.6195V57.4141L96.9863 60.1346Z" fill="#5C6373"/>
<path id="Stroke-42" opacity="0.85" fill-rule="evenodd" clip-rule="evenodd" d="M96.9863 60.1346V65.3398L101.498 62.6195V57.4141L96.9863 60.1346Z" stroke="#141414" stroke-width="0.7" stroke-linecap="round" stroke-linejoin="round"/>
<path id="Fill-44" opacity="0.85" fill-rule="evenodd" clip-rule="evenodd" d="M95.3177 59.9181L94.1445 59.2109V59.6238L95.3177 60.3312V59.9181Z" fill="black"/>
<path id="Fill-45" opacity="0.85" fill-rule="evenodd" clip-rule="evenodd" d="M94.5117 58.6425L99.023 55.9219L99.3835 56.1395L94.872 58.8598L94.5117 58.6425Z" fill="#141414"/>
<path id="Fill-46" opacity="0.85" fill-rule="evenodd" clip-rule="evenodd" d="M96.9856 49.4862L92.4741 46.7656L87.9629 49.4862L92.4741 52.2065L96.9856 49.4862Z" fill="#DDE2EA"/>
<path id="Stroke-47" opacity="0.85" fill-rule="evenodd" clip-rule="evenodd" d="M96.9856 49.4862L92.4741 46.7656L87.9629 49.4862L92.4741 52.2065L96.9856 49.4862Z" stroke="#141414" stroke-width="0.7" stroke-linecap="round" stroke-linejoin="round"/>
<path id="Fill-48" opacity="0.85" fill-rule="evenodd" clip-rule="evenodd" d="M87.9629 49.4863V54.6915L92.4741 57.4118V52.2066L87.9629 49.4863Z" fill="white"/>
<path id="Stroke-49" opacity="0.85" fill-rule="evenodd" clip-rule="evenodd" d="M87.9629 49.4863V54.6915L92.4741 57.4118V52.2066L87.9629 49.4863Z" stroke="#141414" stroke-width="0.7" stroke-linecap="round" stroke-linejoin="round"/>
<path id="Fill-50" opacity="0.85" fill-rule="evenodd" clip-rule="evenodd" d="M92.4746 52.2067V57.4118L96.9861 54.6918V49.4863L92.4746 52.2067Z" fill="#5C6373"/>
<path id="Stroke-51" opacity="0.85" fill-rule="evenodd" clip-rule="evenodd" d="M92.4746 52.2067V57.4118L96.9861 54.6918V49.4863L92.4746 52.2067Z" stroke="#141414" stroke-width="0.7" stroke-linecap="round" stroke-linejoin="round"/>
<path id="Fill-52" opacity="0.85" fill-rule="evenodd" clip-rule="evenodd" d="M90.806 51.9945L89.6328 51.2871V51.9054L90.806 52.613V51.9945Z" fill="#141414"/>
<path id="Fill-53" opacity="0.85" fill-rule="evenodd" clip-rule="evenodd" d="M90.002 50.7145L94.5134 47.9941L94.8737 48.2115L90.3625 50.9318L90.002 50.7145Z" fill="#141414"/>
<path id="Fill-54" fill-rule="evenodd" clip-rule="evenodd" d="M96.9856 60.1073L92.4741 57.3867L87.9629 60.1073L92.4741 62.8276L96.9856 60.1073Z" fill="#DDE2EA"/>
<path id="Stroke-55" opacity="0.85" fill-rule="evenodd" clip-rule="evenodd" d="M96.9856 60.1073L92.4741 57.3867L87.9629 60.1073L92.4741 62.8276L96.9856 60.1073Z" stroke="#141414" stroke-width="0.7" stroke-linecap="round" stroke-linejoin="round"/>
<path id="Fill-56" opacity="0.85" fill-rule="evenodd" clip-rule="evenodd" d="M87.9629 60.1074V65.3124L92.4741 68.0329V62.8277L87.9629 60.1074Z" fill="white"/>
<path id="Stroke-57" opacity="0.85" fill-rule="evenodd" clip-rule="evenodd" d="M87.9629 60.1074V65.3124L92.4741 68.0329V62.8277L87.9629 60.1074Z" stroke="#141414" stroke-width="0.7" stroke-linecap="round" stroke-linejoin="round"/>
<path id="Fill-58" opacity="0.85" fill-rule="evenodd" clip-rule="evenodd" d="M92.4746 62.8277V68.0329L96.9861 65.3126V60.1074L92.4746 62.8277Z" fill="#5C6373"/>
<path id="Stroke-59" opacity="0.85" fill-rule="evenodd" clip-rule="evenodd" d="M92.4746 62.8277V68.0329L96.9861 65.3126V60.1074L92.4746 62.8277Z" stroke="#141414" stroke-width="0.7" stroke-linecap="round" stroke-linejoin="round"/>
<path id="Fill-60" opacity="0.85" fill-rule="evenodd" clip-rule="evenodd" d="M90.806 62.6136L89.6328 61.9062V62.5243L90.806 63.2319V62.6136Z" fill="#141414"/>
<path id="Fill-61" opacity="0.85" fill-rule="evenodd" clip-rule="evenodd" d="M90.002 61.3358L94.5134 58.6152L94.8737 58.8329L90.3625 61.5532L90.002 61.3358Z" fill="#141414"/>
<path id="Stroke-62" opacity="0.85" fill-rule="evenodd" clip-rule="evenodd" d="M12.5296 38.0371L12.4941 38.0582V63.6245L14.3013 64.6424V62.3818L29.568 71.2155V73.4535L32.2993 75.0255V49.4603L12.5296 38.0371Z" fill="white" stroke="#141414" stroke-width="0.7" stroke-linecap="round" stroke-linejoin="round"/>
<path id="Fill-64" opacity="0.85" fill-rule="evenodd" clip-rule="evenodd" d="M14.3027 64.6415L16.2724 63.5194L14.3027 62.3809V64.6415Z" fill="#141414"/>
<path id="Stroke-65" opacity="0.85" fill-rule="evenodd" clip-rule="evenodd" d="M14.3027 64.6415L16.2724 63.5194L14.3027 62.3809V64.6415Z" stroke="#141414" stroke-width="0.7" stroke-linecap="round" stroke-linejoin="round"/>
<g id="Group-199" opacity="0.85">
<path id="Stroke-66" opacity="0.85" fill-rule="evenodd" clip-rule="evenodd" d="M24.7374 52.0348L27.4254 53.5875C27.6461 53.7151 27.9218 53.556 27.9218 53.3017V50.8794C27.9218 50.5579 27.7503 50.2609 27.4718 50.1L24.7837 48.5468C24.5631 48.4195 24.2871 48.5783 24.2871 48.8329V51.2554C24.2871 51.5769 24.4589 51.8739 24.7374 52.0348Z" stroke="#CCCCD8" stroke-width="0.7" stroke-linecap="round" stroke-linejoin="round"/>
<path id="Stroke-68" opacity="0.85" fill-rule="evenodd" clip-rule="evenodd" d="M16.7314 47.8765L19.477 49.4032C19.7023 49.5282 19.9844 49.3722 19.9844 49.122V46.2441C19.9844 45.9279 19.8091 45.636 19.5247 45.4776L16.7788 43.9504C16.5536 43.8251 16.2715 43.9814 16.2715 44.2319V47.11C16.2715 47.4259 16.4468 47.7181 16.7314 47.8765Z" stroke="#CCCCD8" stroke-width="0.7" stroke-linecap="round" stroke-linejoin="round"/>
<path id="Fill-70" opacity="0.85" fill-rule="evenodd" clip-rule="evenodd" d="M14.3027 57.0016L30.4936 66.407V60.8187L28.3896 57.099L16.7225 50.3574L14.3027 51.1305V57.0016Z" fill="#8B919C"/>
<path id="Stroke-72" opacity="0.85" fill-rule="evenodd" clip-rule="evenodd" d="M22.8379 56.7712C23.1722 57.9568 22.7581 59.1109 21.9124 59.3492C21.0669 59.5872 20.1104 58.8187 19.7758 57.6328C19.4417 56.4471 19.8561 55.2928 20.7013 55.055C21.547 54.8168 22.5036 55.5855 22.8379 56.7712Z" stroke="white" stroke-width="0.7" stroke-linecap="round" stroke-linejoin="round"/>
<path id="Fill-74" opacity="0.85" fill-rule="evenodd" clip-rule="evenodd" d="M21.8161 57.0609C21.9639 57.5853 21.8561 58.074 21.575 58.1532C21.294 58.2326 20.9464 57.8717 20.7986 57.3473C20.6508 56.8229 20.7589 56.3342 21.0397 56.255C21.3207 56.1759 21.6683 56.5366 21.8161 57.0609Z" fill="white"/>
<path id="Stroke-76" opacity="0.85" fill-rule="evenodd" clip-rule="evenodd" d="M28.3896 57.0988L16.7225 50.3574L14.3027 51.1302V57.0013V59.9052L30.4936 69.251V66.4067V60.8185L28.3896 57.0988Z" stroke="#141414" stroke-width="0.7" stroke-linecap="round" stroke-linejoin="round"/>
<path id="Fill-78" opacity="0.85" fill-rule="evenodd" clip-rule="evenodd" d="M62.0666 29.5578L63.7145 28.5666L47.3608 19.082L45.7129 20.0727L62.0666 29.5578Z" fill="#E7E6E8"/>
<path id="Fill-80" opacity="0.85" fill-rule="evenodd" clip-rule="evenodd" d="M58.7717 31.5405L60.4196 30.5493L44.0656 21.0645L42.418 22.0554L58.7717 31.5405Z" fill="#E7E6E8"/>
<path id="Fill-82" opacity="0.85" fill-rule="evenodd" clip-rule="evenodd" d="M55.4768 33.5227L57.1247 32.5317L40.7707 23.0469L39.123 24.0376L55.4768 33.5227Z" fill="#E7E6E8"/>
<path id="Fill-84" opacity="0.85" fill-rule="evenodd" clip-rule="evenodd" d="M52.1819 35.5034L53.8297 34.5122L37.4758 25.0273L35.8281 26.0183L52.1819 35.5034Z" fill="#E7E6E8"/>
<path id="Fill-86" opacity="0.85" fill-rule="evenodd" clip-rule="evenodd" d="M48.885 37.4856L50.5329 36.4946L34.1789 27.0098L32.5312 28.0005L48.885 37.4856Z" fill="#E7E6E8"/>
<path id="Fill-88" opacity="0.85" fill-rule="evenodd" clip-rule="evenodd" d="M45.5901 39.4682L47.2379 38.477L30.884 28.9922L29.2363 29.9831L45.5901 39.4682Z" fill="#E7E6E8"/>
<path id="Fill-90" opacity="0.85" fill-rule="evenodd" clip-rule="evenodd" d="M42.2934 41.4504L43.9413 40.4595L27.5873 30.9746L25.9395 31.9656L42.2934 41.4504Z" fill="#E7E6E8"/>
<path id="Fill-92" opacity="0.85" fill-rule="evenodd" clip-rule="evenodd" d="M39.0061 43.4282L40.6455 42.4421L24.2918 32.957L22.6523 33.9431L39.0061 43.4282Z" fill="#E7E6E8"/>
<path id="Fill-94" opacity="0.85" fill-rule="evenodd" clip-rule="evenodd" d="M35.7111 45.4094L37.359 44.4184L21.0051 34.9336L19.3574 35.9245L35.7111 45.4094Z" fill="#E7E6E8"/>
<path id="Fill-96" opacity="0.85" fill-rule="evenodd" clip-rule="evenodd" d="M32.4269 47.3857L34.0641 46.4011L17.7101 36.916L16.0625 37.9072L29.7256 45.8317L32.4269 47.3857Z" fill="#E7E6E8"/>
<path id="Fill-98" opacity="0.85" fill-rule="evenodd" clip-rule="evenodd" d="M88.6272 13.5839L90.2919 12.5825L73.9381 3.09766L72.2734 4.09878L88.6272 13.5839Z" fill="#E7E6E8"/>
<path id="Fill-100" opacity="0.85" fill-rule="evenodd" clip-rule="evenodd" d="M85.2973 15.5856L86.9618 14.5845L70.6083 5.09961L68.9434 6.10073L85.2973 15.5856Z" fill="#E7E6E8"/>
<path id="Fill-102" opacity="0.85" fill-rule="evenodd" clip-rule="evenodd" d="M81.969 17.5897L83.6337 16.5884L67.2799 7.10352L65.6152 8.10464L81.969 17.5897Z" fill="#E7E6E8"/>
<path id="Fill-104" opacity="0.85" fill-rule="evenodd" clip-rule="evenodd" d="M78.6391 19.5917L80.3038 18.5903L63.9501 9.10547L62.2852 10.1066L78.6391 19.5917Z" fill="#E7E6E8"/>
<path id="Fill-106" opacity="0.85" fill-rule="evenodd" clip-rule="evenodd" d="M75.3088 21.5934L76.9735 20.592L60.6198 11.1074L58.9551 12.1085L75.3088 21.5934Z" fill="#E7E6E8"/>
<path id="Fill-108" opacity="0.85" fill-rule="evenodd" clip-rule="evenodd" d="M71.9887 23.5908L73.645 22.5945L57.2911 13.1094L55.6348 14.1057L71.9887 23.5908Z" fill="#E7E6E8"/>
<path id="Fill-110" opacity="0.85" fill-rule="evenodd" clip-rule="evenodd" d="M68.6584 25.5934L70.3231 24.592L53.9694 15.1074L52.3047 16.1083L68.6584 25.5934Z" fill="#E7E6E8"/>
<path id="Fill-112" opacity="0.85" fill-rule="evenodd" clip-rule="evenodd" d="M65.3637 27.576L66.9956 26.5945L50.6419 17.1094L49.0098 18.0909L65.3637 27.576Z" fill="#E7E6E8"/>
<path id="Fill-114" opacity="0.85" fill-rule="evenodd" clip-rule="evenodd" d="M36.4664 49.4043L34.4238 50.6307V69.2509L36.4664 68.0362V49.4043Z" fill="#E7E6E8"/>
<path id="Fill-116" opacity="0.85" fill-rule="evenodd" clip-rule="evenodd" d="M40.5524 46.9512L38.5098 48.1776V66.8215L40.5524 65.6068V46.9512Z" fill="#E7E6E8"/>
<path id="Fill-118" opacity="0.85" fill-rule="evenodd" clip-rule="evenodd" d="M44.6383 44.5L42.5957 45.7261V64.3932L44.6383 63.1788V44.5Z" fill="#E7E6E8"/>
<path id="Fill-120" opacity="0.85" fill-rule="evenodd" clip-rule="evenodd" d="M48.7242 42.0469L46.6816 43.273V61.9637L48.7242 60.7493V42.0469Z" fill="#E7E6E8"/>
<path id="Fill-122" opacity="0.85" fill-rule="evenodd" clip-rule="evenodd" d="M52.8082 39.5938L50.7656 40.8199V59.5343L52.8082 58.3196V39.5938Z" fill="#E7E6E8"/>
<path id="Fill-124" opacity="0.85" fill-rule="evenodd" clip-rule="evenodd" d="M56.8922 37.1426L54.8496 38.3687V57.1068L56.8922 55.8921V37.1426Z" fill="#E7E6E8"/>
<path id="Fill-126" opacity="0.85" fill-rule="evenodd" clip-rule="evenodd" d="M60.9781 34.6895L58.9355 35.9156V54.6771L60.9781 53.4627V34.6895Z" fill="#E7E6E8"/>
<path id="Fill-128" opacity="0.85" fill-rule="evenodd" clip-rule="evenodd" d="M65.0641 32.2363L63.0215 33.4627V52.2476L65.0641 51.0332V32.2363Z" fill="#E7E6E8"/>
<path id="Fill-130" opacity="0.85" fill-rule="evenodd" clip-rule="evenodd" d="M67.1055 31.0102V49.8188L69.0742 48.6482V29.8281L67.1055 31.0102Z" fill="#E7E6E8"/>
<path id="Fill-132" opacity="0.85" fill-rule="evenodd" clip-rule="evenodd" d="M73.0114 27.4648L71.043 28.647V47.4779L73.0114 46.3073V27.4648Z" fill="#E7E6E8"/>
<path id="Fill-134" opacity="0.85" fill-rule="evenodd" clip-rule="evenodd" d="M76.947 25.0996L74.9785 26.2817V45.1353L76.947 43.9647V25.0996Z" fill="#E7E6E8"/>
<path id="Fill-136" opacity="0.85" fill-rule="evenodd" clip-rule="evenodd" d="M80.8845 22.7363L78.916 23.9182V42.7947L80.8845 41.6243V22.7363Z" fill="#E7E6E8"/>
<path id="Fill-138" opacity="0.85" fill-rule="evenodd" clip-rule="evenodd" d="M84.8039 20.3848L82.8535 21.5559V40.4554L84.8039 39.2954V20.3848Z" fill="#E7E6E8"/>
<path id="Fill-140" opacity="0.85" fill-rule="evenodd" clip-rule="evenodd" d="M88.7399 18.0195L86.7715 19.2016V38.1232L88.7399 36.9528V18.0195Z" fill="#E7E6E8"/>
<path id="Fill-142" opacity="0.85" fill-rule="evenodd" clip-rule="evenodd" d="M90.709 35.782L92.6728 34.6142V15.6582L90.709 16.8375V35.782Z" fill="#E7E6E8"/>
<path id="Fill-144" opacity="0.85" fill-rule="evenodd" clip-rule="evenodd" d="M32.8047 51.931L93.6378 16.091V14.3477L32.8047 50.098V51.931Z" fill="white"/>
<g id="Group-166" opacity="0.85">
<path id="Fill-146" opacity="0.85" fill-rule="evenodd" clip-rule="evenodd" d="M53.6981 45.5566L54.0554 48.3668L53.3223 48.365L53.6981 45.5566Z" fill="#F45531"/>
<path id="Fill-148" opacity="0.85" fill-rule="evenodd" clip-rule="evenodd" d="M56.1066 46.9297L54.6493 48.951L54.1328 48.4017L56.1066 46.9297Z" fill="#F45531"/>
<path id="Fill-150" opacity="0.85" fill-rule="evenodd" clip-rule="evenodd" d="M56.8916 49.4035L54.6758 49.8072L54.6781 49.0312L56.8916 49.4035Z" fill="#F45531"/>
<path id="Fill-152" opacity="0.85" fill-rule="evenodd" clip-rule="evenodd" d="M56.0308 51.733L54.125 50.4315L54.6451 49.8848L56.0308 51.733Z" fill="#F45531"/>
<path id="Fill-154" opacity="0.85" fill-rule="evenodd" clip-rule="evenodd" d="M53.6734 53.2731L53.3164 50.4629L54.0493 50.4649L53.6734 53.2731Z" fill="#F45531"/>
<path id="Fill-156" opacity="0.85" fill-rule="evenodd" clip-rule="evenodd" d="M50.8594 52.3426L52.7236 49.8809L53.2401 50.4299L50.8594 52.3426Z" fill="#F45531"/>
<path id="Fill-158" opacity="0.85" fill-rule="evenodd" clip-rule="evenodd" d="M49.7148 49.4066L52.6946 49.0254L52.6923 49.801L49.7148 49.4066Z" fill="#F45531"/>
<path id="Fill-160" opacity="0.85" fill-rule="evenodd" clip-rule="evenodd" d="M50.877 46.4746L53.2465 48.3977L52.7264 48.9442L50.877 46.4746Z" fill="#F45531"/>
<path id="Fill-162" opacity="0.85" fill-rule="evenodd" clip-rule="evenodd" d="M54.7503 49.4177C54.7483 50.0393 54.2698 50.5423 53.6819 50.5408C53.0938 50.5395 52.6188 50.0342 52.6211 49.4124C52.6229 48.7908 53.1012 48.288 53.6893 48.2891C54.2774 48.2906 54.7524 48.7961 54.7503 49.4177Z" fill="white"/>
<path id="Fill-164" opacity="0.85" fill-rule="evenodd" clip-rule="evenodd" d="M54.5299 49.4172C54.5283 49.9094 54.1497 50.3075 53.6839 50.3065C53.2183 50.3053 52.8422 49.9054 52.8438 49.4128C52.8455 48.9205 53.2242 48.5222 53.6897 48.5234C54.1553 48.5247 54.5316 48.9246 54.5299 49.4172Z" fill="#F45531"/>
</g>
<g id="Group-198" opacity="0.85">
<path id="Fill-167" opacity="0.85" fill-rule="evenodd" clip-rule="evenodd" d="M46.5015 53.2771C46.4994 53.8987 46.0571 54.4017 45.5128 54.4002C44.9688 54.3986 44.5292 53.8936 44.5313 53.2717C44.5328 52.6499 44.9757 52.1472 45.5197 52.1484C46.0637 52.15 46.5033 52.6552 46.5015 53.2771Z" fill="white"/>
<path id="Fill-169" opacity="0.85" fill-rule="evenodd" clip-rule="evenodd" d="M46.2966 53.2781C46.2953 53.7261 45.9449 54.0883 45.514 54.0873C45.0831 54.086 44.7351 53.7218 44.7363 53.2738C44.7379 52.826 45.0882 52.4636 45.5189 52.4648C45.9498 52.4659 46.2978 52.8299 46.2966 53.2781Z" fill="#005ADD"/>
<path id="Fill-171" opacity="0.85" fill-rule="evenodd" clip-rule="evenodd" d="M45.7488 50.5438C45.7483 50.6896 45.6446 50.8075 45.5172 50.8073C45.3898 50.807 45.2869 50.6885 45.2871 50.5425C45.2874 50.3968 45.3913 50.2788 45.519 50.2793C45.6464 50.2796 45.7493 50.398 45.7488 50.5438Z" fill="#005ADD"/>
<path id="Fill-173" opacity="0.85" fill-rule="evenodd" clip-rule="evenodd" d="M45.8518 51.6323C45.851 51.8438 45.7004 52.015 45.5157 52.0145C45.3305 52.014 45.1809 51.842 45.1816 51.6303C45.1824 51.4188 45.3328 51.2475 45.5177 51.248C45.703 51.2486 45.8523 51.4206 45.8518 51.6323Z" fill="#005ADD"/>
<path id="Fill-175" opacity="0.85" fill-rule="evenodd" clip-rule="evenodd" d="M45.4629 53.2747H45.5727V50.543H45.4629V53.2747Z" fill="#005ADD"/>
<path id="Fill-177" opacity="0.85" fill-rule="evenodd" clip-rule="evenodd" d="M47.7468 51.4957C47.6362 51.5986 47.4739 51.6134 47.3839 51.5288C47.2942 51.4442 47.3108 51.2923 47.4214 51.1894C47.5317 51.0867 47.6943 51.0719 47.784 51.1565C47.8739 51.2411 47.8574 51.393 47.7468 51.4957Z" fill="#005ADD"/>
<path id="Fill-178" opacity="0.85" fill-rule="evenodd" clip-rule="evenodd" d="M46.9954 52.3359C46.8348 52.4852 46.5991 52.5066 46.4686 52.3838C46.3382 52.261 46.3626 52.0406 46.5229 51.8912C46.6832 51.7422 46.9189 51.7205 47.0496 51.8433C47.1801 51.9662 47.1556 52.1866 46.9954 52.3359Z" fill="#005ADD"/>
<path id="Fill-179" opacity="0.85" fill-rule="evenodd" clip-rule="evenodd" d="M45.5562 53.3109L45.4785 53.2384L47.5453 51.3066L47.6228 51.3792L45.5562 53.3109Z" fill="#005ADD"/>
<path id="Fill-180" opacity="0.85" fill-rule="evenodd" clip-rule="evenodd" d="M48.4376 53.4905C48.2819 53.4903 48.1557 53.3932 48.1563 53.2737C48.1563 53.1547 48.2832 53.0583 48.4388 53.0586C48.5948 53.0591 48.7207 53.1562 48.7204 53.2752C48.7199 53.3947 48.5933 53.491 48.4376 53.4905Z" fill="#005ADD"/>
<path id="Fill-181" opacity="0.85" fill-rule="evenodd" clip-rule="evenodd" d="M47.274 53.588C47.0477 53.5875 46.865 53.4466 46.8652 53.2736C46.8657 53.1003 47.0497 52.9604 47.276 52.9609C47.5023 52.9617 47.685 53.1026 47.6845 53.2756C47.684 53.4487 47.5002 53.5885 47.274 53.588Z" fill="#005ADD"/>
<path id="Fill-182" opacity="0.85" fill-rule="evenodd" clip-rule="evenodd" d="M45.5156 53.3253H48.4383V53.2227H45.5156V53.3253Z" fill="#005ADD"/>
<path id="Fill-183" opacity="0.85" fill-rule="evenodd" clip-rule="evenodd" d="M47.4201 55.3606C47.3103 55.2571 47.2945 55.105 47.3847 55.0209C47.4754 54.9368 47.6377 54.9524 47.7476 55.0561C47.8574 55.1593 47.8732 55.3114 47.783 55.3955C47.6923 55.4796 47.5302 55.4638 47.4201 55.3606Z" fill="#005ADD"/>
<path id="Fill-184" opacity="0.85" fill-rule="evenodd" clip-rule="evenodd" d="M46.5231 54.6573C46.3636 54.5073 46.3407 54.2866 46.4719 54.1643C46.6029 54.0425 46.8386 54.0652 46.9981 54.2152C47.1576 54.3653 47.1805 54.586 47.0493 54.7081C46.9183 54.8301 46.6826 54.8074 46.5231 54.6573Z" fill="#005ADD"/>
<path id="Fill-185" opacity="0.85" fill-rule="evenodd" clip-rule="evenodd" d="M47.5451 55.2428L45.4785 53.3108L45.556 53.2383L47.6228 55.1703L47.5451 55.2428Z" fill="#005ADD"/>
<path id="Fill-186" opacity="0.85" fill-rule="evenodd" clip-rule="evenodd" d="M45.2871 56.0057C45.2874 55.8599 45.3911 55.7419 45.5187 55.7422C45.6461 55.7427 45.7491 55.8612 45.7488 56.0069C45.7483 56.1527 45.6444 56.2707 45.517 56.2704C45.3895 56.2699 45.2866 56.1514 45.2871 56.0057Z" fill="#005ADD"/>
<path id="Fill-187" opacity="0.85" fill-rule="evenodd" clip-rule="evenodd" d="M45.1816 54.9176C45.1824 54.7059 45.3328 54.5346 45.5177 54.5352C45.703 54.5357 45.8523 54.7077 45.8518 54.9194C45.851 55.1312 45.7004 55.3024 45.5157 55.3019C45.3305 55.3014 45.1809 55.1291 45.1816 54.9176Z" fill="#005ADD"/>
<path id="Fill-188" opacity="0.85" fill-rule="evenodd" clip-rule="evenodd" d="M45.4609 56.0074H45.5708V53.2754H45.4609V56.0074Z" fill="#005ADD"/>
<path id="Fill-189" opacity="0.85" fill-rule="evenodd" clip-rule="evenodd" d="M43.2886 55.0548C43.3992 54.9521 43.5615 54.937 43.6515 55.0216C43.7412 55.1062 43.7246 55.2583 43.614 55.361C43.5037 55.4637 43.3411 55.4788 43.2514 55.3942C43.1612 55.3096 43.178 55.1574 43.2886 55.0548Z" fill="#005ADD"/>
<path id="Fill-190" opacity="0.85" fill-rule="evenodd" clip-rule="evenodd" d="M44.0367 54.2135C44.197 54.0642 44.4329 54.0428 44.5631 54.1659C44.6938 54.2885 44.6694 54.5089 44.5091 54.6582C44.3488 54.8075 44.1129 54.8289 43.9824 54.7064C43.8519 54.5833 43.8761 54.3629 44.0367 54.2135Z" fill="#005ADD"/>
<path id="Fill-191" opacity="0.85" fill-rule="evenodd" clip-rule="evenodd" d="M43.4898 55.2428L43.4121 55.1703L45.4787 53.2383L45.5561 53.3108L43.4898 55.2428Z" fill="#005ADD"/>
<path id="Fill-192" opacity="0.85" fill-rule="evenodd" clip-rule="evenodd" d="M42.5951 53.0586C42.751 53.0591 42.8769 53.1562 42.8767 53.2754C42.8764 53.3947 42.7495 53.491 42.5938 53.4905C42.4381 53.4903 42.312 53.3932 42.3125 53.2739C42.3128 53.1547 42.4394 53.0583 42.5951 53.0586Z" fill="#005ADD"/>
<path id="Fill-193" opacity="0.85" fill-rule="evenodd" clip-rule="evenodd" d="M43.7618 52.9609C43.9881 52.9617 44.171 53.1026 44.1705 53.2756C44.17 53.4487 43.9863 53.5885 43.76 53.588C43.5338 53.5875 43.3511 53.4466 43.3516 53.2736C43.3521 53.1003 43.5355 52.9604 43.7618 52.9609Z" fill="#005ADD"/>
<path id="Fill-194" opacity="0.85" fill-rule="evenodd" clip-rule="evenodd" d="M42.5938 53.3253H45.5162V53.2227H42.5938V53.3253Z" fill="#005ADD"/>
<path id="Fill-195" opacity="0.85" fill-rule="evenodd" clip-rule="evenodd" d="M43.6146 51.1908C43.7246 51.294 43.7404 51.4461 43.65 51.5302C43.5595 51.6143 43.3972 51.599 43.2874 51.4953C43.1773 51.3918 43.1618 51.2397 43.252 51.1556C43.3424 51.0715 43.5047 51.0873 43.6146 51.1908Z" fill="#005ADD"/>
<path id="Fill-196" opacity="0.85" fill-rule="evenodd" clip-rule="evenodd" d="M44.5119 51.8931C44.6714 52.0432 44.6943 52.2636 44.5631 52.3859C44.4319 52.508 44.1962 52.4851 44.0369 52.335C43.8774 52.1851 43.8542 51.9642 43.9857 51.8424C44.1167 51.7201 44.3524 51.7428 44.5119 51.8931Z" fill="#005ADD"/>
<path id="Fill-197" opacity="0.85" fill-rule="evenodd" clip-rule="evenodd" d="M45.4784 53.3109L43.4121 51.3792L43.4896 51.3066L45.5561 53.2384L45.4784 53.3109Z" fill="#005ADD"/>
</g>
</g>
</g>
</svg>
