<svg width="101" height="30" viewBox="0 0 101 30" fill="none" xmlns="http://www.w3.org/2000/svg">
<g clip-path="url(#clip0_5714_1383)">
<path d="M37.6222 15C37.6222 23.3062 29.2182 30 18.8111 30C8.40391 30 0 23.3062 0 15C0 6.69381 8.40391 0 18.8111 0C29.1694 0 37.6222 6.74267 37.6222 15Z" fill="#FFF362"/>
<path d="M43.1923 21.3031V13.3878H40.3584V11.7754H48.1271L47.6874 13.3878H45.0978V21.3031H43.1923Z" fill="#595757"/>
<path d="M46.7593 21.3029V19.4951H48.5671V21.3029H46.7593Z" fill="#595757"/>
<path d="M49.7397 18.176L51.5964 17.9805C51.6941 18.6157 51.9384 19.0554 52.2805 19.3486C52.6225 19.6418 53.1111 19.7883 53.6974 19.7883C54.3326 19.7883 54.7723 19.6418 55.1143 19.3975C55.4075 19.1532 55.6029 18.8111 55.6029 18.4691C55.6029 18.2737 55.5541 18.0782 55.4075 17.8828C55.2609 17.7362 55.0655 17.5896 54.7235 17.4919C54.4792 17.3942 53.9906 17.2965 53.2088 17.0522C52.1827 16.8079 51.4498 16.4659 51.059 16.1238C50.4726 15.5864 50.1795 14.9512 50.1795 14.2183C50.1795 13.7297 50.3261 13.29 50.6192 12.8502C50.9124 12.4105 51.3033 12.1173 51.7919 11.873C52.3293 11.6287 52.9156 11.531 53.6485 11.531C54.8212 11.531 55.7495 11.7753 56.3358 12.3128C56.9222 12.8502 57.2642 13.5343 57.313 14.4137L55.4075 14.5115C55.3098 14.0229 55.1632 13.6808 54.87 13.4365C54.6257 13.2411 54.186 13.0945 53.6485 13.0945C53.1111 13.0945 52.6713 13.1922 52.3293 13.4365C52.1339 13.5831 52.0362 13.7786 52.0362 14.0229C52.0362 14.2672 52.1339 14.4137 52.3293 14.6092C52.5736 14.8046 53.1599 15.0489 54.0883 15.2444C55.0166 15.4887 55.7007 15.6841 56.1404 15.9284C56.5801 16.1727 56.9222 16.4659 57.2153 16.9056C57.4596 17.2965 57.6062 17.8339 57.6062 18.4203C57.6062 18.9577 57.4596 19.4952 57.1665 19.9349C56.8733 20.4235 56.4336 20.7655 55.8961 21.0098C55.3586 21.2541 54.6746 21.3519 53.844 21.3519C52.6225 21.3519 51.743 21.0587 51.059 20.5212C50.2772 20.0815 49.8863 19.2509 49.7397 18.176Z" fill="#595757"/>
<path d="M58.29 21.3029V19.4951H60.0979V21.3029H58.29Z" fill="#595757"/>
<path d="M64.1045 21.303V11.873H66.01V19.6906H70.7983L70.3586 21.303H64.1045Z" fill="#595757"/>
<path d="M71.6289 21.3031V11.7754H73.5344V21.3031H71.6289Z" fill="#595757"/>
<path d="M75.1465 21.3031V11.7754H77.0032L80.912 18.1272V11.7754H82.7198V21.3031H80.8142L76.9543 15.0979V21.3031H75.1465Z" fill="#595757"/>
<path d="M84.479 21.3031V11.7754H91.5148L91.0751 13.3878H86.3845V15.4887H91.1728V17.1011H86.3845V19.6907H91.124L91.5637 21.3031H84.479Z" fill="#595757"/>
<path d="M92.3452 18.176L94.2019 17.9805C94.2996 18.6157 94.5439 19.0554 94.8859 19.3486C95.2279 19.6418 95.6677 19.7883 96.254 19.7883C96.8892 19.7883 97.3289 19.6418 97.6709 19.3975C97.9641 19.1532 98.1595 18.8111 98.1595 18.4691C98.1595 18.2737 98.1107 18.0782 97.9641 17.8828C97.8175 17.7362 97.6221 17.5896 97.2801 17.4919C97.0358 17.3942 96.5472 17.2965 95.7165 17.0522C94.6905 16.8079 93.9576 16.4659 93.5667 16.1238C92.9804 15.5864 92.6872 14.9512 92.6872 14.2183C92.6872 13.7297 92.8338 13.29 93.0781 12.8502C93.3713 12.4105 93.7621 12.1173 94.2507 11.873C94.7882 11.6287 95.3745 11.531 96.1074 11.531C97.2801 11.531 98.2084 11.7753 98.7947 12.3128C99.381 12.8502 99.7231 13.5343 99.7231 14.4137L97.8175 14.5115C97.7198 14.0229 97.5732 13.6808 97.2801 13.4365C97.0358 13.2411 96.596 13.0945 96.0586 13.0945C95.5211 13.0945 95.0814 13.1922 94.7393 13.4365C94.5439 13.5831 94.4462 13.7786 94.4462 14.0229C94.4462 14.2672 94.5439 14.4137 94.7393 14.6092C94.9836 14.8046 95.57 15.0489 96.4983 15.2444C97.4266 15.4887 98.1107 15.6841 98.5504 15.9284C98.9902 16.1727 99.3322 16.4659 99.6253 16.9056C99.8696 17.2965 100.016 17.8339 100.016 18.4203C100.016 18.9577 99.8696 19.4952 99.5765 19.9349C99.2833 20.4235 98.8436 20.7655 98.3061 21.0098C97.7687 21.2541 97.0358 21.3519 96.254 21.3519C95.0325 21.3519 94.1042 21.0587 93.469 20.5212C92.8338 20.0815 92.4918 19.2509 92.3452 18.176Z" fill="#595757"/>
<path d="M1.2215 12.1173C1.27036 12.2638 1.31922 12.4104 1.41694 12.557C1.66124 13.1922 2.05212 13.8762 2.54072 14.658C2.443 13.9739 2.443 13.3388 2.443 12.7036C2.443 11.9218 2.49186 11.1889 2.58958 10.456C2.05212 11.0423 1.61238 11.5798 1.2215 12.1173ZM4.78827 18.5668C4.34853 18.0782 3.90879 17.5896 3.56678 17.1498C4.10423 19.2508 5.13029 21.4007 6.84039 23.5505C7.91531 23.9902 9.03909 24.43 10.3094 24.8208C9.67427 23.8925 9.08795 22.9153 8.59935 21.8892C7.03583 20.8143 5.81433 19.6906 4.78827 18.5668ZM0.439739 11.8241C0.34202 12.2638 0.2443 12.6547 0.14658 13.0945C0.29316 12.8502 0.439739 12.6059 0.635179 12.3616C0.537459 12.1661 0.488599 11.9707 0.439739 11.8241ZM2.63844 9.86971C2.83388 8.50163 3.1759 7.32899 3.51792 6.30293C2.29642 7.67101 1.36808 9.18567 0.732899 10.8469C0.830619 11.0912 0.928339 11.3844 1.02606 11.7752C1.51466 11.1401 2.00326 10.5049 2.63844 9.86971ZM11.7264 26.7752C11.3355 26.3355 10.9935 25.8469 10.6026 25.3094C9.38111 24.9186 8.25733 24.5277 7.23127 24.1368C8.69707 25.8958 10.6026 27.6547 13.0945 29.316C13.5342 29.4137 13.9251 29.5114 14.3648 29.6091C13.5831 28.8762 12.6547 27.899 11.7264 26.7752ZM11.873 2.443C11.1889 3.1759 10.5049 4.00651 9.86971 4.93485C13.241 3.46906 17.5407 2.49186 23.1108 2.49186C25.2117 2.49186 27.4593 2.63844 29.9511 2.9316C26.8241 1.07492 22.9642 0 18.8111 0C17.1987 0 15.5863 0.14658 14.0717 0.488599C13.3876 0.977199 12.6547 1.66124 11.873 2.443ZM17.1987 26.5309C14.1694 25.3583 11.7264 24.0391 9.62541 22.671C10.114 23.5505 10.6515 24.3811 11.2378 25.1629C13.0456 25.7003 15 26.1401 17.1987 26.5309ZM30.684 3.37134C27.9479 2.98046 25.4072 2.83388 23.1108 2.83388C17.3453 2.83388 12.899 3.90879 9.52769 5.47231C8.20847 7.67101 7.23127 10.4072 7.23127 13.8762C7.23127 16.7101 7.96417 19.2997 9.03909 21.5472C11.8241 23.5505 15.4397 25.5049 20.2769 27.0195C22.4267 27.2638 24.6743 27.4104 27.1661 27.4104C27.9479 27.4104 28.7785 27.4104 29.658 27.3616C34.4463 24.5765 37.6222 20.0814 37.6222 15C37.6222 10.3094 34.9349 6.10749 30.684 3.37134ZM11.5798 25.6026C12.9479 27.4104 14.4137 28.8274 15.5375 29.8046C16.6124 29.9511 17.6873 30.0489 18.8111 30.0489C21.2052 30.0489 23.5505 29.7068 25.6515 29.0228C23.1596 28.4853 20.9121 27.8502 18.8599 27.1661C16.1726 26.7752 13.7296 26.2378 11.5798 25.6026ZM22.0358 27.4593C23.5016 27.8502 25.114 28.241 26.7752 28.5831C27.5081 28.2899 28.241 27.9967 28.9251 27.6547C28.3388 27.6547 27.7524 27.6547 27.1661 27.6547C25.3583 27.7036 23.6482 27.6059 22.0358 27.4593ZM6.25407 23.6971C4.49511 22.9153 3.02932 22.1336 1.80782 21.4495C3.81107 24.772 7.28013 27.4104 11.5309 28.8274C9.33225 27.215 7.57329 25.456 6.25407 23.6971ZM5.81433 23.1596C4.15309 20.7655 3.22476 18.3713 2.73616 16.1238C1.80782 14.8534 1.2215 13.6808 0.781759 12.7524C0.488599 13.241 0.2443 13.6319 0.0488599 14.0228C0 14.316 0 14.658 0 15C0 17.101 0.537459 19.0554 1.4658 20.8632C2.49186 21.4984 3.81108 22.2313 5.42345 23.013C5.57003 23.013 5.71661 23.1107 5.81433 23.1596ZM3.6645 8.89251C5.03257 7.67101 6.74267 6.44951 8.89251 5.37459C9.67427 4.05537 10.5537 2.9316 11.4332 2.00326C11.873 1.56352 12.2638 1.17264 12.7036 0.830619C9.42997 1.7101 6.59609 3.32248 4.39739 5.37459C4.34853 5.52117 4.29967 5.61889 4.25081 5.76547C3.90879 6.74267 3.51792 7.91531 3.27362 9.23453C3.4202 9.08795 3.51792 8.99023 3.6645 8.89251ZM8.59935 5.91205C7.03583 6.74267 5.66775 7.62215 4.59283 8.55049C4.10423 8.99023 3.61564 9.38111 3.22476 9.82085C3.02932 10.7003 2.9316 11.6775 2.9316 12.7036C2.9316 13.6808 3.02932 14.658 3.1759 15.7329C3.71336 16.5147 4.39739 17.3453 5.17915 18.1759C5.96091 19.0065 6.88925 19.886 7.96417 20.7166C7.13355 18.6645 6.54723 16.3192 6.54723 13.8274C6.64495 10.7003 7.42671 8.06189 8.59935 5.91205Z" fill="#009FE8"/>
<path d="M33.2246 5.32568C35.179 7.18236 36.5959 9.38106 37.2311 11.8729C37.3288 11.8729 37.4266 11.8729 37.4266 11.8729L38.1595 5.32568H33.2246Z" fill="white"/>
<path d="M33.1758 5.32568H12.9478V9.91852H18.3223L14.951 23.6482C14.951 23.6482 24.4787 23.6482 27.3614 23.6482C30.2442 23.6482 33.1758 23.0618 34.2507 21.2052C35.3256 19.3485 34.9347 17.9804 33.4689 16.7589C31.6611 15.2443 28.8272 13.0456 28.8272 12.4592C28.8272 11.8729 29.4624 11.8241 29.9999 11.8241C30.4885 11.8241 36.1074 11.8241 37.1334 11.8241C36.5471 9.42992 35.1302 7.18236 33.1758 5.32568ZM29.2181 18.6644C29.609 19.0065 30.0487 19.3485 29.951 19.7394C29.8533 20.1302 28.6318 20.0325 28.9738 20.0325C28.6807 20.0325 20.8142 20.0325 20.8142 20.0325L22.964 9.91852C22.964 9.91852 24.723 9.91852 25.2605 9.91852C25.7979 9.91852 25.6025 10.3094 25.2605 10.5048C24.9184 10.7003 23.9412 11.3355 23.7458 12.4104C23.5504 13.5342 24.2344 14.3159 24.723 14.7557C25.1627 15.2443 28.7784 18.2736 29.2181 18.6644Z" fill="white"/>
</g>
<defs>
<clipPath id="clip0_5714_1383">
<rect width="100.065" height="30" fill="white"/>
</clipPath>
</defs>
</svg>
