<svg width="72" height="28" viewBox="0 0 72 28" fill="none" xmlns="http://www.w3.org/2000/svg">
<g id="clt">
<path id="Vector" d="M33.7416 0.523396V20.7203C33.7416 21.6474 34.4942 22.4034 35.4247 22.4034H49.3238C49.6111 22.4034 49.8472 22.636 49.8472 22.9268V27.4766C49.8472 27.764 49.6145 28 49.3238 28H37.9082C37.3985 28 36.9093 27.7982 36.5501 27.4356L28.7129 19.5983C28.3537 19.2391 28.1484 18.7499 28.1484 18.2402V0.523396C28.1484 0.236042 28.3811 0 28.6718 0H33.2182C33.5056 0 33.7416 0.232621 33.7416 0.523396Z" fill="#040000"/>
<path id="Vector_2" d="M4.32743 3.91692H1.45388C0.64997 3.91692 0 4.56689 0 5.3708V18.1513C0 18.6644 0.205254 19.157 0.567868 19.523L8.47355 27.4287C8.83617 27.7913 9.32877 27.9966 9.84533 27.9966H22.6121C22.8789 27.9966 23.0979 27.7811 23.0979 27.5108V22.8652C23.0979 22.5984 22.8823 22.3795 22.6121 22.3795H7.31045C6.37312 22.3795 5.61368 21.62 5.61368 20.6827V7.31045C5.61368 6.37312 6.37312 5.61368 7.31045 5.61368H22.6121C22.8789 5.61368 23.0979 5.39817 23.0979 5.12792V0.485767C23.0979 0.218937 22.8823 0 22.6121 0H9.84875C9.33562 0 8.84301 0.205254 8.47697 0.567868L5.69579 3.34905C5.33317 3.71167 4.84056 3.91692 4.32401 3.91692H4.32743Z" fill="#040000"/>
<path id="Vector_3" d="M57.3829 6.89994V27.634C57.3829 27.8324 57.5471 27.9932 57.7455 27.9932H62.5895C62.7879 27.9932 62.9487 27.8324 62.9487 27.634V9.75638C62.9487 9.24667 62.7468 8.75748 62.3842 8.39829L60.3864 6.40049C60.0786 6.09261 60.2975 5.56921 60.7319 5.56921H70.8441C71.1383 5.56921 71.3778 5.32975 71.3778 5.03555V0.533659C71.3778 0.239462 71.1383 0 70.8441 0H47.9412C47.7428 0 47.582 0.160782 47.582 0.359194V5.20318C47.582 5.40159 47.7428 5.56237 47.9412 5.56237H49.2959L56.0487 5.56579C56.7842 5.56579 57.3829 6.16445 57.3829 6.89994Z" fill="#040000"/>
</g>
</svg>
