<svg width="134" height="40" viewBox="0 0 134 40" fill="none" xmlns="http://www.w3.org/2000/svg">
<path d="M24.1772 39.9932C22.9192 39.9932 21.988 40.0136 21.058 39.9879C20.0143 39.9588 18.9711 39.9758 17.9278 39.9551C16.9102 39.9347 15.8923 39.9109 14.8751 39.8796C13.8454 39.8479 12.8157 39.8132 11.7864 39.7657C10.6005 39.7113 9.41467 39.6578 8.23068 39.5755C6.12569 39.4295 4.01956 39.2854 1.93456 38.9394C1.38294 38.8477 0.830185 38.7526 0.310257 38.5326C0.247246 38.5058 0.183104 38.4757 0.128772 38.4341C-0.0527125 38.2961 -0.0417706 38.1297 0.157825 38.0157C0.496269 37.8229 0.872821 37.7399 1.24786 37.6614C2.33187 37.4347 3.43058 37.312 4.53081 37.1966C5.69291 37.0747 6.85766 36.9925 8.02278 36.9091C8.76796 36.8555 9.51503 36.8208 10.2617 36.7865C11.6608 36.7223 13.0602 36.6634 14.4596 36.6042C14.8992 36.5857 15.3391 36.585 15.7787 36.5703C16.7838 36.5363 17.7897 36.5408 18.7953 36.5182C21.8884 36.4476 24.982 36.4869 28.0755 36.4925C29.37 36.4948 30.6642 36.5363 31.9587 36.5661C32.7375 36.5842 33.5163 36.6091 34.2947 36.6401C35.4496 36.6861 36.6041 36.7333 37.7583 36.7936C38.7303 36.8446 39.7022 36.9027 40.6723 36.9793C42.6007 37.1313 44.5314 37.2747 46.433 37.6561C46.7903 37.7278 47.1469 37.8097 47.4759 37.9757C47.5815 38.0289 47.703 38.075 47.7026 38.224C47.7023 38.384 47.5811 38.4511 47.4608 38.5066C47.0574 38.6915 46.6262 38.7839 46.1934 38.8647C44.8766 39.1107 43.5458 39.248 42.2124 39.3635C41.1801 39.4529 40.1471 39.5314 39.1125 39.5906C38.153 39.6457 37.1939 39.6993 36.2336 39.7411C35.2168 39.7853 34.1999 39.8234 33.1827 39.8555C32.184 39.8868 31.1849 39.9004 30.1865 39.9336C29.1931 39.9668 28.1996 39.9313 27.2073 39.9705C26.0882 40.0143 24.9691 39.9739 24.1779 39.9936L24.1772 39.9932Z" fill="url(#paint0_radial_1770_322730)"/>
<path d="M94.519 23.7416C94.519 24.6523 94.5089 25.563 94.523 26.4727C94.5281 26.836 94.3925 26.9949 94.0211 26.9898C93.1276 26.9777 92.2341 26.9797 91.3406 26.9898C90.9905 26.9938 90.8084 26.8805 90.8236 26.494C90.8448 25.9556 90.8286 25.4153 90.8296 24.876C90.8296 24.6715 90.8246 24.4773 91.0796 24.3862C91.2556 24.3245 91.2232 24.1373 91.2232 23.9885C91.2253 22.9766 91.2253 21.9647 91.2232 20.9539C91.2232 20.8051 91.2485 20.6361 91.0957 20.541C90.9419 20.4449 90.7456 20.3993 90.7477 20.1595C90.7527 19.6384 90.5139 18.8947 90.8215 18.6417C91.4823 18.0983 91.1889 17.482 91.2081 16.9103C91.2587 15.4117 91.2354 13.9091 91.2182 12.4084C91.2131 11.9814 91.2971 11.7122 91.796 11.775C92.0439 11.8063 92.223 11.6971 92.312 11.4623C92.4335 11.1435 92.6733 11.0626 92.9941 11.0687C93.7692 11.0828 94.5453 11.0747 95.3204 11.0737C95.5997 11.0737 95.7565 11.1547 95.6007 11.4633C95.4236 11.8134 95.6837 11.776 95.884 11.776C97.1651 11.778 98.4472 11.7932 99.7282 11.7689C100.2 11.7598 100.385 11.8984 100.383 12.3953C100.369 17.049 100.371 21.7027 100.38 26.3564C100.38 26.7965 100.255 27.006 99.7768 26.9938C98.8165 26.9696 97.8542 26.9777 96.8939 26.9908C96.5458 26.9959 96.3232 26.8876 96.2018 26.5425C96.0561 26.1297 95.8699 25.732 95.7049 25.3252C95.6027 25.0733 95.6806 24.9346 95.965 24.9377C95.9984 24.9377 96.0328 24.9367 96.0662 24.9346C96.7502 24.9016 97.0922 24.5437 97.0922 23.861C97.0922 22.9169 97.0791 21.9718 97.0983 21.0287C97.1064 20.6392 96.9779 20.4732 96.5772 20.4904C96.0722 20.5117 95.5653 20.5137 95.0603 20.4904C94.6333 20.4702 94.5028 20.6533 94.5129 21.0601C94.5331 21.9536 94.519 22.8471 94.519 23.7406V23.7416ZM97.0932 16.1716C97.0932 15.5483 97.0841 14.925 97.0973 14.3027C97.1044 13.991 97.0082 13.8321 96.6682 13.8413C96.0965 13.8564 95.5228 13.8554 94.9511 13.8413C94.6131 13.8332 94.516 13.993 94.518 14.3037C94.5261 15.5331 94.5261 16.7626 94.518 17.992C94.516 18.3047 94.6141 18.4585 94.9531 18.4484C95.5248 18.4322 96.0986 18.4312 96.6703 18.4484C97.0143 18.4595 97.1054 18.3017 97.0983 17.99C97.0851 17.3839 97.0943 16.7778 97.0943 16.1716H97.0932Z" fill="#142A4F"/>
<path d="M63.9944 19.2318C64.4933 18.23 64.7321 17.2545 64.9173 16.2639C64.9729 15.9664 64.9851 15.6598 65.0488 15.3653C65.1217 15.0263 64.9689 14.9434 64.6724 14.9666C64.5388 14.9768 64.4002 14.9869 64.2687 14.9646C63.6716 14.8655 63.3084 15.0941 63.1667 15.6922C63.0756 16.0777 62.8227 16.2092 62.4199 16.1981C61.4263 16.1718 60.4306 16.1779 59.4359 16.1951C59.0696 16.2022 58.8581 16.101 58.8297 15.7074C58.8156 15.507 58.7619 15.3087 58.7113 15.1134C58.6395 14.8321 58.6314 14.6044 59.021 14.5973C59.2547 14.5933 59.3063 14.3889 59.3843 14.2249C59.8275 13.297 60.2767 12.3722 60.7068 11.4382C60.8434 11.1407 61.0377 10.999 61.3676 11.001C62.4806 11.0081 63.5927 11.0071 64.7058 11C65.0903 10.998 65.1925 11.1376 65.0185 11.4898C64.8768 11.7761 64.7604 12.0757 64.6309 12.3681C64.4758 12.7169 64.5975 12.8919 64.9962 12.8933C66.1933 12.8943 67.3904 12.9115 68.5874 12.8852C69.0711 12.874 69.2694 13.037 69.2259 13.5237C69.1986 13.8252 69.2219 14.1298 69.2199 14.4334C69.2178 14.6712 69.234 14.913 68.9163 14.9899C68.7625 15.0274 68.7453 15.1761 68.723 15.3137C68.3577 17.6856 67.6939 19.9512 66.343 21.97C66.1811 22.2108 66.2995 22.3302 66.4786 22.4638C67.02 22.8685 67.5917 23.2288 68.2019 23.5161C68.5227 23.6669 68.641 23.8764 68.6319 24.2265C68.6117 25.0188 68.6137 25.8111 68.6299 26.6034C68.638 27.0092 68.4893 27.0618 68.1442 26.9161C66.8348 26.3646 65.5649 25.7403 64.4245 24.8883C64.0926 24.6403 63.8649 24.6049 63.5097 24.8741C62.3461 25.7534 61.0357 26.3747 59.6868 26.9201C59.3033 27.075 59.1657 26.996 59.1738 26.5791C59.189 25.7868 59.1879 24.9945 59.1738 24.2022C59.1677 23.8753 59.2831 23.6669 59.5856 23.5273C60.215 23.2358 60.7817 22.8371 61.3544 22.4506C61.6185 22.2725 61.6671 22.1197 61.4779 21.8394C60.5307 20.4369 59.9661 18.8736 59.5978 17.2333C59.449 16.5735 59.4784 16.5411 60.1472 16.5391C61.0073 16.5371 61.8674 16.5492 62.7265 16.5341C63.0736 16.528 63.2466 16.6484 63.3114 17.0005C63.444 17.7291 63.6555 18.4374 63.9965 19.2318H63.9944Z" fill="#142A4F"/>
<path d="M107.211 22.0198C107.211 20.587 107.2 19.1541 107.217 17.7213C107.222 17.3348 107.113 17.1587 106.703 17.1911C106.368 17.2184 106.027 17.2194 105.692 17.1911C105.261 17.1536 105.151 17.3378 105.153 17.7456C105.167 20.5607 105.16 23.3758 105.16 26.1909C105.16 26.3426 105.154 26.4944 105.156 26.6462C105.158 26.8769 105.036 26.9892 104.814 26.9902C103.601 26.9933 102.387 26.9923 101.173 26.9943C100.885 26.9943 100.794 26.8192 100.79 26.5703C100.784 26.2334 100.786 25.8964 100.782 25.5594C100.777 25.1749 100.755 24.8106 101.326 24.8096C101.644 24.8096 101.572 24.4969 101.573 24.2936C101.579 22.7089 101.576 21.1243 101.577 19.5397C101.577 18.3092 101.589 17.0788 101.571 15.8483C101.565 15.4182 101.714 15.2432 102.154 15.2452C104.834 15.2563 107.515 15.2573 110.195 15.2432C110.667 15.2412 110.802 15.4344 110.799 15.8776C110.787 18.6249 110.802 21.3732 110.786 24.1205C110.783 24.5991 110.846 24.9199 111.434 24.84C111.71 24.8025 111.797 24.9644 111.718 25.2184C111.568 25.7011 111.409 26.1807 111.263 26.6644C111.195 26.8891 111.06 26.9983 110.823 26.9983C109.76 26.9953 108.699 26.9923 107.636 27.0004C107.252 27.0034 107.209 26.7767 107.21 26.4722C107.216 24.9887 107.213 23.5053 107.212 22.0219L107.211 22.0198Z" fill="#142A4F"/>
<path d="M82.6345 15.3241C84.8758 15.3241 87.1172 15.3241 89.3585 15.3241C90.0426 15.3241 90.0537 15.3383 90.0567 16.0416C90.0577 16.3613 90.0466 16.6821 90.0577 17.0018C90.0689 17.3459 89.9161 17.4896 89.5741 17.4825C89.0013 17.4714 88.4276 17.4936 87.8549 17.4764C87.4997 17.4663 87.3337 17.5705 87.3398 17.9611C87.357 19.1916 87.354 20.421 87.3418 21.6515C87.3388 21.9824 87.4653 22.0998 87.7901 22.0907C88.3456 22.0745 88.9022 22.0947 89.4587 22.0856C89.8098 22.0795 89.8776 22.2121 89.7127 22.5086C89.483 22.9204 89.2553 23.3333 89.0367 23.7522C88.9113 23.993 88.721 24.073 88.46 24.0719C87.0271 24.0669 85.5953 24.0608 84.1625 24.076C83.7617 24.08 83.6373 23.9192 83.6403 23.5346C83.6525 21.7142 83.6312 19.8948 83.6545 18.0745C83.6606 17.6019 83.5037 17.4592 83.0453 17.4744C81.3302 17.5311 81.7572 17.2052 81.2786 18.7929C80.802 20.3725 80.3456 21.9591 79.9095 23.5508C79.7992 23.9536 79.6059 24.0871 79.2001 24.078C78.1893 24.0547 77.1784 24.0608 76.1675 24.076C75.8265 24.0811 75.6352 23.9596 75.5442 23.6287C75.441 23.2553 75.3094 22.8901 75.1819 22.5248C75.0807 22.2333 75.1364 22.0977 75.4835 22.0826C76.4346 22.0401 76.4316 22.0269 76.6987 21.1132C76.9922 20.1114 77.2887 19.1096 77.5841 18.1089C77.7069 17.6926 77.5602 17.4838 77.144 17.4825C76.6552 17.4805 76.1665 17.4673 75.6777 17.4855C75.2801 17.5007 75.1424 17.3287 75.1516 16.9432C75.1951 14.9983 74.8632 15.3494 76.721 15.3292C78.6922 15.3079 80.6643 15.3241 82.6365 15.3241H82.6345Z" fill="#142A4F"/>
<path d="M122.782 21.704C123.757 21.704 124.612 21.704 125.468 21.704C126.277 21.704 127.086 21.706 127.895 21.704C128.487 21.702 128.495 21.6888 128.292 21.1505C128.072 20.5667 127.863 19.9798 127.627 19.403C127.477 19.0367 127.543 18.8717 127.968 18.8778C128.844 18.891 129.722 18.8879 130.598 18.8798C130.893 18.8768 131.055 19.0023 131.163 19.2765C131.662 20.5646 132.167 21.8518 132.694 23.1288C132.869 23.5538 132.743 23.6661 132.322 23.658C131.463 23.6418 130.602 23.6408 129.743 23.658C129.387 23.6651 129.178 23.5457 129.068 23.1986C128.953 22.8353 128.793 22.4862 128.593 21.9803C128.404 22.4892 128.252 22.8556 128.133 23.231C128.037 23.5335 127.859 23.657 127.54 23.656C124.657 23.6489 121.774 23.6489 118.891 23.6549C118.554 23.6549 118.409 23.5224 118.389 23.1814C118.344 22.3587 118.429 21.6018 118.94 20.8854C119.595 19.9686 120.137 18.9709 120.747 18.0207C120.975 17.6666 120.904 17.5613 120.497 17.5694C119.756 17.5836 119.014 17.5644 118.272 17.5755C117.914 17.5806 117.75 17.449 117.757 17.0726C117.796 15.154 117.495 15.5203 119.27 15.5122C123.603 15.492 127.936 15.5052 132.269 15.5062C132.961 15.5062 132.972 15.5112 132.966 16.2165C132.953 17.7455 133.16 17.5664 131.63 17.5725C129.709 17.5805 127.786 17.5826 125.864 17.5674C125.483 17.5644 125.243 17.6858 125.045 18.0167C124.328 19.2158 123.587 20.3997 122.782 21.706V21.704Z" fill="#142A4F"/>
<path d="M74.2944 24.8105C74.2944 25.4045 74.2812 25.8427 74.2984 26.2798C74.3116 26.6188 74.1861 26.7797 73.837 26.7777C72.4891 26.7726 71.1403 26.7716 69.7924 26.7777C69.4454 26.7797 69.3067 26.6178 69.3128 26.2849C69.3199 25.9307 69.326 25.5766 69.3098 25.2234C69.2895 24.7994 69.4494 24.5758 69.8967 24.6355C70.3652 24.6982 70.4998 24.4989 70.4957 24.0365C70.4745 21.7779 70.4755 19.5194 70.4957 17.2618C70.4998 16.8186 70.3682 16.6274 69.923 16.6962C69.4555 16.768 69.2804 16.5565 69.3098 16.1002C69.333 15.7308 69.3199 15.3585 69.3179 14.9881C69.3158 14.7017 69.4403 14.5469 69.7398 14.5469C71.1221 14.5479 72.5033 14.5489 73.8855 14.5459C74.3166 14.5449 74.2994 14.8363 74.2984 15.1368C74.2964 18.0359 74.2974 20.935 74.2974 23.8331C74.2974 24.3667 74.5608 24.6338 75.0877 24.6345C79.9417 24.6345 84.7958 24.6345 89.6498 24.6345C89.8016 24.6345 89.9534 24.6375 90.1052 24.6375C90.43 24.6375 90.4948 24.7822 90.3278 25.0463C90.0131 25.5452 89.6954 26.042 89.3797 26.5399C89.2016 26.8212 88.9172 26.7756 88.6521 26.7767C86.2418 26.7787 83.8314 26.7787 81.4221 26.7787C79.6695 26.7787 77.9159 26.7686 76.1633 26.7858C75.7464 26.7898 75.4682 26.6674 75.2577 26.296C74.9926 25.8295 74.6768 25.3914 74.2974 24.8105H74.2944Z" fill="#142A4F"/>
<path d="M116.999 25.0464C116.999 25.4957 116.991 25.945 117.002 26.3942C117.011 26.6927 116.891 26.8192 116.587 26.8182C115.204 26.8111 113.823 26.8101 112.441 26.8182C112.134 26.8202 112.013 26.6806 112.013 26.3942C112.013 26.1757 112.009 25.9561 112.009 25.7375C112.009 24.846 112.007 24.8319 112.868 24.7297C113.228 24.6872 113.189 24.4514 113.19 24.2187C113.192 22.5673 113.191 20.9158 113.191 19.2634C113.191 18.6057 113.176 17.948 113.196 17.2923C113.207 16.931 113.098 16.7792 112.711 16.7823C112.014 16.7883 112.004 16.7671 112.01 16.082C112.025 14.3942 111.799 14.6502 113.451 14.631C114.411 14.6198 115.372 14.6269 116.333 14.631C116.991 14.633 116.999 14.6441 117 15.3201C117 18.2525 117.012 21.185 116.99 24.1175C116.986 24.6143 117.147 24.7388 117.625 24.7368C122.613 24.7216 127.602 24.7266 132.591 24.7297C132.771 24.7297 133.017 24.6447 133.115 24.8066C133.234 25.0049 132.985 25.1577 132.91 25.3368C132.406 26.5349 131.562 26.8961 130.229 26.8567C126.423 26.7433 122.612 26.8111 118.804 26.8243C118.404 26.8253 118.142 26.715 117.941 26.3619C117.68 25.9004 117.374 25.4653 117.086 25.0191C117.057 25.0282 117.029 25.0373 116.999 25.0464Z" fill="#142A4F"/>
<path d="M55.7918 17.2766C55.6258 17.6914 55.6906 18.0193 55.636 18.333C55.5864 18.6204 55.473 18.7893 55.1492 18.7883C52.9241 18.7823 50.6989 18.7843 48.4738 18.7863C48.1631 18.7863 48.0356 18.6619 48.0164 18.334C47.9567 17.3221 48.0336 16.3669 48.6954 15.5179C49.0445 15.0696 49.2873 14.5384 49.5767 14.0436C49.857 13.566 49.852 13.5568 49.3207 13.5518C49.0506 13.5488 48.7804 13.5386 48.5122 13.5528C48.1571 13.572 48.0336 13.402 48.0387 13.0671C48.065 11.2214 47.812 11.5776 49.4573 11.5644C52.2724 11.5432 55.0875 11.5584 57.9026 11.5584C58.6119 11.5584 58.6119 11.5604 58.615 12.2384C58.619 13.1126 58.1853 13.5498 57.3137 13.5498C56.3868 13.5498 55.4589 13.5558 54.532 13.5467C54.2527 13.5437 54.0564 13.6236 53.9097 13.8786C53.4543 14.6669 52.9868 15.4471 52.5112 16.2232C52.3321 16.5166 52.3665 16.6452 52.7349 16.6421C53.5606 16.634 54.3873 16.633 55.213 16.6421C55.5641 16.6462 55.6562 16.4893 55.5813 16.1665C55.4791 15.7233 55.4002 15.275 55.3 14.8318C55.2353 14.5455 55.3375 14.419 55.6279 14.42C56.3362 14.423 57.0435 14.424 57.7518 14.421C58.0402 14.421 58.1637 14.5687 58.2173 14.843C58.4419 15.9996 58.6727 17.1562 58.9216 18.3077C59.0035 18.6882 58.8578 18.7924 58.5107 18.7873C57.8874 18.7772 57.2631 18.7701 56.6398 18.7904C56.2441 18.8025 56.0508 18.6457 56.0023 18.252C55.9658 17.9535 55.8768 17.6621 55.7908 17.2745L55.7918 17.2766Z" fill="#142A4F"/>
<path d="M53.359 26.9097C51.7744 26.9097 50.1898 26.8945 48.6051 26.9188C48.1316 26.9259 47.9717 26.7589 48.0091 26.3046C48.0375 25.9696 48.0284 25.6296 48.0122 25.2937C47.995 24.9456 48.1387 24.811 48.4857 24.8181C49.2275 24.8323 49.9692 24.81 50.7109 24.8252C51.0549 24.8323 51.2017 24.7088 51.1946 24.3567C51.1531 22.3896 51.486 22.7832 49.6788 22.7508C48.42 22.7285 48.42 22.7468 48.42 21.4849C48.42 21.3503 48.4311 21.2147 48.419 21.0802C48.3866 20.724 48.5657 20.5985 48.8976 20.6025C49.4875 20.6086 50.0785 20.5874 50.6674 20.6066C51.064 20.6187 51.1966 20.4548 51.1996 20.0673C51.2057 19.2537 51.2219 19.2527 52.0425 19.2527C52.9866 19.2527 53.9307 19.2689 54.8738 19.2456C55.2897 19.2355 55.4385 19.3832 55.4425 19.7971C55.4486 20.6005 55.4668 20.6005 56.251 20.6015C56.757 20.6015 57.2629 20.6086 57.7678 20.6015C58.1149 20.5965 58.3092 20.7199 58.294 21.1014C58.2788 21.489 58.2819 21.8765 58.294 22.2641C58.3041 22.6061 58.1584 22.7528 57.8134 22.7467C57.19 22.7356 56.5657 22.7579 55.9424 22.7407C55.573 22.7306 55.4172 22.8722 55.4344 23.2426C55.4516 23.6129 55.4496 23.9843 55.4344 24.3546C55.4213 24.7058 55.5771 24.8292 55.9201 24.8221C56.678 24.807 57.4369 24.8312 58.1959 24.813C58.5713 24.8039 58.714 24.9598 58.6998 25.322C58.6856 25.6752 58.6826 26.0303 58.6998 26.3835C58.72 26.7771 58.5561 26.9147 58.1635 26.9117C56.5627 26.8965 54.9608 26.9056 53.359 26.9056V26.9097Z" fill="#142A4F"/>
<path d="M82.6652 13.7607C80.5929 13.7607 78.5205 13.7505 76.4482 13.7688C75.9959 13.7728 75.8329 13.6453 75.836 13.1717C75.8441 11.665 75.8269 11.665 77.3538 11.665C81.1616 11.665 84.9693 11.665 88.7771 11.665C89.2878 11.665 89.5444 11.9126 89.5471 12.4078C89.5512 13.309 89.1107 13.7597 88.2256 13.7597C86.3718 13.7597 84.519 13.7597 82.6652 13.7597V13.7607Z" fill="#142A4F"/>
<path d="M125.339 13.7526C123.367 13.7526 121.393 13.7394 119.421 13.7617C118.93 13.7678 118.737 13.6453 118.744 13.1161C118.765 11.665 118.742 11.665 120.175 11.665C123.868 11.665 127.559 11.665 131.251 11.665C131.964 11.665 131.964 11.6671 131.968 12.3531C131.973 13.2861 131.516 13.7526 130.598 13.7526C128.844 13.7526 127.091 13.7526 125.338 13.7526H125.339Z" fill="#142A4F"/>
<path d="M106.304 14.2586C104.688 14.2586 103.071 14.2464 101.455 14.2667C101.005 14.2717 100.835 14.1412 100.836 13.6666C100.84 12.2125 100.823 12.2125 102.267 12.2125C102.805 12.2125 103.344 12.2004 103.883 12.2155C104.242 12.2257 104.428 12.1022 104.391 11.7217C104.356 11.3726 104.524 11.2472 104.867 11.2522C105.81 11.2654 106.753 11.2664 107.696 11.2512C108.055 11.2451 108.243 11.3564 108.201 11.7389C108.156 12.1356 108.379 12.2216 108.722 12.2166C109.546 12.2054 110.372 12.2267 111.197 12.2085C111.619 12.1994 111.829 12.339 111.8 12.7873C111.779 13.106 111.784 13.4278 111.798 13.7465C111.816 14.1412 111.641 14.2697 111.253 14.2667C109.604 14.2515 107.954 14.2606 106.303 14.2606L106.304 14.2586Z" fill="#142A4F"/>
<path d="M114.853 14.3672C114.365 14.3672 113.877 14.3581 113.39 14.3702C113.113 14.3773 112.955 14.2801 112.886 13.9978C112.696 13.2146 112.493 12.4344 112.285 11.6553C112.197 11.3254 112.251 11.1504 112.65 11.1574C113.607 11.1746 114.565 11.1686 115.523 11.1595C115.805 11.1564 115.962 11.2617 116.023 11.5389C116.093 11.8496 116.196 12.1541 116.263 12.4648C116.318 12.7188 116.417 12.9009 116.707 12.9262C116.985 12.9505 117.016 13.1377 116.964 13.3644C116.942 13.4625 116.905 13.5597 116.898 13.6588C116.858 14.2194 116.581 14.4461 116.01 14.3753C115.63 14.3287 115.238 14.3661 114.852 14.3661L114.853 14.3672Z" fill="#142A4F"/>
<path d="M72.1349 14.2674C71.6471 14.2674 71.1584 14.2593 70.6706 14.2704C70.3944 14.2765 70.2366 14.1834 70.1698 13.8971C69.9866 13.1108 69.7873 12.3296 69.5859 11.5474C69.4969 11.2014 69.598 11.0557 69.9755 11.0627C70.9176 11.0799 71.8596 11.0739 72.8017 11.0658C73.079 11.0638 73.2409 11.1599 73.3036 11.4432C73.3724 11.7549 73.4868 12.0554 73.5586 12.3671C73.6264 12.6656 73.7023 12.9287 74.0939 12.8943C74.1485 12.8892 74.2538 12.9398 74.2598 12.9762C74.3226 13.3567 74.1475 13.6977 74.0564 14.0509C73.9967 14.2826 73.7842 14.2664 73.5981 14.2664C73.1103 14.2684 72.6226 14.2664 72.1338 14.2664L72.1349 14.2674Z" fill="#142A4F"/>
<path d="M95.93 24.3833C95.2695 24.3833 94.8934 24.0622 94.8017 23.42C94.7319 22.9222 94.6772 22.4213 94.5993 21.9244C94.5437 21.5683 94.6418 21.4043 95.0365 21.3861C96.6626 21.3122 96.6605 21.3021 96.872 22.8837C96.9145 23.1994 96.9499 23.5182 97.0228 23.8278C97.124 24.2609 96.9621 24.4228 96.5351 24.3874C96.3347 24.3702 96.1323 24.3844 95.931 24.3844L95.93 24.3833Z" fill="#142A4F"/>
<path d="M95.6517 14.6156C96.8012 14.6136 96.6656 14.566 96.7992 15.5729C96.87 16.1051 96.949 16.6364 97.038 17.1656C97.0947 17.5025 96.9915 17.6887 96.6262 17.6766C96.609 17.6766 96.5928 17.6766 96.5756 17.6776C95.5178 17.7336 94.9097 17.2354 94.7511 16.183C94.7036 15.8683 94.6621 15.5516 94.6156 15.2369C94.5346 14.6945 94.5913 14.6257 95.1478 14.6156C95.3158 14.6126 95.4838 14.6156 95.6517 14.6156Z" fill="#142A4F"/>
<path d="M30.4537 29.7165C30.4333 29.7889 30.373 29.7859 30.3292 29.7999C29.5108 30.0583 28.6713 30.2058 27.8163 30.2707C25.9947 30.4088 24.2055 30.1692 22.4269 29.807C22.3669 29.795 22.2948 29.7493 22.2492 29.8025C22.2031 29.8565 22.2605 29.9206 22.2831 29.9761C23.0445 31.8335 24.2795 33.3054 25.9211 34.4468C26.3033 34.7124 26.698 34.9588 27.1002 35.1927C27.1417 35.2169 27.1919 35.2335 27.2198 35.321C26.8938 35.2685 26.5871 35.2248 26.2826 35.1693C24.5334 34.8501 22.8272 34.3834 21.2025 33.6491C18.8104 32.5678 16.811 31.017 15.4048 28.7645C14.5012 27.3168 13.939 25.7381 13.6205 24.0682C13.3609 22.7054 13.2613 21.3282 13.2885 19.9431C13.3202 18.3328 13.4972 16.7356 13.7737 15.149C13.779 15.1185 13.7832 15.0864 13.8322 15.0664C13.8824 15.1358 13.885 15.2237 13.9031 15.3037C14.3793 17.4023 15.1732 19.3673 16.3753 21.1592C17.8856 23.4109 19.8695 25.1511 22.1945 26.518C24.71 27.9971 27.4292 28.9536 30.2507 29.6463C30.3201 29.6633 30.3967 29.6663 30.4526 29.7172L30.4537 29.7165Z" fill="url(#paint1_linear_1770_322730)"/>
<path d="M44.6309 4.64842C43.4247 3.6346 42.1569 2.70944 40.7718 1.95181C39.0789 1.0259 37.2859 0.396927 35.3699 0.136585C34.9787 0.0833848 34.5855 0.0448995 34.1931 0H32.0047C31.9617 0.00830075 31.9191 0.0218838 31.8761 0.0245249C31.1162 0.0671606 30.3638 0.173938 29.6164 0.312033C27.5921 0.685566 25.6494 1.32586 23.7549 2.11971C23.578 2.19366 23.4184 2.20951 23.2301 2.16197C21.2689 1.66958 19.2782 1.3617 17.257 1.28397C15.7341 1.22549 14.2177 1.31491 12.7119 1.56469C9.11958 2.16046 5.92832 3.63799 3.10304 5.92296C2.94344 6.052 2.94344 6.05615 3.12832 6.15576C4.98694 7.15864 6.91233 8.00192 8.94639 8.5841C10.5416 9.04065 12.1663 9.3191 13.8272 9.364C14.4932 9.38211 15.1595 9.37154 15.8232 9.29608C16.0435 9.27118 16.265 9.2542 16.5016 9.23194C16.3559 9.59642 16.2107 9.93675 16.0828 10.2835C15.4972 11.872 15.2029 13.5057 15.3614 15.2024C15.5157 16.855 16.0696 18.3718 16.9585 19.7682C18.0168 21.4306 19.4076 22.7739 20.9832 23.9375C21.0251 23.9684 21.0621 24.0186 21.1281 24.0076C21.1311 23.9454 21.0806 23.9205 21.0485 23.8865C20.4856 23.29 19.9868 22.6448 19.5525 21.9487C18.5805 20.3908 18.0478 18.6914 17.9486 16.8615C17.8701 15.4183 18.0655 14.0026 18.4557 12.6126C18.9635 10.8015 19.7593 9.11837 20.7244 7.51067C20.7557 7.4586 20.8248 7.39861 20.7916 7.34465C20.7455 7.26957 20.664 7.33296 20.6037 7.34805C19.2816 7.67668 17.9357 7.84836 16.5786 7.9042C14.7535 7.97928 12.9353 7.89741 11.137 7.53632C9.71157 7.25033 8.3378 6.81869 7.05835 6.11576C6.88139 6.01842 6.88139 6.0154 7.0459 5.9056C7.97973 5.28494 8.95696 4.74237 9.97946 4.28092C12.9598 2.93545 16.079 2.46193 19.3242 2.81094C21.1949 3.01204 23.0071 3.47273 24.7733 4.11491C24.9483 4.17867 25.0861 4.16999 25.2513 4.0851C27.5393 2.90828 29.9669 2.21856 32.5352 2.05783C33.6143 1.99029 34.6953 2.02463 35.7691 2.19404C37.9858 2.54342 39.9889 3.36369 41.6842 4.86235C42.1109 5.23966 42.0969 5.11024 41.7751 5.58301C41.171 6.46892 40.3742 7.16355 39.489 7.75101C36.8109 9.5285 33.8494 10.5416 30.6755 10.9619C30.5114 10.9838 30.4529 11.0543 30.4099 11.1951C30.1088 12.1802 29.7058 13.1197 29.1282 13.9766C28.8139 14.4429 28.4569 14.8712 27.9664 15.17C27.8412 15.2462 27.7608 15.2251 27.6812 15.1138C27.5284 14.9002 27.4374 14.6606 27.3778 14.4082C27.2344 13.7992 27.1963 13.1793 27.1835 12.5568C27.1816 12.467 27.1975 12.3734 27.1613 12.2794C27.0733 12.3232 27.0816 12.4028 27.065 12.464C27.0096 12.67 26.9594 12.8779 26.9145 13.0865C26.6285 14.4176 26.5591 15.7495 26.9103 17.0814C26.9783 17.3388 26.982 17.3399 27.2243 17.2463C28.5018 16.7532 29.4987 15.9027 30.3087 14.8176C30.8532 14.0883 31.2845 13.294 31.6399 12.4575C31.684 12.3534 31.7187 12.253 31.8629 12.2349C32.3115 12.1787 32.7601 12.1198 33.2053 12.044C35.3499 11.6784 37.4146 11.0702 39.3354 10.0224C41.5747 8.80106 43.3307 7.0779 44.6683 4.91555C44.7366 4.80538 44.7388 4.73897 44.6313 4.64842H44.6309Z" fill="url(#paint2_linear_1770_322730)"/>
<path d="M37.8588 5.1821C37.86 4.70594 37.4634 4.30335 36.9857 4.29505C36.5111 4.28675 36.1077 4.68745 36.1055 5.16851C36.1036 5.65788 36.4858 6.04613 36.9725 6.04839C37.4566 6.05103 37.8577 5.65901 37.8588 5.18247V5.1821Z" fill="#009DDC"/>
<defs>
<radialGradient id="paint0_radial_1770_322730" cx="0" cy="0" r="1" gradientUnits="userSpaceOnUse" gradientTransform="translate(23.8508 38.117) scale(16.9113 1.3529)">
<stop stop-color="#142A4F" stop-opacity="0.48"/>
<stop offset="1" stop-color="#142A4F" stop-opacity="0"/>
</radialGradient>
<linearGradient id="paint1_linear_1770_322730" x1="14.3269" y1="14.1941" x2="25.3884" y2="33.5518" gradientUnits="userSpaceOnUse">
<stop stop-color="#1950A0"/>
<stop offset="0.19" stop-color="#1854A3"/>
<stop offset="0.39" stop-color="#1760AC"/>
<stop offset="0.59" stop-color="#1575BB"/>
<stop offset="0.79" stop-color="#1292D0"/>
<stop offset="1" stop-color="#0FB8EC"/>
</linearGradient>
<linearGradient id="paint2_linear_1770_322730" x1="2.98608" y1="12.0044" x2="44.7158" y2="12.0044" gradientUnits="userSpaceOnUse">
<stop stop-color="#1950A0"/>
<stop offset="1" stop-color="#0FB8EC"/>
</linearGradient>
</defs>
</svg>
