<svg width="101" height="24" viewBox="0 0 101 24" fill="none" xmlns="http://www.w3.org/2000/svg">
<g id="Logo">
<path id="Vector" d="M1.58594 4.69402H10.9654V7.50202H4.62794V10.076H10.6144V12.884H4.62794V15.692H11.3164V18.5H1.58594V4.69402ZM17.6321 14.8145H12.8351V12.4745H17.6321V14.8145ZM26.3466 8.06752C26.0996 7.75552 25.7616 7.52802 25.3326 7.38502C24.9166 7.22902 24.5201 7.15102 24.1431 7.15102C23.9221 7.15102 23.6946 7.17702 23.4606 7.22902C23.2266 7.28102 23.0056 7.36552 22.7976 7.48252C22.5896 7.58652 22.4206 7.72952 22.2906 7.91152C22.1606 8.09352 22.0956 8.31452 22.0956 8.57452C22.0956 8.99052 22.2516 9.30902 22.5636 9.53002C22.8756 9.75102 23.2656 9.93952 23.7336 10.0955C24.2146 10.2515 24.7281 10.4075 25.2741 10.5635C25.8201 10.7195 26.3271 10.9405 26.7951 11.2265C27.2761 11.5125 27.6726 11.896 27.9846 12.377C28.2966 12.858 28.4526 13.5015 28.4526 14.3075C28.4526 15.0745 28.3096 15.744 28.0236 16.316C27.7376 16.888 27.3476 17.3625 26.8536 17.7395C26.3726 18.1165 25.8071 18.396 25.1571 18.578C24.5201 18.76 23.8441 18.851 23.1291 18.851C22.2321 18.851 21.4001 18.7145 20.6331 18.4415C19.8661 18.1685 19.1511 17.7265 18.4881 17.1155L20.6526 14.7365C20.9646 15.1525 21.3546 15.4775 21.8226 15.7115C22.3036 15.9325 22.7976 16.043 23.3046 16.043C23.5516 16.043 23.7986 16.017 24.0456 15.965C24.3056 15.9 24.5331 15.809 24.7281 15.692C24.9361 15.575 25.0986 15.4255 25.2156 15.2435C25.3456 15.0615 25.4106 14.847 25.4106 14.6C25.4106 14.184 25.2481 13.859 24.9231 13.625C24.6111 13.378 24.2146 13.17 23.7336 13.001C23.2526 12.832 22.7326 12.663 22.1736 12.494C21.6146 12.325 21.0946 12.0975 20.6136 11.8115C20.1326 11.5255 19.7296 11.1485 19.4046 10.6805C19.0926 10.2125 18.9366 9.59502 18.9366 8.82802C18.9366 8.08702 19.0796 7.43702 19.3656 6.87802C19.6646 6.31902 20.0546 5.85102 20.5356 5.47402C21.0296 5.09702 21.5951 4.81752 22.2321 4.63552C22.8691 4.44052 23.5256 4.34302 24.2016 4.34302C24.9816 4.34302 25.7356 4.45352 26.4636 4.67452C27.1916 4.89552 27.8481 5.26602 28.4331 5.78602L26.3466 8.06752ZM30.8359 4.69402H40.2154V7.50202H33.8779V10.076H39.8644V12.884H33.8779V15.692H40.5664V18.5H30.8359V4.69402ZM46.0436 10.4075H47.8376C48.1106 10.4075 48.3966 10.401 48.6956 10.388C49.0076 10.362 49.2871 10.3035 49.5341 10.2125C49.7811 10.1085 49.9826 9.95252 50.1386 9.74452C50.3076 9.53652 50.3921 9.24402 50.3921 8.86702C50.3921 8.51602 50.3206 8.23652 50.1776 8.02852C50.0346 7.82052 49.8526 7.66452 49.6316 7.56052C49.4106 7.44352 49.1571 7.36552 48.8711 7.32652C48.5851 7.28752 48.3056 7.26802 48.0326 7.26802H46.0436V10.4075ZM43.0016 4.69402H48.3446C49.0466 4.69402 49.7096 4.76552 50.3336 4.90852C50.9706 5.03852 51.5231 5.26602 51.9911 5.59102C52.4721 5.90302 52.8491 6.33202 53.1221 6.87802C53.4081 7.41102 53.5511 8.08052 53.5511 8.88652C53.5511 9.86152 53.2976 10.6935 52.7906 11.3825C52.2836 12.0585 51.5426 12.4875 50.5676 12.6695L54.0776 18.5H50.4311L47.5451 12.9815H46.0436V18.5H43.0016V4.69402ZM54.2811 4.69402H57.7521L61.1646 13.742H61.2036L64.6746 4.69402H67.9311L62.2371 18.5H59.7996L54.2811 4.69402ZM69.3371 4.69402H72.3791V18.5H69.3371V4.69402ZM84.1746 8.28202C83.8756 7.91802 83.5051 7.63852 83.0631 7.44352C82.6341 7.24852 82.1336 7.15102 81.5616 7.15102C80.9896 7.15102 80.4566 7.26152 79.9626 7.48252C79.4816 7.70352 79.0591 8.01552 78.6951 8.41852C78.3441 8.80852 78.0646 9.27652 77.8566 9.82252C77.6616 10.3685 77.5641 10.96 77.5641 11.597C77.5641 12.247 77.6616 12.845 77.8566 13.391C78.0646 13.924 78.3441 14.392 78.6951 14.795C79.0461 15.185 79.4556 15.4905 79.9236 15.7115C80.4046 15.9325 80.9181 16.043 81.4641 16.043C82.0881 16.043 82.6406 15.913 83.1216 15.653C83.6026 15.393 83.9991 15.029 84.3111 14.561L86.8461 16.4525C86.2611 17.2715 85.5201 17.876 84.6231 18.266C83.7261 18.656 82.8031 18.851 81.8541 18.851C80.7751 18.851 79.7806 18.682 78.8706 18.344C77.9606 18.006 77.1741 17.525 76.5111 16.901C75.8481 16.264 75.3281 15.497 74.9511 14.6C74.5871 13.703 74.4051 12.702 74.4051 11.597C74.4051 10.492 74.5871 9.49102 74.9511 8.59402C75.3281 7.69702 75.8481 6.93652 76.5111 6.31252C77.1741 5.67552 77.9606 5.18802 78.8706 4.85002C79.7806 4.51202 80.7751 4.34302 81.8541 4.34302C82.2441 4.34302 82.6471 4.38202 83.0631 4.46002C83.4921 4.52502 83.9081 4.63552 84.3111 4.79152C84.7271 4.94752 85.1236 5.15552 85.5006 5.41552C85.8776 5.67552 86.2156 5.99402 86.5146 6.37102L84.1746 8.28202ZM88.6123 4.69402H97.9918V7.50202H91.6543V10.076H97.6408V12.884H91.6543V15.692H98.3428V18.5H88.6123V4.69402Z" fill="#12083F"/>
</g>
</svg>
