<svg width="136" height="23" viewBox="0 0 136 23" fill="none" xmlns="http://www.w3.org/2000/svg">
<g id="Group 2">
<path id="Vector" d="M8.13609 17.163C9.27397 17.2007 10.4051 16.9759 11.4404 16.5062C12.4757 16.0366 13.3868 15.3349 14.1018 14.4565L12.3441 13.1363C11.8794 13.7983 11.257 14.3363 10.5322 14.7025C9.80745 15.0687 9.00267 15.2517 8.18935 15.2355C7.37486 15.247 6.56732 15.0856 5.82088 14.7623C5.07445 14.4389 4.40639 13.9611 3.86153 13.3607C2.7896 12.1653 2.20561 10.6166 2.22361 9.01721C2.22361 5.28097 4.72709 2.64051 8.18935 2.64051C8.92328 2.63684 9.64871 2.79621 10.3124 3.10692C10.976 3.41763 11.5611 3.87178 12.0245 4.43602L13.7689 3.1158C13.0983 2.31755 12.2537 1.68061 11.2987 1.25296C10.3438 0.825316 9.30338 0.618115 8.25594 0.646973C7.14639 0.610316 6.04132 0.803303 5.01119 1.21363C3.98107 1.62395 3.04849 2.24261 2.27294 3.03014C1.4974 3.81767 0.895897 4.7568 0.506805 5.78763C0.117712 6.81846 -0.050433 7.91836 0.0130918 9.01721C0.0060767 10.0811 0.210717 11.1359 0.615305 12.1213C1.01989 13.1067 1.61649 14.0034 2.37095 14.76C3.12542 15.5166 4.02295 16.1182 5.0122 16.5306C6.00144 16.9429 7.06298 17.1578 8.13609 17.163Z" fill="#12083F"/>
<path id="Vector_2" d="M25.6337 6.25781H23.543L20.5335 14.5224H20.427L17.271 6.25781H15.0205L19.4282 16.8196L18.7757 18.4831C18.3762 19.5129 17.9901 20.2522 16.6717 20.2522C16.2656 20.2434 15.8643 20.1629 15.4866 20.0146L15.2602 21.7573C15.8193 21.956 16.4109 22.05 17.0046 22.0345C19.2418 22.0345 19.9076 20.7803 20.6001 18.998L25.6337 6.25781Z" fill="#12083F"/>
<path id="Vector_3" d="M32.9844 7.77613C33.4708 7.76133 33.9549 7.84875 34.4049 8.03267C34.8548 8.21658 35.2604 8.49282 35.5949 8.84322C35.9295 9.19362 36.1855 9.61026 36.346 10.0657C36.5066 10.5212 36.5681 11.0052 36.5266 11.486C36.5266 12.4174 36.1534 13.3106 35.4891 13.9692C34.8248 14.6278 33.9238 14.9978 32.9844 14.9978C32.045 14.9978 31.144 14.6278 30.4797 13.9692C29.8154 13.3106 29.4422 12.4174 29.4422 11.486C29.4007 11.0052 29.4622 10.5212 29.6228 10.0657C29.7833 9.61026 30.0393 9.19362 30.3739 8.84322C30.7084 8.49282 31.114 8.21658 31.5639 8.03267C32.0139 7.84875 32.498 7.76133 32.9844 7.77613ZM29.5621 15.2354C29.9927 15.7936 30.5497 16.2434 31.1883 16.5485C31.8268 16.8535 32.5288 17.0052 33.2374 16.9913C33.9608 17.0074 34.6796 16.8743 35.3483 16.6003C36.017 16.3263 36.6209 15.9176 37.1218 15.3999C37.6226 14.8822 38.0095 14.267 38.2577 13.5932C38.506 12.9194 38.6103 12.2018 38.564 11.486C38.6084 10.7712 38.5027 10.055 38.2535 9.38283C38.0044 8.71063 37.6172 8.09701 37.1166 7.58079C36.6159 7.06457 36.0126 6.65698 35.3449 6.38382C34.6772 6.11065 33.9596 5.97786 33.2374 5.99382C32.5274 5.97122 31.8224 6.11908 31.1825 6.42481C30.5426 6.73054 29.9866 7.18508 29.5621 7.74972H29.4556V0H27.498V16.7273H29.4422V15.209H29.5488L29.5621 15.2354Z" fill="#12083F"/>
<path id="Vector_4" d="M42.6652 10.6274C42.713 9.78217 43.0866 8.98747 43.7087 8.40758C44.3307 7.82769 45.1538 7.50695 46.0076 7.51166C46.4279 7.47977 46.8502 7.5386 47.2454 7.68409C47.6406 7.82958 47.9992 8.05827 48.2967 8.35442C48.5941 8.65056 48.8233 9.00712 48.9683 9.39951C49.1134 9.79191 49.1709 10.2108 49.137 10.6274H42.6652ZM49.2169 13.7695C48.8879 14.2407 48.4508 14.6276 47.9414 14.8985C47.4321 15.1693 46.8652 15.3163 46.2873 15.3274C45.8439 15.3598 45.3985 15.3052 44.9764 15.1667C44.5543 15.0283 44.1639 14.8087 43.8275 14.5206C43.4911 14.2324 43.2153 13.8814 43.0159 13.4874C42.8164 13.0935 42.6973 12.6645 42.6652 12.2249H51.1877V11.5516C51.1877 9.00352 49.8561 6.03301 46.0476 6.03301C45.3187 6.01435 44.5937 6.14426 43.9174 6.4147C43.2412 6.68514 42.6282 7.09034 42.1164 7.60521C41.6046 8.12009 41.2048 8.73366 40.9419 9.40794C40.6789 10.0822 40.5585 10.8028 40.5879 11.5251C40.5568 12.2463 40.6751 12.9661 40.9356 13.6401C41.196 14.3141 41.5931 14.928 42.1023 15.4439C42.6114 15.9599 43.2218 16.3668 43.8958 16.6397C44.5698 16.9126 45.2931 17.0456 46.021 17.0305C46.9123 17.0788 47.8021 16.9118 48.6139 16.5439C49.4258 16.1759 50.1354 15.618 50.6817 14.9181L49.2169 13.7695Z" fill="#12083F"/>
<path id="Vector_5" d="M58.725 8.05387C59.0498 8.0588 59.3723 8.10766 59.6838 8.19909L59.7903 6.11314C59.5139 6.03118 59.2266 5.99112 58.9381 5.99432C58.2864 5.99919 57.6485 6.18155 57.0943 6.52149C56.5401 6.86143 56.0907 7.34586 55.7954 7.92185H55.6889V6.25836H53.6914V16.7278H55.6356V11.4469C55.6356 9.17606 56.6743 8.02747 58.725 8.02747" fill="#12083F"/>
<path id="Vector_6" d="M62.5205 1.05664V16.7277H71.8952V14.8002H64.5979V1.05664H62.5205Z" fill="#12083F"/>
<path id="Vector_7" d="M78.7526 15.1963C78.2661 15.2111 77.782 15.1236 77.3321 14.9397C76.8822 14.7558 76.4766 14.4796 76.1421 14.1292C75.8075 13.7788 75.5515 13.3621 75.3909 12.9066C75.2304 12.4512 75.1689 11.9672 75.2104 11.4864C75.1808 11.008 75.2503 10.5287 75.4145 10.0779C75.5788 9.6271 75.8344 9.21443 76.1656 8.86528C76.4968 8.51613 76.8966 8.23789 77.3404 8.0477C77.7842 7.85751 78.2625 7.7594 78.7459 7.7594C79.2294 7.7594 79.7077 7.85751 80.1515 8.0477C80.5952 8.23789 80.995 8.51613 81.3262 8.86528C81.6574 9.21443 81.913 9.6271 82.0773 10.0779C82.2416 10.5287 82.3111 11.008 82.2814 11.4864C82.3228 11.966 82.2617 12.4489 82.1019 12.9034C81.9421 13.3579 81.6873 13.7739 81.3542 14.1241C81.0211 14.4743 80.6172 14.7508 80.1689 14.9356C79.7205 15.1203 79.2379 15.2092 78.7526 15.1963ZM78.7526 5.95467C77.6561 5.96511 76.5872 6.29717 75.6808 6.90899C74.7744 7.52081 74.071 8.38501 73.6592 9.39262C73.2475 10.4002 73.1459 11.5061 73.3672 12.5709C73.5885 13.6357 74.1229 14.6117 74.9029 15.3758C75.6829 16.1399 76.6736 16.658 77.7502 16.8647C78.8267 17.0714 79.9409 16.9574 80.9522 16.5372C81.9635 16.117 82.8267 15.4093 83.433 14.5034C84.0392 13.5975 84.3614 12.534 84.3588 11.4468C84.3606 10.7195 84.2164 9.99907 83.9345 9.32759C83.6526 8.6561 83.2386 8.04699 82.7168 7.53577C82.1949 7.02455 81.5757 6.62146 80.895 6.35C80.2144 6.07854 79.4861 5.94416 78.7526 5.95467Z" fill="#12083F"/>
<path id="Vector_8" d="M92.083 15.0634C91.6042 15.0934 91.1245 15.0209 90.6765 14.8508C90.2285 14.6807 89.8227 14.4169 89.4867 14.0775C89.1507 13.7381 88.8922 13.3309 88.729 12.8837C88.5658 12.4364 88.5016 11.9596 88.5408 11.4856C88.5112 11.0072 88.5806 10.5278 88.7449 10.077C88.9092 9.62626 89.1648 9.21358 89.496 8.86443C89.8272 8.51528 90.227 8.23705 90.6708 8.04686C91.1145 7.85667 91.5929 7.75856 92.0763 7.75856C92.5598 7.75856 93.0381 7.85667 93.4818 8.04686C93.9256 8.23705 94.3254 8.51528 94.6566 8.86443C94.9878 9.21358 95.2434 9.62626 95.4077 10.077C95.572 10.5278 95.6414 11.0072 95.6118 11.4856C95.6508 11.9584 95.5869 12.4341 95.4244 12.8803C95.262 13.3266 95.0048 13.733 94.6702 14.0722C94.3357 14.4114 93.9316 14.6755 93.4852 14.8464C93.0388 15.0174 92.5606 15.0914 92.083 15.0634ZM97.556 6.25748H95.6118V7.77574H95.5186C95.088 7.21755 94.5309 6.76772 93.8924 6.46267C93.2539 6.15762 92.5519 6.00591 91.8433 6.01984C91.1211 6.00387 90.4035 6.13667 89.7357 6.40983C89.068 6.683 88.4648 7.09058 87.9641 7.60681C87.4634 8.12303 87.0763 8.73665 86.8272 9.40885C86.578 10.081 86.4723 10.7972 86.5167 11.512C86.4913 12.2166 86.6109 12.9189 86.8684 13.5762C87.1259 14.2334 87.5157 14.8317 88.0142 15.3346C88.5127 15.8374 89.1093 16.2343 89.7676 16.5009C90.426 16.7675 91.1322 16.8983 91.8433 16.8853C92.5611 16.9187 93.2753 16.7658 93.9152 16.4416C94.5552 16.1175 95.0987 15.6333 95.492 15.037H95.6251V16.6213C95.6699 17.1289 95.5988 17.64 95.4171 18.1166C95.2353 18.5932 94.9477 19.0231 94.5754 19.3745C94.2031 19.7258 93.7558 19.9895 93.2667 20.1459C92.7776 20.3024 92.2592 20.3476 91.75 20.2783C91.0329 20.2827 90.3233 20.1328 89.6704 19.8387C89.0174 19.5447 88.4367 19.1136 87.9682 18.5752L86.6366 20.2123C88.0279 21.4738 89.8662 22.1383 91.75 22.0606C92.4947 22.1219 93.2439 22.0272 93.9492 21.7827C94.6545 21.5382 95.3 21.1493 95.8438 20.6413C96.3876 20.1333 96.8175 19.5175 97.1056 18.834C97.3937 18.1506 97.5336 17.4146 97.516 16.6741L97.556 6.25748Z" fill="#12083F"/>
<path id="Vector_9" d="M102.789 6.25781H100.845V16.7272H102.789V6.25781Z" fill="#12083F"/>
<path id="Vector_10" d="M101.817 1.00391C101.53 1.00391 101.249 1.0883 101.01 1.24643C100.772 1.40455 100.586 1.6293 100.476 1.89225C100.366 2.1552 100.337 2.44455 100.393 2.7237C100.449 3.00284 100.587 3.25926 100.79 3.46051C100.993 3.66177 101.252 3.79882 101.534 3.85435C101.815 3.90987 102.107 3.88138 102.372 3.77246C102.637 3.66354 102.864 3.47909 103.024 3.24244C103.183 3.00579 103.268 2.72757 103.268 2.44295C103.265 2.06236 103.111 1.69833 102.839 1.4292C102.568 1.16007 102.201 1.00735 101.817 1.00391Z" fill="#12083F"/>
<path id="Vector_11" d="M109.993 16.9915C110.587 16.9919 111.176 16.8752 111.724 16.6483V14.9188C111.308 15.1126 110.852 15.2075 110.392 15.196C108.834 15.196 108.834 13.8758 108.834 12.7404V7.92157H111.724V6.25809H108.808V3.30078H106.864V6.25809H104.533V7.92157H106.864V13.4533C106.864 15.1036 106.864 16.9915 109.993 16.9915Z" fill="#12083F"/>
<path id="Vector_12" d="M115.825 10.6274C115.873 9.78217 116.247 8.98747 116.869 8.40758C117.491 7.82769 118.314 7.50695 119.168 7.51166C119.587 7.48178 120.008 7.54209 120.401 7.68848C120.795 7.83487 121.152 8.06386 121.448 8.35978C121.744 8.65569 121.972 9.01154 122.116 9.40293C122.26 9.79433 122.318 10.212 122.284 10.6274H115.825ZM122.377 13.7695C122.049 14.2389 121.614 14.6247 121.108 14.8955C120.601 15.1663 120.036 15.3143 119.461 15.3274C118.564 15.3929 117.678 15.103 116.996 14.5214C116.314 13.9398 115.894 13.1139 115.825 12.2249H124.361V11.5516C124.361 9.00352 123.03 6.03301 119.208 6.03301C118.479 6.01435 117.754 6.14426 117.078 6.4147C116.401 6.68514 115.788 7.09034 115.277 7.60521C114.765 8.12009 114.365 8.73366 114.102 9.40794C113.839 10.0822 113.719 10.8028 113.748 11.5251C113.717 12.2474 113.836 12.9683 114.097 13.6433C114.358 14.3182 114.756 14.9327 115.267 15.4489C115.778 15.965 116.39 16.3717 117.065 16.6437C117.741 16.9158 118.465 17.0474 119.194 17.0305C120.084 17.0789 120.972 16.9118 121.782 16.5438C122.591 16.1758 123.298 15.6178 123.842 14.9181L122.377 13.7695Z" fill="#12083F"/>
<path id="Vector_13" d="M126.372 11.5388C126.348 12.2636 126.475 12.9856 126.744 13.6598C127.014 14.3339 127.42 14.9459 127.939 15.4574C128.457 15.969 129.076 16.3692 129.758 16.6331C130.439 16.897 131.168 17.0189 131.899 16.9913C132.64 17.0282 133.381 16.9058 134.071 16.6323C134.76 16.3589 135.382 15.9409 135.894 15.4071L134.562 14.0868C134.255 14.4659 133.862 14.7684 133.416 14.9701C132.97 15.1719 132.482 15.2672 131.992 15.2486C131.519 15.253 131.051 15.1611 130.616 14.9787C130.181 14.7962 129.788 14.527 129.462 14.1878C129.136 13.8486 128.884 13.4467 128.721 13.0069C128.559 12.5671 128.489 12.0989 128.516 11.6312C128.428 10.9074 128.577 10.1746 128.94 9.54065C129.303 8.90671 129.862 8.40508 130.534 8.10951C131.207 7.81394 131.957 7.74004 132.675 7.89867C133.393 8.0573 134.04 8.44009 134.522 8.99076L136 7.67053C135.483 7.14116 134.861 6.72273 134.174 6.44113C133.487 6.15954 132.749 6.02078 132.005 6.03345C131.261 5.99023 130.516 6.10239 129.818 6.3627C129.12 6.623 128.485 7.02565 127.954 7.54458C127.423 8.06351 127.008 8.68717 126.736 9.37521C126.463 10.0632 126.339 10.8003 126.372 11.5388Z" fill="#12083F"/>
</g>
</svg>
